<svg width="250" height="250" viewBox="0 0 250 250" fill="none" xmlns="http://www.w3.org/2000/svg">
<g clip-path="url(#clip0_5_108)">
<path fill-rule="evenodd" clip-rule="evenodd" d="M105.434 133.149H127.31L115.721 98.592L105.434 133.149Z" fill="#FEFEFE"/>
<path fill-rule="evenodd" clip-rule="evenodd" d="M34.8681 35.5V86.7688L51.9435 91.1121L18.998 164.103L0 168.745V214.071H249.166V168.681L229.506 164.065L196.997 91.1488L214.304 86.7996V35.5H34.8681ZM8.7619 175.623L25.2262 171.602L64.2272 85.1954L43.629 79.9583V44.2609H205.542V79.9683L184.75 85.1954L223.274 171.602L240.406 175.623V205.312H124.583V175.623L137.544 171.647L133.358 158.968H98.371L93.872 171.622L107.925 175.623V205.312H8.7619V175.623Z" fill="#FEFEFE"/>
<path fill-rule="evenodd" clip-rule="evenodd" d="M198.443 196.035L187.207 187.508L176.001 195.626L180.348 182.766L169.767 174.27H182.919L187.207 161.998L191.495 174.27H205.165L194.291 182.896L198.443 196.035ZM152.585 139.108H165.719L170.032 126.828L174.293 139.108H187.98L177.094 147.739L181.261 160.873L170.032 152.356L158.795 160.478L163.163 147.605L152.585 139.108ZM135.834 102.996H148.989L153.282 90.7196L157.557 102.996H171.235L160.344 111.635L164.495 124.765L153.282 116.24L142.052 124.334L146.405 111.485L135.834 102.996ZM123.793 88.7067L128.147 75.8714L117.613 67.3784H130.736L135.04 55.0857L139.307 67.3784H152.998L142.097 75.9974L146.257 89.1423L135.04 80.6165L123.793 88.7067ZM105.433 133.148L115.721 98.5917L127.309 133.148H105.433ZM184.75 85.1958L205.541 79.9677V44.2603H43.6288V79.9577L64.227 85.1958L25.225 171.602L8.76172 175.623V205.312H107.923V175.623L93.8718 171.622L98.3708 158.969H133.359L137.543 171.646L124.583 175.623V205.312H240.406V175.623L223.273 171.602L184.75 85.1958Z" fill="#CF202C"/>
<path fill-rule="evenodd" clip-rule="evenodd" d="M142.097 75.9978L152.998 67.3788H139.308L135.04 55.0851L130.736 67.3788H117.613L128.147 75.8718L123.794 88.7071L135.04 80.6169L146.257 89.1417L142.097 75.9978Z" fill="#FEFEFE"/>
<path fill-rule="evenodd" clip-rule="evenodd" d="M153.281 116.241L164.496 124.766L160.344 111.635L171.236 102.996H157.558L153.281 90.7199L148.99 102.996H135.834L146.404 111.485L142.053 124.334L153.281 116.241Z" fill="#FEFEFE"/>
<path fill-rule="evenodd" clip-rule="evenodd" d="M170.032 152.355L181.26 160.873L177.094 147.74L187.98 139.107H174.294L170.032 126.827L165.718 139.107H152.585L163.163 147.604L158.796 160.478L170.032 152.355Z" fill="#FEFEFE"/>
<path fill-rule="evenodd" clip-rule="evenodd" d="M191.495 174.27L187.208 161.999L182.92 174.27H169.767L180.348 182.766L176.001 195.626L187.208 187.509L198.444 196.035L194.292 182.896L205.166 174.27H191.495Z" fill="#FEFEFE"/>
</g>
<defs>
<clipPath id="clip0_5_108">
<rect width="250" height="250" fill="white"/>
</clipPath>
</defs>
</svg>
