<svg xmlns="http://www.w3.org/2000/svg" xmlns:xlink="http://www.w3.org/1999/xlink" width="500" zoomAndPan="magnify" viewBox="0 0 375 374.999991" height="500" preserveAspectRatio="xMidYMid meet" version="1.0"><defs><g/><clipPath id="7dd48f3f7b"><path d="M 187.5 0 C 83.945312 0 0 83.945312 0 187.5 C 0 291.054688 83.945312 375 187.5 375 C 291.054688 375 375 291.054688 375 187.5 C 375 83.945312 291.054688 0 187.5 0 " clip-rule="nonzero"/></clipPath><clipPath id="f8481e3a0e"><path d="M 51 104 L 321 104 L 321 267 L 51 267 Z M 51 104 " clip-rule="nonzero"/></clipPath><clipPath id="bc20b25181"><path d="M 178.558594 37.5 L 334.023438 178.675781 L 192.847656 334.140625 L 37.382812 192.964844 Z M 178.558594 37.5 " clip-rule="nonzero"/></clipPath><clipPath id="4c4eab1a96"><path d="M 178.558594 37.5 L 334.023438 178.675781 L 192.847656 334.140625 L 37.382812 192.964844 Z M 178.558594 37.5 " clip-rule="nonzero"/></clipPath><clipPath id="06113de4a1"><path d="M 178.566406 37.507812 L 334.199219 178.835938 L 192.871094 334.464844 L 37.242188 193.140625 Z M 178.566406 37.507812 " clip-rule="nonzero"/></clipPath><clipPath id="1b45214262"><path d="M 178.566406 37.507812 L 334.023438 178.675781 L 192.839844 334.148438 L 37.386719 192.984375 Z M 178.566406 37.507812 " clip-rule="nonzero"/></clipPath><clipPath id="4748834fb4"><path d="M 51 128 L 320 128 L 320 188 L 51 188 Z M 51 128 " clip-rule="nonzero"/></clipPath><clipPath id="c70b725b15"><path d="M 178.558594 37.5 L 334.023438 178.675781 L 192.847656 334.140625 L 37.382812 192.964844 Z M 178.558594 37.5 " clip-rule="nonzero"/></clipPath><clipPath id="5805c875f9"><path d="M 178.558594 37.5 L 334.023438 178.675781 L 192.847656 334.140625 L 37.382812 192.964844 Z M 178.558594 37.5 " clip-rule="nonzero"/></clipPath><clipPath id="8a0670e5a8"><path d="M 51 183 L 320 183 L 320 236 L 51 236 Z M 51 183 " clip-rule="nonzero"/></clipPath><clipPath id="07f9986c4e"><path d="M 178.558594 37.5 L 334.023438 178.675781 L 192.847656 334.140625 L 37.382812 192.964844 Z M 178.558594 37.5 " clip-rule="nonzero"/></clipPath><clipPath id="f59feda07f"><path d="M 178.558594 37.5 L 334.023438 178.675781 L 192.847656 334.140625 L 37.382812 192.964844 Z M 178.558594 37.5 " clip-rule="nonzero"/></clipPath><clipPath id="6331849321"><path d="M 266 123 L 305 123 L 305 211 L 266 211 Z M 266 123 " clip-rule="nonzero"/></clipPath><clipPath id="818dd870c1"><path d="M 178.558594 37.5 L 334.023438 178.675781 L 192.847656 334.140625 L 37.382812 192.964844 Z M 178.558594 37.5 " clip-rule="nonzero"/></clipPath><clipPath id="a4831b45ce"><path d="M 178.558594 37.5 L 334.023438 178.675781 L 192.847656 334.140625 L 37.382812 192.964844 Z M 178.558594 37.5 " clip-rule="nonzero"/></clipPath><clipPath id="46cc092078"><path d="M 82 119 L 128 119 L 128 226 L 82 226 Z M 82 119 " clip-rule="nonzero"/></clipPath><clipPath id="3f68e3fcff"><path d="M 178.558594 37.5 L 334.023438 178.675781 L 192.847656 334.140625 L 37.382812 192.964844 Z M 178.558594 37.5 " clip-rule="nonzero"/></clipPath><clipPath id="4585c4bd56"><path d="M 178.558594 37.5 L 334.023438 178.675781 L 192.847656 334.140625 L 37.382812 192.964844 Z M 178.558594 37.5 " clip-rule="nonzero"/></clipPath><clipPath id="73ecab75c6"><path d="M 147 127 L 264 127 L 264 146 L 147 146 Z M 147 127 " clip-rule="nonzero"/></clipPath><clipPath id="9a386300d5"><path d="M 178.558594 37.5 L 334.023438 178.675781 L 192.847656 334.140625 L 37.382812 192.964844 Z M 178.558594 37.5 " clip-rule="nonzero"/></clipPath><clipPath id="d71db62552"><path d="M 178.558594 37.5 L 334.023438 178.675781 L 192.847656 334.140625 L 37.382812 192.964844 Z M 178.558594 37.5 " clip-rule="nonzero"/></clipPath><clipPath id="d61b97c995"><path d="M 247 126 L 259 126 L 259 153 L 247 153 Z M 247 126 " clip-rule="nonzero"/></clipPath><clipPath id="be066a6dde"><path d="M 178.558594 37.5 L 334.023438 178.675781 L 192.847656 334.140625 L 37.382812 192.964844 Z M 178.558594 37.5 " clip-rule="nonzero"/></clipPath><clipPath id="b16f751d6e"><path d="M 178.558594 37.5 L 334.023438 178.675781 L 192.847656 334.140625 L 37.382812 192.964844 Z M 178.558594 37.5 " clip-rule="nonzero"/></clipPath><clipPath id="f4dfcacffe"><path d="M 233 122 L 245 122 L 245 148 L 233 148 Z M 233 122 " clip-rule="nonzero"/></clipPath><clipPath id="71aa5c47c5"><path d="M 178.558594 37.5 L 334.023438 178.675781 L 192.847656 334.140625 L 37.382812 192.964844 Z M 178.558594 37.5 " clip-rule="nonzero"/></clipPath><clipPath id="61a6dc77cd"><path d="M 178.558594 37.5 L 334.023438 178.675781 L 192.847656 334.140625 L 37.382812 192.964844 Z M 178.558594 37.5 " clip-rule="nonzero"/></clipPath><clipPath id="28909cd731"><path d="M 221 120 L 233 120 L 233 147 L 221 147 Z M 221 120 " clip-rule="nonzero"/></clipPath><clipPath id="f71065dbf5"><path d="M 178.558594 37.5 L 334.023438 178.675781 L 192.847656 334.140625 L 37.382812 192.964844 Z M 178.558594 37.5 " clip-rule="nonzero"/></clipPath><clipPath id="b2c705befc"><path d="M 178.558594 37.5 L 334.023438 178.675781 L 192.847656 334.140625 L 37.382812 192.964844 Z M 178.558594 37.5 " clip-rule="nonzero"/></clipPath><clipPath id="178bf85d8e"><path d="M 210 119 L 221 119 L 221 146 L 210 146 Z M 210 119 " clip-rule="nonzero"/></clipPath><clipPath id="61de30ac5b"><path d="M 178.558594 37.5 L 334.023438 178.675781 L 192.847656 334.140625 L 37.382812 192.964844 Z M 178.558594 37.5 " clip-rule="nonzero"/></clipPath><clipPath id="a73362436c"><path d="M 178.558594 37.5 L 334.023438 178.675781 L 192.847656 334.140625 L 37.382812 192.964844 Z M 178.558594 37.5 " clip-rule="nonzero"/></clipPath><clipPath id="d4de0ad276"><path d="M 199 118 L 209 118 L 209 145 L 199 145 Z M 199 118 " clip-rule="nonzero"/></clipPath><clipPath id="469ca306c4"><path d="M 178.558594 37.5 L 334.023438 178.675781 L 192.847656 334.140625 L 37.382812 192.964844 Z M 178.558594 37.5 " clip-rule="nonzero"/></clipPath><clipPath id="e5604e8580"><path d="M 178.558594 37.5 L 334.023438 178.675781 L 192.847656 334.140625 L 37.382812 192.964844 Z M 178.558594 37.5 " clip-rule="nonzero"/></clipPath><clipPath id="99740a1553"><path d="M 187 118 L 198 118 L 198 146 L 187 146 Z M 187 118 " clip-rule="nonzero"/></clipPath><clipPath id="a8b83ec090"><path d="M 178.558594 37.5 L 334.023438 178.675781 L 192.847656 334.140625 L 37.382812 192.964844 Z M 178.558594 37.5 " clip-rule="nonzero"/></clipPath><clipPath id="a3a88c2a14"><path d="M 178.558594 37.5 L 334.023438 178.675781 L 192.847656 334.140625 L 37.382812 192.964844 Z M 178.558594 37.5 " clip-rule="nonzero"/></clipPath><clipPath id="7948e5840f"><path d="M 177 118 L 187 118 L 187 146 L 177 146 Z M 177 118 " clip-rule="nonzero"/></clipPath><clipPath id="25074b92e9"><path d="M 178.558594 37.5 L 334.023438 178.675781 L 192.847656 334.140625 L 37.382812 192.964844 Z M 178.558594 37.5 " clip-rule="nonzero"/></clipPath><clipPath id="541ba767e1"><path d="M 178.558594 37.5 L 334.023438 178.675781 L 192.847656 334.140625 L 37.382812 192.964844 Z M 178.558594 37.5 " clip-rule="nonzero"/></clipPath><clipPath id="a3ccb3b7a6"><path d="M 165 119 L 175 119 L 175 148 L 165 148 Z M 165 119 " clip-rule="nonzero"/></clipPath><clipPath id="5c42810f81"><path d="M 178.558594 37.5 L 334.023438 178.675781 L 192.847656 334.140625 L 37.382812 192.964844 Z M 178.558594 37.5 " clip-rule="nonzero"/></clipPath><clipPath id="45260fd5fc"><path d="M 178.558594 37.5 L 334.023438 178.675781 L 192.847656 334.140625 L 37.382812 192.964844 Z M 178.558594 37.5 " clip-rule="nonzero"/></clipPath><clipPath id="cbfea6c7ab"><path d="M 154 121 L 164 121 L 164 149 L 154 149 Z M 154 121 " clip-rule="nonzero"/></clipPath><clipPath id="3aa234e724"><path d="M 178.558594 37.5 L 334.023438 178.675781 L 192.847656 334.140625 L 37.382812 192.964844 Z M 178.558594 37.5 " clip-rule="nonzero"/></clipPath><clipPath id="111daac4e3"><path d="M 178.558594 37.5 L 334.023438 178.675781 L 192.847656 334.140625 L 37.382812 192.964844 Z M 178.558594 37.5 " clip-rule="nonzero"/></clipPath></defs><g clip-path="url(#7dd48f3f7b)"><path fill="#e9eaec" d="M 0 0 L 374.976562 0 L 374.976562 374.976562 L 0 374.976562 Z M 0 0 " fill-opacity="1" fill-rule="nonzero"/></g><g clip-path="url(#f8481e3a0e)"><g clip-path="url(#bc20b25181)"><g clip-path="url(#4c4eab1a96)"><g clip-path="url(#06113de4a1)"><g clip-path="url(#1b45214262)"><path fill="#a6a6a6" d="M 317.097656 192.480469 C 319.363281 188.429688 320.441406 183.882812 320.21875 179.335938 C 320.003906 174.792969 318.492188 170.371094 315.851562 166.550781 C 310.445312 158.738281 303.976562 151.390625 296.625 144.710938 C 295.066406 143.296875 293.441406 141.910156 291.796875 140.550781 C 294.578125 146.519531 296.933594 152.648438 298.765625 158.910156 C 302.578125 171.898438 304.328125 185.375 304.050781 198.839844 C 297.96875 203.015625 291.089844 206.769531 283.546875 210.085938 C 286.472656 189.640625 284.554688 168.695312 277.917969 149.050781 C 274.933594 140.210938 270.96875 131.65625 266.074219 123.511719 C 265.699219 123.320312 265.335938 123.117188 264.964844 122.925781 C 239.46875 109.816406 210.714844 103.621094 181.804688 105.015625 C 161.359375 106 141.4375 110.730469 122.59375 119.078125 C 122.550781 119.101562 122.507812 119.121094 122.46875 119.140625 C 124.511719 127.246094 125.976562 135.472656 126.835938 143.757812 C 129.679688 171.292969 125.9375 199.4375 115.488281 225.628906 C 103.457031 223.402344 92.265625 220.324219 82.289062 216.347656 C 89.855469 197.007812 93.78125 176.628906 94.117188 156.230469 C 94.226562 149.46875 93.929688 142.703125 93.253906 135.972656 C 76.851562 147.929688 63.382812 162.851562 54.289062 179.152344 C 52.027344 183.207031 50.945312 187.753906 51.164062 192.296875 C 51.382812 196.839844 52.894531 201.261719 55.539062 205.082031 C 60.949219 212.902344 67.421875 220.257812 74.773438 226.933594 C 74.773438 226.9375 74.773438 226.933594 74.777344 226.9375 C 104.382812 253.820312 147.300781 268.65625 189.585938 266.621094 C 243.371094 264.03125 293.421875 234.929688 317.097656 192.480469 " fill-opacity="1" fill-rule="nonzero"/></g></g></g></g></g><g clip-path="url(#4748834fb4)"><g clip-path="url(#c70b725b15)"><g clip-path="url(#5805c875f9)"><path fill="#d9d9d9" d="M 94.117188 156.234375 C 104.144531 151.417969 115.15625 147.199219 126.835938 143.761719 C 144.464844 138.578125 163.613281 135.171875 183.214844 134.230469 C 217.433594 132.582031 251.019531 138.503906 277.917969 149.054688 C 285.433594 152 292.433594 155.308594 298.769531 158.914062 C 305.566406 162.785156 311.617188 167 316.742188 171.476562 C 316.824219 171.550781 316.90625 171.621094 316.988281 171.695312 C 318.058594 172.667969 318.902344 173.703125 319.546875 174.769531 C 318.835938 171.863281 317.59375 169.074219 315.851562 166.550781 C 314.445312 164.523438 312.96875 162.527344 311.421875 160.566406 C 308.304688 158.386719 304.964844 156.277344 301.417969 154.261719 C 294.890625 150.542969 287.640625 147.113281 279.875 144.070312 C 250.800781 132.664062 216.382812 127.269531 182.957031 128.882812 C 163.511719 129.816406 144.125 133.097656 125.324219 138.625 C 113.484375 142.109375 102.203125 146.410156 91.800781 151.410156 C 78.746094 157.679688 67.296875 164.96875 58.105469 172.796875 C 56.761719 174.886719 55.484375 177.007812 54.289062 179.152344 C 52.789062 181.835938 51.824219 184.738281 51.398438 187.707031 C 51.976562 186.492188 52.792969 185.292969 53.882812 184.136719 C 63.652344 173.785156 77.542969 164.199219 94.117188 156.234375 " fill-opacity="1" fill-rule="nonzero"/></g></g></g><g clip-path="url(#8a0670e5a8)"><g clip-path="url(#07f9986c4e)"><g clip-path="url(#f59feda07f)"><path fill="#d9d9d9" d="M 317.097656 192.480469 C 318.59375 189.804688 319.558594 186.914062 319.988281 183.949219 C 319.410156 185.160156 318.59375 186.351562 317.511719 187.5 C 313.648438 191.597656 309.132812 195.378906 304.054688 198.863281 C 297.972656 203.035156 291.085938 206.773438 283.550781 210.089844 C 257.3125 221.632812 223.203125 228.035156 187.8125 229.742188 C 162.488281 230.960938 137.582031 229.722656 115.488281 225.632812 C 103.457031 223.410156 92.265625 220.328125 82.289062 216.351562 C 71.488281 212.042969 62.109375 206.675781 54.652344 200.164062 C 54.570312 200.089844 54.488281 200.019531 54.40625 199.945312 C 53.332031 198.96875 52.484375 197.929688 51.839844 196.855469 C 52.550781 199.765625 53.789062 202.554688 55.539062 205.082031 C 56.835938 206.960938 58.199219 208.8125 59.621094 210.632812 C 65.648438 214.648438 72.554688 218.234375 80.304688 221.324219 C 90.375 225.339844 101.886719 228.5625 114.511719 230.898438 C 136.210938 234.914062 161.644531 236.363281 188.070312 235.089844 C 226.226562 233.253906 259.988281 226.300781 285.707031 214.992188 C 293.671875 211.488281 300.863281 207.546875 307.082031 203.28125 C 309.355469 201.722656 311.492188 200.09375 313.53125 198.429688 C 314.773438 196.472656 315.972656 194.496094 317.097656 192.480469 " fill-opacity="1" fill-rule="nonzero"/></g></g></g><g clip-path="url(#6331849321)"><g clip-path="url(#818dd870c1)"><g clip-path="url(#a4831b45ce)"><path fill="#fad02c" d="M 298.765625 158.910156 C 296.933594 152.648438 294.578125 146.519531 291.796875 140.550781 C 291.390625 140.210938 290.988281 139.867188 290.578125 139.535156 C 283.148438 133.527344 274.90625 128.144531 266.074219 123.511719 C 270.96875 131.65625 274.933594 140.210938 277.917969 149.050781 C 284.554688 168.695312 286.472656 189.640625 283.546875 210.085938 C 291.082031 206.769531 297.972656 203.03125 304.050781 198.859375 C 304.328125 185.390625 302.582031 171.90625 298.765625 158.910156 " fill-opacity="1" fill-rule="nonzero"/></g></g></g><g clip-path="url(#46cc092078)"><g clip-path="url(#3f68e3fcff)"><g clip-path="url(#4585c4bd56)"><path fill="#fad02c" d="M 126.835938 143.757812 C 125.976562 135.472656 124.511719 127.246094 122.46875 119.140625 C 112.195312 123.699219 102.488281 129.269531 93.617188 135.699219 C 93.492188 135.789062 93.375 135.882812 93.253906 135.972656 C 93.929688 142.703125 94.226562 149.46875 94.117188 156.230469 C 93.78125 176.628906 89.855469 197.007812 82.289062 216.347656 C 92.265625 220.324219 103.457031 223.402344 115.488281 225.628906 C 125.9375 199.4375 129.679688 171.292969 126.835938 143.757812 " fill-opacity="1" fill-rule="nonzero"/></g></g></g><g clip-path="url(#73ecab75c6)"><g clip-path="url(#9a386300d5)"><g clip-path="url(#d71db62552)"><path fill="#fad02c" d="M 149.214844 138.960938 C 148.488281 138.300781 147.96875 137.410156 147.785156 136.371094 C 147.335938 133.878906 149 131.492188 151.492188 131.046875 C 161.90625 129.179688 172.46875 127.980469 182.886719 127.480469 C 208.820312 126.230469 235.460938 129.199219 259.929688 136.070312 C 262.367188 136.757812 263.792969 139.289062 263.105469 141.726562 C 262.421875 144.167969 259.886719 145.59375 257.445312 144.90625 C 233.917969 138.300781 208.289062 135.445312 183.328125 136.648438 C 173.304688 137.132812 163.136719 138.285156 153.109375 140.082031 C 151.652344 140.34375 150.230469 139.882812 149.214844 138.960938 " fill-opacity="1" fill-rule="nonzero"/></g></g></g><g clip-path="url(#d61b97c995)"><g clip-path="url(#be066a6dde)"><g clip-path="url(#b16f751d6e)"><path fill="#fad02c" d="M 254.601562 151.585938 C 254.15625 151.179688 253.867188 150.601562 253.851562 149.953125 C 253.664062 143.015625 251.621094 136.265625 247.949219 130.429688 C 247.273438 129.359375 247.59375 127.941406 248.667969 127.265625 C 249.738281 126.589844 251.15625 126.914062 251.832031 127.984375 C 255.945312 134.515625 258.226562 142.070312 258.4375 149.824219 C 258.472656 151.09375 257.476562 152.148438 256.207031 152.183594 C 255.59375 152.199219 255.023438 151.96875 254.601562 151.585938 " fill-opacity="1" fill-rule="nonzero"/></g></g></g><g clip-path="url(#f4dfcacffe)"><g clip-path="url(#71aa5c47c5)"><g clip-path="url(#61a6dc77cd)"><path fill="#fad02c" d="M 240.554688 147.355469 C 240.097656 146.941406 239.808594 146.34375 239.800781 145.679688 C 239.730469 138.683594 237.789062 131.839844 234.183594 125.886719 C 233.527344 124.804688 233.875 123.394531 234.957031 122.738281 C 236.042969 122.082031 237.449219 122.429688 238.109375 123.511719 C 242.140625 130.164062 244.3125 137.8125 244.390625 145.632812 C 244.402344 146.902344 243.386719 147.9375 242.117188 147.953125 C 241.515625 147.957031 240.964844 147.730469 240.554688 147.355469 " fill-opacity="1" fill-rule="nonzero"/></g></g></g><g clip-path="url(#28909cd731)"><g clip-path="url(#f71065dbf5)"><g clip-path="url(#b2c705befc)"><path fill="#fad02c" d="M 228.253906 146.089844 C 227.789062 145.664062 227.496094 145.054688 227.503906 144.375 C 227.550781 137.3125 225.707031 130.375 222.171875 124.308594 C 221.535156 123.214844 221.902344 121.8125 223 121.171875 C 224.09375 120.53125 225.5 120.90625 226.136719 122 C 230.085938 128.773438 232.144531 136.523438 232.09375 144.40625 C 232.085938 145.671875 231.050781 146.691406 229.78125 146.683594 C 229.195312 146.679688 228.660156 146.457031 228.253906 146.089844 " fill-opacity="1" fill-rule="nonzero"/></g></g></g><g clip-path="url(#178bf85d8e)"><g clip-path="url(#61de30ac5b)"><g clip-path="url(#a73362436c)"><path fill="#fad02c" d="M 216.5 145.28125 C 216.023438 144.851562 215.730469 144.222656 215.746094 143.527344 C 215.914062 136.40625 214.167969 129.371094 210.699219 123.195312 C 210.082031 122.089844 210.476562 120.691406 211.578125 120.070312 C 212.683594 119.453125 214.082031 119.839844 214.707031 120.949219 C 218.574219 127.84375 220.519531 135.6875 220.335938 143.636719 C 220.304688 144.902344 219.253906 145.90625 217.984375 145.875 C 217.414062 145.863281 216.890625 145.640625 216.5 145.28125 " fill-opacity="1" fill-rule="nonzero"/></g></g></g><g clip-path="url(#d4de0ad276)"><g clip-path="url(#469ca306c4)"><g clip-path="url(#e5604e8580)"><path fill="#fad02c" d="M 204.871094 144.390625 C 204.386719 143.953125 204.09375 143.308594 204.121094 142.601562 C 204.40625 135.414062 202.757812 128.289062 199.359375 121.992188 C 198.757812 120.878906 199.175781 119.484375 200.289062 118.882812 C 201.40625 118.28125 202.796875 118.699219 203.398438 119.8125 C 207.1875 126.832031 209.023438 134.773438 208.707031 142.785156 C 208.65625 144.050781 207.589844 145.039062 206.324219 144.984375 C 205.761719 144.964844 205.257812 144.742188 204.871094 144.390625 " fill-opacity="1" fill-rule="nonzero"/></g></g></g><g clip-path="url(#99740a1553)"><g clip-path="url(#a8b83ec090)"><g clip-path="url(#a3a88c2a14)"><path fill="#fad02c" d="M 193.332031 144.632812 C 192.839844 144.183594 192.542969 143.523438 192.582031 142.804688 C 192.984375 135.554688 191.4375 128.332031 188.109375 121.921875 C 187.527344 120.796875 187.964844 119.410156 189.089844 118.828125 C 190.214844 118.242188 191.601562 118.683594 192.183594 119.804688 C 195.890625 126.945312 197.613281 134.984375 197.164062 143.058594 C 197.09375 144.324219 196.011719 145.292969 194.746094 145.222656 C 194.199219 145.195312 193.707031 144.972656 193.332031 144.632812 " fill-opacity="1" fill-rule="nonzero"/></g></g></g><g clip-path="url(#7948e5840f)"><g clip-path="url(#25074b92e9)"><g clip-path="url(#541ba767e1)"><path fill="#fad02c" d="M 182.273438 145.300781 C 181.769531 144.84375 181.476562 144.167969 181.527344 143.4375 C 182.046875 136.121094 180.601562 128.804688 177.339844 122.28125 C 176.773438 121.144531 177.234375 119.765625 178.367188 119.199219 C 179.5 118.632812 180.878906 119.089844 181.445312 120.226562 C 185.074219 127.488281 186.683594 135.625 186.105469 143.761719 C 186.011719 145.027344 184.914062 145.976562 183.652344 145.890625 C 183.117188 145.851562 182.640625 145.632812 182.273438 145.300781 " fill-opacity="1" fill-rule="nonzero"/></g></g></g><g clip-path="url(#a3ccb3b7a6)"><g clip-path="url(#5c42810f81)"><g clip-path="url(#45260fd5fc)"><path fill="#fad02c" d="M 170.59375 146.441406 C 170.082031 145.976562 169.785156 145.285156 169.851562 144.542969 C 170.492188 137.160156 169.140625 129.75 165.953125 123.113281 C 165.402344 121.96875 165.882812 120.597656 167.023438 120.050781 C 168.167969 119.5 169.542969 119.984375 170.089844 121.125 C 173.636719 128.503906 175.132812 136.738281 174.421875 144.941406 C 174.3125 146.203125 173.199219 147.136719 171.9375 147.027344 C 171.417969 146.980469 170.953125 146.765625 170.59375 146.441406 " fill-opacity="1" fill-rule="nonzero"/></g></g></g><g clip-path="url(#cbfea6c7ab)"><g clip-path="url(#3aa234e724)"><g clip-path="url(#111daac4e3)"><path fill="#fad02c" d="M 159.472656 148.175781 C 158.949219 147.699219 158.65625 146.996094 158.730469 146.242188 C 159.492188 138.796875 158.242188 131.292969 155.121094 124.535156 C 154.589844 123.386719 155.089844 122.019531 156.242188 121.492188 C 157.390625 120.957031 158.753906 121.460938 159.285156 122.609375 C 162.753906 130.113281 164.140625 138.445312 163.296875 146.707031 C 163.167969 147.96875 162.042969 148.886719 160.78125 148.757812 C 160.273438 148.707031 159.824219 148.492188 159.472656 148.175781 " fill-opacity="1" fill-rule="nonzero"/></g></g></g><g fill="#545454" fill-opacity="1"><g transform="translate(94.187138, 98.797259)"><g><path d="M 49.296875 -67.4375 C 49.898438 -68.5625 50.8125 -69.3125 52.03125 -69.6875 C 53.25 -70.070312 54.769531 -70.265625 56.59375 -70.265625 C 58.414062 -70.265625 59.882812 -70.101562 61 -69.78125 C 62.125 -69.46875 62.957031 -69.085938 63.5 -68.640625 C 64.039062 -68.191406 64.441406 -67.519531 64.703125 -66.625 C 65.085938 -65.601562 65.28125 -63.972656 65.28125 -61.734375 L 65.28125 -8.453125 C 65.28125 -6.910156 65.226562 -5.785156 65.125 -5.078125 C 65.03125 -4.378906 64.726562 -3.550781 64.21875 -2.59375 C 63.320312 -0.863281 60.828125 0 56.734375 0 C 54.234375 0 52.503906 -0.191406 51.546875 -0.578125 C 50.585938 -0.960938 49.789062 -1.570312 49.15625 -2.40625 C 34.75 -21.601562 25.273438 -34.144531 20.734375 -40.03125 L 20.734375 -8.453125 C 20.734375 -6.910156 20.6875 -5.785156 20.59375 -5.078125 C 20.5 -4.378906 20.195312 -3.550781 19.6875 -2.59375 C 18.789062 -0.863281 16.289062 0 12.1875 0 C 8.21875 0 5.785156 -0.863281 4.890625 -2.59375 C 4.378906 -3.550781 4.078125 -4.414062 3.984375 -5.1875 C 3.890625 -5.957031 3.84375 -7.078125 3.84375 -8.546875 L 3.84375 -62.109375 C 3.84375 -64.546875 4.144531 -66.320312 4.75 -67.4375 C 5.351562 -68.5625 6.265625 -69.3125 7.484375 -69.6875 C 8.703125 -70.070312 10.269531 -70.265625 12.1875 -70.265625 C 14.113281 -70.265625 15.632812 -70.085938 16.75 -69.734375 C 17.875 -69.390625 18.660156 -68.992188 19.109375 -68.546875 C 19.359375 -68.347656 20.09375 -67.515625 21.3125 -66.046875 C 34.8125 -47.679688 43.835938 -35.550781 48.390625 -29.65625 L 48.390625 -62.109375 C 48.390625 -64.546875 48.691406 -66.320312 49.296875 -67.4375 Z M 49.296875 -67.4375 "/></g></g></g><g fill="#545454" fill-opacity="1"><g transform="translate(163.307148, 98.797259)"><g><path d="M 50.40625 -70.375 C 51.875 -70.375 52.972656 -70.320312 53.703125 -70.21875 C 54.441406 -70.125 55.273438 -69.820312 56.203125 -69.3125 C 57.128906 -68.800781 57.785156 -67.9375 58.171875 -66.71875 C 58.554688 -65.5 58.75 -63.863281 58.75 -61.8125 C 58.75 -59.769531 58.554688 -58.140625 58.171875 -56.921875 C 57.785156 -55.710938 57.113281 -54.863281 56.15625 -54.375 C 55.195312 -53.894531 54.347656 -53.609375 53.609375 -53.515625 C 52.878906 -53.421875 51.742188 -53.375 50.203125 -53.375 L 20.828125 -53.375 L 20.828125 -43.6875 L 39.75 -43.6875 C 41.28125 -43.6875 42.410156 -43.632812 43.140625 -43.53125 C 43.878906 -43.4375 44.734375 -43.132812 45.703125 -42.625 C 47.359375 -41.664062 48.1875 -39.140625 48.1875 -35.046875 C 48.1875 -30.554688 46.972656 -27.898438 44.546875 -27.078125 C 43.523438 -26.753906 41.890625 -26.59375 39.640625 -26.59375 L 20.828125 -26.59375 L 20.828125 -8.453125 C 20.828125 -6.910156 20.78125 -5.785156 20.6875 -5.078125 C 20.59375 -4.378906 20.289062 -3.550781 19.78125 -2.59375 C 18.882812 -0.863281 16.382812 0 12.28125 0 C 7.800781 0 5.179688 -1.210938 4.421875 -3.640625 C 4.035156 -4.671875 3.84375 -6.304688 3.84375 -8.546875 L 3.84375 -61.921875 C 3.84375 -65.179688 4.445312 -67.40625 5.65625 -68.59375 C 6.875 -69.78125 9.179688 -70.375 12.578125 -70.375 Z M 50.40625 -70.375 "/></g></g></g><g fill="#545454" fill-opacity="1"><g transform="translate(224.459152, 98.797259)"><g><path d="M 20.828125 -14.203125 L 46.9375 -14.203125 C 49.050781 -14.203125 50.585938 -13.960938 51.546875 -13.484375 C 52.503906 -13.003906 53.144531 -12.253906 53.46875 -11.234375 C 53.789062 -10.210938 53.953125 -8.851562 53.953125 -7.15625 C 53.953125 -5.457031 53.789062 -4.09375 53.46875 -3.0625 C 53.144531 -2.039062 52.601562 -1.335938 51.84375 -0.953125 C 50.625 -0.316406 48.957031 0 46.84375 0 L 12.28125 0 C 7.800781 0 5.179688 -1.210938 4.421875 -3.640625 C 4.035156 -4.671875 3.84375 -6.304688 3.84375 -8.546875 L 3.84375 -61.921875 C 3.84375 -63.390625 3.890625 -64.492188 3.984375 -65.234375 C 4.078125 -65.972656 4.378906 -66.820312 4.890625 -67.78125 C 5.785156 -69.507812 8.285156 -70.375 12.390625 -70.375 C 16.867188 -70.375 19.523438 -69.1875 20.359375 -66.8125 C 20.671875 -65.726562 20.828125 -64.066406 20.828125 -61.828125 Z M 20.828125 -14.203125 "/></g></g></g><g fill="#545454" fill-opacity="1"><g transform="translate(12.475189, 242.495193)"><g><path d="M 4.8125 6 C 4.363281 5.476562 4.160156 4.882812 4.203125 4.21875 C 4.253906 3.5625 4.539062 3.015625 5.0625 2.578125 L 30.140625 -19.03125 C 30.660156 -19.476562 31.257812 -19.679688 31.9375 -19.640625 C 32.613281 -19.597656 33.175781 -19.316406 33.625 -18.796875 L 41.84375 -9.25 C 45.039062 -5.53125 46.675781 -2.085938 46.75 1.078125 C 46.820312 4.253906 45.613281 6.914062 43.125 9.0625 C 41.476562 10.46875 39.582031 11.296875 37.4375 11.546875 C 35.300781 11.796875 33.179688 11.300781 31.078125 10.0625 C 32.253906 12.488281 32.191406 14.890625 30.890625 17.265625 C 29.585938 19.648438 28.007812 21.644531 26.15625 23.25 L 24.265625 24.875 C 23.742188 25.3125 23.148438 25.503906 22.484375 25.453125 C 21.828125 25.398438 21.273438 25.113281 20.828125 24.59375 C 20.335938 24.03125 20.113281 23.429688 20.15625 22.796875 C 20.195312 22.160156 20.492188 21.609375 21.046875 21.140625 L 22.265625 20.078125 C 23.628906 18.898438 24.789062 17.6875 25.75 16.4375 C 26.707031 15.195312 27.242188 13.710938 27.359375 11.984375 C 27.472656 10.265625 26.71875 8.460938 25.09375 6.578125 L 17.796875 -1.90625 L 8.28125 6.296875 C 7.757812 6.734375 7.160156 6.921875 6.484375 6.859375 C 5.804688 6.796875 5.25 6.507812 4.8125 6 Z M 27.6875 2.5 C 29.71875 4.851562 31.789062 6.316406 33.90625 6.890625 C 36.03125 7.472656 37.9375 7.035156 39.625 5.578125 C 41.269531 4.160156 42.019531 2.476562 41.875 0.53125 C 41.726562 -1.40625 40.414062 -3.8125 37.9375 -6.6875 L 31.734375 -13.90625 L 21.3125 -4.921875 Z M 27.6875 2.5 "/></g></g></g><g fill="#545454" fill-opacity="1"><g transform="translate(39.988609, 274.315301)"><g><path d="M 17.125 13.765625 C 14.113281 11.460938 11.976562 8.785156 10.71875 5.734375 C 9.457031 2.679688 9.097656 -0.472656 9.640625 -3.734375 C 10.191406 -6.992188 11.582031 -10.148438 13.8125 -13.203125 C 16.175781 -16.160156 18.859375 -18.332031 21.859375 -19.71875 C 24.867188 -21.101562 28.007812 -21.585938 31.28125 -21.171875 C 34.550781 -20.765625 37.691406 -19.410156 40.703125 -17.109375 C 43.710938 -14.804688 45.835938 -12.132812 47.078125 -9.09375 C 48.328125 -6.0625 48.679688 -2.898438 48.140625 0.390625 C 47.597656 3.679688 46.21875 6.835938 44 9.859375 C 41.664062 12.796875 38.984375 14.953125 35.953125 16.328125 C 32.921875 17.710938 29.773438 18.207031 26.515625 17.8125 C 23.265625 17.414062 20.132812 16.066406 17.125 13.765625 Z M 19.921875 10.09375 C 22.222656 11.851562 24.609375 12.859375 27.078125 13.109375 C 29.554688 13.367188 31.914062 12.953125 34.15625 11.859375 C 36.40625 10.773438 38.382812 9.113281 40.09375 6.875 C 41.800781 4.632812 42.890625 2.285156 43.359375 -0.171875 C 43.828125 -2.628906 43.609375 -5.015625 42.703125 -7.328125 C 41.804688 -9.648438 40.207031 -11.691406 37.90625 -13.453125 C 35.582031 -15.222656 33.1875 -16.234375 30.71875 -16.484375 C 28.257812 -16.734375 25.90625 -16.304688 23.65625 -15.203125 C 21.40625 -14.109375 19.425781 -12.441406 17.71875 -10.203125 C 16.007812 -7.960938 14.921875 -5.617188 14.453125 -3.171875 C 13.992188 -0.722656 14.207031 1.65625 15.09375 3.96875 C 15.988281 6.28125 17.597656 8.320312 19.921875 10.09375 Z M 19.921875 10.09375 "/></g></g></g><g fill="#545454" fill-opacity="1"><g transform="translate(78.147118, 302.931329)"><g><path d="M 19.71875 9.671875 C 16.28125 8.085938 13.613281 5.945312 11.71875 3.25 C 9.832031 0.550781 8.789062 -2.445312 8.59375 -5.75 C 8.40625 -9.0625 9.070312 -12.453125 10.59375 -15.921875 C 12.238281 -19.328125 14.375 -22.03125 17 -24.03125 C 19.632812 -26.039062 22.59375 -27.203125 25.875 -27.515625 C 29.15625 -27.835938 32.515625 -27.207031 35.953125 -25.625 C 39.390625 -24.039062 42.050781 -21.90625 43.9375 -19.21875 C 45.820312 -16.53125 46.859375 -13.519531 47.046875 -10.1875 C 47.242188 -6.863281 46.59375 -3.484375 45.09375 -0.046875 C 43.457031 3.335938 41.316406 6.035156 38.671875 8.046875 C 36.023438 10.054688 33.0625 11.222656 29.78125 11.546875 C 26.507812 11.878906 23.15625 11.253906 19.71875 9.671875 Z M 21.65625 5.484375 C 24.28125 6.691406 26.828125 7.148438 29.296875 6.859375 C 31.773438 6.566406 33.988281 5.640625 35.9375 4.078125 C 37.882812 2.515625 39.445312 0.453125 40.625 -2.109375 C 41.789062 -4.660156 42.332031 -7.1875 42.25 -9.6875 C 42.175781 -12.195312 41.441406 -14.484375 40.046875 -16.546875 C 38.660156 -18.609375 36.65625 -20.242188 34.03125 -21.453125 C 31.375 -22.671875 28.816406 -23.128906 26.359375 -22.828125 C 23.898438 -22.535156 21.691406 -21.601562 19.734375 -20.03125 C 17.785156 -18.46875 16.226562 -16.410156 15.0625 -13.859375 C 13.882812 -11.296875 13.335938 -8.765625 13.421875 -6.265625 C 13.503906 -3.765625 14.234375 -1.488281 15.609375 0.5625 C 16.984375 2.625 19 4.265625 21.65625 5.484375 Z M 21.65625 5.484375 "/></g></g></g><g fill="#545454" fill-opacity="1"><g transform="translate(121.432323, 322.022818)"><g><path d="M 7.421875 2.015625 C 6.753906 1.859375 6.242188 1.492188 5.890625 0.921875 C 5.546875 0.359375 5.445312 -0.25 5.59375 -0.90625 L 13.171875 -33.4375 C 13.328125 -34.09375 13.6875 -34.601562 14.25 -34.96875 C 14.820312 -35.34375 15.441406 -35.453125 16.109375 -35.296875 C 16.765625 -35.148438 17.273438 -34.78125 17.640625 -34.1875 C 18.015625 -33.59375 18.125 -32.96875 17.96875 -32.3125 L 14.0625 -15.546875 L 36.34375 -29.6875 C 36.96875 -30.144531 37.632812 -30.289062 38.34375 -30.125 C 38.9375 -29.988281 39.40625 -29.664062 39.75 -29.15625 C 40.09375 -28.644531 40.195312 -28.085938 40.0625 -27.484375 C 39.894531 -26.785156 39.570312 -26.289062 39.09375 -26 L 24.109375 -16.71875 L 33.96875 4.140625 C 34.238281 4.722656 34.316406 5.28125 34.203125 5.8125 C 34.085938 6.4375 33.742188 6.925781 33.171875 7.28125 C 32.609375 7.632812 31.992188 7.734375 31.328125 7.578125 C 30.523438 7.390625 29.96875 6.925781 29.65625 6.1875 L 20.125 -14.3125 L 12.6875 -9.65625 L 10.390625 0.21875 C 10.242188 0.875 9.875 1.375 9.28125 1.71875 C 8.695312 2.0625 8.078125 2.160156 7.421875 2.015625 Z M 7.421875 2.015625 "/></g></g></g><g fill="#545454" fill-opacity="1"><g transform="translate(158.975388, 329.930142)"><g><path d="M 7.625 1.015625 C 6.9375 0.953125 6.378906 0.660156 5.953125 0.140625 C 5.535156 -0.367188 5.363281 -0.957031 5.4375 -1.625 L 8.71875 -34.859375 C 8.789062 -35.535156 9.082031 -36.09375 9.59375 -36.53125 C 10.113281 -36.96875 10.71875 -37.15625 11.40625 -37.09375 C 12.070312 -37.019531 12.625 -36.71875 13.0625 -36.1875 C 13.507812 -35.65625 13.695312 -35.050781 13.625 -34.375 L 10.34375 -1.140625 C 10.269531 -0.472656 9.960938 0.0664062 9.421875 0.484375 C 8.890625 0.910156 8.289062 1.085938 7.625 1.015625 Z M 7.625 1.015625 "/></g></g></g><g fill="#545454" fill-opacity="1"><g transform="translate(176.385241, 332.124028)"><g><path d="M 7.6875 -0.203125 C 7 -0.191406 6.414062 -0.410156 5.9375 -0.859375 C 5.457031 -1.316406 5.207031 -1.890625 5.1875 -2.578125 L 4.296875 -35.390625 C 4.273438 -36.078125 4.488281 -36.671875 4.9375 -37.171875 C 5.394531 -37.671875 5.96875 -37.925781 6.65625 -37.9375 L 28.328125 -38.53125 C 28.972656 -38.550781 29.53125 -38.34375 30 -37.90625 C 30.46875 -37.46875 30.710938 -36.925781 30.734375 -36.28125 C 30.742188 -35.625 30.523438 -35.070312 30.078125 -34.625 C 29.640625 -34.1875 29.097656 -33.957031 28.453125 -33.9375 L 9.265625 -33.421875 L 9.59375 -21.46875 L 26.828125 -21.9375 C 27.484375 -21.945312 28.039062 -21.738281 28.5 -21.3125 C 28.96875 -20.882812 29.207031 -20.34375 29.21875 -19.6875 C 29.238281 -19.039062 29.03125 -18.492188 28.59375 -18.046875 C 28.15625 -17.597656 27.609375 -17.367188 26.953125 -17.359375 L 9.71875 -16.890625 L 10.046875 -4.875 L 29.234375 -5.390625 C 29.878906 -5.410156 30.429688 -5.203125 30.890625 -4.765625 C 31.359375 -4.328125 31.601562 -3.78125 31.625 -3.125 C 31.644531 -2.476562 31.429688 -1.929688 30.984375 -1.484375 C 30.546875 -1.046875 30.003906 -0.816406 29.359375 -0.796875 Z M 7.6875 -0.203125 "/></g></g></g><g fill="#545454" fill-opacity="1"><g transform="translate(213.885397, 330.919802)"><g><path d="M 7.578125 -1.296875 C 6.898438 -1.160156 6.285156 -1.273438 5.734375 -1.640625 C 5.179688 -2.003906 4.835938 -2.519531 4.703125 -3.1875 L -2.0625 -35.59375 C -2.195312 -36.269531 -2.082031 -36.890625 -1.71875 -37.453125 C -1.363281 -38.023438 -0.847656 -38.378906 -0.171875 -38.515625 L 11.890625 -41.046875 C 15.242188 -41.742188 18.09375 -41.75 20.4375 -41.0625 C 22.789062 -40.382812 24.609375 -39.253906 25.890625 -37.671875 C 27.179688 -36.097656 28.039062 -34.285156 28.46875 -32.234375 C 28.894531 -30.179688 28.832031 -28.179688 28.28125 -26.234375 C 27.726562 -24.285156 26.507812 -22.519531 24.625 -20.9375 C 22.75 -19.363281 20.132812 -18.226562 16.78125 -17.53125 L 7.140625 -15.515625 L 9.515625 -4.1875 C 9.648438 -3.519531 9.523438 -2.90625 9.140625 -2.34375 C 8.753906 -1.789062 8.234375 -1.441406 7.578125 -1.296875 Z M 15.375 -21.984375 C 18.96875 -22.734375 21.347656 -23.945312 22.515625 -25.625 C 23.691406 -27.3125 24.066406 -29.179688 23.640625 -31.234375 C 23.210938 -33.285156 22.125 -34.84375 20.375 -35.90625 C 18.625 -36.976562 15.953125 -37.140625 12.359375 -36.390625 L 3.1875 -34.484375 L 6.203125 -20.078125 Z M 15.375 -21.984375 "/></g></g></g><g fill="#545454" fill-opacity="1"><g transform="translate(252.327853, 322.540761)"><g><path d="M 7.125 -2.875 C 6.488281 -2.625 5.863281 -2.625 5.25 -2.875 C 4.632812 -3.132812 4.203125 -3.585938 3.953125 -4.234375 L -8.359375 -34.65625 C -8.617188 -35.300781 -8.617188 -35.9375 -8.359375 -36.5625 C -8.109375 -37.1875 -7.664062 -37.625 -7.03125 -37.875 L 13.078125 -46.015625 C 13.671875 -46.253906 14.265625 -46.25 14.859375 -46 C 15.453125 -45.757812 15.867188 -45.34375 16.109375 -44.75 C 16.347656 -44.132812 16.335938 -43.539062 16.078125 -42.96875 C 15.828125 -42.394531 15.40625 -41.988281 14.8125 -41.75 L -2.984375 -34.546875 L 1.484375 -23.46875 L 17.46875 -29.9375 C 18.070312 -30.1875 18.664062 -30.1875 19.25 -29.9375 C 19.84375 -29.6875 20.257812 -29.257812 20.5 -28.65625 C 20.738281 -28.050781 20.734375 -27.460938 20.484375 -26.890625 C 20.234375 -26.328125 19.804688 -25.921875 19.203125 -25.671875 L 3.21875 -19.203125 L 7.71875 -8.078125 L 25.515625 -15.28125 C 26.109375 -15.519531 26.695312 -15.515625 27.28125 -15.265625 C 27.875 -15.023438 28.296875 -14.597656 28.546875 -13.984375 C 28.785156 -13.390625 28.773438 -12.804688 28.515625 -12.234375 C 28.253906 -11.660156 27.828125 -11.253906 27.234375 -11.015625 Z M 7.125 -2.875 "/></g></g></g><g fill="#545454" fill-opacity="1"><g transform="translate(287.301221, 308.383247)"><g><path d="M 6.453125 -4.171875 C 5.878906 -3.796875 5.265625 -3.675781 4.609375 -3.8125 C 3.960938 -3.957031 3.453125 -4.316406 3.078125 -4.890625 L -14.734375 -32.46875 C -15.109375 -33.039062 -15.226562 -33.65625 -15.09375 -34.3125 C -14.957031 -34.976562 -14.601562 -35.5 -14.03125 -35.875 L -4.90625 -41.765625 C -1.445312 -43.992188 1.976562 -45.125 5.375 -45.15625 C 8.769531 -45.1875 11.851562 -44.382812 14.625 -42.75 C 17.40625 -41.113281 19.65625 -38.960938 21.375 -36.296875 C 23.09375 -33.628906 24.128906 -30.691406 24.484375 -27.484375 C 24.847656 -24.273438 24.316406 -21.125 22.890625 -18.03125 C 21.472656 -14.945312 19.035156 -12.289062 15.578125 -10.0625 Z M 12.578125 -13.609375 C 15.066406 -15.210938 16.925781 -17.128906 18.15625 -19.359375 C 19.382812 -21.585938 19.925781 -23.929688 19.78125 -26.390625 C 19.644531 -28.859375 18.8125 -31.273438 17.28125 -33.640625 C 15.757812 -35.992188 13.898438 -37.742188 11.703125 -38.890625 C 9.515625 -40.035156 7.15625 -40.503906 4.625 -40.296875 C 2.09375 -40.097656 -0.414062 -39.195312 -2.90625 -37.59375 L -9.4375 -33.359375 L 6.046875 -9.375 Z M 12.578125 -13.609375 "/></g></g></g><g fill="#545454" fill-opacity="1"><g transform="translate(322.772765, 284.215066)"><g><path d="M 5.984375 -4.828125 C 5.460938 -4.378906 4.867188 -4.175781 4.203125 -4.21875 C 3.546875 -4.269531 3 -4.550781 2.5625 -5.0625 L -19.328125 -30.28125 C -19.773438 -30.789062 -19.976562 -31.382812 -19.9375 -32.0625 C -19.90625 -32.738281 -19.628906 -33.300781 -19.109375 -33.75 C -18.597656 -34.195312 -18 -34.394531 -17.3125 -34.34375 C -16.625 -34.300781 -16.054688 -34.023438 -15.609375 -33.515625 L 6.28125 -8.296875 C 6.71875 -7.785156 6.90625 -7.191406 6.84375 -6.515625 C 6.78125 -5.835938 6.492188 -5.273438 5.984375 -4.828125 Z M 5.984375 -4.828125 "/></g></g></g><g fill="#545454" fill-opacity="1"><g transform="translate(336.692668, 273.070791)"><g><path d="M 3.578125 -3.703125 C 3.109375 -3.160156 2.546875 -2.875 1.890625 -2.84375 C 1.234375 -2.8125 0.648438 -3.019531 0.140625 -3.46875 C -0.078125 -3.65625 -0.289062 -3.953125 -0.5 -4.359375 L -16.03125 -36.140625 C -16.332031 -36.785156 -16.46875 -37.441406 -16.4375 -38.109375 C -16.40625 -38.785156 -16.140625 -39.410156 -15.640625 -39.984375 L -15.28125 -40.390625 C -14.789062 -40.953125 -14.21875 -41.296875 -13.5625 -41.421875 C -12.90625 -41.546875 -12.238281 -41.5 -11.5625 -41.28125 L 22.0625 -30.328125 C 22.519531 -30.191406 22.859375 -30.03125 23.078125 -29.84375 C 23.585938 -29.394531 23.867188 -28.84375 23.921875 -28.1875 C 23.984375 -27.539062 23.78125 -26.945312 23.3125 -26.40625 C 22.96875 -26.019531 22.5625 -25.757812 22.09375 -25.625 C 21.625 -25.5 21.140625 -25.503906 20.640625 -25.640625 L 11.953125 -28.53125 L -0.109375 -14.65625 L 3.96875 -6.453125 C 4.175781 -5.984375 4.242188 -5.503906 4.171875 -5.015625 C 4.097656 -4.523438 3.898438 -4.085938 3.578125 -3.703125 Z M -2.25 -19.015625 L 7.328125 -30.046875 L -10.734375 -36.046875 Z M -2.25 -19.015625 "/></g></g></g></svg>