<svg width="250" height="250" viewBox="0 0 250 250" fill="none" xmlns="http://www.w3.org/2000/svg">
<path d="M239.862 76.21L224.681 79.645V206.155H160.58L92.2258 139.978V172.161L106.71 176.232V206.142H9.89759V176.161L26.8521 172.126V79.699L9.21611 76.146V43.83H96.5651L161.931 109.186V79.763L149.628 76.191V43.83H239.862V76.21ZM140.411 35V74.907L100.498 35H0V83.317L17.6349 86.87V165.221L0.680433 169.254V214.976H115.926V175.45L156.731 215H233.897V86.64L249.078 83.204V35.004H140.407" fill="white"/>
<path d="M9.2168 43.8299V76.1459L26.8517 79.6996V172.126L9.89619 176.161V206.142H106.709V176.231L92.2254 172.16V139.977L160.58 206.154H224.68V79.6444L239.861 76.2093V43.8323H149.628V76.1933L161.93 79.7646V109.188L96.5648 43.8326L9.2168 43.8299ZM75.0988 56.6589L79.7476 69.4489H94.6358L82.7772 78.4079L87.3008 92.1069L75.0989 83.2563L62.9054 91.6718L67.6368 78.2748L56.1592 69.4491H70.4211L75.0988 56.6589ZM111.395 89.8079L116.026 102.621H130.905L119.069 111.577L123.559 125.278L111.395 116.414L99.1876 124.817L103.911 111.462L92.4525 102.621H106.709L111.395 89.8079ZM147.687 122.984L152.353 135.776H167.195L155.367 144.782L159.887 158.453L147.686 149.602L135.495 157.993L140.215 144.626L128.734 135.775H143.006L147.687 122.984ZM183.941 156.141L188.614 168.967H203.479L191.636 177.92L196.155 191.625L183.941 182.751L171.754 191.153L176.508 177.797L165.011 168.967H179.277L183.941 156.141Z" fill="#013369"/>
</svg>
