<svg width="32" height="32" viewBox="0 0 32 32" fill="none" xmlns="http://www.w3.org/2000/svg">
<path fill-rule="evenodd" clip-rule="evenodd" d="M32 15.5C32 23.9831 24.8365 30.86 16 30.86C7.16344 30.86 0 23.9831 0 15.5C0 7.01691 7.16344 0.139999 16 0.139999C24.8365 0.139999 32 7.01691 32 15.5ZM17.4335 11.1051L6.65896 15.3668C4.763 16.0771 5.87283 16.743 5.87283 16.743C5.87283 16.743 7.49133 17.2758 8.87861 17.6753C10.2659 18.0748 11.0058 17.6308 11.0058 17.6308L17.526 13.4135C19.8381 11.9042 19.2832 13.1471 18.7283 13.6799C17.526 14.834 15.5376 16.6542 13.8728 18.1192C13.1329 18.7407 13.5029 19.2735 13.8265 19.5397C14.7676 20.3041 16.9833 21.6941 17.9907 22.3259C18.2704 22.5014 18.4569 22.6184 18.4971 22.6473C18.7283 22.8248 20.0231 23.6239 20.8092 23.4464C21.5953 23.2687 21.6879 22.2478 21.6879 22.2478L22.8439 15.2781C22.9467 14.6246 23.0495 13.9849 23.1452 13.3883C23.3944 11.8368 23.5967 10.5773 23.63 10.1284C23.7688 8.61907 22.104 9.24058 22.104 9.24058C22.104 9.24058 18.4971 10.6612 17.4335 11.1051Z" fill="#FFFFFE"/>
</svg>
