<svg width="250" height="250" viewBox="0 0 250 250" fill="none" xmlns="http://www.w3.org/2000/svg">
<g clip-path="url(#clip0_5_326)">
<path d="M229.253 186.601C213.654 183.315 182.705 186.516 165.053 223.872C165.053 223.872 134.868 187.827 92.9275 181.494C94.5735 161.439 68.0115 156.107 62.9295 121.603C62.9295 121.603 42.2945 104.701 31.977 78.084L37.471 79.8495C37.471 79.8495 29.4485 70.9615 23.28 55.6425L29.088 57.561C29.088 57.561 23.212 49.594 20.0005 26.741C91.1885 75.7235 128.691 58.6305 171.989 83.1385C201.377 99.79 208.377 119.124 210.837 138.424C210.837 138.424 232.592 158.14 229.254 186.6" fill="#FFFFFE"/>
<path d="M226.284 182.428C226.75 158.204 207.732 140.997 207.732 140.997C205.678 125.682 200.117 103.534 170.479 87.18C125.476 62.366 100.577 82.634 29.6306 39.157C31.1071 47.2855 35.7821 58.5335 41.7386 65.52L34.4036 63.1135C39.7361 74.3575 48.2761 84.557 52.7476 87.868L44.5256 85.283C53.2351 106.667 70.2516 119.333 70.2516 119.333C74.1291 152.071 98.1326 157.649 100.072 177.785C131.343 182.636 164.395 216.139 164.395 216.139C181.7 186.376 205.831 180.607 226.284 182.428Z" fill="black"/>
<path d="M186.235 140.293C179.435 151.244 167.938 148.192 163.839 134.537L172.129 135.042C164.861 130.692 158.26 124.291 153.157 117.983C151.655 148.149 180.028 161.69 189.413 140.505C188.352 140.496 187.292 140.424 186.235 140.293Z" fill="#FFFFFE"/>
<path d="M166.716 91.285C134.113 73.407 94.268 85.016 43.355 53.4575C48.399 68.5385 79.912 86.2 79.912 86.2L52.0265 77.1295C59.1285 89.46 88.1975 104.91 88.1975 104.91L62.1915 96.5015C72.963 114.401 97.3995 126.481 97.3995 126.481L82.3815 125.395C84.3245 142.224 107.564 156.715 108.799 169.704C119.311 173.723 132.858 180.731 143.417 189.814C163.603 179.886 158.036 146.295 119.549 98.6455C172.486 101.846 171.026 141.113 201.411 135.467C199.184 124.919 197.746 108.315 166.717 91.285" fill="#97233F"/>
<path d="M222.483 176.18C215.071 168.799 199.502 161.265 180.568 158.994C188.633 156.753 197.813 151.804 201.576 144.104C209.603 149.185 220.782 163.718 222.483 176.18V176.18ZM181.959 186.473C185.077 175.845 179.405 166.197 179.405 166.197C195.997 164.572 214.308 172.275 221.719 178.548C210.133 176.209 194.271 179.559 181.959 186.473V186.473Z" fill="#FFB612"/>
<path d="M186.235 140.293C179.435 151.244 167.938 148.192 163.839 134.537L172.129 135.042C164.861 130.692 158.26 124.291 153.157 117.983C151.655 148.149 180.028 161.69 189.413 140.505C188.352 140.496 187.292 140.424 186.235 140.293Z" fill="#FFFFFE"/>
</g>
<defs>
<clipPath id="clip0_5_326">
<rect width="250" height="250" fill="white"/>
</clipPath>
</defs>
</svg>
