<svg width="250" height="250" viewBox="0 0 250 250" fill="none" xmlns="http://www.w3.org/2000/svg">
<g clip-path="url(#clip0_5_291)">
<path d="M212.499 71.0859C185.574 54.0799 123.898 41.0724 77.8945 30.3719L25 87.2559L70.403 86.2854C47.7955 122.829 52.4025 208.761 109.572 220.184C106.628 214.54 101.518 204.17 108.143 191.332C112.861 182.2 139.089 132.001 139.089 132.001H145.368C153.87 132.001 156.669 135.199 152.898 139.708C175.562 139.419 189.479 130.845 195.724 121.683C190.97 112.98 175.846 102.734 169.714 98.5809H201.425C210.518 98.5809 212.569 102.393 210.428 106.543C225.268 103.624 232.854 83.9419 212.499 71.0859" fill="#A5ACAF"/>
<path d="M208.877 72.8205C172.203 52.24 81.3944 38.5225 81.3944 38.5225L42.4944 80.2125H82.8259C53.0474 119.579 59.6459 199.046 103.437 215.567C100.331 208.178 98.7574 199.601 104.355 188.689C110.673 176.383 120.728 155.697 135.132 128.081H146.887C156.643 128.081 159.762 132.208 158.439 135.393C166.461 135.393 181.129 134.606 191.772 121.683C182.906 109.289 153.589 94.8385 153.589 94.8385H203.883C211.274 94.8385 214.968 97.4685 213.946 101.923C226.795 95.646 223.455 80.9995 208.877 72.8205Z" fill="#FFFFFE"/>
<path d="M149.351 96.1904C149.351 96.1904 181.766 112.058 188.068 121.682C184.748 126.101 179.671 129.195 172.874 130.749C177.218 127.412 178.041 124.204 175.371 124.204H165.762C164.122 125.819 163.247 128.738 165.448 131.681C161.733 130.868 158.155 127.809 157.879 124.204H137.534C140.251 118.766 148.09 103.223 150.277 98.942L149.351 96.1904H149.351ZM207.353 75.5845C221.546 83.3765 220.609 94.1105 216.412 97.6539C216.487 93.8214 212.723 90.9694 205.934 90.9694H139.62L146.748 94.7894C146.748 94.7894 104.069 179.816 100.793 186.526C97.0114 194.279 95.9744 202.984 99.2324 210.237C90.7894 204.881 84.1599 196.264 79.4934 185.759L75.7039 185.501L115.961 126.4C115.876 126.021 115.801 125.636 115.734 125.254L75.0899 173.193C73.0084 165.46 71.8089 157.126 71.5509 148.578L66.9464 147.425L116.877 108.006C117.001 107.588 117.132 107.173 117.266 106.757L71.9894 134.252C72.6729 126.669 74.0994 119.089 76.2999 111.772L71.6154 109.119L124.904 91.3495C125.142 90.9855 125.384 90.6244 125.627 90.2679L80.8969 99.4124C83.3114 94.0285 86.1929 88.885 89.5744 84.123L85.4314 80.2129H138.924C139.074 79.9134 139.221 79.6194 139.368 79.3304L59.7234 73.2369L82.3694 48.8445L78.8274 44.3354C78.8274 44.3354 176.511 58.657 207.352 75.5855L207.353 75.5845Z" fill="black"/>
<path d="M210.858 81.7016L211.71 85.4696C205.906 86.5611 195.636 87.4311 192.734 87.6661C192.592 87.9551 192.445 88.2441 192.296 88.5411H207.582C213.647 88.5411 216.201 91.4186 216.74 93.0731C217.534 90.8096 216.802 84.7391 210.858 81.7016ZM193.859 74.2531C197.248 75.3836 204.876 79.6421 207.765 82.9741H202.284C200.122 79.4176 193.859 74.2531 193.859 74.2531Z" fill="#FFFFFE"/>
<path d="M79.202 121.347L111.78 103.549C111.955 103.107 112.138 102.663 112.329 102.222L80.977 113.493C80.2805 116.079 79.69 118.704 79.202 121.347V121.347ZM93.769 86.0475C92.332 88.017 90.9985 90.066 89.758 92.1825L121.623 86.4865C121.902 86.12 122.186 85.7535 122.469 85.395L93.769 86.048V86.0475ZM113.985 144.678C113.774 144.299 113.567 143.914 113.366 143.532L86.9125 183.441C88.3005 186.071 89.835 188.531 91.504 190.789L113.985 144.678ZM78.65 157.343L108.057 124.521C108.034 124.052 108.019 123.584 108.008 123.117L77.698 148.896C77.902 151.753 78.224 154.576 78.65 157.343V157.343ZM170.223 119.769L147.135 116.321L144.793 120.859H169.678L170.223 119.77V119.769ZM186.169 78.4695L80.4685 63.8355L86.9355 56.8285C122.539 62.3335 165.12 71.0365 186.74 77.3365C186.557 77.7055 186.363 78.085 186.169 78.4695Z" fill="#A71930"/>
</g>
<defs>
<clipPath id="clip0_5_291">
<rect width="250" height="250" fill="white"/>
</clipPath>
</defs>
</svg>
