<svg width="250" height="250" viewBox="0 0 250 250" fill="none" xmlns="http://www.w3.org/2000/svg">
<g clip-path="url(#clip0_5_4)">
<path d="M245.671 138.409C244.691 132.451 240.761 123.701 227.579 115.828C226.689 115.296 225.754 114.778 224.79 114.268C227.257 113.44 229.805 112.585 229.805 112.585L215.197 106.895C213.947 106.407 212.635 105.969 211.308 105.542L213.292 103.53L202.09 101.962C197.25 101.284 193.433 101.128 190.507 101.17C190.479 100.699 190.442 100.265 190.393 99.875C190.393 99.871 188.523 85.861 188.523 85.861C188.523 85.861 184.189 91.7725 183.758 92.3595C182.837 90.8265 181.791 89.3845 180.592 88.03C180.592 88.028 168.51 74.3815 168.51 74.3815C168.51 74.3815 168.992 78.396 169.378 81.6005C165.461 78.871 161.154 76.4325 156.388 74.3915C136.949 66.0635 112.367 64.3335 88.9415 69.6375C69.348 74.0765 41.058 85.6495 17.5615 115.568L4 132.837L24.4125 124.714C24.575 124.649 40.3325 118.512 53.04 116.723C57.779 116.055 61.4075 116.002 58.462 122.486C56.1405 127.603 50.867 135.072 50.812 135.147L40.5905 149.998L57.6405 144.084C65.8415 141.235 73.2025 139.832 76.925 139.7C78.2545 139.724 78.4985 140.601 78.0795 141.556C77.9595 141.887 77.8905 142.059 76.9695 143.473L66.2785 158.715L83.8145 152.44C96.5405 147.879 113.271 144.876 119.257 147.16C119.744 147.345 121.326 148.184 119.758 150.48L112.871 161.426C112.871 161.426 123.039 159.884 124.485 159.661C125.284 169.656 130.303 175.107 130.921 175.736L138.309 183.305L140.903 173.056C142.765 165.68 146.274 161.661 149.404 159.472C149.404 159.476 150.006 163.684 150.006 163.684L156.855 161.216C162.613 159.137 167.17 156.639 170.451 153.79C174.792 153.447 185.395 152.815 195.58 153.822C213.135 155.556 224.909 153.225 228.101 152.468C232.37 151.458 235.969 153.28 236.007 153.3L241.225 156.135L244.041 150.855C244.374 150.222 245.966 146.926 245.966 142.04C245.966 140.829 245.868 139.607 245.669 138.407" fill="#FFFFFE"/>
<path d="M243.225 139.421C242.357 134.144 238.781 126.342 226.656 119.096C223.414 117.167 219.893 115.516 216.329 114.113L220.622 112.671L214.725 110.372C211.803 109.233 208.734 108.295 205.568 107.533C206.176 106.918 206.835 106.246 206.835 106.246L202.316 105.61C195.355 104.638 190.549 104.749 187.721 105.013C187.748 104.404 187.768 103.76 187.768 103.111C187.768 102.201 187.734 101.305 187.638 100.581L186.88 94.9215C186.88 94.9215 184.131 98.672 183.735 99.2145C182.826 96.6925 181.336 93.567 178.616 90.4885L173.733 84.971L174.286 89.5765C169.897 85.503 163.822 81.2205 155.495 77.6525C136.605 69.56 112.653 67.889 89.7954 73.065C70.6369 77.4045 42.9709 88.7295 19.9684 118.016L14.1724 125.401L22.8999 121.925C23.0624 121.862 39.2954 115.439 52.4914 113.676C57.6654 112.99 61.2369 113.601 62.5444 115.404C63.7644 117.094 63.3719 120.436 61.4769 124.353C58.8829 129.728 53.5809 137.445 53.5279 137.526L49.1569 143.872L56.4469 141.346C66.0524 138.01 78.1629 135.543 80.9699 137.376C81.6184 137.801 81.9679 138.3 82.1044 138.999C82.5539 141.33 80.5449 144.863 79.8054 145.923L75.2294 152.436L82.7309 149.755C94.7149 145.462 116.201 140.54 122.842 145.625C125.914 147.978 123.044 152.629 122.915 152.824L119.968 157.513L125.44 156.678L128.118 156.264C128.101 156.692 128.073 157.127 128.073 157.535C128.073 168.117 133.432 173.744 133.69 174.012L136.851 177.249L137.961 172.86C141.072 160.542 148.433 156.278 152.535 154.832C152.649 155.648 153.22 159.638 153.22 159.638L156.148 158.582C163.328 155.993 167.349 153.152 169.557 151.02C172.86 150.732 184.962 149.818 196.583 150.963C213.696 152.657 225.07 150.409 228.15 149.678C233.824 148.338 238.435 150.789 238.484 150.813L240.736 152.041L241.946 149.777C242.023 149.635 243.481 146.802 243.481 142.52C243.481 141.557 243.406 140.522 243.225 139.421" fill="#9E7C0C"/>
<path d="M225.15 121.654C220.088 118.078 213.27 115.477 206.655 113.617C209.409 112.727 212.168 112.786 212.168 112.786C207.93 111.168 203.504 110.156 199.387 109.519L200.928 108.138C193.388 106.854 188.125 106.952 185.002 107.277C185.395 105.733 185.714 103.376 185.311 100.228C185.311 100.228 184.396 102.941 182.179 104.627C181.886 101.106 180.76 96.012 176.934 92.556L177.643 98.772C174.273 93.7015 167.859 87.2175 155.732 81.5515C122.768 66.161 64.6833 71.995 32.7988 113.131C32.7988 113.131 45.1978 106.942 62.3758 106.531C71.3758 106.32 73.5628 111.354 70.2838 119.838C66.9863 128.365 61.2068 135.846 61.2068 135.846C61.2068 135.846 100.08 122.086 87.8078 141.201C87.8078 141.201 117.153 132.422 125.956 142.72C130.048 147.499 125.283 154.182 125.283 154.182L133.608 152.383C130.908 162.944 135.635 169.69 135.635 169.69C139.07 155.883 151.05 152.206 155.291 151.509L156.208 155.25C163.315 152.683 166.658 149.952 168.568 147.702C183.618 145.338 193.838 147.359 205.44 147.99C222.339 148.912 231.075 145.972 233.866 145.99C235.915 146.009 238.345 147.794 238.345 147.794C238.345 147.794 245.369 135.951 225.151 121.654" fill="black"/>
<path d="M211.278 144.116C199.576 144.173 189.151 141.198 175.018 142.94L170.284 139.142C169.005 142.422 167.251 144.652 167.251 144.652C168.812 141.862 167.216 138.547 166.555 136.925C160.733 133.832 151.205 127.914 159.298 125.983C154.256 125.232 138.897 123.717 119.654 129.206C119.654 129.206 137.444 117.336 171.656 122.915C162.413 117.403 142.158 117.631 142.158 117.631C160.615 113.021 182.89 120.311 191.16 123.012L183.453 117.446L193.188 118.289L187.955 114.075C187.955 114.075 208.667 115.543 222.147 124.521C237.902 133.741 235.973 143.421 235.973 143.421C232.277 135.688 204.928 130.404 173.329 126.676C164.89 125.685 161.326 126.236 161.682 128.203C162.02 130.055 166.891 133.713 171.77 135.632C168.281 132.285 171.312 131.432 171.312 131.432C176.858 130.979 212.66 134.328 230.946 142.156C225.992 143.312 219.694 144.069 211.278 144.116ZM106.598 125.252C106.419 125.366 106.234 125.486 106.055 125.606C105.858 125.746 105.659 125.88 105.462 126.014L105.175 126.209C104.317 126.255 103.472 126.284 102.648 126.284L95.0671 126.72C90.5661 126.95 82.9691 127.862 80.4421 128.182L79.5881 128.286C85.4776 107.696 90.7936 100.479 94.3531 96.9495C96.4696 94.3705 100.212 92.622 103.213 91.6025C83.0521 92.563 63.4526 96.7075 63.4526 96.7075C76.1281 86.881 105.518 80.015 122.461 81.741C139.401 83.469 138.248 90.333 136.506 94.248C135.095 97.412 128.175 101.701 121.668 103.086C128.405 103.963 132.221 109.158 129.808 114.344C129.6 114.788 129.361 115.219 129.104 115.633C121.914 117.339 115.532 120.044 110.296 122.999C110.113 123.106 109.932 123.212 109.749 123.316C109.505 123.458 109.259 123.6 109.017 123.744L108.46 124.075C108.232 124.213 108.008 124.353 107.787 124.492C107.602 124.61 106.807 125.113 106.597 125.251L106.598 125.252Z" fill="#FFFFFE"/>
<path d="M146.58 82.8715C183.187 93.7845 177.643 114.762 177.643 114.762C177.643 114.762 174.687 114.949 171.2 108.438C167.909 102.293 163.046 101.505 163.046 101.505C163.046 101.505 166.638 101.174 171.682 103.369C171.682 103.369 164.595 92.7485 144.364 93.567C144.364 93.567 154.569 94.822 158.891 100.522C158.891 100.522 145.147 98.3595 132.784 104.75C132.784 104.75 143.811 102.929 152.268 108.621C152.268 108.621 139.586 107.672 132.626 114.89C138.82 113.746 145.537 113.375 152.573 114.207C157.177 114.906 161.093 115.838 163.973 116.638C156.807 115.848 149.206 115.871 142.158 117.631C142.158 117.631 162.412 117.404 171.656 122.915C137.444 117.337 119.653 129.206 119.653 129.206C138.897 123.717 154.256 125.232 159.297 125.984C151.204 127.915 160.732 133.832 166.555 136.925C167.215 138.548 168.811 141.862 167.252 144.648C163.426 149.892 159.151 150.958 159.151 150.958C161.682 144.565 158.59 140 158.59 140C158.59 140 156.45 146.588 147.167 150.462C136.988 154.719 135.409 160.926 135.409 160.926C135.409 160.926 135.039 155.252 140.418 149.284C142.146 147.359 143.416 145.759 144.219 144.358L132.839 147.473C140.472 125.308 96.4127 134.222 96.4127 134.222C98.0327 131.928 101.158 128.969 105.461 126.014C105.658 125.88 105.858 125.746 106.055 125.606C106.234 125.486 106.419 125.367 106.598 125.253C106.807 125.115 107.017 124.977 107.23 124.845L107.787 124.493C108.008 124.355 108.232 124.215 108.46 124.077L109.017 123.746C109.259 123.602 109.505 123.459 109.749 123.317C109.932 123.214 110.113 123.108 110.296 123C115.533 120.046 121.914 117.341 129.104 115.635C129.36 115.22 129.6 114.79 129.808 114.345C132.221 109.159 128.405 103.964 121.668 103.087C128.175 101.702 135.095 97.413 136.506 94.2495C138.248 90.3345 139.401 83.4705 122.461 81.7425C105.518 80.0165 76.1282 86.882 63.4527 96.709C63.4527 96.709 83.0522 92.5645 103.213 91.604C100.212 92.6235 96.4697 94.372 94.3532 96.951C90.7937 100.481 85.4772 107.698 79.5882 128.287L80.4422 128.184L72.9022 129.364C72.9022 129.364 84.4307 110.947 76.8217 103.115C70.2797 96.3785 48.4707 103.235 48.4707 103.235C70.1357 82.509 109.17 71.722 146.58 82.8725V82.8715ZM108.188 119.796C107.041 120.087 105.933 120.188 105 120.188H100.67C100.67 120.188 102.408 114.774 105.204 108.863H106.901C110.937 108.863 113.175 111.129 110.662 116.535C110.02 117.914 109.16 118.976 108.188 119.796H108.188ZM115.703 101.104C114.481 101.465 113.123 101.674 111.676 101.674H108.639C110.52 97.3485 112.022 94.7085 113.065 93.137C117.021 93.1715 118.629 95.1435 116.535 99.633C116.273 100.202 115.992 100.687 115.703 101.103V101.104Z" fill="#241773"/>
<path d="M116.535 99.633C116.273 100.201 115.992 100.687 115.704 101.103C118.129 100.382 120.005 99.042 120.928 97.4435C122.957 93.904 121.402 91.3655 118.129 91.0185L114.728 91.0285C114.728 91.0285 114.14 91.512 113.065 93.1365C117.021 93.171 118.629 95.143 116.535 99.6325L116.535 99.633ZM110.662 116.534C110.019 117.913 109.159 118.975 108.188 119.795C110.753 119.162 113.526 117.626 115.053 114.345C117.57 108.937 115.327 106.671 111.296 106.671H106.283C105.909 107.404 105.547 108.137 105.203 108.862H106.901C110.936 108.862 113.174 111.128 110.662 116.534Z" fill="black"/>
<path d="M134.962 88.8315C133.378 86.234 129.511 84.697 122.646 84.3475C122.646 84.3475 115.696 83.4055 106.901 84.581C103.421 85.046 86.5027 86.766 72.0972 93.7905C84.6952 90.726 99.5842 89.603 109.011 89.262C112.975 89.122 117.33 89.246 117.33 89.246C120.15 89.246 122.764 90.0785 123.767 91.7215C124.806 93.421 125.092 95.46 123.139 97.9495C122.063 99.3225 120.801 100.768 117.136 102.258L121.36 101.359C127.675 100.01 133.405 96.467 134.723 93.7195C135.684 91.713 135.739 90.105 134.963 88.8315" fill="#9E7C0C"/>
<path d="M104.403 104.915H111.359C114.949 104.915 116.6 106.385 117.356 107.624C118.541 109.564 118.33 112.177 116.862 115.451C114.03 121.764 107.169 122.332 105.11 122.332L97.2156 122.633C100.637 111.789 104.402 104.915 104.402 104.915H104.403ZM108.021 124.343C113.043 121.248 119.326 118.301 126.501 116.305C126.954 115.702 127.344 115.065 127.655 114.391C128.377 112.845 128.46 110.924 127.946 109.405C127.171 107.1 125.628 105.565 120.765 104.427C114.366 102.935 105.018 103.593 105.018 103.593C107.169 98.376 108.775 95.326 110.383 92.682C109.001 92.5925 102.03 93.332 96.6771 98.433C92.0156 102.549 86.9801 113.241 82.9751 125.974C89.8646 125.251 96.1101 124.924 96.1101 124.924L102.66 124.641C104.382 124.641 106.193 124.547 108.021 124.342V124.343Z" fill="#9E7C0C"/>
<path d="M166.362 106.94C167.411 109.421 165.965 112.177 163.131 113.097C160.299 114.019 157.15 112.747 156.101 110.266C155.052 107.782 156.5 105.022 159.332 104.107C162.162 103.187 165.313 104.454 166.362 106.94ZM166.104 108.453C165.535 106.964 163.796 106.217 162.217 106.786C160.641 107.348 159.818 109.009 160.389 110.496C160.961 111.986 162.699 112.732 164.278 112.169C165.858 111.603 166.677 109.94 166.104 108.453V108.453Z" fill="#C60C30"/>
<path d="M159.076 110.588C158.287 108.724 159.428 106.628 161.617 105.916C162.463 105.642 163.339 105.611 164.14 105.788C163.047 105.097 161.565 104.882 160.176 105.335C157.981 106.045 156.842 108.137 157.635 110.014C158.119 111.163 159.225 111.961 160.514 112.237C159.879 111.837 159.369 111.277 159.076 110.588Z" fill="#FFFFFE"/>
</g>
<defs>
<clipPath id="clip0_5_4">
<rect width="250" height="250" fill="white"/>
</clipPath>
</defs>
</svg>
