<svg width="250" height="250" viewBox="0 0 250 250" fill="none" xmlns="http://www.w3.org/2000/svg">
<g clip-path="url(#clip0_5_142)">
<path d="M32.287 158.172C48.624 147.739 53.763 135.987 53.763 135.987L7.49951 142.628L27.16 107.701L66.662 104.374C66.662 104.374 82.03 90.656 105.824 80.82C105.824 80.82 108.306 76.492 121.895 68.6685C121.895 68.6685 134.358 61.327 148.552 56.6295C148.552 56.6295 158.172 53.32 161.01 53.1535L160.176 50.0935L178.314 48.539L178.782 46.801C178.782 46.801 188.25 47.44 193.68 49.844L194.75 48.4195C194.75 48.4195 207.421 54.2455 216.852 68.561C216.852 68.561 226 68.052 234.188 71.971C234.188 71.971 242.865 75.4225 242.474 85.4985C242.474 85.4985 242.415 98.355 238.573 111.097C238.573 111.097 237.983 113.092 237.435 114.282C237.435 114.282 236.637 115.905 235.098 117.954C235.098 117.954 230.801 122.38 229.134 126.277C229.134 126.277 228.231 128.869 226.437 133.579C226.437 133.579 225.057 140.056 215.65 140.416C215.65 140.416 206.495 152.004 202.678 155.331L202.355 152.516C202.355 152.516 195.968 158.435 190.425 161.93L192.297 145.524C192.297 145.524 192.757 142.594 190.897 142.384L186.113 142.269C186.113 142.269 187.679 152.144 185.787 156.709C185.787 156.709 184.583 163.877 173.466 167.289C173.466 167.289 164.876 170.024 155.048 170.792L152.936 170.457L137.465 176.799L141.988 160.572C141.988 160.572 136.19 161.159 135.691 160.432L118.463 167.82L125.235 148.411L129.875 145.84L128.394 143.828L118.87 143.914L115.365 146.641C107.275 144.533 99.4095 145.101 99.4095 145.101L59.3765 177.602L49.3455 199.783L37.3665 183.761L41.1155 178.856L39.6915 177.784L34.2615 182.058L26.2225 203.717L14.383 187.003L17.4275 180.21L16.7545 176.048C20.2785 173.72 22.559 172.161 24.3405 170.159C25.312 168.905 25.848 168.47 26.976 166.362C28.0405 163.787 28.0795 160.999 29.2665 160.115C30.752 159.107 31.8875 158.429 32.2865 158.174" fill="#FFFFFE"/>
<path d="M29.4071 111.201L14.1001 138.185L211.612 108.739C211.612 108.739 204.748 103.517 214.698 95.26L29.4071 111.201Z" fill="#C60C30"/>
<path d="M229.897 91.5026L72.1585 104.465C89.0975 90.5996 112.375 82.1911 112.375 82.1911L110.307 81.0551L114.181 79.2316L114.736 77.5621C145.206 57.1561 166.684 56.1601 166.684 56.1601L165.715 53.2766C176.13 52.1896 180.905 52.2241 180.905 52.2241L181.304 51.1321C189.162 51.0441 194.712 54.8651 194.712 54.8651L195.891 53.1076C212.133 64.3536 214.482 72.5566 214.482 72.5566C226.265 71.5921 232.559 75.0656 232.559 75.0656C241.029 78.7081 238.501 91.0726 238.501 91.0726C238.52 93.4546 236.169 105.954 236.169 105.954C234.221 114.578 230.714 117.863 230.714 117.863C226.185 122.323 225.086 126.856 225.086 126.856C222.741 133.309 221.912 134.141 221.912 134.141C220.103 137.106 212.772 136.959 212.772 136.959C211.059 141.098 204.38 148.332 204.38 148.332L203.768 146.271L194.954 154.126L196.334 143.196C196.838 139.468 192.822 138.611 192.822 138.611L173.551 139.453C170.732 152.572 160.605 154.577 160.605 154.577C146.006 157.531 136.303 156.929 136.303 156.929L135.679 156.459L124.53 161.313L128.46 150.418L134.401 148.058C134.859 147.911 134.692 147.299 134.692 147.299L134.125 145.553C140.245 145 145.832 140.701 145.832 140.701C146.544 140.124 145.477 139.879 145.477 139.879L117.112 140.505L114.875 142.652C90.3745 138.596 73.5945 145.759 73.5945 145.759C54.575 152.846 43.01 170.95 43.01 170.95L31.1925 180.03L25.224 196.147L18.6265 186.671L21.321 180.485L20.91 177.601C26.6635 173.92 29.147 169.589 29.147 169.589C31.151 166.921 30.9945 164.715 30.9945 164.715C31.139 162.948 32.754 162 32.754 162C54.776 148.681 58.0965 134.615 58.0965 134.615L213.378 111.11C210.85 122.919 220.408 118.616 220.408 118.616C214.224 114.251 219.821 111.15 219.821 111.15C214.474 102.051 229.896 91.5026 229.896 91.5026H229.897ZM175.487 141.876L182.15 141.8C182.15 141.8 183.484 150.598 182.694 154.522C182.694 154.522 181.38 160.356 175.426 162.637C175.426 162.637 166.655 166.351 153.504 167.193L152.868 166.647L142.898 170.855L146.173 159.256C146.173 159.256 159.537 158.223 163.574 157.014C163.574 157.014 173.935 154.977 175.487 141.876V141.876ZM93.402 145.32L56.4965 175.229L48.5235 192.901L41.449 183.417L45.4355 177.922L45.1245 175.736C53.516 171.041 53.56 164.118 53.56 164.118C69.7555 145.036 93.402 145.32 93.402 145.32Z" fill="#00338D"/>
</g>
<defs>
<clipPath id="clip0_5_142">
<rect width="250" height="250" fill="white"/>
</clipPath>
</defs>
</svg>
