<svg width="250" height="250" viewBox="0 0 250 250" fill="none" xmlns="http://www.w3.org/2000/svg">
<g clip-path="url(#clip0_5_299)">
<path d="M224.945 72.6084L224.948 72.6049L224.945 72.6084ZM190.617 123.985C190.617 123.985 193.456 117.736 192.176 110.071C192.176 110.071 186.784 108.083 176.986 110.071C176.986 110.071 172.298 120.573 166.331 125.685C166.331 125.685 170.88 115.036 168.176 107.088C168.176 107.088 176.413 103.823 186.503 104.532C196.583 105.241 198.85 107.374 198.85 107.374C198.85 107.374 196.297 119.441 190.616 123.985H190.617ZM184.107 145.986C188.794 142.56 188.296 135.846 188.296 135.846C189.431 138.504 190.067 142.057 189.431 144.594C188.795 147.126 187.152 149.663 180.302 150.292C173.454 150.93 169.525 148.772 169.525 148.772C172.572 145.733 175.528 137.494 175.528 137.494C177.052 143.331 175.757 146.031 175.757 146.031C179.054 147.041 184.107 145.986 184.107 145.986H184.107ZM194.893 144.877C196.544 156.925 185.829 161.982 179.875 161.982C173.919 161.982 165.731 159.453 162.607 149.338C159.483 139.219 159.483 126.72 163.5 120.62C163.5 120.62 160.825 132.671 162.311 139.518C163.799 146.362 166.626 152.164 172.132 153.209C177.641 154.247 185.828 153.951 188.801 150.525C191.783 147.102 192.971 142.194 189.996 135.496C187.016 128.805 181.065 120.171 190.898 111.547C190.898 111.547 186.574 116.75 188.21 124.342C189.845 131.928 193.238 132.832 194.893 144.877H194.893ZM156.429 95.0475C134.002 91.9625 115.605 96.5429 115.605 96.5429C133.671 90.7219 150.096 91.4494 158.193 92.3769C157.436 93.3059 156.854 94.2 156.428 95.0475H156.429ZM155.376 100.624C133.457 99.1064 116.075 104.478 116.075 104.478C131.88 98.401 146.672 97.5999 155.46 97.8444C155.258 98.8999 155.269 99.8409 155.376 100.624ZM118.457 132.314C110.089 122.051 113.612 108.336 113.612 108.336C113.612 108.336 113.925 120.1 124.193 130.493C134.465 140.889 147.211 143.702 147.211 143.702C147.211 143.702 126.826 142.584 118.456 132.314H118.457ZM163.493 87.6389C162.34 88.4394 161.347 89.2244 160.482 90.0009C136.481 84.3324 115.491 88.3495 115.491 88.3495C141.482 81.5334 163.493 87.6389 163.493 87.6389ZM144.776 75.0799L144.781 75.0749L144.788 75.0715C145.148 74.9174 152.454 71.8654 159.911 73.5604C167.561 75.3019 172.308 80.4854 172.308 80.4854C172.308 80.4854 165.438 78.4265 152.706 78.6535C152.706 78.6535 152.206 77.7264 153.516 75.7854C153.516 75.7854 151.476 75.1894 144.773 75.0799H144.775H144.776ZM201.111 77.2009C205.026 76.4139 208.598 78.4259 210.277 79.9909C210.277 79.9909 201.226 78.3169 196.984 82.2249C196.984 82.2249 197.207 77.9789 201.111 77.2009ZM244.247 107.05C235.403 102.227 225.373 100.728 217.678 100.428C217.678 100.428 214.547 100.485 214.063 100.472C214.221 99.1915 214.181 98.0439 213.978 97.0299C215.889 96.9729 218.307 96.8965 218.661 96.8789L218.952 96.8615C234.372 96.357 242.525 100.431 242.525 100.431L241.742 99.8369C234.232 96.3569 226.286 95.0835 219.413 94.889H219.137C219.137 94.889 215.817 94.8839 213.292 94.9304C212.6 93.4714 211.589 92.3709 210.57 91.5664C213.817 91.5474 217.579 91.5579 219.745 91.6549L219.904 91.66C231.768 91.785 238.24 94.5954 238.24 94.5954L237.461 93.9834C231.576 91.4724 225.562 90.3355 219.924 89.9595C219.924 89.9595 212.574 89.5659 206.908 89.5989C208.549 90.8414 209.805 92.6299 209.926 95.1999C210.311 103.116 202.133 106.307 202.133 106.307C204.054 105.028 207.5 100.692 206.609 95.07C205.711 89.455 198.434 86.786 198.434 86.786C198.434 86.786 189.91 90.4789 188.06 97.4319C188.06 97.4319 188.204 90.195 176.13 85.507C176.13 85.507 181.811 83.8049 187.921 84.2279C194.027 84.6579 198.434 86.786 198.434 86.786C198.434 86.786 199.559 83.8104 205.549 82.7929C211.546 81.7754 218.027 83.2419 218.027 83.2419C216.831 81.0584 215.453 77.8729 209.426 75.412C203.403 72.9509 197.999 75.1779 197.999 75.1779C197.999 75.1779 197.607 72.2699 193.229 69.4379C186.113 64.8369 167.294 62.0949 163.663 61.8974C160.04 61.7069 166.385 64.0414 168.926 65.4919C171.816 67.1364 175.049 69.9319 175.327 72.5854C175.398 73.2994 175.23 73.92 174.911 74.438C174.654 73.6965 174.119 72.7484 173.178 71.5384C168.022 64.9199 154.948 62.0569 145.134 62.7104C135.322 63.3654 127.524 67.0759 127.524 67.0759C127.637 67.9824 123.906 71.1449 113.616 72.2804C103.811 73.3549 96.8905 71.5629 94.4015 71.1939L94.2125 71.1574C93.2035 71.0324 92.446 71.0779 92.129 71.8039L92.096 71.9044L92.075 72.0394C92.0315 72.5454 92.342 73.2439 92.342 73.2439L92.198 72.9684C92.8965 74.3079 97.0675 81.9959 102.564 85.9419C102.564 85.9419 105.849 85.2454 109.746 84.8259C109.746 84.8259 49.516 114.131 25.1145 159.918C35.7465 158.67 49.736 157.866 64.922 159.204L64.8195 159.193H64.811C67.004 155.505 78.0085 134.912 104.178 122.259C104.178 122.259 84.8285 135.708 77.9515 160.871C86.7005 162.355 95.637 164.656 104.388 168.062C132.515 179.02 156.225 190.477 182.952 190.241L187.496 190.041L187.488 190.02C180.387 175.225 173.397 168.463 173.397 168.463C178.683 169.411 182.952 167.905 183.031 167.879C183.428 167.735 183.771 167.593 184.059 167.462C192.801 162.75 194.258 154.774 194.977 149.061C195.798 142.454 194.626 138.229 194.626 138.229C194.626 138.229 209.76 118.369 213.602 102.747C213.602 102.747 215.54 102.482 217.031 102.513C235.065 102.716 244.921 107.726 244.921 107.726L244.248 107.049L244.247 107.05ZM224.731 73.2494C224.786 73.1229 224.83 73.0049 224.865 72.8889L224.944 72.5994L224.943 72.5854C224.594 71.5924 223.904 71.5194 222.445 71.6339C220.321 72.0379 218.359 72.2959 216.704 72.4589H216.708L216.438 72.4884L216.245 72.5059L215.529 72.5719L215.426 72.5754C213.298 72.7504 211.949 72.7589 211.949 72.7589C217.391 76.8729 218.027 83.2439 218.027 83.2439L218.306 83.0064C222.482 79.9754 224.73 73.2494 224.73 73.2494H224.731Z" fill="black"/>
<path d="M168.176 107.089C170.881 115.037 166.332 125.686 166.332 125.686C172.299 120.574 176.986 110.072 176.986 110.072C186.784 108.084 192.177 110.072 192.177 110.072C193.457 117.737 190.617 123.986 190.617 123.986C196.298 119.442 198.852 107.375 198.852 107.375C198.852 107.375 196.584 105.242 186.504 104.533C176.414 103.824 168.177 107.089 168.177 107.089H168.176ZM201.112 77.2015C197.208 77.9795 196.985 82.2255 196.985 82.2255C201.227 78.3175 210.278 79.9915 210.278 79.9915C208.6 78.4265 205.027 76.4145 201.112 77.2015ZM184.108 145.987C184.108 145.987 179.054 147.043 175.757 146.032C175.757 146.032 177.052 143.332 175.528 137.495C175.528 137.495 172.573 145.734 169.525 148.774C169.525 148.774 173.455 150.931 180.302 150.294C187.152 149.665 188.795 147.128 189.431 144.596C190.067 142.059 189.431 138.506 188.296 135.847C188.296 135.847 188.795 142.561 184.107 145.987H184.108ZM159.913 73.5605C152.455 71.8655 145.15 74.9175 144.789 75.0715C145.143 74.9205 152.119 72.009 159.393 73.451C155.26 72.6675 153.518 75.7855 153.518 75.7855C152.207 77.7265 152.708 78.6535 152.708 78.6535C165.439 78.4265 172.31 80.4855 172.31 80.4855C172.31 80.4855 167.563 75.302 159.913 73.5605H159.913Z" fill="#BFC0BF"/>
<path d="M213.602 102.749C209.76 118.371 194.626 138.231 194.626 138.231L194.633 138.224C206.071 128.469 213.695 111.215 217.031 102.515C215.54 102.484 213.602 102.749 213.602 102.749ZM214.063 100.472C214.546 100.486 217.677 100.429 217.677 100.429C217.967 99.455 218.32 98.214 218.66 96.88C218.307 96.8975 215.888 96.9735 213.978 97.031C214.181 98.045 214.22 99.192 214.063 100.473V100.472ZM188.21 124.343C186.574 116.75 190.897 111.548 190.897 111.548C181.065 120.171 187.016 128.805 189.996 135.496C192.971 142.194 191.783 147.102 188.801 150.525C185.828 153.951 177.641 154.248 172.131 153.21C166.625 152.165 163.798 146.363 162.311 139.519C160.825 132.672 163.5 120.62 163.5 120.62C159.483 126.72 159.483 139.219 162.607 149.338C165.731 159.454 173.918 161.982 179.875 161.982C185.828 161.982 196.543 156.925 194.893 144.877C193.237 132.833 189.845 131.928 188.21 124.343H188.21ZM225.041 71.801L225.02 71.605L225.005 71.5045L224.951 71.3345L224.918 71.246L224.847 71.0985L224.809 71.0275L224.716 70.896L224.664 70.839L224.561 70.7315L224.508 70.683L224.388 70.593L224.331 70.553L224.208 70.4855L224.151 70.4525L224.026 70.397L223.973 70.371L223.855 70.3295L223.803 70.314L223.688 70.283L223.65 70.271L223.545 70.252L223.514 70.245L223.432 70.2345L223.413 70.2295L223.321 70.219C215.805 70.3005 209.633 67.751 209.633 67.751L209.127 67.569C192.418 61.4565 175.075 59.7065 159.634 59.987L159.629 59.9715C152.733 60.0355 147.699 60.599 147.699 60.599C125.528 62.4725 109.635 67.784 109.635 67.784C109.635 67.784 103.601 69.4825 95.5675 69.082C95.5675 69.082 92.584 69.03 91.9945 70.9295C91.49 72.139 91.4205 73.5775 92.556 76.7265C93.8665 80.359 99.109 87.187 99.1485 87.2375C83.2915 93.6775 41.9965 116.832 5.00098 163.392C5.00098 163.392 12.8195 161.361 25.1155 159.921C49.517 114.134 109.747 84.829 109.747 84.829C105.85 85.2485 102.565 85.945 102.565 85.945C97.0685 81.999 92.8975 74.311 92.199 72.9715L92.343 73.247C92.343 73.247 92.0325 72.5485 92.076 72.0425L92.097 71.9075L92.13 71.807C92.447 71.081 93.205 71.036 94.2135 71.1605L94.4025 71.197C96.892 71.566 103.812 73.358 113.617 72.2835C123.907 71.1485 127.638 67.9855 127.525 67.079C127.525 67.079 135.323 63.3685 145.135 62.7135C154.948 62.06 168.023 64.923 173.178 71.5415C174.12 72.751 174.655 73.699 174.912 74.441C175.231 73.923 175.399 73.3025 175.328 72.5885C175.05 69.935 171.817 67.14 168.927 65.495C166.386 64.0445 160.041 61.71 163.664 61.9005C167.294 62.098 186.114 64.8395 193.23 69.441C197.609 72.273 198 75.181 198 75.181C198 75.181 203.404 72.954 209.426 75.415C215.454 77.876 216.832 81.061 218.028 83.245C218.028 83.245 217.392 76.8745 211.95 72.76C211.95 72.76 213.299 72.7515 215.428 72.5765L215.53 72.573L216.246 72.507L216.439 72.4895L216.709 72.46H216.706C218.36 72.297 220.322 72.039 222.446 71.635C223.905 71.5205 224.595 71.5935 224.944 72.5865L224.945 72.6005L224.866 72.89C224.831 73.006 224.788 73.124 224.732 73.2505C224.732 73.2505 222.484 79.9765 218.308 83.0075L218.029 83.245C218.029 83.245 211.547 81.779 205.551 82.796C199.56 83.8135 198.435 86.789 198.435 86.789C198.435 86.789 205.712 89.458 206.61 95.073C207.501 100.695 204.055 105.031 202.134 106.31C202.134 106.31 210.311 103.119 209.927 95.203C209.805 92.633 208.55 90.8445 206.909 89.602C212.576 89.569 219.926 89.9625 219.926 89.9625C219.96 87.77 219.596 85.9645 218.761 84.401C223.11 80.6265 224.717 74.8765 224.946 72.6095L224.95 72.606V72.601C224.971 72.5245 225.01 72.3185 225.017 72.2735L225.029 72.1435C225.04 72.067 225.043 71.991 225.043 71.918V71.802L225.041 71.801ZM176.129 85.509C188.203 90.197 188.06 97.434 188.06 97.434C189.909 90.481 198.433 86.788 198.433 86.788C198.433 86.788 194.027 84.66 187.921 84.23C181.81 83.807 176.129 85.509 176.129 85.509ZM210.57 91.5675C211.589 92.3715 212.6 93.472 213.291 94.9315C215.817 94.8845 219.137 94.89 219.137 94.89C219.376 93.8225 219.587 92.748 219.733 91.743L219.745 91.6565C217.578 91.5595 213.816 91.549 210.57 91.568V91.5675ZM183.031 167.881C182.953 167.907 178.683 169.413 173.397 168.465C173.397 168.465 180.387 175.227 187.488 190.022L187.496 190.043L187.774 190.025C187.087 183.282 184.208 171.99 183.542 169.901L183.031 167.881ZM124.194 130.492C113.926 120.099 113.612 108.336 113.612 108.336C113.612 108.336 110.09 122.051 118.458 132.314C126.827 142.584 147.212 143.701 147.212 143.701C147.212 143.701 134.465 140.889 124.194 130.492H124.194ZM64.811 159.195H64.8195L64.922 159.205C65.305 159.238 66.5305 159.353 66.5985 159.363C66.765 159.377 68.8695 159.597 68.8885 159.598C71.8755 159.933 74.9005 160.352 77.9515 160.872C84.8285 135.709 104.178 122.26 104.178 122.26C78.009 134.913 67.004 155.507 64.811 159.194V159.195ZM115.491 88.349C115.491 88.349 136.481 84.332 160.482 90.0005C161.347 89.224 162.341 88.439 163.493 87.6385C163.493 87.6385 141.482 81.533 115.491 88.349ZM115.606 96.5425C115.606 96.5425 134.002 91.962 156.429 95.047C156.854 94.1995 157.436 93.3055 158.194 92.3765C150.097 91.4495 133.671 90.7215 115.606 96.5425H115.606ZM159.392 73.45C152.118 72.008 145.142 74.9195 144.788 75.0705L144.781 75.074L144.776 75.079H144.775C151.477 75.188 153.517 75.7845 153.517 75.7845C153.517 75.7845 155.259 72.667 159.392 73.45H159.392ZM116.075 104.478C116.075 104.478 133.458 99.1055 155.377 100.624C155.269 99.8405 155.259 98.8995 155.46 97.844C146.672 97.5995 131.88 98.4005 116.075 104.478Z" fill="#0085CA"/>
</g>
<defs>
<clipPath id="clip0_5_299">
<rect width="250" height="250" fill="white"/>
</clipPath>
</defs>
</svg>
