<svg width="250" height="250" viewBox="0 0 250 250" fill="none" xmlns="http://www.w3.org/2000/svg">
<g clip-path="url(#clip0_5_235)">
<path d="M82.372 61.7735C57.2805 72.157 45.8695 87.9085 40.7285 99.288C37.4225 106.683 34.1775 112.231 30.516 116.759C26.7615 120.668 19.898 124.98 15.886 126.5L15.1365 126.784L15.0005 129.517L16.037 129.723C21.233 130.756 27.7055 134.663 29.8045 137.338C32.5025 140.051 34.381 141.927 39.114 150.321C39.1805 150.423 41.537 154.155 41.537 154.155C43.071 156.738 44.6575 159.41 48.907 164.115C52.175 168.708 67.827 183.153 84.8595 189.367C96.8265 195.3 112.542 198.233 132.782 198.288C162.508 198.459 185.009 191.956 205.735 177.215C214.329 170.555 217.108 167.874 224.354 159.265C229.208 153.526 234.485 143.406 234.711 132.227L234.74 130.976L192.686 130.929L192.454 131.862C189.036 145.589 175.21 154.151 167.273 158.034C146.561 166.842 120.476 166.95 100.882 158.277C82.564 149.096 72.826 136.677 73.5125 123.331C74.21 109.728 85.789 96.7245 103.007 90.2095C136.311 78.002 168.324 88.498 180.415 99.8545L180.768 100.184L229.77 100.138L229.107 98.4645C219.027 72.9115 182.577 58.5065 166.502 55.5355C130.518 47.295 99.44 53.3525 82.373 61.7725" fill="#0B162A"/>
<path d="M38.0105 113.059C40.5695 109.014 41.5855 106.732 42.9835 103.57L44.483 100.252C48.996 90.6475 56.589 81.845 66.434 74.8005C76.056 68.352 86.7145 63.1865 95.6475 60.6415C134.469 49.3605 174.162 59.043 191.374 68.303C198.176 71.4245 216.584 82.355 224.029 96.5515H182.562C153.687 74.082 114.736 79.795 95.526 89.1735C87.765 93.485 83.255 96.9625 77.6075 102.985C68.8395 113.6 64.124 131.682 79.5385 147.889C86.506 154.667 93.474 159.259 102.158 162.821C122.242 171.145 150.425 170.219 170.688 160.562C183.634 153.807 192.228 144.845 195.705 134.61H230.685C229.446 143.496 226.858 152.687 213.594 165.531L212.118 166.855C205.694 172.654 196.891 180.603 179.697 186.88C150.367 198.263 106.503 196.948 81.892 183.962C81.8775 183.956 80.346 183.183 80.346 183.183C74.817 180.415 67.2415 176.627 57.6975 167.75C51.0365 161.634 46.3965 155.591 40.5605 145.451C34.198 133.805 26.2315 129.558 21.9475 127.754C25.6815 125.872 32.9795 121.392 38.0105 113.059Z" fill="#FFFFFE"/>
<path d="M39.527 119.501C43.684 114.901 46.9665 103.078 53.5375 94.099C62.867 80.9445 75.216 74.056 84.404 69.661C105.417 59.3675 135.63 56.434 165.185 63.5285C175.91 66.071 186.638 69.8815 194.297 74.873C201.963 79.4275 210.936 85.9975 215.973 92.391H184.403C175.036 84.903 164.745 81.2665 155.551 79.2945C145.263 76.6685 129.062 75.267 109.797 79.868C98.412 82.7115 90.5325 86.652 82.87 92.1275C67.768 102.859 51.129 131.061 80.6815 155.589C90.315 163.73 98.412 166.362 107.389 169.472C124.028 174.288 144.826 173.37 156.866 170.083C175.036 165.265 181.821 158.916 187.732 153.88C193.206 148.625 197.803 142.272 199.074 138.988L224.993 138.945C223.196 148.625 216.19 156.507 209.405 163.076C201.633 170.405 195.832 174.244 184.36 179.983C157.523 192.857 118.117 192.42 93.818 183.617C81.339 179.06 77.836 177.004 68.4225 170.477C60.76 164.304 55.7235 160.23 48.501 149.062C45.2185 143.586 43.684 140.523 39.9645 135.488C37.336 132.639 35.585 130.009 30.988 127.821C35.2025 124.867 37.4985 122.675 39.5275 119.501" fill="#C83803"/>
</g>
<defs>
<clipPath id="clip0_5_235">
<rect width="250" height="250" fill="white"/>
</clipPath>
</defs>
</svg>
