<svg width="250" height="250" viewBox="0 0 250 250" fill="none" xmlns="http://www.w3.org/2000/svg">
<g clip-path="url(#clip0_5_17)">
<path d="M206.467 122.384C205.385 121.836 205.52 120.858 206.3 120.278C215.518 113.458 221.738 104.707 221.738 91.2C221.738 75.2065 210.284 52.7595 165.493 52.7595H50.038L23.889 98.2435H43.09C45.235 98.2435 46.9665 99.9725 46.9665 102.107V147.513C46.9665 149.647 45.235 151.38 43.09 151.38H22.4995L48.926 196.7L170.965 196.686C210.351 196.686 227.378 176.171 227.378 154.151C227.378 139.566 217.007 127.749 206.467 122.384" fill="#FFFFFE"/>
<path d="M138.083 114.682H119.117V96.4545C119.135 94.544 120.685 93.004 122.602 93.004H138.083C147.168 93.004 150.543 97.6285 150.543 103.665C150.543 110.068 147.169 114.682 138.083 114.682L138.083 114.682ZM138.083 156.615H122.602C120.678 156.615 119.118 155.061 119.118 153.14V134.94H138.084C147.169 134.94 150.544 139.387 150.544 145.605C150.544 151.998 147.17 156.615 138.084 156.615H138.083ZM192.216 123.411C190.826 123.084 191.054 121.384 192.07 121.003C204.59 116.272 211.898 107.848 211.898 93.0035C212.072 73.1005 194.457 59.4225 165.807 59.4225H57.2283L38.1768 93.025H51.2888C53.8828 93.025 55.9778 95.1165 55.9778 97.703V151.923C55.9778 154.509 53.8828 156.601 51.2888 156.601H38.3233L57.5173 190.037L170.966 190.023C203.357 190.023 216.704 168.526 216.704 152.71C216.704 138.811 206.443 126.812 192.216 123.412V123.411Z" fill="#FB4F14"/>
<path d="M94.1658 180.546C74.0348 142.763 68.7438 99.325 76.2438 59.4225H57.2283L38.1768 93.025H51.2888C53.8828 93.025 55.9778 95.1165 55.9778 97.703V139.306C65.7473 155.136 79.8963 170.297 94.1658 180.546ZM189.109 63.1615C166.067 97.28 153.582 140.764 159.187 180.372C166.053 147.054 183.964 116.283 211.862 93.993C211.869 93.662 211.897 93.342 211.897 93.004C212.015 79.287 203.685 68.5225 189.108 63.1615H189.109ZM150.482 59.423C146.869 68.8715 143.075 80.2725 139.882 93.0715C139.312 93.029 138.71 93.004 138.083 93.004H122.602C120.685 93.004 119.135 94.5445 119.117 96.4545V114.682H135.4C134.324 121.217 133.455 127.986 132.878 134.941H119.117V153.14C119.117 155.061 120.678 156.616 122.602 156.616H132.108C132.25 167.526 133.223 178.721 135.268 190.023H121.116C109.95 163.101 94.5828 117.553 109.868 59.423H150.482Z" fill="black"/>
</g>
<defs>
<clipPath id="clip0_5_17">
<rect width="250" height="250" fill="white"/>
</clipPath>
</defs>
</svg>
