<svg width="250" height="250" viewBox="0 0 250 250" fill="none" xmlns="http://www.w3.org/2000/svg">
<path d="M227.5 184.039V183.867C226.578 171.395 223.79 158.779 218.972 145.294L218.915 145.159L218.861 145.024L218.3 143.683L218.365 143.831C216.356 138.615 212.166 136.364 205.996 137.131L203.22 137.435L202.088 137.533C197.328 137.972 190.493 138.582 184.458 138.021L176.972 120.301C178.484 119.389 179.75 118.123 180.662 116.611C181.297 115.442 181.747 114.182 181.998 112.876C184.288 112.594 186.41 111.533 188.009 109.87C190.284 107.386 191.576 102.9 188.357 97.816L188.521 98.0825L178.493 79.981L172.56 82.5025C148.78 44.1676 103.532 38.2964 70.1375 52.7035C39.8469 65.7785 10.5073 100.264 27.4977 154.482C29.3221 160.243 31.6077 165.846 34.3324 171.239C34.1603 172.936 34.2697 174.65 34.6563 176.311V176.401L34.685 176.491C35.5542 179.771 36.3455 181.936 38.375 186.45C38.2815 189.521 39.4112 192.502 41.5156 194.74C44.853 198.332 50.15 199.738 56.05 198.598L55.767 198.639C63.557 197.545 68.641 195.257 71.298 193.719C82.991 201.919 98.276 205.56 111.847 203.305C120.691 201.837 127.837 198.012 132.757 192.194C135.371 192.351 137.993 192.274 140.592 191.965C144.493 191.719 148.327 190.835 151.941 189.349C156.955 195.199 163.737 199.394 171.875 201.546C181.375 204.051 192.15 203.883 202.4 201.136C204.233 201.267 206.07 200.921 207.73 200.132C218.496 197.672 220.899 196.643 222.49 195.281C222.513 195.266 222.534 195.246 222.551 195.224C226.389 192.608 227.639 187.68 227.5 184.039ZM200.493 194.74C191.404 197.077 181.662 197.2 173.462 195.048C166.012 193.08 157.21 188.767 152.318 177.938C152.017 177.381 151.762 176.799 151.556 176.2C151.556 176.2 154.053 176.249 155.693 176.11C163.282 192.366 182.839 195.38 199.6 191.104C199.6 191.104 201.133 190.841 201.563 190.378C201.912 189.558 201.875 187.508 201.875 187.508C201.855 187.036 201.465 177.028 199.62 170.37C199.547 169.895 199.352 169.447 199.054 169.07C198.779 168.954 198.487 168.879 198.189 168.849C197.492 168.851 196.797 168.922 196.115 169.062C185.778 171.521 169.788 173.572 157.165 174.843C157.14 174.843 156.172 174.991 154.467 175.064L153.101 175.101C149.731 175.112 146.365 174.838 143.04 174.281C143.04 174.281 95.9555 166.622 96.152 166.614L98.6695 163.166L144.004 170.612C150.916 171.649 154.126 171.153 154.213 171.132C166.426 170.452 189.009 167.106 194.47 165.651C194.47 165.651 197.422 164.95 197.796 164.572C198.037 164.331 197.427 162.112 197.427 162.112C197.402 162.039 195.192 154.802 194.085 152.014V152.072C194.056 151.957 193.577 150.411 193.068 150.177H192.699C192.699 150.177 192.047 150.3 191.252 150.481C180.592 152.416 161.166 155.134 149.739 155.811C150.728 155.749 145.115 156.011 140.752 155.708C134.545 155.359 127.632 153.818 120.798 146.377C120.724 146.303 113.139 139.075 110.084 135.717C109.759 135.273 109.622 134.717 109.705 134.174C109.788 133.63 110.084 133.141 110.527 132.814C111.093 132.363 112.212 132.158 112.839 132.892C114.18 134.683 121.859 142.609 125.636 146.151C129.842 149.431 132.86 151.141 138.727 151.805C141.09 152.042 143.465 152.152 145.84 152.133C153.569 152.33 181.74 148.886 190.022 147.25C190.595 147.183 191.158 147.054 191.703 146.865V146.705L191.752 146.356C191.99 146.065 192.299 145.84 192.65 145.704C193.074 145.505 193.546 145.43 194.011 145.49C194.476 145.549 194.914 145.74 195.274 146.04C201.182 156.93 207.016 177.155 205.668 192.432C205.666 192.793 205.57 193.148 205.391 193.461C205.211 193.774 204.953 194.035 204.643 194.22C204.208 194.394 203.742 194.476 203.274 194.461C202.806 194.445 202.346 194.332 201.924 194.129C201.924 194.129 201.965 194.24 200.493 194.74ZM187.705 172.022C188.48 171.879 191.662 171.173 191.662 171.173C195.028 176.233 200.436 179.882 200.436 179.882C200.575 181.153 200.69 184.392 200.69 184.392C192.199 180.226 187.705 172.014 187.705 172.014V172.022ZM157.837 178.316C157.546 177.84 157.263 177.348 157.017 176.844L156.607 176.048C157.263 175.975 157.632 175.913 157.632 175.913L159.752 175.692C159.181 176.611 158.541 177.486 157.837 178.307V178.316ZM93.3025 166.741C92.8595 166.715 92.43 166.578 92.0525 166.345C91.6745 166.112 91.3605 165.789 91.138 165.405C91.036 165.2 90.9955 164.97 91.021 164.742C91.0465 164.514 91.137 164.299 91.2815 164.121L97.177 155.101C97.5505 155.811 100.511 157.59 100.511 157.59C99.2805 159.427 94.836 166.024 94.828 166.028C94.6635 166.275 94.434 166.471 94.165 166.596C93.8955 166.72 93.5975 166.768 93.3025 166.733V166.741ZM109.059 136.364C109.938 137.504 110.915 138.564 111.978 139.534L107.468 146.696C106.862 147.18 105.582 146.696 104.787 145.917C104.603 145.741 103.729 144.839 104.254 144.208L104.283 144.175L104.303 144.134C104.361 144.015 105.341 142.387 109.059 136.356V136.364ZM116.292 152.764C114.672 151.678 108.358 147.471 108.358 147.471L109.026 146.824C111.896 148.66 115.619 151.116 117.226 152.346C120.125 154.544 118.559 157.192 118.559 157.192C118.85 155.598 118.141 154.011 116.292 152.76V152.764ZM107.518 147.963L115.783 153.498C117.013 154.388 118.243 155.913 117.518 157.98C117.411 156.044 115.012 154.519 115.012 154.519C115.012 154.519 106.14 149.284 103.405 147.59C101.847 146.61 102.007 145.257 102.823 144.548C102.704 146.668 105.972 148.382 107.518 147.959V147.963ZM102.913 148.316C105.66 150.042 111.441 153.539 113.11 154.466C114.898 155.462 115.258 155.938 115.258 155.938C117.333 157.91 116.935 159.87 115.927 161.239C114.775 162.777 112.573 163.761 110.736 162.543L108.243 161.001L107.337 160.46L99.58 155.692H99.555C99.555 155.692 98.2635 155.093 97.94 153.904C97.7225 153.084 97.9765 152.182 98.694 151.174C100.334 148.869 101.13 147.549 101.478 146.938C101.831 147.68 102.913 148.312 102.913 148.312V148.316ZM101.523 158.111C105.168 160.288 110.343 163.502 110.343 163.502C113.905 165.77 116.652 162.51 117.522 161.354C118.194 160.452 120.269 157.664 120.199 155.274C120.125 152.953 118.346 151.707 116.755 150.661L109.35 145.799L112.819 140.182C116.148 143.507 119.973 147.152 120.006 147.188C122.012 149.397 124.336 151.293 126.902 152.814C127.448 153.133 127.993 153.42 128.542 153.691C130.018 158.201 131.626 162.182 132.323 165.122C131.761 161.698 130.74 158.033 129.74 154.245C133.684 155.946 137.53 156.471 141.072 156.668L141.568 156.696L141.802 157.213C140.404 160.939 137.796 164.937 134.422 167.373C134.422 167.565 134.446 167.762 134.455 167.959L131.388 167.471L129.006 167.09L127.854 166.909L98.719 162.268L101.523 158.111ZM188.874 165.597C188.243 165.876 185.155 166.323 185.155 166.323C184.417 164.921 179.747 153.486 179.747 153.486C180.305 153.416 183.437 152.904 183.437 152.904C185.022 157.228 186.837 161.463 188.874 165.593V165.597ZM189.792 165.315L188.386 162.08C193.089 162.158 196.484 162.108 196.484 162.108C197.045 164.191 195.102 164.265 195.102 164.265L189.792 165.315ZM163.421 157.734L163.446 158.316L181.847 161.473C182.195 162.481 183.511 165.462 183.511 165.462L163.483 162.055C163.483 162.256 163.483 162.465 163.483 162.678C163.372 164.909 163.027 167.121 162.454 169.279C161.568 169.374 160.678 169.46 159.776 169.546C161.08 165.22 161.24 160.386 160.67 155.737C161.511 155.647 162.363 155.557 163.224 155.458C163.298 156.22 163.368 156.975 163.421 157.73V157.734ZM152.974 170.14C151.571 170.346 150.147 170.378 148.735 170.235C147.472 167.848 146.078 164.597 142.515 156.795C143.931 156.956 145.36 156.956 146.775 156.795L152.974 170.14ZM123.044 114.79C123.019 115.455 123.16 116.116 123.454 116.713C123.864 117.509 124.656 119.505 124.656 119.505C124.791 119.374 122.856 121.781 121.786 123.478L115.275 134.163L113.524 132.236C113.524 132.236 112.774 131.342 112.073 131.342C115.48 125.811 118.588 120.895 119.641 119.317C120.696 117.755 121.835 116.253 123.053 114.815L123.044 114.79ZM162.634 101.547C163.138 101.461 163.656 101.569 164.084 101.85C164.512 102.131 164.817 102.563 164.938 103.06C165.049 103.819 164.659 104.7 163.204 104.942L162.523 105.077C153.593 106.861 143.479 108.886 135.02 112.322C132.36 113.286 130.941 114.093 129.449 115.225C129.449 115.225 128.629 113.441 128.329 112.921C127.858 112.101 127.792 112.002 127.399 111.781C128.976 110.799 130.644 109.971 132.38 109.309C138.583 106.705 151.486 103.372 162.642 101.572L162.634 101.547ZM158.587 89.5585C158.067 91.2395 159.055 93.831 159.055 93.831L161.49 100.576L160.227 100.813C160.227 100.813 158.665 96.496 157.677 93.507C156.931 91.2315 157.468 90.1285 157.468 90.1285L158.587 89.5585ZM159.579 89.087L160.838 88.435C160.838 88.435 160.945 88.3655 160.941 88.386C160.894 88.5385 160.875 88.698 160.883 88.8575C160.859 89.3045 160.883 89.526 161.347 90.809C162.093 92.818 165.975 100.879 166.426 102.052C168.673 107.886 162.868 108.964 162.265 106.385C168.44 105.918 165.93 99.456 162.429 100.366C161.092 97.086 160.039 93.761 160.039 93.761C160.039 93.761 158.677 90.19 159.588 89.1115L159.579 89.087ZM180.867 101.777H180.912H180.957C181.695 101.883 182.134 102.835 182.06 103.622C182.019 104.032 181.765 105.008 180.313 105.008C178.997 104.721 175.557 104.393 173.794 104.225C173.794 102.753 172.888 100.641 172.888 100.641C174.848 100.879 179.838 101.457 180.875 101.801L180.867 101.777ZM166.377 107.603C166.377 107.603 167.644 106.738 167.714 105.824C167.714 105.824 170.666 105.824 172.162 105.848C172.171 105.873 171.068 107.956 166.385 107.628L166.377 107.603ZM126.333 112.892C126.637 112.887 126.94 112.949 127.218 113.072L144.332 150.969C142.921 151.023 141.508 150.93 140.117 150.69C132.823 134.737 124.283 116.045 124.274 116.024C124.1 115.743 124.007 115.419 124.007 115.088C124.007 114.756 124.1 114.432 124.274 114.151C124.496 113.796 124.799 113.499 125.159 113.284C125.518 113.069 125.923 112.943 126.341 112.917L126.333 112.892ZM127.456 125.602L128.137 127.107C125.07 132.847 125.111 139.271 126.296 145.364L125.996 145.13C125.631 144.79 125.226 144.405 124.811 144.007C122.069 141.371 118.407 137.648 115.947 135.024C119.404 129.435 122.733 124.11 122.733 124.114C123.639 122.699 124.594 121.244 125.119 120.456L127.456 125.602ZM128.727 128.402L138.846 150.706C134.891 150.353 131.11 148.919 127.915 146.561C126.751 140.481 126.41 134.286 128.735 128.41L128.727 128.402ZM215.155 191.329C213.171 191.891 206.729 193.584 206.729 193.584C206.956 192.26 207.051 190.917 207.012 189.574C219.439 186.905 207.644 185.782 207.644 185.782C210.387 186.626 210.309 187.606 210.309 187.606C209.116 187.676 207.029 187.045 207.029 187.045C207.098 186.27 206.889 183.109 206.889 183.109C210.12 184.515 210.633 184.113 213.982 184.863C217.414 185.638 215.733 187.045 215.733 187.045C213.982 189.226 207.533 190.136 207.533 190.136C218.341 188.73 217.373 185.782 217.373 185.782C221.76 188.664 217.398 190.698 215.155 191.329ZM213.425 165.36C213.425 165.36 211.813 166.18 204.364 167.512C204.364 167.512 203.761 165.192 203.482 164.003C203.482 164.003 209.776 162.691 212.228 161.772C212.228 161.772 212.182 160.952 210.969 160.977C210.969 160.977 204.581 162.617 203.105 162.736L202.757 161.752C202.757 161.752 208.226 160.698 210.055 160.276C210.055 160.276 213.917 158.943 214.757 161.895C214.757 161.895 215.61 164.445 213.425 165.36ZM220.21 187.278C220.21 186.434 218.902 184.863 216.651 184.408C216.677 183.769 216.671 183.128 216.631 182.489C216.069 176.749 214.011 166.376 214.011 166.376C217.193 165.343 216.91 158.837 211.481 158.873C210.675 155.265 209.603 151.721 208.275 148.271C211.227 146.655 209.845 143.937 208.226 143.441C208.226 143.441 211.178 142.81 212.535 147.914C217.476 161.752 221.309 180.718 220.21 187.278ZM208.587 145.635C208.61 146.041 208.482 146.441 208.226 146.758C207.971 147.074 207.607 147.285 207.205 147.348L206.742 147.447C205.59 147.808 203.285 148.349 200.977 148.783C200.109 148.976 199.232 149.125 198.349 149.23C198.046 148.562 197.837 147.873 196.959 146.172C199.669 145.728 202.354 145.143 205.003 144.421C205.669 144.255 206.344 144.129 207.025 144.044C207.431 144.081 207.812 144.261 208.098 144.552C208.384 144.844 208.557 145.227 208.587 145.635ZM196.106 145.13C195.682 144.776 195.16 144.559 194.61 144.507C196.488 144.638 202.076 144.097 202.076 144.097C201.022 144.495 196.106 145.13 196.106 145.13ZM190.633 145.909C188.103 146.541 182.257 147.18 182.257 147.18L181.059 144.437C184.6 144.948 188.186 145.067 191.752 144.79C191.467 144.819 191.201 144.945 190.997 145.146C190.794 145.347 190.665 145.612 190.633 145.897V145.909ZM176.57 108.152C176.726 109.985 176.599 112.252 175.66 113.962C174.561 115.959 173.052 117.242 170.174 117.759C170.104 117.759 169.948 117.783 169.764 117.796L169.481 117.832C169.268 117.832 169.071 117.865 168.862 117.894C171.761 124.77 181.289 147.336 181.289 147.336C179.456 147.668 177.447 147.803 177.447 147.803L165.41 119.575C165.184 119.799 164.98 120.044 164.799 120.305C164.684 120.444 164.565 120.575 164.442 120.715C162.572 123.056 161.433 126.069 160.793 129.271C160.744 129.481 160.674 129.804 160.596 130.239C166.283 138.98 173.925 142.26 173.925 142.26L175.84 146.881C168.251 144.675 161.9 137.791 160.137 135.729C160.137 135.918 160.137 136.11 160.137 136.299C160.105 139.681 160.462 143.056 161.203 146.356C161.564 147.491 161.884 148.629 162.162 149.771L159.567 150.034C159.015 147.866 158.303 145.742 157.439 143.679C153.151 133.527 141.449 138.173 142.269 144.282L132.351 122.396C134.296 120.287 136.508 118.443 138.932 116.91C137.391 117.621 135.952 118.537 134.656 119.632C133.76 120.319 132.91 121.063 132.109 121.859L131.482 120.53C130.789 118.997 130.17 117.64 129.658 116.5C131.404 115.377 133.184 114.224 135.43 113.413C141.937 110.768 149.452 108.964 156.644 107.459L157.845 107.213C158.062 110.801 156.246 112.17 153.118 112.822C151.068 113.232 149.428 113.31 148.583 113.593L150.523 113.659C152.304 113.589 154.063 113.243 155.738 112.634C157.689 111.908 159.161 110.584 158.534 107.07L159.538 106.865C160.067 110.215 159.575 113.458 153.073 114.085C154.184 114.852 164.307 112.974 170.399 114.372C170.547 114.438 173.101 115.319 170.182 116.594C175.836 115.336 176.148 109.702 175.073 105.524L175.303 105.553C176.201 105.617 177.095 105.731 177.98 105.893C178.526 105.951 179.182 106.024 179.862 106.115C184.073 106.525 183.683 101.555 181.473 100.916C180.645 100.648 179.794 100.455 178.931 100.338L178.341 100.272L173.089 88.5625L175.996 87.2135L183.511 100.772C187 106.311 181.215 108.595 178.025 106.922C177.444 107.197 176.942 107.616 176.57 108.14V108.152ZM139.863 186.421C139.863 186.421 134.533 187.139 130.232 186.261C119.486 202.694 90.3875 201.591 72.5935 187.709C72.2655 187.463 71.9295 187.217 71.585 186.975C70.355 187.906 65.1275 191.546 55.0905 193.096C46.657 194.736 43.1761 189.246 44.1847 185.532C41.696 180.038 41.0072 178.131 40.1831 175.036C39.8057 173.492 39.8057 171.881 40.1831 170.337C37.2503 164.721 34.8178 158.857 32.9138 152.814C2.59023 56.0085 128.69 15.4717 169.608 88.6155C170.408 88.6855 170.887 88.874 171.137 89.3905L172.261 88.9395L177.181 100.088C176.57 99.9645 174.885 99.821 174.471 99.788C174.472 99.807 174.472 99.8265 174.471 99.8455L173.63 99.7675L173.22 99.747C172.15 96.4425 170.76 92.24 169.788 89.78C169.205 89.6875 168.616 89.641 168.025 89.6405C168.025 89.6695 168.054 89.6855 168.066 89.7105C168.817 91.1125 171.096 98.1645 171.855 100.088C172.904 102.757 172.831 104.257 172.831 104.257L167.931 104.163C167.853 102.732 166.496 100.043 166.496 100.043L164.672 96.3525L164.176 95.2985L162.31 91.3175C162.001 90.6165 161.786 89.8775 161.67 89.12C161.342 86.545 163.876 86.545 163.942 86.545C165.258 86.5695 166.332 87.0535 167.394 88.546H168.071C166.545 85.5035 165.684 84.565 164.672 82.884C145.615 55.75 113.955 47.7141 86.05 54.4955C121.392 49.3213 148.37 64.528 161.802 87.2585C160.674 87.816 158.813 88.747 157.948 89.214C157.558 89.214 156.115 89.1775 155.631 89.214C154.791 89.284 153.991 89.325 154.577 91.3255C154.836 92.2535 155.141 93.1675 155.492 94.0645C155.902 95.159 157.173 98.464 158.108 101.277L157.119 101.465C156.947 100.965 156.759 100.444 156.545 99.8945C155.447 97.0985 154.122 93.47 153.737 92.236C153.536 91.6005 153.241 90.3825 153.598 89.333C153.598 89.333 152.261 90.3825 153.454 93.22L156.472 101.588L155.242 101.83C146.086 103.667 137.124 106.094 132.089 108.202C132.089 108.202 128.317 109.567 125.644 111.748C125.569 111.797 125.514 111.871 125.488 111.957C124.692 112.202 123.996 112.695 123.499 113.363C122.92 113.801 122.373 114.277 121.859 114.79C120.802 116.02 119.875 117.09 118.694 118.714C117.661 120.256 113.946 126.131 110.634 131.498C110.337 131.605 110.06 131.76 109.814 131.957C109.351 132.319 108.992 132.797 108.776 133.344C108.56 133.89 108.493 134.484 108.584 135.065C105.898 139.415 104.32 141.94 103.664 142.994C103.196 143.034 102.743 143.184 102.344 143.431C101.944 143.678 101.608 144.016 101.364 144.417C100.716 145.717 97.8945 150.341 97.3865 150.854C97.0695 151.269 96.845 151.746 96.7275 152.254C96.6105 152.763 96.603 153.29 96.7055 153.802L96.4515 154.302L90.2565 163.543C89.9985 163.882 89.8395 164.285 89.7975 164.709C89.7555 165.132 89.832 165.559 90.0185 165.942C90.326 166.508 90.772 166.987 91.3145 167.333C91.8575 167.679 92.4795 167.882 93.1225 167.922C93.786 167.978 94.4485 167.801 94.996 167.422L127.952 172.912L129.563 173.178L132.142 173.609L134.229 173.957C133.986 177.427 133.08 180.817 131.56 183.945L132.138 184.023C141.232 184.761 147.718 183.145 152.204 180.103C152.589 180.837 152.999 181.551 153.434 182.235C149.912 184.552 145.434 186.04 139.863 186.409V186.421ZM221.805 195.761L221.719 195.81C221.809 195.761 221.887 195.687 221.977 195.63L221.805 195.761Z" fill="white"/>
<path d="M120.396 193.346C123.795 191.614 126.702 189.052 128.846 185.896H128.825C129.769 184.562 130.523 183.104 131.068 181.562C129.021 186.632 125.238 190.809 120.396 193.346Z" fill="white"/>
<path d="M115.956 135.031C118.416 137.655 122.077 141.378 124.82 144.015C124.197 140.07 124.049 136.011 124.865 132.26C125.371 129.919 126.247 127.674 127.46 125.61L125.123 120.464C124.599 121.251 123.643 122.707 122.737 124.121C122.741 124.117 119.412 129.443 115.956 135.031Z" fill="#FF3C00"/>
<path d="M124.782 154.42C126.69 158.458 128.107 162.71 129.001 167.085L131.383 167.467C131.133 166.237 130.871 165.134 130.662 164.187C130.231 162.198 128.464 157.971 126.902 152.813C124.335 151.29 122.011 149.391 120.006 147.18C119.973 147.143 116.148 143.49 112.819 140.173L109.35 145.79L116.755 150.652C118.345 151.698 120.125 152.944 120.199 155.265C120.268 157.655 118.194 160.443 117.521 161.345C116.652 162.501 113.905 165.761 110.342 163.494C110.342 163.494 105.168 160.279 101.523 158.102L98.7148 162.26L127.87 166.905C127.222 162.296 125.701 158.09 124.782 154.42Z" fill="#FF3C00"/>
<path d="M136.931 116.43C141.187 114.13 143.807 112.883 150.547 112.018L152.228 111.784C153.376 111.616 155.566 111.157 156.193 110.017C156.573 109.221 156.729 108.337 156.644 107.459C149.453 108.964 141.937 110.768 135.431 113.412C133.184 114.232 131.405 115.376 129.658 116.499C130.17 117.639 130.79 118.996 131.482 120.53C132.902 119.161 134.473 117.959 136.165 116.946C136.407 116.77 136.931 116.43 136.931 116.43Z" fill="#FF3C00"/>
<path d="M152.191 89.247C152.401 88.941 152.683 88.6905 153.011 88.5175C141.867 69.6575 115.164 50.162 80.4905 56.066C46.891 66.8405 20.6797 99.579 32.3401 146.245C37.2068 163.953 42.8935 173.342 49.0681 182.145C49.0681 182.145 48.7893 186.417 56.161 184.195C62.836 182.174 66.907 182.022 73.877 187.217C86.0255 196.27 106.931 200.378 120.404 193.367C125.243 190.824 129.021 186.645 131.064 181.575C131.93 179.021 132.305 176.326 132.171 173.633L129.592 173.203C129.018 184.219 118.112 194.831 98.559 193.609C90.4165 193.305 81.7245 189.344 76.538 186.52C74.152 184.921 67.428 181.148 64.201 180.435C67.0055 180.587 74.041 184.256 76.9605 185.958C82.9915 189.061 91.4045 192.047 98.5635 192.346C111.605 193.576 126.402 186.884 127.981 172.936L95.029 167.426C94.4815 167.805 93.819 167.982 93.1555 167.926C92.5125 167.886 91.8905 167.683 91.3475 167.337C90.805 166.991 90.359 166.511 90.0515 165.946C89.865 165.563 89.7885 165.136 89.8305 164.713C89.8725 164.289 90.0315 163.885 90.2895 163.548L96.4845 154.306L96.739 153.805C96.636 153.294 96.6435 152.766 96.7605 152.258C96.878 151.75 97.1025 151.272 97.4195 150.858C97.928 150.346 100.748 145.721 101.396 144.421C101.639 144.022 101.973 143.686 102.369 143.439C102.766 143.192 103.215 143.041 103.68 142.998C104.336 141.945 105.914 139.419 108.6 135.068C108.51 134.488 108.576 133.894 108.792 133.348C109.009 132.801 109.367 132.323 109.83 131.961C110.076 131.764 110.353 131.609 110.65 131.501C113.963 126.135 117.677 120.259 118.71 118.718C119.891 117.078 120.818 116.012 121.876 114.794C122.389 114.281 122.937 113.804 123.516 113.367C124.012 112.698 124.708 112.206 125.504 111.961C125.53 111.875 125.585 111.801 125.66 111.752C128.333 109.571 132.105 108.205 132.105 108.205C137.14 106.098 146.103 103.671 155.258 101.834C154.618 99.981 152.581 94.122 152.581 94.122C152.49 93.88 151.076 90.9815 152.191 89.247ZM110.998 170.837C111.891 170.841 112.755 171.152 113.445 171.718C114.134 172.284 114.608 173.071 114.786 173.945C114.965 174.82 114.836 175.729 114.422 176.52C114.009 177.31 113.335 177.935 112.515 178.287C112.234 178.587 111.882 178.812 111.492 178.943C111.102 179.074 110.685 179.107 110.28 179.039C109.874 178.971 109.491 178.803 109.166 178.551C108.841 178.299 108.583 177.969 108.415 177.594C107.83 177.07 107.417 176.381 107.232 175.618C107.047 174.854 107.099 174.053 107.381 173.32C107.662 172.587 108.16 171.956 108.809 171.512C109.457 171.069 110.225 170.834 111.011 170.837H110.998ZM80.47 183.096C79.875 183.557 79.1215 183.764 78.375 183.67C77.5055 184.215 76.1525 183.912 75.185 182.895C74.2915 181.948 74.025 180.697 74.4635 179.853C74.275 178.479 74.697 177.114 75.669 176.43C77.141 175.397 79.359 176.019 80.6465 177.844C81.9335 179.668 81.864 181.936 80.47 183.096ZM99.58 172.665C93.0775 179.549 80.183 179.504 72.8565 170.115C85.2545 181.62 96.8165 174.018 99.58 172.665ZM87.8215 164.465C87.019 164.731 86.178 164.861 85.3325 164.851C84.1085 164.824 82.902 164.551 81.784 164.052C80.666 163.552 79.659 162.834 78.822 161.94C75.3695 158.328 75.132 152.752 78.3215 149.521C79.0345 148.797 79.887 148.226 80.827 147.842C81.767 147.457 82.7755 147.267 83.791 147.283C85.0165 147.312 86.2235 147.586 87.3415 148.089C88.46 148.592 89.466 149.313 90.302 150.21C92.0005 151.979 92.977 154.319 93.0405 156.77L87.8215 164.465Z" fill="#FF3C00"/>
<path d="M127.87 166.905L129.022 167.086C128.128 162.711 126.711 158.459 124.803 154.421C125.701 158.09 127.222 162.297 127.87 166.905Z" fill="#311D00"/>
<path d="M98.5671 192.325C91.4086 192.026 82.9871 189.045 76.9646 185.938C74.0246 184.236 67.0096 180.567 64.2051 180.415C67.4321 181.128 74.1601 184.9 76.5421 186.499C81.7286 189.324 90.4206 193.285 98.5631 193.588C118.096 194.818 129.022 184.199 129.596 173.183L127.985 172.916C126.406 186.864 111.61 193.551 98.5671 192.325Z" fill="#311D00"/>
<path d="M83.7911 147.278C82.7756 147.262 81.7671 147.452 80.8271 147.837C79.8871 148.222 79.0346 148.793 78.3216 149.517C75.1441 152.747 75.3696 158.323 78.8221 161.936C79.6571 162.833 80.6636 163.555 81.7816 164.058C82.8996 164.562 84.1071 164.837 85.3326 164.867C86.1781 164.877 87.0191 164.747 87.8216 164.482L93.0406 156.761C92.9771 154.31 92.0006 151.97 90.3021 150.201C89.4661 149.305 88.4596 148.585 87.3416 148.083C86.2231 147.581 85.0161 147.307 83.7911 147.278Z" fill="#311D00"/>
<path d="M72.856 170.115C80.1825 179.504 93.077 179.545 99.58 172.665C96.8165 174.018 85.2545 181.62 72.856 170.115Z" fill="#311D00"/>
<path d="M108.403 177.59C108.57 177.966 108.828 178.294 109.154 178.546C109.479 178.799 109.861 178.966 110.267 179.035C110.673 179.104 111.089 179.071 111.479 178.94C111.869 178.808 112.221 178.583 112.503 178.283C113.282 177.957 113.934 177.388 114.361 176.66C114.788 175.931 114.967 175.084 114.871 174.245C114.775 173.406 114.409 172.622 113.828 172.009C113.247 171.396 112.483 170.989 111.651 170.848C110.818 170.707 109.963 170.841 109.213 171.229C108.463 171.617 107.859 172.238 107.493 172.998C107.126 173.759 107.017 174.618 107.181 175.446C107.345 176.274 107.774 177.027 108.403 177.59ZM110.67 178.631C110.247 178.637 109.831 178.517 109.476 178.286C109.121 178.055 108.843 177.723 108.677 177.334C108.51 176.944 108.464 176.514 108.543 176.098C108.621 175.682 108.822 175.298 109.119 174.997C109.417 174.695 109.797 174.488 110.212 174.403C110.626 174.318 111.057 174.358 111.449 174.518C111.841 174.678 112.177 174.951 112.413 175.303C112.65 175.654 112.777 176.068 112.778 176.491C112.78 176.77 112.727 177.047 112.622 177.305C112.517 177.564 112.363 177.799 112.167 177.998C111.971 178.196 111.738 178.355 111.482 178.463C111.225 178.572 110.949 178.629 110.67 178.631ZM112.347 174.347C111.802 173.736 110.428 173.453 109.641 173.978C109.284 174.199 108.919 173.912 109.37 173.453C109.608 173.256 109.884 173.109 110.18 173.022C110.476 172.934 110.787 172.908 111.094 172.944C111.401 172.981 111.697 173.079 111.964 173.234C112.232 173.388 112.465 173.595 112.65 173.843C113.044 174.412 112.642 174.798 112.347 174.347ZM111.092 171.53C111.712 171.546 112.314 171.743 112.824 172.097C113.333 172.45 113.728 172.945 113.959 173.521C114.191 174.096 114.249 174.727 114.126 175.335C114.004 175.943 113.706 176.501 113.27 176.942C114.184 174.978 113.434 172.477 111.023 172.371C108.518 172.272 107.685 174.786 108.12 176.102C107.275 175.306 107.566 171.547 111.092 171.53Z" fill="#311D00"/>
<path d="M109.371 173.453C108.92 173.912 109.285 174.199 109.642 173.978C110.429 173.453 111.802 173.736 112.348 174.347C112.643 174.798 113.045 174.413 112.663 173.843C112.478 173.593 112.244 173.385 111.975 173.229C111.707 173.074 111.409 172.975 111.101 172.938C110.793 172.902 110.48 172.929 110.183 173.017C109.885 173.106 109.609 173.254 109.371 173.453Z" fill="white"/>
<path d="M111.023 172.371C113.434 172.477 114.184 174.978 113.27 176.942C113.706 176.501 114.004 175.942 114.127 175.335C114.249 174.727 114.191 174.096 113.96 173.521C113.728 172.945 113.334 172.45 112.824 172.096C112.315 171.743 111.713 171.546 111.093 171.53C107.567 171.53 107.276 175.306 108.12 176.102C107.686 174.785 108.518 172.272 111.023 172.371Z" fill="white"/>
<path d="M112.778 176.491C112.773 176.075 112.644 175.669 112.408 175.326C112.173 174.982 111.841 174.716 111.454 174.561C111.068 174.405 110.644 174.368 110.236 174.453C109.828 174.538 109.455 174.742 109.162 175.038C108.87 175.335 108.672 175.712 108.593 176.121C108.515 176.53 108.559 176.953 108.72 177.337C108.881 177.721 109.153 178.049 109.5 178.279C109.847 178.51 110.254 178.632 110.671 178.631C110.95 178.63 111.226 178.573 111.483 178.465C111.74 178.356 111.973 178.198 112.169 177.999C112.365 177.8 112.519 177.565 112.624 177.306C112.729 177.047 112.781 176.77 112.778 176.491ZM110.65 178.164C110.318 178.162 109.993 178.062 109.717 177.876C109.441 177.69 109.226 177.427 109.1 177.119C108.973 176.811 108.941 176.473 109.007 176.147C109.072 175.82 109.233 175.521 109.468 175.286C109.704 175.051 110.004 174.891 110.33 174.826C110.657 174.761 110.995 174.794 111.302 174.921C111.61 175.048 111.873 175.264 112.058 175.541C112.244 175.817 112.343 176.142 112.344 176.475C112.344 176.697 112.301 176.917 112.216 177.123C112.131 177.328 112.006 177.515 111.849 177.672C111.691 177.829 111.504 177.953 111.299 178.038C111.093 178.122 110.873 178.165 110.65 178.164Z" fill="white"/>
<path d="M110.65 174.793C110.317 174.795 109.992 174.895 109.715 175.082C109.439 175.268 109.225 175.532 109.098 175.84C108.972 176.148 108.94 176.487 109.007 176.814C109.073 177.14 109.234 177.44 109.471 177.674C109.707 177.909 110.008 178.069 110.335 178.133C110.662 178.197 111 178.162 111.308 178.033C111.615 177.905 111.877 177.688 112.062 177.411C112.246 177.133 112.344 176.808 112.343 176.474C112.343 176.252 112.299 176.033 112.214 175.829C112.129 175.624 112.004 175.437 111.846 175.281C111.689 175.125 111.502 175.001 111.297 174.918C111.091 174.834 110.872 174.792 110.65 174.793ZM109.42 176.532C109.469 176.318 109.567 176.425 109.617 176.589C110.076 177.315 111.355 177.373 111.74 176.81C111.941 176.528 111.937 176.917 111.937 176.917C111.117 178.504 109.28 177.52 109.42 176.532Z" fill="#311D00"/>
<path d="M111.724 176.811C111.339 177.372 110.06 177.315 109.6 176.589C109.551 176.425 109.453 176.319 109.404 176.532C109.281 177.499 111.117 178.504 111.921 176.917C111.921 176.917 111.925 176.528 111.724 176.811Z" fill="white"/>
<path d="M75.6691 176.43C74.6971 177.114 74.2751 178.48 74.4636 179.853C74.0246 180.698 74.2911 181.948 75.1851 182.895C76.1526 183.912 77.5056 184.216 78.3751 183.67C79.1216 183.764 79.8751 183.558 80.4701 183.096C81.8641 181.936 81.9256 179.665 80.6461 177.844C79.3671 176.024 77.1406 175.396 75.6691 176.43ZM75.4351 182.58C74.5291 181.628 74.3731 180.308 75.0866 179.628C75.8001 178.947 77.1081 179.177 78.0141 180.132C78.9201 181.087 79.0761 182.412 78.3626 183.084C77.6491 183.756 76.3411 183.539 75.4351 182.584V182.58ZM78.9121 180.271C78.5721 179.652 78.0226 179.174 77.3621 178.922C76.8906 178.832 77.0711 178.07 77.6326 178.262C78.2346 178.533 78.7621 178.945 79.1701 179.464C79.6871 180.321 79.1376 180.751 78.9121 180.275V180.271ZM79.5516 182.928C82.1426 179.558 77.0916 175.634 75.1156 178.75C76.7716 173.666 83.4546 180.058 79.5516 182.932V182.928Z" fill="#311D00"/>
<path d="M77.6325 178.266C77.071 178.074 76.8905 178.836 77.362 178.927C78.0225 179.178 78.572 179.656 78.912 180.275C79.1375 180.751 79.687 180.321 79.17 179.455C78.7605 178.942 78.233 178.534 77.6325 178.266Z" fill="white"/>
<path d="M75.1152 178.75C77.1037 175.634 82.1427 179.57 79.5517 182.928C83.4547 180.058 76.7717 173.666 75.1152 178.75Z" fill="white"/>
<path d="M78.0139 180.136C77.1074 179.181 75.7999 178.959 75.0864 179.632C74.3729 180.304 74.5289 181.633 75.4349 182.584C76.3409 183.535 77.6529 183.769 78.3624 183.088C79.0714 182.407 78.9199 181.091 78.0139 180.136ZM77.9889 182.883C77.3944 183.322 76.3944 182.961 75.6604 182.289C74.9264 181.616 74.8074 180.444 75.3489 179.915C75.9594 179.328 77.0419 179.697 77.6899 180.435C78.2144 181.042 78.6699 182.371 77.9889 182.883Z" fill="white"/>
<path d="M75.3491 179.914C74.8076 180.443 74.8691 181.554 75.6606 182.288C76.4516 183.022 77.3946 183.321 77.9891 182.882C78.6656 182.37 78.2146 181.042 77.6901 180.422C77.0301 179.697 75.9596 179.328 75.3491 179.914ZM77.4891 182.591C76.2591 182.706 75.1851 181.234 75.6316 180.582C75.6316 180.582 75.9681 180.123 76.0416 180.545C76.1386 180.939 76.3366 181.299 76.6156 181.593C76.8946 181.886 77.2451 182.102 77.6326 182.218C77.7966 182.263 77.8501 182.526 77.4891 182.591Z" fill="#311D00"/>
<path d="M76.0299 180.546C75.9684 180.136 75.6199 180.583 75.6199 180.583C75.1729 181.235 76.2634 182.707 77.4769 182.592C77.8379 182.526 77.7844 182.264 77.6084 182.219C77.2229 182.1 76.8749 181.884 76.5979 181.591C76.3214 181.298 76.1254 180.938 76.0299 180.546Z" fill="white"/>
<path d="M69.953 186.815C70.191 186.651 70.441 186.466 70.634 186.327C67.313 184.207 63.1925 182.821 56.493 185.031L56.1935 185.126C57.801 184.802 60.027 184.429 61.417 184.523C63.188 184.654 65.7915 184.908 68.256 186.47L67.026 187.143C62.7885 189.261 58.1875 190.557 53.467 190.96C50.7285 191.157 51.257 189.558 53.057 188.648C54.0495 188.143 54.8855 187.184 55.2545 185.425C54.9555 185.581 54.9555 185.515 54.5165 185.597H54.4675C53.869 189.902 45.4475 189.455 46.3823 183.6C46.3823 183.6 45.1523 181.112 44.4758 179.669C44.4758 179.726 44.3036 178.762 44.3979 178.738C44.3979 178.738 46.4479 182.075 47.3048 183.133C46.1691 187.13 52.0115 188.799 53.578 185.79C48.4282 186.749 48.2478 184.113 48.3093 183.231C48.2683 183.104 48.2396 182.961 48.2068 182.821C47.3089 181.907 44.3897 178.032 41.0687 171.948C40.6259 175.494 44.6439 183.699 44.976 184.507L45.3204 185.355C44.0904 188.717 47.6 193.121 53.877 192.108C60.056 191.53 66.993 188.943 69.953 186.815Z" fill="white"/>
<path d="M156.595 176.04L157.005 176.835C157.271 177.34 157.554 177.832 157.825 178.307C158.525 177.483 159.161 176.605 159.727 175.683L157.608 175.904C157.608 175.904 157.251 175.966 156.595 176.04Z" fill="#311D00"/>
<path d="M159.772 169.542C160.674 169.456 161.563 169.37 162.449 169.275C163.022 167.117 163.367 164.905 163.478 162.674C163.478 162.465 163.478 162.264 163.478 162.051L183.507 165.458C183.507 165.458 182.191 162.477 181.842 161.469L163.441 158.312L163.417 157.73C163.363 156.975 163.294 156.221 163.199 155.458C162.338 155.557 161.486 155.647 160.645 155.737C161.24 160.386 161.08 165.22 159.772 169.542Z" fill="#311D00"/>
<path d="M124.82 144.015C125.23 144.425 125.64 144.798 126.005 145.138L126.304 145.372C125.119 139.279 125.074 132.863 128.145 127.114L127.46 125.61C126.245 127.674 125.368 129.919 124.861 132.26C124.049 136.011 124.18 140.07 124.82 144.015Z" fill="#311D00"/>
<path d="M131.384 167.467L134.45 167.954C134.45 167.758 134.43 167.544 134.418 167.368C137.792 164.933 140.399 160.935 141.798 157.208L141.564 156.692L141.068 156.663C137.538 156.466 133.688 155.941 129.735 154.24C130.736 158.028 131.757 161.694 132.318 165.117C131.621 162.178 130.014 158.188 128.538 153.686C127.993 153.416 127.448 153.129 126.898 152.809C128.46 157.967 130.227 162.194 130.658 164.182C130.871 165.134 131.15 166.241 131.384 167.467Z" fill="#311D00"/>
<path d="M158.571 139.456C157.341 133.81 158.645 123.314 162.761 120.321C156.878 121.034 155.242 135.778 158.571 139.456Z" fill="white"/>
<path d="M138.854 150.714L128.735 128.41C126.41 134.286 126.751 140.481 127.915 146.569C131.112 148.928 134.897 150.362 138.854 150.714Z" fill="#311D00"/>
<path d="M178.033 106.946C181.223 108.611 187.008 106.327 183.519 100.796L176.004 87.2295L173.097 88.5785L178.349 100.288L178.939 100.354C179.802 100.47 180.653 100.664 181.481 100.932C183.691 101.571 184.081 106.549 179.87 106.13C179.189 106.04 178.533 105.966 177.988 105.909C177.102 105.747 176.209 105.633 175.311 105.569L175.081 105.54C176.155 109.726 175.844 115.36 170.19 116.61C173.109 115.335 170.555 114.453 170.407 114.388C164.314 112.99 154.192 114.868 153.08 114.101C159.583 113.474 160.075 110.23 159.546 106.881L158.542 107.086C159.169 110.612 157.697 111.924 155.745 112.649C154.071 113.259 152.311 113.605 150.53 113.674L148.591 113.609C149.431 113.326 151.092 113.256 153.126 112.838C156.254 112.186 158.07 110.817 157.853 107.229L156.652 107.475C156.736 108.353 156.581 109.238 156.201 110.034C155.573 111.173 153.384 111.633 152.236 111.801L150.555 112.034C143.814 112.9 141.195 114.146 136.939 116.446C136.939 116.446 136.414 116.778 136.172 116.963C134.478 117.97 132.905 119.166 131.482 120.53L132.08 121.85C132.88 121.054 133.731 120.31 134.626 119.624C135.923 118.528 137.361 117.613 138.903 116.901C136.479 118.434 134.266 120.279 132.322 122.387L142.24 144.273C141.42 138.164 153.134 133.518 157.41 143.67C158.274 145.733 158.985 147.857 159.538 150.025L162.133 149.763C161.86 148.623 161.54 147.484 161.174 146.347C160.433 143.047 160.076 139.672 160.108 136.29C160.108 136.101 160.108 135.909 160.108 135.72C161.875 137.77 168.222 144.666 175.811 146.872L173.925 142.26C173.925 142.26 166.282 138.98 160.604 130.263C160.682 129.828 160.752 129.505 160.801 129.295C161.44 126.093 162.58 123.08 164.45 120.739C164.573 120.583 164.692 120.452 164.806 120.329C164.988 120.068 165.192 119.823 165.417 119.599L177.455 147.827C177.455 147.827 179.464 147.692 181.297 147.36C181.297 147.36 171.768 124.81 168.87 117.918C169.066 117.889 169.28 117.873 169.489 117.856L169.772 117.82C169.948 117.82 170.104 117.795 170.182 117.783C173.052 117.266 174.569 115.983 175.667 113.986C176.606 112.272 176.733 110.009 176.578 108.176C176.949 107.648 177.45 107.224 178.033 106.946ZM158.57 139.455C155.241 135.765 156.877 121.034 162.761 120.321C158.644 123.314 157.357 133.81 158.57 139.455Z" fill="#311D00"/>
<path d="M108.342 159.177C108.458 159.472 108.595 159.758 108.752 160.034C109.013 160.482 109.384 160.856 109.83 161.12C113.085 163.055 114.881 160.591 114.898 160.571C114.914 160.55 116.394 158.615 114.229 156.471C113.794 156.099 113.288 155.819 112.742 155.647C112.197 155.474 111.622 155.413 111.052 155.466C110.833 154.634 110.331 153.905 109.632 153.404C108.933 152.903 108.08 152.663 107.222 152.723H107.186C105.025 152.871 104.521 154.039 104.275 154.712C104.121 155.165 104.064 155.645 104.11 156.122C104.155 156.598 104.301 157.059 104.537 157.475C104.529 157.533 105.578 159.603 108.342 159.177ZM111.191 156.053C113.623 155.979 115.521 158.41 114.299 160.194L113.856 160.267C111.737 160.546 110.543 159.706 110.187 157.807C110.727 157.366 111.084 156.741 111.191 156.053ZM108.35 153.453C109.555 153.839 110.433 154.896 110.375 155.983H110.511C110.412 156.774 109.58 157.848 107.883 157.59C107.807 157.24 107.767 156.882 107.764 156.524C108.06 156.625 108.373 156.671 108.686 156.659C108.687 156.493 108.698 156.328 108.719 156.163C108.384 156.126 108.058 156.03 107.755 155.88C107.769 155.037 107.972 154.207 108.35 153.453ZM105.537 153.978C105.772 153.749 106.055 153.575 106.364 153.468C106.674 153.36 107.003 153.321 107.329 153.355C106.983 154.021 106.803 154.761 106.804 155.511C106.636 155.372 106.505 155.368 106.337 155.192V155.79C106.443 155.979 106.612 156.036 106.825 156.2C106.817 156.614 106.859 157.027 106.952 157.43C106.841 157.393 106.78 157.303 106.661 157.246C104.976 156.286 105.537 153.978 105.537 153.978ZM104.91 154.72C104.627 158.23 107.829 158.742 109.629 158.078C110.019 160.919 112.499 160.993 113.688 160.804C113.22 161.058 112.698 161.197 112.166 161.21C111.634 161.223 111.106 161.109 110.626 160.879C110.146 160.648 109.727 160.307 109.404 159.884C109.081 159.461 108.863 158.967 108.768 158.443C106.517 159.132 103.955 157.311 104.91 154.72Z" fill="white"/>
<path d="M165.459 92.494C164.745 92.035 163.659 90.4685 163.819 89.1935C165.496 89.218 166 91.6535 165.459 92.494Z" fill="#311D00"/>
<path d="M167.193 97.045C166.35 96.2305 165.86 95.1175 165.828 93.9455C167.16 94.216 167.964 95.8685 167.193 97.045Z" fill="#311D00"/>
<path d="M160.047 93.7855C160.047 93.7855 161.1 97.0905 162.437 100.391C165.938 99.4805 168.447 105.942 162.273 106.41C162.876 108.989 168.681 107.91 166.434 102.076C165.983 100.904 162.101 92.8425 161.355 90.8335C160.883 89.5505 160.867 89.329 160.891 88.882C160.883 88.723 160.903 88.5635 160.949 88.4105L160.846 88.46L159.588 89.1115C158.678 90.19 160.047 93.7855 160.047 93.7855Z" fill="#311D00"/>
<path d="M157.656 93.507C158.644 96.496 160.206 100.813 160.206 100.813L161.469 100.575L159.062 93.8555C159.062 93.8555 158.074 91.2645 158.595 89.5835L157.447 90.1285C157.447 90.1285 156.91 91.2315 157.656 93.507Z" fill="#311D00"/>
<path d="M166.386 107.628C171.068 107.956 172.171 105.873 172.171 105.873C170.674 105.848 167.722 105.848 167.722 105.848C167.64 106.762 166.386 107.628 166.386 107.628Z" fill="#311D00"/>
<path d="M112.077 131.366C112.778 131.366 113.528 132.26 113.528 132.26L115.279 134.187L121.79 123.502C122.872 121.805 124.807 119.402 124.66 119.529C124.66 119.529 123.84 117.533 123.459 116.737C123.164 116.141 123.023 115.48 123.049 114.814C121.832 116.255 120.695 117.761 119.641 119.324C118.592 120.94 115.484 125.835 112.077 131.366Z" fill="#311D00"/>
<path d="M194.61 144.495C195.16 144.547 195.682 144.763 196.106 145.117C196.106 145.117 201.026 144.494 202.076 144.068C202.08 144.068 196.487 144.626 194.61 144.495Z" fill="#311D00"/>
<path d="M196.484 162.104C196.484 162.104 193.089 162.153 188.386 162.075L189.793 165.31L195.123 164.26C195.123 164.26 197.046 164.186 196.484 162.104Z" fill="#311D00"/>
<path d="M183.441 152.92C183.441 152.92 180.305 153.433 179.751 153.502C179.751 153.502 184.421 164.937 185.159 166.339C185.159 166.339 188.246 165.893 188.878 165.614C186.841 161.482 185.026 157.245 183.441 152.92Z" fill="#311D00"/>
<path d="M191.662 171.165C191.662 171.165 188.481 171.87 187.706 172.014C187.706 172.014 192.216 180.214 200.691 184.375C200.691 184.375 200.576 181.145 200.436 179.865C200.44 179.874 195.028 176.225 191.662 171.165Z" fill="#311D00"/>
<path d="M217.332 185.782C217.332 185.782 218.316 188.73 207.492 190.136C207.492 190.136 213.949 189.226 215.692 187.045C215.692 187.045 217.373 185.638 213.941 184.863C210.591 184.113 210.079 184.515 206.848 183.109C206.848 183.109 207.057 186.27 206.988 187.045C206.988 187.045 209.091 187.676 210.268 187.606C210.268 187.606 210.345 186.626 207.603 185.782C207.603 185.782 219.398 186.905 206.971 189.574C207.009 190.917 206.915 192.26 206.688 193.584C206.688 193.584 213.129 191.89 215.114 191.329C217.397 190.697 221.76 188.664 217.332 185.782Z" fill="#311D00"/>
<path d="M142.515 156.807C146.078 164.597 147.472 167.877 148.735 170.246C150.147 170.39 151.571 170.358 152.975 170.152L146.775 156.827C145.359 156.981 143.93 156.975 142.515 156.807Z" fill="#311D00"/>
<path d="M124.291 114.175C124.116 114.456 124.023 114.781 124.023 115.112C124.023 115.443 124.116 115.768 124.291 116.049C124.291 116.069 132.839 134.761 140.133 150.714C141.524 150.954 142.937 151.048 144.348 150.993L127.234 113.097C126.956 112.973 126.654 112.912 126.349 112.917C125.93 112.947 125.525 113.078 125.167 113.297C124.809 113.516 124.509 113.817 124.291 114.175Z" fill="#311D00"/>
<path d="M204.63 194.219C204.941 194.035 205.199 193.774 205.378 193.46C205.558 193.147 205.653 192.793 205.655 192.431C207.004 177.155 201.17 156.93 195.262 146.04C194.902 145.74 194.464 145.549 193.999 145.489C193.534 145.429 193.062 145.504 192.638 145.704C192.286 145.85 191.979 146.086 191.748 146.388L191.699 146.737V146.897C191.154 147.086 190.59 147.215 190.018 147.282C181.736 148.922 153.565 152.362 145.836 152.165C143.461 152.184 141.086 152.075 138.723 151.837C132.856 151.173 129.838 149.463 125.631 146.183C121.847 142.641 114.176 134.703 112.835 132.924C112.208 132.19 111.089 132.395 110.523 132.846C110.08 133.173 109.784 133.662 109.701 134.206C109.618 134.75 109.755 135.305 110.08 135.749C113.135 139.095 120.72 146.323 120.793 146.409C127.645 153.85 134.541 155.392 140.748 155.741C145.111 156.044 150.723 155.782 149.735 155.843C161.162 155.154 180.604 152.436 191.248 150.513C192.043 150.333 192.695 150.21 192.695 150.21H193.064C193.573 150.443 194.052 151.989 194.081 152.104V152.046C195.188 154.834 197.398 162.071 197.422 162.145C197.422 162.145 198.033 164.363 197.791 164.605C197.418 164.982 194.466 165.683 194.466 165.683C189.005 167.139 166.422 170.484 154.208 171.165C154.122 171.185 150.928 171.681 143.999 170.644L98.6656 163.17L96.1481 166.618C95.9516 166.618 143.036 174.285 143.036 174.285C146.363 174.835 149.73 175.102 153.101 175.084L154.467 175.047C156.172 174.974 157.14 174.826 157.165 174.826C169.788 173.547 185.778 171.505 196.115 169.045C196.797 168.905 197.492 168.834 198.189 168.832C198.487 168.862 198.779 168.937 199.054 169.053C199.352 169.43 199.547 169.878 199.62 170.353C201.465 177.011 201.855 187.019 201.875 187.491C201.875 187.491 201.912 189.566 201.563 190.361C201.133 190.824 199.6 191.087 199.6 191.087C182.839 195.375 163.282 192.349 155.693 176.093C154.053 176.232 151.556 176.183 151.556 176.183C151.762 176.782 152.017 177.364 152.318 177.922C157.21 188.75 166.012 193.063 173.462 195.031C181.662 197.2 191.404 197.06 200.493 194.723C201.965 194.231 201.912 194.121 201.912 194.121C202.333 194.325 202.793 194.439 203.261 194.456C203.729 194.473 204.195 194.392 204.63 194.219Z" fill="#311D00"/>
<path d="M101.474 146.906C101.126 147.516 100.33 148.837 98.6904 151.141C97.9729 152.149 97.7189 153.068 97.9359 153.871C98.2599 155.06 99.5389 155.655 99.5514 155.659H99.5759L107.321 160.411L108.227 160.952L110.72 162.494C112.556 163.724 114.758 162.727 115.91 161.19C116.919 159.821 117.316 157.861 115.242 155.889C115.242 155.889 114.881 155.413 113.093 154.417C111.425 153.494 105.644 149.997 102.897 148.267C102.913 148.312 101.831 147.68 101.474 146.906ZM104.254 154.749C104.5 154.076 105.004 152.908 107.165 152.76H107.202C108.06 152.7 108.912 152.94 109.611 153.441C110.31 153.942 110.813 154.671 111.031 155.503C111.601 155.45 112.176 155.511 112.722 155.684C113.267 155.856 113.773 156.136 114.209 156.508C116.373 158.636 114.889 160.567 114.877 160.608C114.865 160.649 113.065 163.072 109.83 161.12C109.383 160.849 109.013 160.468 108.756 160.013C108.599 159.738 108.462 159.451 108.346 159.156C105.582 159.566 104.533 157.516 104.52 157.492C104.286 157.079 104.141 156.621 104.096 156.149C104.05 155.676 104.104 155.199 104.254 154.749Z" fill="#311D00"/>
<path d="M117.239 152.342C115.619 151.112 111.876 148.652 109.039 146.819L108.37 147.467C108.37 147.467 114.684 151.673 116.304 152.76C118.153 154.01 118.875 155.597 118.583 157.188C118.571 157.188 120.137 154.56 117.239 152.342Z" fill="#311D00"/>
<path d="M103.405 147.59C106.132 149.295 115.013 154.527 115.013 154.527C115.013 154.527 117.411 156.052 117.518 157.987C118.243 155.937 117.022 154.396 115.783 153.506L107.518 147.971C105.972 148.381 102.704 146.68 102.823 144.548C102.007 145.245 101.847 146.598 103.405 147.59Z" fill="#311D00"/>
<path d="M110.187 157.812C110.543 159.706 111.737 160.546 113.856 160.272L114.299 160.198C115.529 158.414 113.623 155.983 111.191 156.057C111.084 156.746 110.727 157.371 110.187 157.812Z" fill="#311D00"/>
<path d="M108.78 158.443C108.875 158.966 109.093 159.46 109.416 159.884C109.739 160.307 110.158 160.648 110.638 160.878C111.118 161.109 111.646 161.222 112.178 161.209C112.71 161.196 113.232 161.058 113.7 160.804C112.503 160.993 110.01 160.919 109.641 158.078C107.841 158.742 104.639 158.229 104.922 154.72C103.955 157.311 106.517 159.131 108.78 158.443Z" fill="#311D00"/>
<path d="M205.003 144.429C202.354 145.151 199.669 145.736 196.959 146.18C197.836 147.881 198.045 148.57 198.349 149.238C199.232 149.13 200.109 148.979 200.977 148.783C203.285 148.349 205.589 147.808 206.741 147.447L207.205 147.348C207.606 147.285 207.97 147.074 208.226 146.758C208.481 146.441 208.61 146.041 208.586 145.635C208.555 145.229 208.381 144.847 208.095 144.557C207.809 144.268 207.43 144.089 207.024 144.052C206.343 144.137 205.669 144.263 205.003 144.429Z" fill="#311D00"/>
<path d="M210.055 160.276C208.226 160.686 202.757 161.752 202.757 161.752L203.105 162.736C204.581 162.596 210.969 160.977 210.969 160.977C212.199 160.977 212.228 161.772 212.228 161.772C209.768 162.69 203.482 164.002 203.482 164.002C203.761 165.191 204.364 167.512 204.364 167.512C211.814 166.18 213.425 165.36 213.425 165.36C215.598 164.445 214.757 161.895 214.757 161.895C213.917 158.943 210.055 160.276 210.055 160.276Z" fill="#311D00"/>
<path d="M212.535 147.906C211.178 142.801 208.23 143.433 208.23 143.433C209.849 143.929 211.231 146.647 208.279 148.263C209.607 151.713 210.679 155.257 211.485 158.865C216.914 158.828 217.196 165.335 214.015 166.368C214.015 166.368 216.065 176.762 216.635 182.481C216.674 183.12 216.681 183.76 216.655 184.4C218.906 184.863 220.214 186.45 220.214 187.27C221.309 180.718 217.475 161.752 212.535 147.906Z" fill="#311D00"/>
<path d="M181.059 144.425L182.257 147.168C182.257 147.168 188.103 146.528 190.633 145.897C190.662 145.61 190.79 145.342 190.994 145.139C191.198 144.935 191.465 144.807 191.752 144.778C188.186 145.054 184.6 144.936 181.059 144.425Z" fill="#311D00"/>
<path d="M100.511 157.598C100.511 157.598 97.5506 155.818 97.1771 155.109L91.2816 164.13C91.1371 164.307 91.0466 164.523 91.0211 164.75C90.9956 164.977 91.0361 165.208 91.1381 165.413C91.3606 165.797 91.6746 166.12 92.0526 166.353C92.4301 166.586 92.8596 166.722 93.3026 166.749C93.5966 166.784 93.8946 166.738 94.1636 166.615C94.4326 166.492 94.6626 166.298 94.8281 166.053C94.8281 166.053 99.2681 159.435 100.511 157.598Z" fill="#311D00"/>
<path d="M127.407 111.805C127.817 112.027 127.866 112.113 128.338 112.945C128.633 113.466 129.457 115.249 129.457 115.249C130.949 114.118 132.368 113.31 135.029 112.347C143.487 108.911 153.602 106.885 162.532 105.102L163.212 104.967C164.668 104.733 165.057 103.843 164.947 103.085C164.825 102.588 164.52 102.155 164.092 101.875C163.665 101.594 163.147 101.486 162.642 101.572C151.486 103.372 138.584 106.705 132.364 109.309C130.635 109.98 128.975 110.816 127.407 111.805Z" fill="#311D00"/>
<path d="M104.274 144.166L104.246 144.199C103.721 144.83 104.594 145.732 104.778 145.909C105.574 146.679 106.853 147.172 107.46 146.688L111.97 139.525C110.906 138.556 109.93 137.495 109.051 136.356C105.332 142.387 104.352 144.015 104.287 144.146L104.274 144.166Z" fill="#311D00"/>
<path d="M172.896 100.69C172.896 100.69 173.802 102.802 173.802 104.274C175.565 104.442 179.005 104.77 180.321 105.057C181.772 105.057 182.026 104.093 182.067 103.671C182.141 102.884 181.703 101.933 180.965 101.826H180.919H180.874C179.837 101.457 174.847 100.879 172.896 100.69Z" fill="#311D00"/>
<path d="M108.686 156.675C108.373 156.687 108.06 156.641 107.763 156.54C107.767 156.899 107.806 157.256 107.882 157.606C109.58 157.864 110.412 156.786 110.51 155.999H110.375C110.432 154.912 109.555 153.855 108.35 153.469C107.967 154.233 107.763 155.075 107.755 155.929C108.057 156.079 108.383 156.174 108.719 156.212C108.699 156.366 108.688 156.521 108.686 156.675Z" fill="#311D00"/>
<path d="M106.661 157.233C106.78 157.29 106.841 157.381 106.952 157.418C106.859 157.014 106.817 156.601 106.825 156.188C106.612 156.04 106.443 155.983 106.337 155.778V155.191C106.505 155.368 106.636 155.372 106.804 155.511C106.803 154.76 106.983 154.02 107.329 153.354C107.003 153.321 106.674 153.36 106.364 153.467C106.055 153.575 105.772 153.749 105.537 153.978C105.537 153.978 104.976 156.286 106.661 157.233Z" fill="#311D00"/>
<path d="M177.193 100.088L172.273 88.9355L171.154 89.3865C170.896 88.882 170.415 88.6895 169.62 88.6115C128.69 15.4757 2.59027 56.0125 32.9303 152.805C34.8324 158.849 37.265 164.713 40.1996 170.329C39.8181 171.87 39.8181 173.482 40.1996 175.023C41.0196 178.123 41.7084 180.025 44.2053 185.515C43.1844 189.238 46.6653 194.707 55.107 193.084C65.14 191.53 70.384 187.897 71.6015 186.971C71.9375 187.204 72.274 187.45 72.61 187.696C90.4 201.575 119.498 202.682 130.248 186.253C134.529 187.126 139.875 186.409 139.875 186.409C145.443 186.04 149.928 184.552 153.43 182.239C153.02 181.546 152.589 180.841 152.2 180.103C147.689 183.145 141.228 184.765 132.134 184.027L131.556 183.949C133.084 180.822 134.003 177.432 134.262 173.961C133.59 173.851 132.897 173.728 132.179 173.617C132.311 176.31 131.932 179.003 131.06 181.555C130.521 183.095 129.769 184.553 128.825 185.884C128.825 185.884 128.825 185.884 128.846 185.884C126.702 189.04 123.793 191.602 120.392 193.33C106.927 200.353 86.017 196.249 73.869 187.204C66.899 182.001 62.8235 182.157 56.157 184.17C48.7768 186.409 49.0679 182.12 49.0679 182.12C42.881 173.346 37.2025 163.953 32.3399 146.241C20.6836 99.571 46.899 66.8405 80.478 56.07C115.16 50.166 141.863 69.657 153.003 88.513C152.674 88.6895 152.393 88.9425 152.183 89.251C151.076 90.9815 152.487 93.8675 152.593 94.126C152.593 94.126 154.643 99.985 155.266 101.83L156.496 101.596L153.479 93.22C152.282 90.391 153.622 89.3415 153.622 89.3415C153.266 90.391 153.557 91.6005 153.758 92.236C154.147 93.466 155.467 97.1025 156.561 99.8945C156.775 100.444 156.971 100.969 157.144 101.473C157.468 101.408 157.792 101.338 158.128 101.285C157.189 98.464 155.902 95.1675 155.512 94.0685C155.176 93.1545 155.02 92.806 154.594 91.33C154.024 89.329 154.807 89.28 155.656 89.2185C156.14 89.1815 157.583 89.2185 157.96 89.2185C158.833 88.747 160.702 87.82 161.818 87.2585C148.37 64.524 121.413 49.3253 86.0705 54.4915C113.951 47.714 145.61 55.746 164.667 82.896C165.672 84.5855 166.533 85.516 168.05 88.55H167.37C166.308 87.0495 165.233 86.5695 163.926 86.545C163.855 86.545 161.317 86.545 161.641 89.12C161.758 89.8795 161.976 90.62 162.29 91.3215L164.18 95.3025L164.684 96.3645L166.504 100.055C166.504 100.055 167.857 102.748 167.935 104.179L172.835 104.27C172.835 104.27 172.913 102.773 171.863 100.1C171.101 98.177 168.82 91.129 168.07 89.7225C168.061 89.6985 168.05 89.6755 168.038 89.653C168.626 89.6525 169.212 89.702 169.792 89.8005C170.756 92.2605 172.154 96.455 173.228 99.7635L173.638 99.784L174.487 99.8535C174.487 99.8535 174.487 99.821 174.467 99.7965C174.901 99.817 176.586 99.9645 177.193 100.088ZM41.0729 171.948C44.3939 178.045 47.309 181.915 48.2069 182.83C48.2397 182.977 48.2725 183.121 48.3053 183.24C48.2397 184.125 48.4283 186.762 53.586 185.802C52.0075 188.808 46.1692 187.143 47.3008 183.141C46.4603 182.092 44.4021 178.75 44.4021 178.75C44.3037 178.771 44.4923 179.747 44.48 179.677L46.3824 183.613C45.4599 189.472 53.865 189.91 54.48 185.618C54.5045 185.618 54.5125 185.618 54.525 185.593C54.9595 185.515 54.972 185.593 55.263 185.425C54.894 187.18 54.066 188.143 53.0695 188.648C51.2615 189.554 50.7325 191.161 53.4795 190.96C56.2265 190.759 61.1955 189.976 67.0425 187.135L68.2725 186.466C65.8125 184.908 63.209 184.654 61.4295 184.519C60.0435 184.429 57.8175 184.798 56.206 185.122L56.5095 185.035C63.209 182.821 67.3335 184.215 70.6545 186.331C70.4535 186.466 70.2075 186.643 69.974 186.811C67.0095 188.947 60.064 191.53 53.8935 192.112C47.6165 193.129 44.1192 188.726 45.3369 185.368L44.9884 184.519C44.6399 183.703 40.6219 175.507 41.0729 171.948ZM168.805 95.893C169.251 97.8405 167.841 98.89 166.443 97.279C165.923 96.673 165.546 95.9585 165.34 95.188L165.294 95.065C165.151 94.457 165.11 93.829 165.171 93.2075C164.53 92.6355 164.012 91.9375 163.65 91.1575C162.83 88.6975 163.65 88.148 164.02 88.017C165.372 87.681 167.262 89.694 167.128 92.7115C167.878 93.47 168.423 94.171 168.805 95.893Z" fill="#311D00"/>
<path d="M168.805 95.893C168.423 94.171 167.878 93.466 167.128 92.7155C167.263 89.698 165.373 87.685 164.02 88.021C163.651 88.1525 162.823 88.714 163.651 91.162C164.012 91.942 164.53 92.6395 165.172 93.212C165.11 93.8335 165.152 94.461 165.295 95.069L165.34 95.192C165.547 95.963 165.923 96.6775 166.443 97.283C167.841 98.8905 169.251 97.8405 168.805 95.893ZM165.459 92.4945C164.746 92.035 163.659 90.469 163.819 89.194C165.496 89.2185 166 91.654 165.459 92.4945ZM167.193 97.0455C166.35 96.2305 165.86 95.118 165.828 93.9455C167.16 94.2165 167.964 95.8685 167.193 97.0455Z" fill="white"/>
</svg>
