<svg width="250" height="250" viewBox="0 0 250 250" fill="none" xmlns="http://www.w3.org/2000/svg">
<g clip-path="url(#clip0_5_185)">
<path d="M126.577 193.632C126.585 193.724 126.476 194.338 126.233 194.605C125.989 194.875 125.631 194.974 125.285 195.05C124.72 195.175 124.161 195.055 123.711 194.714C123.341 194.435 123.111 194.043 123.084 193.662L123.081 193.641L123.078 193.644L118.876 179.974C116.522 172.964 112.964 165.445 106.061 158.79C97.722 150.754 85.4305 145.195 68.482 141.805C53.7095 138.849 43.9865 136.306 36.9545 133.564C30.204 130.933 26.223 128.194 22.3225 124.894C12.3805 116.48 5.45 105.753 5 92.241C5 92.241 14.8915 106.207 25.7635 99.537C30.903 96.385 34.598 96.8345 34.598 96.8345C31.254 93.1475 28.787 88.3325 28.127 83.096C27.601 78.9085 27.9445 74.26 29.147 69.2815C31.194 60.8075 37.155 54.5975 37.213 54.501C37.213 54.501 34.868 74.8575 44.6095 82.0795C50.617 85.4575 56.781 84.095 56.781 84.095C56.781 84.095 48.692 80.3525 47.559 68.339C47.063 63.0585 47.843 58.9055 48.0505 57.845C48.0505 57.845 58.729 72.907 69.428 66.7205C71.821 65.337 84.4475 58.816 89.8915 57.37C97.8835 55.251 105.793 55.101 113.399 56.9275C119.714 58.4425 125.877 61.3295 131.723 65.5055C142.143 72.951 148.891 82.6175 151.308 86.429C151.308 86.429 172.279 85.5065 183.757 100.163L183.773 100.186L210.318 111.893L207.308 113.816L207.176 113.901L207.312 113.987C215.902 119.442 230.931 129.111 235.023 132.598L235.032 132.607L235.046 132.614L242.65 136.227L241.264 139.905V139.908C241.171 140.154 239.108 146.051 243.001 148.968L244.958 150.434L245 150.467L244.982 150.513L239.004 166.333L237.49 164.302C229.152 152.818 221.27 150.697 217.31 150.616C212.828 150.522 212.512 152.908 213.068 153.937C214.87 157.264 224.917 158.989 228.639 159.367C228.637 159.367 231.102 159.688 231.173 159.697L221.496 168.36L203.952 167.258L203.88 167.253L203.887 167.182L204.182 163.739V163.718C204.092 163.066 202.906 157.188 188.561 151.287L188.519 151.273L188.477 151.292C186.038 152.417 181.033 154.359 174.898 154.688C167.501 155.087 160.638 153.093 154.497 148.764L154.455 148.739L154.404 148.75C151.942 149.59 147.083 151.485 142.228 154.817C133.216 161.009 128.298 169.105 127.613 178.884C127.613 178.884 126.823 186.943 126.578 193.634" fill="#002244"/>
<path d="M69.3712 84.9586C88.9082 78.9636 102.131 79.8976 106.645 87.5731C90.0577 89.4686 73.4697 94.1721 57.3437 101.56C49.2647 101.011 41.8427 97.7161 37.4862 92.7381C31.9937 86.4621 30.1802 77.1076 33.9672 65.3091C34.2372 75.4866 37.2002 81.4606 42.1157 84.8246C47.8827 88.7721 56.7972 88.8136 69.3717 84.9581L69.3712 84.9586ZM130.096 68.9866C136.79 73.9921 143.074 80.8866 148.28 88.9381C138.124 87.0636 127.707 86.3236 117.318 86.7406C114.246 80.6006 109.047 76.0996 103.393 74.6956C97.1187 73.1391 89.0762 74.3406 79.4877 78.2671C70.8777 81.7926 64.0102 82.1821 59.0737 79.4271C56.3137 77.8871 54.1627 75.3691 52.6747 71.9471C51.4817 69.2056 50.9902 66.5241 50.7407 65.0436L50.8607 65.1656C53.4777 67.8771 60.4307 75.0801 71.1822 69.5121C75.2712 67.3931 86.1912 62.0371 91.0212 60.7386C98.4772 58.7351 105.871 58.6886 112.981 60.5286C118.868 62.0526 124.626 64.8981 130.095 68.9861L130.096 68.9866ZM11.4917 102.148C11.4917 102.148 17.3947 107.767 27.3272 102.683C38.4942 96.9666 40.3982 103.278 49.7257 106.222C16.0312 125.567 11.4917 102.148 11.4917 102.148V102.148Z" fill="#FB4F14"/>
<path d="M236.236 142.639C236.261 140.045 236.956 137.933 237.101 137.527L232.576 135.415L232.557 135.411L232.548 135.397C229.754 132.376 199.493 113.361 199.188 113.167L199.073 113.096L199.186 113.024L201.422 111.535L180.913 102.856L180.89 102.844L180.874 102.823C172.55 90.3836 156.145 89.8881 152.995 89.9111C159.244 91.8411 161.153 93.7411 161.635 95.0066C161.956 95.8526 161.635 96.3806 161.621 96.4016L161.587 96.4571L161.527 96.4411C90.7656 77.1696 32.8796 121.509 30.4541 123.404C33.2326 126.206 39.4771 129.98 61.9241 134.961C66.9341 131.05 90.8116 114.087 126.851 115.085L121.004 106.259C121.004 106.259 143.326 112.055 156.069 119.129C155.086 128.555 160.929 137.64 170.354 140.42C177.111 142.412 184.078 140.692 189.067 136.45L205.08 146.66L189.717 140.704C183.184 145.426 174.56 147.07 166.306 144.389C156.092 141.075 149.319 132.069 148.357 122.025C113.776 113.349 88.2781 135.198 83.1826 140.008C87.3016 141.31 91.1026 142.791 94.5501 144.439C98.7501 146.45 102.533 148.758 105.849 151.336C108.41 148.214 118.622 137.49 138.205 137.328C138.205 137.328 118.977 142.299 112.848 157.948C118.294 164.25 121.098 170.909 123.253 177.268C123.742 171.224 125.676 165.677 129.025 160.777C131.764 156.775 135.44 153.191 139.954 150.129C147.638 144.916 155.189 142.998 155.265 142.979L155.307 142.968L155.339 142.995C170.921 155.543 188.072 145.663 188.242 145.559L188.277 145.541L188.318 145.555C193.114 147.385 197.166 149.438 200.353 151.658C202.907 153.431 204.92 155.32 206.334 157.263C208.529 160.281 208.591 162.451 208.577 162.903L220.196 163.664L223.605 160.757C213.045 159.389 209.844 156.111 209.191 153.302C208.055 146.526 214.978 145.691 218.133 146.101C225.488 147.06 234.43 153.643 237.797 158.222L240.29 151.536C236.897 148.96 236.21 145.276 236.235 142.638" fill="#FFFFFE"/>
<path d="M195.267 115.429C195.066 116.783 193.85 117.772 192.461 117.664C191.012 117.555 189.925 116.29 190.035 114.839C190.091 114.159 190.4 113.557 190.861 113.124C183.094 109.315 179.03 108.736 179.03 108.736C188.438 114.975 192.454 120.179 192.454 120.179L194.997 118.445L218.787 131.712C209.323 124 201.447 118.855 195.267 115.429Z" fill="#002244"/>
<path d="M190.036 114.839C189.925 116.289 191.012 117.555 192.461 117.663C193.85 117.772 195.067 116.782 195.267 115.429C194.893 115.221 194.524 115.018 194.16 114.825L191.564 116.729L192.286 113.838C191.799 113.586 191.324 113.349 190.862 113.123C190.401 113.556 190.091 114.158 190.036 114.838" fill="#FB4F14"/>
<path d="M191.563 116.729L194.159 114.825C193.515 114.474 192.89 114.147 192.285 113.838L191.562 116.729H191.563ZM232.888 138.08C227.287 140.319 234.506 146.736 234.506 146.736C218.809 134.356 232.888 138.08 232.888 138.08ZM164.606 97.6519C174.755 97.8569 164.682 93.5544 164.682 93.5544C164.682 93.5544 171.988 94.6749 176.239 101.447C172.228 99.9019 167.841 98.4469 164.606 97.6519Z" fill="#002244"/>
</g>
<defs>
<clipPath id="clip0_5_185">
<rect width="250" height="250" fill="white"/>
</clipPath>
</defs>
</svg>
