<svg width="250" height="250" viewBox="0 0 250 250" fill="none" xmlns="http://www.w3.org/2000/svg">
<g clip-path="url(#clip0_5_241)">
<path d="M217.486 91.639C217.486 91.639 220.483 89.0665 223.618 89.123C226.76 89.172 228.928 90.2255 230.109 91.4825C230.109 91.4825 232.607 91.141 235.32 91.8855C238.029 92.6345 241.857 94.8715 243.348 97.476C244.837 100.085 245.01 103.083 243.462 105.92C243.462 105.92 243.975 107.849 242.709 110.242C241.432 112.641 239.349 113.886 239.349 113.886C239.349 113.886 237.923 117.431 234.205 119.079C230.479 120.73 225.587 118.866 225.587 118.866C225.587 118.866 222.816 119.406 220.727 119.406C218.621 119.402 215.683 118.498 214.781 118.073C214.781 118.073 212.285 121.736 211.59 122.609C211.59 122.609 214.998 125.575 218.726 126.743C222.447 127.911 225.373 128.446 227.079 129.665C228.77 130.897 229.422 132.092 229.422 132.092C229.422 132.092 232.023 131.687 234.52 132.276C237.022 132.863 239.941 134.829 241.859 137.441C243.774 140.05 244.944 143.397 244.146 146.584C243.348 149.782 241.525 150.944 241.525 150.944C241.525 150.944 240.637 153.88 238.826 155.684C237.023 157.504 234.446 157.621 234.446 157.621C234.446 157.621 233.032 159.52 229.362 160.102C225.694 160.689 223.068 158.659 223.068 158.659C223.068 158.659 220.169 158.988 216.224 157.762C212.29 156.543 209.596 152.508 209.596 152.508C209.596 152.508 207.034 151.276 202.296 151.058C197.561 150.843 186.986 148.715 182.278 145.976C182.278 145.976 179.509 147.313 171.119 147.748C171.119 147.748 169.875 143.957 167.443 142.057C167.443 142.057 160.23 146.06 157.951 147.118C155.661 148.186 151.427 150.03 147.743 150.253C147.743 150.253 146.777 156.27 145.018 159.519C143.267 162.77 139.894 165.184 137.038 166.131C137.038 166.131 141.195 167.607 143.382 170.852C145.556 174.103 146.303 177.665 144.816 180.537C143.323 183.411 141.642 184.192 141.642 184.192C141.642 184.192 140.789 187.093 137.431 188.6C134.069 190.108 129.844 189.31 129.844 189.31C129.844 189.31 127.504 190.543 124.301 190.518C121.092 190.49 117.072 187.76 117.072 187.76C117.072 187.76 106.555 188.723 103.425 188.46C100.297 188.207 96.5925 186.909 94.8265 182.287C94.8265 182.287 92.905 183.892 90.038 185.277C87.1665 186.66 81.727 189.328 77.819 192.112L77.949 194.19C77.949 194.19 83.6615 196.343 84.0275 202.194C84.403 208.049 81.2065 210.22 80.2995 210.841C80.2995 210.841 79.084 213.481 76.4765 214.809C73.8725 216.134 70.9935 215.523 70.9935 215.523C70.9935 215.523 64.5705 218.375 59.675 213.69C54.777 209.011 56.163 203.956 56.22 202.726C56.268 201.507 56.6245 190.78 56.574 190.282C56.574 190.282 54.143 187.031 54.674 183.358C55.206 179.688 58.024 177.395 59.3505 176.281C60.685 175.161 62.2805 173.306 63.0715 170.484C63.8675 167.666 63.923 161.91 64.19 159.784C64.4595 157.655 64.5705 154.089 64.5705 154.089C64.5705 154.089 54.9445 151.433 49.9415 145.845C44.941 140.255 43.555 136.21 42.273 130.683C41.0055 125.149 40.1045 119.557 35.023 116.42C35.023 116.42 31.6955 117.373 27.8725 115.831C24.045 114.29 21.701 111.203 19.258 108.17C16.81 105.136 8.09698 103.753 5.00098 103.595C5.00098 103.595 11.542 96.3545 20.3735 93.2685C29.1995 90.187 33.4 91.405 36.3265 93.057C39.254 94.7075 41.553 97.4855 42.636 101.259C42.636 101.259 48.392 103.75 52.3335 108.384C56.268 113.009 58.1285 117.108 59.41 122.162C60.685 127.223 62.29 133.352 72.4355 135.579C72.4355 135.579 78.447 129.564 80.7255 128.066C83.019 126.582 85.885 125.738 86.712 125.495C87.5335 125.252 91.399 123.994 91.399 123.994C91.399 123.994 97.4725 119.038 98.462 118.048C98.462 118.048 100.726 114.023 102.161 111.682C103.598 109.341 105.845 107.019 105.845 107.019C105.845 107.019 102.897 101.537 103.06 95.538C103.06 95.538 104.511 96.1975 105.811 96.386C105.811 96.386 105.722 91.943 108.598 87.8445C111.468 83.7395 114.366 81.171 114.366 81.171C114.366 81.171 114.147 75.773 117.417 70.658C117.417 70.658 114.926 66.664 114.712 64.1105C114.712 64.1105 118.859 63.738 121.997 62.833C125.138 61.929 126.676 61.294 128.273 59.3695C129.867 57.4565 133.693 52.774 138.535 50.483C143.381 48.1965 148.748 47.365 152.602 47.6695C152.602 47.6695 150.238 45.64 147.623 44.792C147.623 44.792 152.083 41.5065 160.861 40.5685C160.861 40.5685 160.927 36.119 161.876 33.777C161.876 33.777 173.532 41.758 179.376 44.05C185.228 46.342 189.478 47.083 192.511 48.577C195.532 50.059 197.681 52.806 198.174 54.4975C198.174 54.4975 201.441 55.7535 203.941 57.512C206.437 59.2665 207.886 63.5025 207.886 63.5025C207.886 63.5025 212.61 65.388 217.505 68.3655C222.393 71.3445 228.398 77.626 228.398 77.626C228.398 77.626 224.614 79.293 221.402 83.9395C221.402 83.9395 219.924 89.0965 217.488 91.637" fill="#B0B7BC"/>
<path d="M210.649 93.7905C210.649 93.7905 212.852 93.747 214.781 94.285C216.718 94.8265 217.94 95.4615 217.94 95.4615C217.94 95.4615 219.364 94.5575 220.089 93.93C220.806 93.292 222.968 92.174 224.896 92.4865C226.833 92.8015 228.199 94.182 228.557 94.7705C228.557 94.7705 230.207 94.8705 231.736 94.785C233.266 94.69 236.1 95.2295 238.345 97.0315C240.604 98.831 242.662 101.491 239.921 105.041C239.921 105.041 240.508 107.293 239.698 108.911C238.889 110.537 236.796 111.421 236.796 111.421C236.796 111.421 235.508 115.262 232.499 116.249C229.485 117.244 225.704 115.388 225.704 115.388C225.704 115.388 222.157 116.249 219.589 116.072C217.028 115.889 214.224 113.723 214.224 113.723C214.224 113.723 213.608 114.09 213.029 114.94C212.439 115.799 208.025 121.989 206.997 123.08C206.997 123.08 211.315 127.278 215.587 129.028C219.862 130.78 222.019 131.06 223.15 131.367C224.268 131.687 226.742 133.081 227.647 135.786C227.647 135.786 230.393 135.102 232.187 135.242C233.988 135.375 235.741 135.733 238.889 138.973C242.037 142.214 241.32 145.145 240.824 146.49C240.331 147.832 238.459 148.997 238.459 148.997C238.459 148.997 238.303 151.711 236.682 153.153C235.06 154.587 232.865 154.341 232.865 154.341C232.865 154.341 232.005 155.981 229.76 156.664C227.505 157.34 225.078 156.162 223.946 155.265C223.946 155.265 219.317 155.672 216.309 154.184C213.301 152.7 211.885 149.787 211.885 149.787C211.885 149.787 206.78 147.699 201.47 147.655C196.164 147.612 185.887 144.741 182.52 142.283C182.52 142.283 177.41 144.612 173.292 144.674C173.292 144.674 172.021 140.816 167.567 138.139C167.567 138.139 158.023 143.431 154.604 145.006C151.189 146.581 145.173 147.152 144.293 147.247C144.293 147.247 144.667 148.692 144.223 151.035C143.758 153.373 142.328 157.969 141.115 159.498C139.893 161.028 136.521 162.914 134.546 163.636C132.569 164.357 130.097 164.99 128.018 166.019C125.956 167.057 123.436 169.163 122.334 170.157C122.334 170.157 125.518 170.963 126.478 170.921C127.436 170.884 129.148 169.931 130.411 169.443C131.674 168.943 135.221 168.268 138.056 170.386C140.89 172.5 142.372 175.242 142.275 177.32C142.195 179.387 140.853 180.891 138.873 181.915C138.873 181.915 138.282 184.837 135.812 185.734C133.327 186.631 129.212 185.817 129.212 185.817C129.212 185.817 127.259 187.086 124.92 187.216C122.583 187.354 119.437 185.329 118.942 185.06C118.441 184.786 117.951 184.521 117.093 184.521C116.233 184.521 106.979 185.287 104.099 185.287C101.223 185.287 99.2449 183.886 98.0289 181.64C96.8139 179.387 98.5174 175.787 99.6044 174.354C100.677 172.905 102.394 170.925 102.609 170.518C102.836 170.113 102.888 169.443 102.301 169.036C101.715 168.631 99.8379 167.705 99.8379 167.705C99.8379 167.705 96.9929 173.405 95.9159 175.336C94.8334 177.27 93.4384 179.43 90.7439 181.096C88.0414 182.763 82.3264 185.287 79.3204 187.129C76.3019 188.971 74.5159 190.672 74.5159 190.672C74.5159 190.672 74.5469 196.096 74.7104 196.764C74.7104 196.764 77.4259 197.299 78.5119 198.242C79.5929 199.192 80.6659 200.721 80.6204 202.836C80.5829 204.95 80.2999 207.438 77.6664 208.422C77.6664 208.422 76.9309 211.16 74.8664 211.969C72.7954 212.781 70.6784 212.062 70.6784 212.062C70.6784 212.062 67.8509 213.496 64.8809 212.87C61.9144 212.242 59.4394 209.185 59.3939 206.073C59.3509 202.964 59.8844 191.719 59.8844 190.991C59.8844 190.272 59.8844 189.509 59.3509 188.523C58.8084 187.532 57.5454 185.059 57.8684 183.48C58.1819 181.905 59.7974 180.058 61.2824 178.796C62.7654 177.538 64.5709 176.282 65.4669 173.757C66.3624 171.245 67.1274 167.777 67.2219 165.117C67.3124 162.467 67.6344 153.826 68.2169 151.486C68.2169 151.486 57.0529 149.008 52.0179 143.248C46.9839 137.486 46.1264 132.893 44.6879 126.73C43.2479 120.562 41.4104 115.846 35.5469 112.778C35.5469 112.778 32.4049 114.309 28.3659 112.555C24.3144 110.798 22.1079 106.208 19.9544 104.581C17.7949 102.966 11.9184 102.036 10.7434 102.069C10.7434 102.069 17.7449 97.2075 22.5619 95.767C27.3724 94.3285 32.5959 93.879 35.8744 96.4925C39.1544 99.0925 39.6489 103.601 39.6489 103.601C39.6489 103.601 46.3994 106.391 50.3144 111.203C54.2284 116.022 55.3864 120.516 56.1544 123.534C56.9224 126.549 59.2954 132.578 63.1019 135.238C66.9099 137.9 71.3739 139.018 73.7004 139.176C73.7004 139.176 80.2669 132.311 82.5174 130.824C84.7589 129.339 87.2809 128.75 88.3539 128.438C89.4379 128.128 93.1779 126.887 93.1779 126.887C93.1779 126.887 99.7964 121.184 101.068 120.2C101.068 120.2 104.906 113.545 105.985 111.966C107.07 110.394 109.966 106.692 109.966 106.692C109.966 106.692 107.312 103.662 107.346 99.7385C107.346 99.7385 108.909 100.05 109.899 99.9525C109.899 99.9525 108.599 97.749 109.23 94.6415C109.861 91.5365 113.225 86.4935 117.727 82.6195C117.727 82.6195 117.549 79.3395 118.489 76.242C119.438 73.1305 121.356 70.6475 121.356 70.6475C121.356 70.6475 119.303 68.1065 118.979 66.114C118.979 66.114 122.857 65.75 125.556 64.8555C128.252 63.9475 130.412 62.0355 130.412 62.0355C130.412 62.0355 135.578 54.9015 141.872 52.6505C148.179 50.3995 154.6 51.095 154.6 51.095C154.6 51.095 157.785 49.0215 159.098 48.565C159.098 48.565 156.598 45.7495 154.525 44.883C154.525 44.883 159.381 43.4155 163.854 43.759C163.854 43.759 163.936 40.6455 164.444 38.8375C164.444 38.8375 172.24 44.4655 175.796 46.035C179.346 47.61 186.133 49.862 188.434 50.585C190.725 51.303 194.615 52.7985 195.437 56.954C195.437 56.954 199.218 58.5465 200.709 59.359C202.194 60.172 203.725 62.1075 204.036 62.918C204.343 63.7225 204.657 64.723 205.044 65.3465C205.433 65.976 206.098 66.4215 206.73 66.6425C207.362 66.8735 213.61 69.6625 216.495 71.8225C219.366 73.991 223.288 77.721 223.288 77.721C223.288 77.721 219.386 80.835 218.426 82.2715C218.426 82.2715 217.259 86.188 215.371 88.9725C213.475 91.7625 210.651 92.8515 210.651 92.8515V93.7905" fill="#FFFFFE"/>
<path d="M202.278 123.21C202.278 123.21 192.045 133.527 182.81 138.508C182.81 138.508 178.506 140.542 175.164 141.022C175.164 141.022 172.535 136.001 167.279 134.445C167.279 134.445 156.145 130.181 140.048 133.535C140.048 133.535 155.363 132.414 163.034 136.841C159.538 138.777 154.76 141.342 152.226 142.332C147.924 144.008 142.318 143.891 140.158 144.249C140.158 144.249 141.236 148.072 141.113 149.268C140.997 150.459 139.804 156.444 137.777 158.116C135.742 159.784 130.485 161.458 127.74 162.422C124.993 163.371 118.897 167.198 116.985 172.457C116.985 172.457 124.155 174.017 126.064 174.247C127.978 174.484 129.768 173.411 131.087 172.818C132.397 172.215 134.068 171.856 135.863 172.935C137.652 174.018 138.492 175.567 138.848 176.762C139.208 177.956 137.898 179.027 135.742 179.393C135.742 179.393 135.983 181.904 134.671 182.497C133.353 183.094 130.129 182.74 128.331 182.136C128.331 182.136 127.146 183.818 124.633 183.818C122.128 183.818 120.45 181.183 117.826 181.065C115.198 180.946 106.955 182.021 103.966 181.785C100.978 181.543 100.743 179.753 101.34 178.073C101.939 176.406 105.639 172.699 106.237 171.021C106.754 169.564 107.212 167.017 101.246 164.643C101.503 164.326 105.802 159.016 112.557 154.941C119.17 150.958 125.736 147.239 133.428 144.789C130.326 145.089 125.573 146.245 119.368 148.865C110.042 152.815 104.675 157.916 104.675 157.916C104.675 157.916 105.366 155.222 113.426 148.054L113.343 148.112C102.324 153.134 97.7195 164.474 97.637 164.649C96.2475 167.483 92.403 175.206 90.9425 176.763C89.155 178.674 84.14 180.468 80.439 182.616C76.7285 184.769 71.9505 187.522 71.353 189.311C70.7545 191.107 71.483 199.228 71.712 199.714C71.712 199.714 75.8975 200.07 76.7285 201.145C77.5635 202.22 77.4545 204.37 76.9635 204.971C76.4925 205.575 74.698 205.575 74.698 205.575C74.698 205.575 74.8175 207.954 73.622 208.673C72.429 209.398 69.802 208.322 69.802 208.322C69.802 208.322 69.082 209.398 67.2945 209.63C65.505 209.873 64.188 209.161 63.351 207.841C62.5145 206.525 62.8775 204.733 62.8775 203.294C62.8775 201.861 63.4685 191.819 63.23 189.428C62.9985 187.044 60.9615 185.369 61.3205 183.81C61.6795 182.261 66.096 179.744 67.5275 177.116C68.966 174.484 70.28 171.019 70.6325 164.93C70.9915 158.831 70.9915 153.208 71.95 150.103C72.0725 149.712 72.19 149.342 72.2965 148.981C68.415 148.25 60.106 145.962 56.221 142.561C51.8475 138.746 49.896 134.927 48.9625 129.997C48.0325 125.057 46.039 119.49 44.0375 115.937C41.9485 112.259 35.568 108.958 35.568 108.958C35.568 108.958 32.7205 111.253 28.977 109.174C24.7915 106.858 24.3605 105.431 22.895 103.495C21.5915 101.787 19.037 101.277 18.3435 101.161C27.1135 97.7405 31.455 102.455 31.455 102.455C31.455 102.455 31.234 100.084 27.857 99.213C26.841 98.9425 25.581 98.6375 24.1965 98.51C24.858 98.256 25.4635 98.052 25.9095 97.9375C27.3865 97.568 30.866 97.2045 33.5155 98.994C35.98 100.66 36.8625 105.699 36.8625 105.699C38.071 106.443 45.234 110.01 47.5635 112.989C49.896 115.972 51.5695 119.012 52.591 123.014C53.616 127.02 55.008 132.887 60.961 137.821C65.5315 141.599 72.278 142.483 75.178 142.688C75.2955 142.53 75.408 142.374 75.534 142.214C77.5625 139.582 83.659 133.849 85.444 133.016C87.236 132.177 94.409 130.375 95.2465 129.546C96.086 128.716 103.134 123.086 103.727 122.252C104.327 121.422 107.552 115.678 109.461 112.804C111.37 109.938 116.155 104.685 116.155 104.685C116.155 104.685 112.098 104.558 111.027 102.765C111.027 102.765 115.453 100.817 115.849 98.308C116.076 96.825 115.056 95.7585 112.056 96.992C112.056 96.992 112.443 94.161 114.953 90.5765C117.471 86.991 122.217 83.01 124.155 81.6115C126.551 79.881 127.381 77.67 126.781 76.474C126.182 75.2725 123.552 75.1535 121.757 77.192C121.757 77.192 123.438 72.169 126.541 70.023C126.541 70.023 124.266 69.5405 123.438 67.742C123.438 67.742 126.899 67.8645 129.291 66.545C131.683 65.237 137.898 61.296 140.279 61.1745C140.279 61.1745 138.367 60.212 135.385 61.296C135.385 61.296 139.96 55.7945 146.971 54.7175C153.99 53.641 160.228 55.5525 163.094 54.2385C163.094 54.2385 161.781 52.57 158.673 52.57C158.673 52.57 162.501 50.2925 164.89 50.2925C164.89 50.2925 162.861 47.9015 159.987 46.824C159.987 46.824 166.199 47.066 168.473 48.1425C168.473 48.1425 166.913 46.351 167.161 44.3135C167.161 44.3135 171.94 48.616 178.982 51.0105C186.03 53.401 190.335 54.238 191.529 56.147C192.724 58.061 192.009 59.137 192.009 59.137C192.009 59.137 197.142 61.296 198.936 62.24C200.727 63.202 201.442 65.3535 201.679 66.0765C201.92 66.7845 203.119 68.8225 204.069 69.1825C205.027 69.5405 210.285 71.812 213.145 73.6045C216.016 75.399 218.761 77.9085 218.761 77.9085C218.761 77.9085 216.017 79.458 215.426 80.7765C214.823 82.0885 213.625 88.422 208.489 90.096C208.489 90.096 210.039 87.4665 208.86 84.839C208.86 84.839 202.758 84.4785 198.453 87.1135C198.453 87.1135 197.679 92.2545 200.427 93.694C203.173 95.125 206.335 90.8115 206.7 89.856C206.7 89.856 206.609 92.2785 206.7 93.912L207.433 94.0305C207.606 95.7545 207.296 98.2275 207.296 98.2275C207.296 98.2275 209.324 96.672 212.676 97.27C216.017 97.8635 216.852 98.9425 217.932 98.9425C219.009 98.9425 221.151 97.5105 221.863 96.7915C222.588 96.076 223.788 95.5925 224.858 95.9545C225.932 96.313 226.53 97.989 226.53 97.989C226.53 97.989 230.598 98.3475 231.909 98.104C233.219 97.863 235.846 99.3035 236.564 99.8975C237.279 100.497 238.12 101.456 237.872 102.176C237.64 102.886 235.962 103.965 235.962 103.965C235.962 103.965 236.922 105.878 236.799 107.069C236.681 108.267 234.172 108.742 234.172 108.742C234.172 108.742 233.337 111.971 231.785 112.803C230.239 113.643 225.809 111.852 225.809 111.852C225.809 111.852 223.179 112.803 220.199 112.691C217.213 112.571 215.535 110.297 215.535 110.297C215.535 110.297 213.268 109.936 211.469 111.493C209.69 113.051 205.985 119.863 202.278 123.208V123.21ZM177.253 103.106C181.492 107.675 178.449 111.84 178.449 111.84C182.861 110.919 195.349 106.357 202.158 100.856C202.158 100.856 197.233 98.2275 193.677 98.027C190.507 97.8465 188.557 101.319 188.339 104.744C185.785 106.308 182.135 107.034 182.135 107.034L182.145 106.968C182.233 106.415 182.679 102.312 177.691 99.752C172.478 97.0745 162.32 95.3565 151.349 101.295C162.32 97.17 173.841 99.441 177.253 103.107V103.106ZM133.638 101.755C140.724 100.077 145.182 96.0405 148.953 94.1985C153.278 92.0815 159.035 90.138 166.604 91.2585C166.604 91.2585 155.831 86.7315 145.638 92.148C135.446 97.5585 130.574 100.466 120.289 100.829C120.289 100.829 126.161 103.523 133.638 101.755V101.755ZM159.363 80.026C148.736 78.088 141.684 84.9165 141.684 84.9165C141.684 84.9165 149.682 81.7145 158.206 82.61C166.719 83.5055 174.711 89.9455 174.711 89.9455C174.711 89.9455 169.987 81.9675 159.363 80.026ZM195.296 68.7235C194.244 68.7235 190.473 69.588 190.473 69.588C190.473 69.588 194.142 70.363 195.114 71.04C196.078 71.715 199.16 74.0345 199.16 74.0345C199.16 74.0345 198.395 73.068 198.576 72.5855C198.773 72.106 200.122 70.2605 200.122 70.2605C198.576 70.165 196.36 68.723 195.296 68.723L195.296 68.7235ZM237.872 144.008C238.234 145.561 236.564 146.519 235.13 146.519C235.13 146.519 235.492 149.865 234.289 150.702C233.096 151.536 230.829 150.338 230.829 150.338C230.829 150.338 230.709 152.733 228.918 153.328C227.128 153.925 224.976 151.775 224.976 151.775C224.976 151.775 220.79 152.498 217.932 151.178C215.065 149.864 214.463 147.237 214.463 147.237C214.463 147.237 209.8 145.088 205.264 144.611C201.375 144.195 192.979 143.77 185.874 140.379C188.819 138.634 193.161 135.907 196.566 133.099C199.837 130.398 202.791 127.505 204.706 125.521C206.854 127.473 210.04 130.121 212.676 131.341C217.091 133.37 220.322 134.212 221.75 134.445C223.179 134.68 224.262 136.241 224.613 137.075C224.977 137.911 226.412 139.223 228.085 139.109C229.759 138.986 231.91 138.032 233.817 139.109C235.723 140.184 237.52 142.45 237.872 144.008Z" fill="#0076B6"/>
</g>
<defs>
<clipPath id="clip0_5_241">
<rect width="250" height="250" fill="white"/>
</clipPath>
</defs>
</svg>
