<svg width="250" height="250" viewBox="0 0 250 250" fill="none" xmlns="http://www.w3.org/2000/svg">
<g clip-path="url(#clip0_5_247)">
<path d="M124.344 51.129C63.72 51.1345 12.5 85.1 12.5 125.305C12.5 167.156 60.5855 198.715 124.344 198.715C161.557 198.715 196.837 185.64 218.723 163.744C230.77 151.693 237.395 138.037 237.382 125.305C237.365 105.481 225.701 86.863 204.536 72.873C183.316 58.849 154.84 51.129 124.344 51.129Z" fill="#FFB612"/>
<path d="M46.1301 174.463C26.6791 161.494 15.9641 144.031 15.9641 125.304C15.9641 87.639 66.6106 54.5965 124.345 54.5915C184.733 54.589 233.884 86.3105 233.921 125.304C233.932 137.118 227.665 149.898 216.273 161.297C195.025 182.557 160.66 195.252 124.346 195.252C94.0056 195.252 66.2266 187.867 46.1311 174.463" fill="#203731"/>
<path d="M172.864 105.878C164.157 92.9145 145.093 83.924 122.644 83.924C91.8329 83.924 66.8494 100.866 66.8494 121.763C66.8494 142.657 84.4844 161.005 122.644 160.983C145.559 160.973 163.983 151.079 172.59 138.084L107.501 138.197L107.301 121.295L220.286 121.255C220.438 122.61 220.596 123.931 220.596 125.305C220.596 157.839 177.501 184.212 124.344 184.212C71.1899 184.212 28.0974 157.839 28.0974 125.305C28.0974 92.7705 73.7479 65.401 124.344 65.2035C166.457 65.043 202.256 82.4375 215.311 105.852L172.864 105.879" fill="#FFFFFE"/>
</g>
<defs>
<clipPath id="clip0_5_247">
<rect width="250" height="250" fill="white"/>
</clipPath>
</defs>
</svg>
