<svg width="250" height="250" viewBox="0 0 250 250" fill="none" xmlns="http://www.w3.org/2000/svg">
<g clip-path="url(#clip0_5_150)">
<path d="M173.559 63.5726C217.37 96.9361 184.029 101.931 149.815 106.803C149.815 106.803 135.378 102.818 110.36 90.3816C53.6202 62.1816 71.4837 48.8936 116.077 40.8536C44.7062 9.73956 -14.7793 63.9116 50.8432 116.589L32.8362 129.47C47.6277 138.544 78.2752 157.579 73.8227 186.728L58.6117 197.607L105.065 218.672L141.721 202.05C141.987 185.907 170.819 177.522 183.224 144.685C251.514 129.006 234.121 68.8936 173.558 63.5731" fill="#FFFFFE"/>
<path d="M120.738 163.232L107.569 148.243L92.4489 150.499L99.4374 138.978L86.2709 123.979L103.761 131.856L110.734 120.332L114.548 136.716L132.035 144.58L116.908 146.842L120.738 163.232H120.738ZM142.343 109.879C56.6194 76.7475 50.9429 49.5665 104.45 40.173C37.5324 21.978 -1.50014 70.5095 64.7104 116.791L46.9444 129.499C65.8094 142.111 85.8014 160.791 79.0194 190.188L70.0674 196.583L104.45 212.18C136.447 177.109 153.182 143.035 142.342 109.879H142.343Z" fill="#03202F"/>
<path d="M185.859 68.7925C215.279 91.841 194.852 106.567 158.985 110.568C168.059 148.844 140.236 183.903 110.778 211.049L137.787 198.804C139.785 183.248 167.188 175.157 180.173 140.638C241.164 127.021 231.21 83.221 185.859 68.7925Z" fill="#A71930"/>
</g>
<defs>
<clipPath id="clip0_5_150">
<rect width="250" height="250" fill="white"/>
</clipPath>
</defs>
</svg>
