<svg width="250" height="250" viewBox="0 0 250 250" fill="none" xmlns="http://www.w3.org/2000/svg">
<g clip-path="url(#clip0_5_156)">
<path d="M124.83 219.674C106.612 219.756 92.6426 214.554 85.9566 211.025C72.8571 204.149 62.0641 195.045 52.7716 182.41C39.4171 164.297 36.8321 149.713 35.7681 141.77C35.1426 137.635 34.3991 127.695 35.7946 118.778C37.3736 105.912 40.2976 99.5035 42.3891 93.232C44.0156 88.7735 49.2621 78.043 52.3756 73.122C55.0211 69.265 59.8526 62.158 61.8231 59.649C62.3616 58.861 61.6626 59.234 61.3661 59.242C60.6436 59.418 60.2706 59.4625 59.7136 59.418C59.2961 59.418 58.4606 59.2785 57.9956 59.1395C55.3946 58.585 51.6771 55.703 52.1421 50.6845C52.0501 49.5705 53.2561 40.0045 54.1861 37.03C55.3946 32.8525 57.9011 30.9005 62.3621 30.5275C64.5901 30.5275 73.9721 30.341 78.2336 31.0055C86.7671 31.854 93.0146 34.337 96.7296 41.862C99.7036 48.4565 98.6841 58.769 94.5961 66.6645C93.2011 69.3575 90.4161 74.376 87.9991 77.626C85.7711 80.876 84.8411 82.5525 82.8891 86.173C80.9396 89.98 74.4371 104.194 72.2091 113.482C67.9686 130.818 70.3491 140.794 78.5226 154.359C84.5626 163.368 91.6221 169.873 97.1026 172.845C106.114 178.509 118.42 180.091 124.831 180.091C131.242 180.091 143.548 178.51 152.562 172.845C158.04 169.873 165.1 163.368 171.137 154.359C179.313 140.794 181.694 130.818 177.456 113.482C175.228 104.195 168.723 89.98 166.773 86.173C164.824 82.5525 163.894 80.876 161.663 77.626C159.251 74.376 156.461 69.3575 155.066 66.6645C150.981 58.7695 149.961 48.457 152.933 41.862C156.645 34.337 162.898 31.8545 171.429 31.0055C175.688 30.341 185.072 30.5275 187.3 30.5275C191.761 30.9005 194.27 32.8525 195.476 37.03C196.404 40.004 197.615 49.5705 197.52 50.6845C197.985 55.703 194.27 58.585 191.667 59.1395C191.207 59.279 190.366 59.418 189.949 59.418C189.392 59.4625 189.021 59.418 188.296 59.242C187.999 59.234 187.301 58.861 187.839 59.649C189.81 62.158 194.639 69.265 197.29 73.122C200.4 78.043 205.65 88.773 207.273 93.232C209.365 99.5035 212.289 105.912 213.868 118.778C215.263 127.696 214.519 137.635 213.897 141.77C212.83 149.713 210.25 164.297 196.89 182.41C187.598 195.045 176.805 204.149 163.708 211.025C157.021 214.553 143.052 219.59 124.832 219.674" fill="#FFFFFE"/>
<path d="M124.73 201.769C125.936 201.769 126.916 200.791 126.916 199.585C126.916 198.377 125.936 197.397 124.73 197.397C123.521 197.397 122.544 198.377 122.544 199.585C122.544 200.791 123.521 201.769 124.73 201.769ZM66.5407 174.087C67.7492 174.087 68.7267 173.109 68.7267 171.901C68.7267 170.692 67.7492 169.712 66.5407 169.712C65.3347 169.712 64.3547 170.692 64.3547 171.901C64.3547 173.109 65.3347 174.087 66.5407 174.087ZM53.5382 123.555C54.7442 123.555 55.7242 122.575 55.7242 121.369C55.7242 120.158 54.7442 119.18 53.5382 119.18C52.3297 119.18 51.3522 120.158 51.3522 121.369C51.3522 122.575 52.3297 123.555 53.5382 123.555ZM79.1752 64.1C80.3837 64.1 81.3612 63.1225 81.3612 61.914C81.3612 60.7055 80.3837 59.728 79.1752 59.728C77.9667 59.728 76.9867 60.7055 76.9867 61.914C76.9867 63.1225 77.9667 64.1 79.1752 64.1ZM185.323 171.901C185.323 170.693 184.343 169.713 183.137 169.713C181.931 169.713 180.948 170.693 180.948 171.901C180.948 173.11 181.931 174.087 183.137 174.087C184.343 174.087 185.323 173.11 185.323 171.901ZM198.328 121.369C198.328 120.158 197.348 119.181 196.139 119.181C194.933 119.181 193.953 120.158 193.953 121.369C193.953 122.575 194.933 123.555 196.139 123.555C197.348 123.555 198.328 122.575 198.328 121.369ZM172.691 61.9145C172.691 60.706 171.711 59.7285 170.502 59.7285C169.294 59.7285 168.316 60.706 168.316 61.9145C168.316 63.123 169.294 64.1005 170.502 64.1005C171.711 64.1005 172.691 63.123 172.691 61.9145ZM84.0962 204.891C72.2077 197.834 61.4307 188.916 51.0267 171.752C46.3817 163.276 35.6072 145.255 40.9197 113.858C47.0492 85.151 59.3897 70.6586 66.4492 60.719C69.7912 55.8901 66.3547 53.1025 63.6592 54.1245C61.4022 54.981 59.8522 55.036 59.8522 55.036C55.8587 54.495 56.4157 51.8965 57.1592 45.1125L58.0892 39.54C58.9222 34.6165 61.1527 34.7085 67.0037 34.8215C76.2937 35.0055 77.9647 35.0815 82.9827 36.009C89.6717 37.496 98.4022 44.1855 91.5292 62.577C87.2547 72.4245 82.7962 75.7665 77.9647 85.987C72.7627 97.3215 60.1307 122.773 68.6772 144.512C80.3817 173.681 103.047 184.085 124.599 184.458C146.15 184.177 171.044 171.45 181.001 144.512C189.548 122.773 176.916 97.3215 171.711 85.987C166.882 75.7665 162.424 72.4245 158.149 62.577C151.276 44.1855 160.009 37.496 166.696 36.009C171.711 35.0815 173.385 35.0055 182.675 34.8215C188.526 34.7085 190.759 34.6165 191.594 39.54L192.522 45.1125C193.263 51.8965 193.822 54.495 189.829 55.036C189.829 55.036 188.279 54.981 186.019 54.1245C183.324 53.1025 179.885 55.8901 183.229 60.719C190.291 70.6586 202.626 85.151 208.759 113.858C214.071 145.255 203.297 163.276 198.652 171.752C188.25 188.916 177.473 197.834 165.582 204.891C149.306 216.228 118.84 215.574 124.691 215.206C130.823 215.671 102.304 216.412 84.0972 204.891H84.0962Z" fill="#002C5F"/>
</g>
<defs>
<clipPath id="clip0_5_156">
<rect width="250" height="250" fill="white"/>
</clipPath>
</defs>
</svg>
