<svg width="250" height="250" viewBox="0 0 250 250" fill="none" xmlns="http://www.w3.org/2000/svg">
<g clip-path="url(#clip0_5_194)">
<path d="M21.554 170.24C20.1995 169.623 18.4195 169.166 16.847 166.693C15.0805 163.904 15.704 161.868 16.271 158.015C16.8715 153.931 16.804 152.278 15.657 147.737C14.7165 144.007 14.1855 142.726 13.6025 138.399C13.2425 135.73 12.979 133.485 12.9545 131.976C12.9185 129.732 13.0895 127.631 13.3345 124.509C13.4695 122.775 13.8925 120.313 15.3885 115.806C15.8815 114.329 17.2135 110.835 18.028 109.175C19.394 106.405 20.8585 105.033 20.1765 100.146C19.9155 98.267 19.2 97.258 18.9055 94.7375C18.5725 91.8795 18.7635 90.537 19.299 88.769C19.8345 87.01 20.4735 85.911 21.565 84.5595C22.1995 83.7755 23.3985 82.253 26.157 81.7645C26.157 81.7645 27.968 81.2465 29.451 81.654C33.177 81.9785 32.628 85.271 38.19 81.8205C40.854 80.3315 45.424 79.1425 50.034 82.377C52.003 83.5345 53.6495 87.467 51.5325 80.983C50.5425 77.1295 49.5365 75.208 48.189 69.1425C46.612 63.406 47.8895 57.552 52.563 54.3855C55.936 51.4215 62.78 52.7415 70.7185 54.23C77.6845 55.5385 79.3315 53.3425 84.0745 53.5455C86.741 53.6605 89.004 53.6695 91.2005 54.185C94.229 54.899 95.9365 55.784 97.6105 56.6965C102.363 59.289 102.088 56.728 108.726 57.602C110.85 57.8815 111.684 57.568 113.835 58.19C116.324 58.906 117.865 59.7285 120.063 61.01C126.217 64.5955 126.224 65.402 136.475 64.954C138.372 64.8705 141.753 66.3345 143.583 67.5305C145.617 68.8615 150.56 71.738 154.927 72.017C160.489 72.373 165.255 71.6635 172.113 76.542C177.121 80.9995 183.345 80.79 188.902 83.808C190.689 84.7765 194.957 88.0425 197.054 91.412C197.501 92.135 199.331 93.322 203.898 94.0785C208.004 94.7565 212.309 99.635 214.601 103.041C217.553 105.764 215.823 103.915 219.868 106.737C221.824 108.102 222.805 108.784 224.717 110.214C227.207 112.077 225.619 110.719 228.594 113.068C229.138 113.496 229.863 114.313 231.849 116.102C234.43 118.088 235.56 119.856 236.428 121.588C237.893 124.503 236.721 126.557 235.368 128.974C234.369 130.751 232.77 133.611 230.22 136.019C227.39 138.693 227.615 138.769 225.032 140.317C219.162 143.824 214.776 142.637 212.292 146.824C208.623 153.009 205.671 155.006 202.901 156.304C197.319 158.921 193.572 158.829 190.031 161.61C187.144 163.876 182.581 166.793 179.496 168.169C173.559 170.816 172.827 169.259 168.764 171.798C167.385 172.66 168.26 172.163 164.79 175.023C162.792 176.67 159.606 178.066 158.022 178.287C155.95 178.577 153.662 178.805 151.729 179.323C146.853 180.629 146.322 182.343 140.949 183.375C134.678 184.58 132.086 183.983 126.101 186.839C124.54 187.584 122.834 188.33 120.548 189.571C118.667 190.596 112.885 191.994 108.418 192.217C106.472 192.316 104.645 191.033 99.9355 193.278C93.856 196.177 93.7705 195.882 88.951 196.859C87.1985 197.215 85.2275 197.019 83.3935 197.012C79.89 197.003 76.2405 195.791 72.4965 195.906C68.658 196.028 69.549 195.791 66.354 196.154L64.0905 196.524L60.7535 197.267L59.541 197.589C56.481 198.26 54.652 197.986 52.8605 197.634C49.8525 197.037 46.518 195.24 45.3075 193.591C43.3185 191.215 43.046 188.929 43.278 185.812C44.4005 180.379 46.7025 172.645 47.771 169.886C47.771 169.886 49.535 165.874 45.267 168.122C40.9425 169.717 37.563 166.926 34.9395 167.82C32.352 169.122 30.752 170.311 27.5165 170.784C24.157 171.273 21.5515 170.241 21.5515 170.241" fill="#FFFFFE"/>
<path d="M69.7333 191.488C73.6123 191.051 74.5393 191.317 78.0158 191.772C81.2468 192.196 84.3383 192.82 87.5403 192.455C89.1448 192.272 90.7288 191.966 92.2993 191.464C96.7883 190.027 98.8718 188.076 104.281 187.34C108.761 186.732 108.763 187.479 112.689 187.292C116.805 187.096 119.093 185.342 120.825 184.4C122.927 183.256 123.476 183.164 124.882 182.411C129.967 179.688 135.939 180.026 141.652 178.63C145.668 177.648 147.241 175.754 151.727 174.551C153.509 174.073 155.465 174.107 157.373 173.839C158.833 173.637 161.414 172.337 162.858 171.004C165.336 168.709 165.061 168.616 166.987 167.531C170.198 165.713 173.834 165.769 177.063 164.269C180.067 162.875 183.156 161.688 185.534 159.287C188.999 155.785 194.469 154.805 198.967 153.172C201.615 152.206 205.094 150.503 208.012 145.454C210.876 140.508 213.41 139.798 218.501 138.264C221.888 137.242 223.35 136.519 225.958 134.057C228.307 131.84 229.151 130.415 230.206 128.863C231.414 127.081 233.788 124.155 231.266 121.917C230.159 120.932 229.038 119.106 226.66 117.275C224.833 115.628 223.323 114.709 222.821 114.313C220.081 112.151 222.389 113.858 219.757 112.191C217.898 111.016 217.374 110.07 215.459 108.988C212.03 107.051 211.672 106.479 208.932 103.184C206.553 98.7944 202.823 98.1844 199.083 97.3484C195.47 96.5419 192.907 93.6569 192.297 92.6634C190.376 89.5529 187.271 88.0099 185.624 87.1159C180.507 84.3389 174.608 84.7824 169.997 80.6789C163.049 75.7394 161.22 76.6539 153.916 76.4289C149.889 76.3074 144.603 73.7304 142.882 72.2979C141.435 71.0929 139.766 70.2999 138.274 69.8404C133.126 68.2524 129.6 70.9799 122.403 67.4734C120.299 66.4464 118.4 65.0384 116.332 63.8474C115.045 63.1064 114.064 62.7484 112.048 62.3134C108.239 61.4889 104.922 62.0159 100.308 62.4079C98.1433 62.5949 96.8583 61.4439 94.8693 60.3694C93.0423 59.3804 91.0913 58.6529 88.6748 58.2049C85.5473 57.6239 81.9968 58.0339 78.3608 58.7634C71.1628 60.2094 64.5568 56.5629 57.6158 57.2114C56.4388 57.3219 54.1078 58.7994 53.3273 60.4549C52.2788 62.6734 52.2788 63.9549 52.4338 66.1489C52.6453 69.1264 52.9963 69.3384 53.5793 71.2754C54.8393 75.4804 55.4783 77.7689 56.4843 80.6044C57.6523 83.8994 57.6138 87.9109 54.8393 89.1904C53.5028 89.8074 51.2798 89.8234 50.0243 88.8639C48.0713 87.3749 47.0023 85.2784 44.7998 84.8459C41.8613 84.2649 38.3353 87.2829 35.2123 88.1049C32.0803 88.9314 31.6818 87.2264 29.5063 86.2174C28.0593 85.5464 26.6688 86.5239 25.8568 86.9744C24.3918 87.7919 24.0388 89.4789 23.6968 91.2764C23.4243 92.7154 23.3073 94.0559 23.6628 95.6234C24.1783 97.9029 24.9363 99.2699 24.9948 100.858C25.1343 104.849 24.4953 107.777 22.8483 109.883C21.8018 111.223 20.4318 114.921 19.9998 116.288C18.5553 120.86 18.7283 120.063 18.0308 124.311C17.6728 126.478 17.7313 128.91 17.5403 130.94C17.5043 131.314 17.7813 135.926 18.0038 137.303C18.5553 140.713 19.1943 142.909 19.9118 145.783C20.9448 149.936 21.3878 152.517 21.2843 155.729C21.1808 159.018 19.1083 162.11 21.0773 164.432C22.3013 165.874 25.4898 167.176 28.0838 166.031C30.7118 164.867 32.6288 163.495 34.6943 163.211C38.4993 162.686 40.9448 164.317 42.5963 164.123C44.0523 163.952 46.6128 162.488 47.8188 162.387C48.7798 162.306 50.8633 162.213 51.5943 162.761C52.7533 163.63 53.4688 164.592 53.2753 167.596C53.2708 167.641 52.5708 170.797 52.5643 170.824C51.3648 174.774 50.0713 178.441 49.4523 181.155C48.8063 183.986 45.7013 190.117 52.0018 192.629C54.6548 193.685 57.4603 193.48 60.9368 192.586C62.6988 192.131 63.4298 192.056 65.0748 191.782C65.0748 191.658 67.5433 191.703 67.5433 191.581L69.7348 191.489" fill="black"/>
<path d="M188.994 96.375C190.7 97.49 192.66 100.366 194.307 102.744C196.316 104.575 196.498 105.636 201.482 106.526C200.519 106.352 205.967 108.233 206.788 108.692C208.93 109.881 209.476 110.613 211.375 112.78C213.339 115.021 214.12 115.62 218.083 118.271C219.622 119.303 219.896 119.672 222.828 121.758C224.036 122.618 225.566 124.01 226.11 125.154C227.496 128.06 225.561 129.094 222.549 130.69C217.596 133.319 213.497 132.569 209.037 137.127C205.316 140.927 201.25 145.562 198.498 146.396C197.299 146.761 194.122 147.756 191.953 149.105C189.804 150.443 189.197 150.4 187.27 152.119C184.982 154.159 183.704 155.623 179.497 157.078C176.902 157.972 173.84 158.389 171.122 159.204C169.111 159.81 167.502 160.648 165.713 161.664C162.982 163.213 159.694 166.84 155.176 167.68C146.23 169.346 148.606 169.164 142.228 172.054C140.644 172.772 137.374 173.554 135.079 173.554C131.243 173.554 128.251 174.189 124.873 175.986C122.414 177.297 119.91 179.705 115.084 180.347C109.121 181.14 108.79 180.392 101.388 181.975C99.1423 182.459 96.3073 184.097 94.1653 184.872C91.7603 185.743 86.0943 185.852 82.0918 185.484C78.1813 185.126 75.3103 185.119 69.6608 186.144C65.2868 186.937 62.9288 187.027 58.6808 186.919C57.7248 186.892 57.0048 186.221 56.3858 185.212C55.6478 184.014 55.5603 182.962 55.7218 181.64C56.0618 178.863 56.0033 178.727 56.6578 176.155C56.8583 175.374 57.8393 170.277 58.0123 169.497C59.1083 164.594 59.4458 159.65 55.5868 157.418C54.3808 156.722 51.3838 156.274 49.2148 156.659C42.6808 157.819 44.0508 158.918 39.8753 157.441C39.1733 157.193 37.3978 156.871 36.3653 156.914C34.2753 156.997 31.2963 158.463 28.6613 158.878C26.8118 159.171 26.3278 157.107 26.3773 155.632C26.4538 153.346 26.6923 151.15 26.5908 148.594C26.3208 141.902 25.1533 141.542 24.3478 137.508C23.6168 133.848 23.8278 127.636 23.6528 127.812C23.8348 122.688 26.1548 117.167 27.4758 115.26C28.8573 113.26 29.1543 112.444 30.2048 109.998C31.3163 107.41 31.1678 105.124 30.6033 102.219C30.5898 102.149 29.9168 100 30.1603 100C29.9668 98.631 30.2973 97.131 30.7343 96.201C31.4408 94.694 31.9898 93.9645 33.1148 93.478C33.8103 93.174 34.5458 92.809 35.2863 92.7575C37.7138 92.5865 38.2048 94.145 42.7428 92.2395C45.0918 91.2505 47.4273 92.575 48.5818 92.9985C51.7293 94.145 51.1828 94.145 53.1878 94.21C55.0933 94.271 56.9273 93.789 58.6958 92.7145C59.7128 92.093 60.4823 91.753 61.0853 90.8745C61.6028 90.1175 62.2888 88.03 62.4733 86.951C62.6983 85.638 63.0653 84.8135 62.6983 81.703C61.6928 77.8605 61.3283 77.036 60.6398 74.6035C60.0818 72.6215 59.4068 70.725 59.1233 68.905C59.1188 68.871 59.0423 66.6975 59.0423 66.6975C58.7973 64.88 60.0323 63.576 61.6028 63.5625C67.2278 63.5175 72.5038 65.121 78.4488 65.083C83.3538 65.0515 85.4393 64.047 91.2128 66.1505C93.2243 66.8825 94.4123 68.5289 97.5603 69.4164C103.548 71.1054 108.304 67.065 113.425 69.4775C117.682 71.4845 116.787 70.2725 120.789 72.8265C122.655 74.018 126.126 76.0314 131.105 76.7634C134.552 77.2724 140.02 75.849 145.654 79.937C148.822 82.2365 151.717 83.167 155.77 83.586C160.542 84.0795 161.005 83.406 164.767 86.1335C167.535 88.1425 166.772 87.6945 169.564 89.7755C170.829 90.717 171.821 91.6765 173.65 92.4985C174.697 92.969 178.708 93.53 178.585 93.5235C182.151 93.706 183.154 93.413 185.987 94.422C185.926 94.3565 189.644 96.798 188.995 96.375" fill="#FFFFFE"/>
<path d="M65.7684 130.302V137.879H94.2289L97.0619 135.224V126.131H92.8589L92.8744 123.825L108.559 114.822L109.875 116.176C106.365 118.647 103.643 120.953 101.539 124.613C98.4609 129.746 97.3359 136.87 99.1629 142.543C100.353 146.386 101.813 148.674 104.374 151.345C106.84 153.888 108.941 155.352 112.964 157.273C116.254 158.92 124.023 161.28 130.055 161.92C135.903 162.377 143.216 162.287 148.06 161.645C153.359 161.097 158.844 159.176 162.136 157.82C164.784 156.541 167.709 155.352 169.957 153.595C175.625 149.516 181.601 143.365 181.693 135.68H171.127C167.799 147.482 135.811 152.881 123.017 143.75C113.693 136.412 116.344 129.916 120.274 126.898L121.464 128.179L119.471 130.283L119.617 137.878H146.56L150.032 134.585V126.348H147.967L138.645 116.285C156.558 112.445 165.425 120.31 170.652 128.909H177.67L181.216 125.434V105.489L173.741 105.471L169.264 108.251C153.359 101.208 141.571 102.014 129.232 106.111L127.22 104.064L138.61 97.2545L145.481 97.2185L148.845 94.0155L148.863 87.227H121.37L118.447 90.1935V94.82L92.6759 109.571V98.2075L96.8404 93.998V87.1555H69.8244L66.1344 91.473V96.8875H70.5579V126.13H69.2034C69.2034 126.13 65.5854 130.229 65.7674 130.301" fill="black"/>
<path d="M70.5591 88.839H95.2326V93.267L91.0296 93.3055V112.479L124.663 93.267H121.702V88.839L147.147 88.803V93.231L141.48 93.3055L124.254 103.477L147.438 128.545L148.243 128.563V133.669H122.654V128.509L126.218 128.545L110.333 111.603L91.2121 122.581V128.545H95.2331V133.633H70.5596V128.545H74.7626V93.2675H70.5596V88.8395L70.5591 88.839ZM179.756 137.329C178.768 142.543 176.392 144.647 173.45 148.032C169.519 151.692 168.716 152.151 164.785 154.253C158.024 157.638 150.986 159.1 142.942 159.287C131.699 159.744 121.741 157.363 115.616 154.802C111.868 153.431 106.292 149.953 102.821 144.007C99.9876 138.243 101.376 132.112 102.382 129.094C103.644 125.434 105.654 121.682 111.522 117.677L118.906 125.655C115.16 128.909 112.417 134.858 118.285 141.628C125.305 150.41 141.298 152.881 157.933 147.939C166.523 145.381 170.269 141.811 172.994 137.329H179.758H179.756ZM130.513 107.504C135.537 105.947 149.705 101.098 169.629 109.882L173.834 107.137H179.718L179.646 124.849L173.103 124.924C166.429 114.878 151.26 111.345 137.094 114.732L130.513 107.504V107.504Z" fill="#E31837"/>
</g>
<defs>
<clipPath id="clip0_5_194">
<rect width="250" height="250" fill="white"/>
</clipPath>
</defs>
</svg>
