<svg width="250" height="250" viewBox="0 0 250 250" fill="none" xmlns="http://www.w3.org/2000/svg">
<g clip-path="url(#clip0_5_335)">
<path d="M211.926 70.5379C180.441 39.0427 131.391 33.4311 93.6066 57.0016C83.1898 63.9121 74.1684 72.7235 67.0145 82.9746C66.9894 83.0048 66.9633 83.034 66.9377 83.0642H47.2071L10 167.248H58.2708C65.2514 180.261 75.8285 190.99 88.7398 198.156C113.369 211.71 143.465 210.577 167.005 195.211C169.729 193.427 170.968 190.073 170.057 186.947C169.146 183.821 166.299 181.658 163.043 181.617C162.307 181.618 161.574 181.727 160.869 181.941C156.058 183.385 151.061 184.117 146.037 184.112C131.583 184.147 117.8 178.012 108.151 167.248H153.228L160.969 156.462L191.016 156.465C191.016 156.465 190.102 158.79 189.6 159.928L186.373 167.252H235.55L236.597 163.403C245.629 130.264 236.215 94.8252 211.926 70.5379ZM231.561 162.032H194.374C195.915 158.538 197.188 154.931 198.182 151.244H158.25L150.55 162.032H114.755L168.272 87.0609L168.266 87.0583C161.212 84.1761 153.659 82.7142 146.039 82.7564C145.066 82.7564 144.1 82.7811 143.141 82.8307C114.108 84.2933 90.9543 107.602 90.9543 136.042C90.954 137.889 91.0523 139.735 91.2487 141.573H122.863L113.449 154.818C110.478 158.813 106.541 162.029 100.538 162.029H97.9608C107.399 178.305 125.414 189.326 146.041 189.326C151.574 189.331 157.079 188.525 162.378 186.933C162.594 186.866 162.818 186.832 163.044 186.83C163.992 186.87 164.807 187.517 165.059 188.432C165.312 189.347 164.945 190.32 164.151 190.84C147.044 202.008 125.948 205.249 106.278 199.73C86.6076 194.211 70.2769 180.47 61.4763 162.032H18.0108L50.6057 88.2849H69.4389C82.4882 71.3297 102.504 61.1833 123.893 60.6808C124.405 60.67 124.923 60.6644 125.435 60.6644C155.578 60.6644 180.86 78.7008 191.096 105.234L172.563 131.199H200.781C200.666 106.024 188.051 82.5509 167.119 68.5635C146.187 54.576 119.674 51.9017 96.3706 61.4275C127.968 41.7318 168.404 43.398 198.275 65.6266C228.145 87.8552 241.353 126.109 231.561 162.032ZM126.671 136.354H96.178C96.178 136.252 96.1704 136.147 96.1704 136.043C96.1704 110.46 116.916 89.3757 143.406 88.0416C144.288 87.9966 145.173 87.974 146.037 87.974C150.724 87.969 155.392 88.5738 159.923 89.7732L126.671 136.354ZM192.787 111.923C194.115 116.507 194.972 121.216 195.343 125.974H182.761L192.787 111.923Z" fill="#003594"/>
<path d="M96.3706 61.4275C124.946 49.7463 157.751 56.5747 179.292 78.6875C200.833 100.8 206.8 133.773 194.374 162.032H231.561C241.362 126.108 228.157 87.8463 198.283 65.6152C168.409 43.3841 127.967 41.7223 96.3706 61.4275Z" fill="url(#paint0_linear_5_335)"/>
<path d="M191.087 105.244L183.929 115.274C177.067 108.219 167.639 104.243 157.797 104.253C157.182 104.253 156.572 104.269 155.968 104.299L168.271 87.0608C177.447 90.8353 185.36 97.1415 191.087 105.244ZM198.182 151.244C199.912 144.811 200.786 138.178 200.781 131.516C200.781 131.409 200.781 131.302 200.781 131.195H193.043C194.826 137.771 194.737 144.715 192.787 151.244L198.182 151.244Z" fill="#D7D2CB"/>
<path d="M164.148 190.845C142.224 205.153 114.197 206.208 91.2599 193.588C85.5992 186.453 81.4204 178.259 78.9687 169.487C86.8899 169.119 98.3612 169.803 106.841 173.448C117.32 183.676 131.396 189.379 146.039 189.33C151.573 189.336 157.077 188.529 162.377 186.937C162.592 186.871 162.817 186.837 163.042 186.835C163.99 186.875 164.805 187.522 165.057 188.437C165.309 189.352 164.942 190.325 164.148 190.845ZM91.2456 141.577C91.0487 139.74 90.9503 137.894 90.9506 136.046C90.9506 107.604 114.106 84.2953 143.14 82.8352C109.48 84.2047 81.9139 109.293 77.2095 141.58L91.2456 141.577Z" fill="#FFD100"/>
<path d="M97.9571 162.032H77.3406C77.7411 164.547 78.284 167.036 78.9666 169.489C86.8878 169.12 98.3591 169.805 106.839 173.449C103.378 170.061 100.39 166.22 97.9571 162.032Z" fill="#FFA300"/>
<path d="M61.4763 162.032C64.047 167.406 67.2844 172.434 71.1121 176.999C73.1114 173.919 75.8007 171.348 78.9668 169.489C78.2841 167.036 77.7412 164.547 77.3407 162.032H61.4763Z" fill="#FF8200"/>
<path d="M168.266 87.0582C161.212 84.176 153.659 82.7141 146.039 82.7563C145.066 82.7563 144.1 82.781 143.141 82.8306C109.481 84.2 81.9155 109.288 77.2111 141.576H58.0454L81.6528 88.2848H69.4389C82.4882 71.3296 102.504 61.1832 123.893 60.6807C124.405 60.6699 124.923 60.6643 125.435 60.6643C155.577 60.6643 180.86 78.7007 191.096 105.233L191.088 105.245C185.36 97.1405 177.444 90.8327 168.266 87.0582ZM78.9667 169.487C75.8006 171.346 73.1113 173.917 71.112 176.997C76.7479 183.721 83.5783 189.346 91.2589 193.587C85.5984 186.452 81.4197 178.258 78.9677 169.487H78.9667Z" fill="url(#paint1_linear_5_335)"/>
<path d="M194.317 140.772C194.317 144.318 193.803 147.846 192.787 151.244H158.25L150.55 162.032H114.755L155.968 104.298C156.574 104.269 157.183 104.253 157.797 104.252C167.639 104.242 177.067 108.218 183.929 115.273L172.562 131.197H193.042C193.889 134.318 194.317 137.538 194.317 140.772ZM50.6056 88.2849L18.0107 162.032H100.534C106.537 162.032 110.477 158.819 113.445 154.822L122.859 141.576H58.0454L81.6528 88.2849H50.6056Z" fill="white"/>
</g>
<defs>
<linearGradient id="paint0_linear_5_335" x1="165.56" y1="47.7176" x2="165.56" y2="162.032" gradientUnits="userSpaceOnUse">
<stop offset="0.217" stop-color="#FFD100"/>
<stop offset="0.296" stop-color="#FFD724"/>
<stop offset="0.474" stop-color="#FFE87F"/>
<stop offset="0.707" stop-color="white"/>
</linearGradient>
<linearGradient id="paint1_linear_5_335" x1="58.0454" y1="127.126" x2="191.096" y2="127.126" gradientUnits="userSpaceOnUse">
<stop stop-color="#FFA300"/>
<stop offset="0.134" stop-color="#FFA800"/>
<stop offset="0.289" stop-color="#FFB600"/>
<stop offset="0.453" stop-color="#FFCD00"/>
<stop offset="0.478" stop-color="#FFD100"/>
</linearGradient>
<clipPath id="clip0_5_335">
<rect width="250" height="250" fill="white"/>
</clipPath>
</defs>
</svg>
