<svg width="250" height="250" viewBox="0 0 250 250" fill="none" xmlns="http://www.w3.org/2000/svg">
<g clip-path="url(#clip0_5_226)">
<path fill-rule="evenodd" clip-rule="evenodd" d="M244.358 177.762C231.059 159.851 207.847 137.973 180.193 125.691L185.841 138.704C162.326 126.861 136.187 118.359 106.556 118.494L112.871 125.331C58.1366 127.475 26.0259 154.617 5 177.762C5.49184 146.422 27.9471 118.121 57.5307 100.842L51.4416 95.1902C73.4586 79.9518 104.338 75.6761 130.401 78.6863L126.695 72C213.033 78.4158 249.602 142.85 244.358 177.762Z" fill="white"/>
<path fill-rule="evenodd" clip-rule="evenodd" d="M106.152 122.684L99.519 115.502C124.658 114.666 150.072 118.451 179.637 132.347L174.19 119.797C196.448 128.42 221.109 144.516 241.787 169.483C239.966 131.679 201.788 82.6929 132.347 75.688L136.208 82.6536C108.141 77.8854 76.6061 82.8475 56.5371 95.6441L62.8133 101.469C32.6045 117.67 12.7605 143.441 8.50098 169.483C33.4342 143.441 65.8498 125.454 106.152 122.684Z" fill="#0080C6"/>
<path fill-rule="evenodd" clip-rule="evenodd" d="M230.95 149.188C219.183 117.515 183.792 90.207 144.062 83.6697L148.729 91.9861C124.8 84.5842 90.0266 85.0324 67.1686 96.9594L73.7253 103.045C52.7748 112.023 30.6687 131.25 21.9189 148.917C36.2685 135.973 67.4884 120.991 93.0998 117.807L86.7358 110.916C111.35 106.037 144.156 110.866 167.544 120.363L163.007 109.908C180.232 113.439 212.243 128.83 230.95 149.188Z" fill="#FFC20E"/>
</g>
<defs>
<clipPath id="clip0_5_226">
<rect width="250" height="250" fill="white"/>
</clipPath>
</defs>
</svg>
