<svg width="250" height="250" viewBox="0 0 250 250" fill="none" xmlns="http://www.w3.org/2000/svg">
<g clip-path="url(#clip0_5_202)">
<path d="M127.662 154.102C127.75 154.151 127.652 154.241 127.694 154.271C127.739 154.305 127.811 154.299 127.867 154.256C127.784 154.241 127.861 154.182 127.837 154.148C127.79 154.07 127.717 154.125 127.662 154.102Z" fill="#231F20"/>
<path d="M125.09 26.5C100.003 49.237 67.2467 48.557 33.6067 44.3265C26.3507 126.737 54.5772 208.077 124.555 222.807C195.202 208.645 223.102 127.46 216.29 45.0125C184.975 48.1695 152.522 49.451 125.09 26.5ZM125.09 26.5C100.003 49.237 67.2467 48.557 33.6067 44.3265C26.3507 126.737 54.5772 208.077 124.555 222.807C195.202 208.645 223.102 127.46 216.29 45.0125C184.975 48.1695 152.522 49.451 125.09 26.5Z" fill="white"/>
<path d="M125.09 26.5C100.003 49.237 67.2467 48.557 33.6067 44.3265C26.3507 126.737 54.5772 208.077 124.555 222.807C195.202 208.645 223.102 127.46 216.29 45.0125C184.975 48.1695 152.522 49.451 125.09 26.5V26.5Z" stroke="#0A0A09" stroke-width="0.667"/>
<path d="M124.976 34.5334C104.064 51.5404 71.0806 55.7609 39.5846 51.1579C34.8881 126.309 59.3991 199.741 124.339 216.686C189.368 200.094 214.564 126.985 210.276 51.8114C178.142 55.4274 145.794 51.6534 124.976 34.5334" fill="#0A0A09"/>
<path d="M149.975 164.07C149.213 166.383 148.024 168.674 147.329 169.705C147.329 169.705 148.304 171.467 148.642 173.194C153.692 177.082 159.262 180.731 173.44 177.275C170.914 176.501 155.082 168.613 151.007 164.769L149.974 164.071L149.975 164.07ZM97.7523 166.243C97.7523 166.243 100.119 169.999 100.952 170.473C100.952 170.473 101.971 171.38 101.591 174.568C95.8919 178.832 81.9663 180.559 74.9023 177.786C74.9023 177.786 91.9408 171.068 96.6528 166.824L97.7518 166.243L97.7523 166.243ZM141.895 164.897C141.566 165.252 141.281 165.623 140.922 165.957C140.793 166.077 140.687 166.291 140.522 166.414C140.126 166.714 139.774 166.992 139.346 167.266C138.909 167.544 138.599 168.301 138.971 168.635C139.29 168.921 139.906 169.23 140.304 168.627C140.52 168.304 140.982 168.237 141.241 168.007C141.974 167.352 142.504 166.479 142.695 165.471C142.764 165.116 142.464 164.948 142.226 164.7C142.286 164.982 141.908 164.898 141.884 165.11L141.895 164.897V164.897ZM105.757 165.923C106.163 167.052 107.113 167.535 107.398 167.99C107.847 168.712 108.057 169.473 108.493 170.163C107.751 170.585 107.182 171.783 106.453 171.42C106.085 171.24 105.974 170.454 105.753 169.901C105.196 168.502 105.976 167.345 105.758 165.923" fill="white"/>
<path d="M119.338 85.9561C110.799 85.9561 101.974 88.0916 99.3196 96.2576C99.3196 96.2576 94.8226 112.7 95.1131 115.278C92.7236 116.006 87.8991 118.32 89.3471 131.438C89.3471 131.438 94.5226 155.012 96.8456 159.623L98.3381 159.704C98.3381 159.704 99.6956 158.279 99.4476 162.966C99.4476 162.966 98.6631 165.704 101.144 167.334C101.144 167.334 102.107 163.382 102.748 169.341C102.872 175.118 104.69 181.202 113.14 187.202C113.14 187.202 117.124 184.634 117.561 184.443C117.561 184.443 111.692 182.21 108.664 178.844C108.664 178.844 109.515 182.951 106.127 178.284C106.127 178.284 104.499 176.702 103.567 165.964C103.646 164.473 103.443 164.247 102.243 162.687C97.5806 153.19 93.8806 131.278 102.634 123.167C111.856 122.58 133.87 122.089 142.13 123.594C145.509 124.41 147.169 125.497 147.932 131.31C149.577 138.663 148.484 153.361 144.66 165.129C144.66 165.129 144.098 167.666 142.752 168.878C141.651 169.46 137.658 172.244 135.729 176.42C135.01 177.877 133.439 179.289 130.814 180.436C128.167 182.006 118.414 184.487 122.253 188.75C122.253 188.75 121.146 189.251 119.192 189.79C119.192 189.79 119.71 192.169 120.799 191.798C120.799 191.798 122.762 191.048 123.468 189.801C129.204 190.53 136.541 189.205 141.028 185.166C142.802 183.977 146.093 182.42 146.477 179.334C146.477 179.334 148.375 175.799 145.265 169.865C146.443 167.787 148.362 163.826 148.093 160.818C148.206 160.652 158.132 149.278 159.334 133.635C159.334 133.635 157.944 124.422 158.337 133.208C158.337 133.208 158.215 134.744 157.341 139.188C157.341 139.188 155.484 146.004 156.487 139.472C156.487 139.472 156.858 129.088 155.634 119.828C155.634 119.828 155.324 116.38 157.2 121.394C157.452 122.318 156.915 120.256 156.915 120.256C156.915 120.256 157.818 126.587 158.053 122.108C156.915 116.843 156.628 115.559 155.063 114.99C154.09 107.248 151.22 99.7611 151.22 99.7611L150.51 100.614C153.136 107.924 154.849 132.216 154.21 139.189C154.21 139.189 152.526 152.927 151.079 152C151.079 152 153.41 128.816 152.364 120.21C151.87 109.281 150.298 106.633 149.669 102.324C149.669 102.324 146.207 93.3041 149.798 98.1956L150.225 97.9106C147.161 90.0601 142.539 86.2391 128.59 85.9546L130.496 120.068L117.951 120.111L119.338 85.9546" fill="#C8C7C7"/>
<path d="M103.461 130.488C103.397 130.485 106.258 130.013 106.215 130.013C109.303 130.027 116.575 129.979 118.147 130.599C118.953 130.916 120.367 130.176 121.069 129.898C123.691 128.859 124.018 128.634 126.781 126.99C127.233 126.72 130.485 124.762 129.895 124.697C122.348 123.871 106.955 123.965 103.916 124.873C103.916 124.873 102.635 125.086 102.274 125.488C100.836 127.092 101.14 127.221 100.141 129.439C100.791 127.995 99.7987 131.263 99.7112 131.554C99.4522 132.396 100.894 132.354 101.184 131.951C101.715 131.218 101.817 130.377 103.46 130.488H103.461ZM145.574 153.848C145.229 155.472 145.024 157.154 144.464 158.708C143.944 160.141 143.694 161.124 141.904 162.634C141.534 159.515 140.653 157.971 140.822 156.803C139.62 157.274 139.782 159.062 139.654 160.698C139.451 163.305 140.156 165.219 139.992 164.456C140.071 164.819 139.086 165.537 138.731 166.102C137.614 167.87 136.38 169.515 134.864 170.945C134.637 171.158 134.581 171.59 134.344 171.694C133.508 172.052 133.29 172.596 132.8 173.164C132.4 173.631 131.34 173.998 130.79 174.298C130.443 174.49 129.394 174.773 129.109 174.833C128.474 174.962 127.897 174.939 126.938 174.889C126.012 174.842 124.748 173.701 123.752 173.459C120.849 172.749 120.172 175.376 115.659 174.406C113.798 174.005 113.423 172.761 112.26 171.445C112.033 171.188 110.924 169.842 110.75 169.652C111.22 170.157 107.655 166.804 106.973 164.221C106.211 161.329 106.603 161.098 106.945 158.659C107.074 157.744 106.9 155.447 106.053 155.297C105.262 156.11 105.833 156.666 105.598 157.838C105.371 158.981 106.425 159.028 105.615 161.581C105.384 162.313 104.986 162.132 104.757 161.643C103.913 159.827 104.349 155.891 102.439 154.357C101.998 154.005 101.972 152.941 102.343 152.662C102.926 152.221 103.506 152.918 104.263 152.743C104.396 152.714 104.314 151.793 104.212 151.674C103.585 150.938 102.197 151.24 102.21 151.139C102.394 149.655 102.366 148.32 101.861 147.594C101.164 146.596 100.144 146.426 99.7292 145.451C98.8497 143.388 99.1517 142.212 99.0722 141.673C98.9652 140.945 98.7897 139.765 98.9997 138.999C98.7882 139.046 98.8697 137.288 98.8797 137.174C99.0102 135.886 99.2387 135.959 99.4357 134.744C99.4742 133.999 101.316 133.561 101.333 135.275C100.881 137.53 101.553 139.308 101.613 141.588C101.62 141.862 102.069 142.125 102.372 142.212C107.34 143.636 111.06 143.089 116 142.99C117.322 142.966 118.117 141.314 118.399 140.018C118.867 137.884 118.87 137.156 118.887 134.806C119.135 134.18 119.712 134.35 120.166 134.873C121.013 135.848 120.356 136.211 120.565 137.46C120.728 138.432 119.477 139.859 119.477 139.859C119.619 139.868 119.054 143.153 119.197 143.16C119.452 143.174 119.007 146.108 118.938 146.032C118.747 147.627 119.847 147.041 119.68 148.208C119.653 148.744 119.379 149.483 119.394 149.582C119.552 150.66 117.146 150.428 117.531 150.448C116.998 150.42 116.583 150.185 116.605 149.757C116.637 149.149 116.471 148.694 116.476 148.149C115.303 148.085 115.788 149.029 115.724 150.244C115.696 150.779 116.047 151.228 116.947 151.379C117.901 151.536 118.002 151.647 118.447 151.353C118.678 151.194 119.435 151.027 119.552 150.66C119.996 152.396 120.517 152.635 121.801 152.597C122.35 152.58 123.608 152.798 124.102 151.54C124.226 151.225 125.079 151.272 125.201 150.959C127.423 151.395 126.063 152.302 128.757 151.436C129.57 151.177 130.233 150.007 129.532 149.081C129.449 148.97 129.012 148.979 129.004 149.037C128.709 151.356 127.799 150.671 126.929 150.621C124.069 150.453 125.612 149.268 123.187 150.637C122.9 150.799 122.049 151.967 120.92 151.052C119.388 149.687 121.044 148.708 121.229 147.219C121.396 145.868 121.332 141.617 121.268 140.38C121.118 137.467 121.862 139.238 122.357 137.98C121.939 138.084 122.162 134.413 122.126 134.226C121.873 132.93 120.346 133.432 119.949 132.938C119.949 132.938 119.771 131.916 120.004 131.869C121.732 131.534 123.92 130.58 125.494 129.807C129.13 128.019 131.177 126.907 132.936 125.815C133.458 125.491 133.672 124.801 133.953 124.798C137.268 124.76 140.465 124.09 143.412 125.726C145.472 126.869 145.969 127.997 146.508 129.947C146.271 129.986 146.705 132.03 146.712 132.207C146.75 133.489 146.683 135.833 146.699 136.479C146.799 140.714 147.041 142.165 146.464 145.019C146.459 145.045 146.019 146.065 145.875 146.056C145.527 146.574 144.926 147.339 144.214 147.939C143.989 148.126 144.085 148.752 144.244 148.644C144.686 148.344 145.55 148.178 146.207 147.892C146.186 149.704 145.999 151.836 145.574 153.845" fill="white"/>
<path d="M139.799 133.556C139.876 133.558 138.67 132.641 137.632 132.05C137.156 131.782 135.173 133.128 134.688 133.179C132.645 133.393 131.471 133.497 129.315 133.552C128.787 133.564 128.024 133.573 127.707 133.081C127.51 132.777 127.542 132.192 127.769 131.901C128.421 131.066 129.698 132.489 130.483 130.374C130.479 130.382 132.919 130.273 133.666 130.239C136.217 130.122 139.977 130.142 139.641 130.446C139.949 130.168 140.441 131.55 140.954 131.905C141.914 132.568 141.64 131.689 142.071 133.032L142.043 133.564C142.034 133.706 141.861 134.338 141.784 134.408C141.707 134.475 140.766 134.137 140.622 134.134C140.695 134.134 139.727 133.552 139.799 133.555V133.556ZM127.524 135.262C129.012 134.394 126.407 134.134 126.867 136.695C126.826 136.456 127.352 136.618 127.397 136.503C127.466 136.327 127.5 135.687 127.524 135.262ZM126.041 141.062C126.379 142.79 126.071 142.559 125.878 144.153C125.707 145.597 126.939 145.93 126.939 144.316C126.939 138.223 126.529 139.913 126.041 141.062ZM143.009 149.788C142.866 150.123 142.644 150.143 142.366 150.325C142.156 150.464 141.921 150.769 142.028 150.997C142.083 151.114 142.336 151.229 142.504 151.226C142.686 151.221 142.858 151.003 142.919 150.84C143.042 150.525 142.992 150.143 143.009 149.788V149.788ZM127.677 147.564C127.884 147.578 128.064 147.417 128.075 147.21C128.085 147 127.925 146.824 127.717 146.811C127.508 146.799 127.331 146.961 127.32 147.17C127.309 147.377 127.47 147.555 127.677 147.564ZM141.149 137.425C140.6 137.701 140.118 137.641 139.592 137.936C140.413 137.478 135.152 137.187 137.139 137.371C135.725 137.24 134.57 136.936 133.099 136.944L132.825 137.089C132.093 137.26 131.711 136.695 131.163 136.34C130.78 136.097 130.44 136.354 130.087 136.304C130.162 136.165 129.961 136.075 130.015 135.99C130.105 135.844 130.355 135.768 130.449 135.754C131.082 135.673 131.82 135.729 132.425 135.519C134.555 134.779 136.217 135.793 138.401 135.725C139.087 135.704 140.032 135.567 140.676 136.02C140.806 136.115 140.805 136.336 140.901 136.409C141.187 136.623 141.701 136.493 141.867 136.671C142.209 137.033 141.529 137.234 141.148 137.425H141.149ZM139.057 140.515C138.92 140.486 138.867 140.306 138.749 140.306C137.507 140.306 136.397 139.986 135.25 139.495C134.859 139.327 134.48 139.634 134.072 139.685C133.533 139.758 132.966 139.536 132.5 139.703C132.16 139.822 131.865 140.334 132.153 140.495C132.592 140.738 133.307 140.699 133.881 140.313C134.551 139.864 135.395 140.012 136.181 140.196C136.39 140.242 136.6 140.388 136.818 140.379C137.581 140.35 138.307 140.568 139.057 140.516V140.515ZM131.151 138.497C131.176 138.325 130.856 138.372 130.951 138.168C130.432 138.017 129.953 138.483 129.457 138.279C129.176 138.168 129.005 137.872 128.729 137.729C128.708 138.134 128.558 138.693 128.909 138.847C129.615 139.156 130.385 138.261 131.135 138.71C131.139 138.64 131.138 138.57 131.151 138.497Z" fill="#0A0A09"/>
<path d="M88.9154 107.147L84.2914 111.716C84.2914 111.716 88.3419 118.023 88.8639 118.264C89.6939 116.702 91.0924 114.535 92.9144 114.415L93.2499 112.08L88.9154 107.147ZM71.8059 88.9336L74.2629 88.9561C77.4969 92.5441 85.4979 103.015 85.4979 103.015L84.2744 105.944C87.4029 103.329 89.2039 101.607 90.3609 99.9571C92.6279 97.5106 94.6639 99.4351 92.8689 101.051C91.6799 103.341 85.9849 107.957 82.2894 111.187C71.7414 120.678 51.7999 105.521 68.4964 90.8981L71.8054 88.9346" fill="white"/>
<path d="M68.6248 94.5371C70.4538 92.2831 72.0983 93.5456 70.6393 94.8581C69.5383 95.8506 71.6088 98.0831 72.9558 97.5451C74.0268 97.1191 75.3058 98.8276 74.9938 99.4701C74.1638 101.168 75.7533 102.941 76.9808 102.353C77.6568 102.03 79.0743 103.152 78.5953 104.15C77.8683 105.659 79.3638 107.365 81.0363 106.524C82.8258 105.616 81.8123 108.058 81.8123 108.058C72.7513 115.706 59.5143 101.116 68.6253 94.5371" fill="#0A0A09"/>
<path d="M69.5748 91.2186C71.1788 91.3036 72.5458 90.0716 72.6288 88.4671C72.7143 86.8656 71.4823 85.4981 69.8813 85.4151C68.2773 85.3296 66.9103 86.5616 66.8243 88.1636C66.7413 89.7656 67.9733 91.1321 69.5748 91.2186Z" fill="white"/>
<path d="M70.544 86.5156C72.3105 87.4641 70.785 90.0546 69.6245 89.7811C68.373 89.4871 69.331 89.2301 69.331 89.2301C70.4985 89.4001 71.5595 87.5301 70.095 86.9186C69.539 86.6871 70.544 86.5156 70.544 86.5156Z" fill="#0A0A09"/>
<path d="M175.47 89.0286L173.015 89.1261C169.897 92.8176 162.228 103.529 162.228 103.529L163.541 106.42C160.331 103.905 158.477 102.239 157.269 100.626C154.929 98.2496 152.953 100.239 154.796 101.797C156.058 104.051 161.892 108.486 165.691 111.596C176.527 120.753 196.023 104.046 178.878 89.9526L175.47 89.0286Z" fill="white"/>
<path d="M179.175 93.3396C177.655 91.7611 176.431 92.6606 176.859 93.9771C177.343 95.4536 175.508 98.2551 174.59 97.6726C173.378 96.9036 172.158 98.9341 172.613 99.6571C173.373 100.868 171.912 103.255 170.718 102.604C170.059 102.245 168.708 103.562 169.16 104.448C169.914 105.929 168.297 107.28 166.794 106.897C164.852 106.398 166.069 108.457 166.069 108.457C175.363 115.817 188.486 99.6271 179.175 93.3391" fill="#0A0A09"/>
<path d="M177.81 90.308C176.21 90.4395 174.767 90.188 174.632 88.59C174.499 86.991 175.725 84.6495 177.325 84.5145C178.922 84.38 180.327 85.569 180.462 87.169C180.597 88.767 179.41 90.171 177.81 90.3075" fill="white"/>
<path d="M176.694 85.6345C174.418 86.9505 176.052 89.318 177.716 88.869C178.957 88.5365 177.99 88.313 177.99 88.313C176.361 88.6005 175.176 86.9265 177.156 86.0265C177.706 85.7755 176.694 85.6345 176.694 85.6345" fill="#0A0A09"/>
<path d="M159.361 107.929C159.984 108.284 163.758 111.689 164.691 112.272C164.142 114.593 160.45 121.775 159.637 123.016C159.541 118.737 158.94 113.895 156.589 113.879L156.147 112.144L159.361 107.93" fill="white"/>
<path d="M144.177 176.018C144.365 174.721 143.234 173.51 142.436 174.533C141.999 175.09 141.964 176.115 141.439 176.644C140.023 178.074 139.134 178.345 138.308 179.225C137.413 180.174 137.136 180.795 137.983 182.065C138.054 182.172 138.191 183.468 139.124 184.165C140.262 185.02 141.889 184.123 143.608 181.97C143.992 181.492 143.921 180.811 144.009 180.268C144.233 178.878 143.972 177.436 144.177 176.017L144.177 176.018ZM136.854 184.097C136.742 187.642 131.569 189.06 129.492 187.879C129.146 187.683 128.046 186.698 128.272 186.018C128.494 185.356 129.261 184.928 129.822 184.714C130.455 184.471 131.005 184.684 131.614 184.145C132.461 183.395 133.045 183.259 134.033 182.318C134.598 181.78 135.69 181.865 136.212 182.276C136.739 182.692 137.059 183.03 136.809 184.025L136.854 184.098" fill="#0A0A09"/>
<path d="M142.645 178.794C140.441 180.261 137.769 181.531 140.295 182.884C140.874 183.194 142.491 182.048 142.893 180.713C142.87 180.791 142.752 178.721 142.645 178.794ZM135.1 185.696C134.711 186.015 133.299 186.732 133.494 186.624C132.562 187.146 131.477 187.437 130.403 187.262C129.443 187.082 129.839 186.257 130.048 186.229C132.752 185.872 133.272 184.341 134.996 183.667C135.496 183.789 135.596 184.551 135.528 184.771C135.479 184.935 135.363 185.375 135.1 185.696" fill="white"/>
<path d="M114.798 153.621C114.12 154.481 114.807 154.616 113.166 156.205C112.696 156.662 111.843 156.993 111.421 157.582C111.351 157.681 111.36 158.071 111.344 158.356C112.388 158.699 114.29 157.873 116.293 157.847C117.502 157.83 118.684 158.228 119.906 158.476C122.057 158.917 124.044 158.446 126.632 158.305C129.735 158.135 130.33 158.875 131.311 158.764C133.23 158.546 134.399 157.596 133.572 157.835C133.775 157.775 131.974 158.01 132.114 157.736C131.581 157.643 131.251 157.934 130.801 157.984C129.75 158.107 128.705 158.045 127.581 157.663C125.963 157.121 124.171 157.925 122.474 157.927C119.715 157.934 116.657 156.923 113.218 157.279C112.884 157.314 116.031 154.769 115.793 155.063C116.708 153.934 116.899 152.381 117.083 152.887C117.027 152.733 116.173 151.876 114.799 153.622L114.798 153.621ZM118.502 162.471C120.865 162.274 125.292 163.473 127.362 162.724C127.35 162.937 129.102 162.177 129.056 163.027C128.994 164.199 126.137 163.968 125.382 163.797C123.323 163.331 122.589 163.981 118.322 163.853C118.14 163.849 116.168 164.168 115.608 162.643C115.458 162.239 116.701 162.163 118.502 162.471L118.502 162.471ZM132.504 155.091C132.284 155.64 132.846 155.992 133.144 155.7C133.377 155.473 133.334 154.853 132.84 154.678C132.893 154.956 132.572 154.922 132.504 155.091ZM131.578 153.959C131.362 153.822 131.135 153.618 130.945 153.57C130.211 153.394 129.621 152.989 128.866 152.869C128.68 152.838 128.597 152.514 128.905 152.363C129.375 152.132 129.884 152.372 130.365 152.531C130.997 152.741 131.093 153.501 131.608 153.816C131.76 153.909 132.169 153.964 132.055 154.177C131.942 154.395 131.518 154.302 131.471 153.956L131.578 153.959" fill="#0A0A09"/>
<path d="M133.785 157.098C133.952 157.098 134.086 156.919 134.086 156.696C134.086 156.474 133.952 156.294 133.785 156.294C133.619 156.294 133.483 156.474 133.483 156.696C133.483 156.919 133.619 157.098 133.785 157.098ZM180.696 69.6614C182.361 70.7969 183.716 71.4494 185.02 71.4494C185.914 71.4494 186.398 71.1099 186.398 70.5554C186.398 69.7574 185.527 69.6614 184.102 69.3469C181.153 68.7189 179.657 67.0994 179.657 64.5859C179.657 60.9629 182.484 58.3049 186.881 58.3049C188.862 58.3049 190.722 58.8119 192.705 59.8754L190.818 64.3934C189.61 63.4994 188.354 63.0399 187.268 63.0399C186.398 63.0399 185.915 63.3539 185.915 63.8619C185.915 64.7079 187.074 64.8279 189.129 65.2874C191.424 65.7944 192.97 67.5109 192.97 69.9264C192.97 73.6229 190.023 76.4254 185.504 76.4254C183.233 76.4254 180.938 75.7734 178.713 74.4919L180.696 69.6609L180.696 69.6614ZM63.8346 66.5189H64.8011C65.9861 66.5189 66.6386 65.9159 66.6386 64.8534C66.6386 63.7894 66.0096 63.1364 64.8011 63.1364H63.8346V66.5189ZM57.7461 58.6909H65.5496C70.1651 58.6909 72.5331 60.8169 72.5331 64.5134C72.5331 66.9789 71.2046 68.6944 69.1986 68.9354L73.8141 75.9664H66.8546L63.8346 70.2639V75.9664H57.7461V58.6909ZM89.1681 69.5434L88.6376 67.5864C88.3956 66.6674 88.0316 65.4589 87.9361 63.7929H87.8161C87.7176 65.4584 87.3556 66.6674 87.1146 67.5864L86.5816 69.5434H89.1676H89.1681ZM84.5056 58.5489H91.4151L97.4546 75.8254H90.7861L90.2296 73.6499H85.5441L85.0111 75.8254H78.3426L84.5046 58.5489H84.5056ZM103.01 58.6914H109.316V75.9669H103.01V58.6914ZM125.955 67.3404C125.955 65.0689 124.698 64.0064 122.185 64.0064H121.92V70.7004C124.675 70.6509 125.955 69.6844 125.955 67.3404ZM116.595 58.6914H121.621C124.615 58.6914 126.862 58.9814 128.458 59.7779C131.429 61.2774 133.097 64.0554 133.097 67.3404C133.097 70.1924 131.816 72.6809 129.521 74.2509C127.273 75.7984 124.615 75.9669 121.161 75.9669H116.595V58.6914ZM138.978 58.6914H150.527V63.3794H145.067V65.0459H150.02V69.4669H145.067V71.2799H150.673V75.9669H138.978V58.6914ZM163.75 66.5189H164.717C165.902 66.5189 166.554 65.9159 166.554 64.8534C166.554 63.7894 165.925 63.1364 164.717 63.1364H163.75V66.5189ZM157.662 58.6909H165.465C170.081 58.6909 172.448 60.8169 172.448 64.5134C172.448 66.9789 171.12 68.6944 169.114 68.9354L173.729 75.9664H166.772L163.75 70.2639V75.9664H157.662V58.6909Z" fill="white"/>
</g>
<defs>
<clipPath id="clip0_5_202">
<rect width="250" height="250" fill="white"/>
</clipPath>
</defs>
</svg>
