<svg width="250" height="250" viewBox="0 0 250 250" fill="none" xmlns="http://www.w3.org/2000/svg">
<g clip-path="url(#clip0_5_120)">
<path d="M222.048 121.435C214.713 122.429 201.895 127.733 204.33 130.581C206.765 133.425 213.866 137.336 214.875 137.83C211.49 137.83 200.366 138.979 199.124 142.13C197.878 145.28 215.221 155.842 221.571 158.324C213.672 156.102 194.834 152.395 193.582 154.933C192.33 157.472 195.585 165.317 198.561 167.651C196.383 166.999 185.005 163.766 183.179 167.971C181.173 172.596 192.294 189.565 193.556 192.735C188.429 187.652 174.385 176.257 172.395 177.561C170.404 178.864 170.895 185.215 171.412 188.445C169.485 186.097 166.173 182.334 163.313 183.46C160.453 184.586 160.805 195.49 160.621 200.135C158.261 194.67 154.41 183.667 150.844 184.069C147.279 184.471 143.279 191.957 142.518 194.818C141.974 191.954 139.641 185.656 136.112 185.656C132.583 185.656 124.378 202.324 121.897 207.74C121.887 203.549 122.892 183.101 120.667 182.087C118.443 181.073 110.937 185.735 109.325 187.855C109.922 185.169 110.429 176.089 108.429 174.992C106.425 173.893 100.718 173.547 90.3982 183.081C92.1112 179.424 94.9322 175.443 95.6177 171.585C99.8912 171.364 104.122 170.88 108.389 170.047C117.701 176.78 129.149 180.754 141.522 180.754C172.773 180.754 198.106 155.443 198.106 124.219C198.106 121.773 197.948 119.363 197.648 117.003C199.744 115.031 201.753 113.121 203.625 111.34C203.197 112.364 202.96 113.599 202.999 115.12C203.121 119.887 215.481 120.904 222.048 121.434L222.048 121.435ZM81.3192 141.754C79.5367 140.79 71.2462 140.408 71.2462 140.408C71.2462 140.408 80.5812 134.139 80.3637 129.606C80.1457 125.076 65.2587 122.755 59.3732 121.451C64.5662 120.358 81.3847 116.562 82.1067 113.181C82.8317 109.803 76.8507 107.403 74.3367 106.224C77.1537 106.26 84.2942 107.456 85.2562 103.972C86.3567 99.9789 68.7742 89.5789 64.7672 88.1369C65.6637 88.3474 82.4097 92.2524 88.5322 90.9289C93.0892 89.9414 87.7777 83.8144 86.9007 83.0899C88.2452 83.7449 95.9227 85.3254 98.1207 81.6839C100.319 78.0429 92.8617 63.5404 88.6867 57.3939C92.3937 61.0879 109.324 73.1209 111.848 71.0729C114.376 69.0249 112.445 62.4109 111.091 60.2284C113.819 62.7799 116.504 66.1904 119.971 66.1184C121.707 66.0824 123.892 60.3469 124.251 47.3854C126.601 54.6479 132.209 64.5184 136.328 63.9189C140.45 63.3229 141.857 57.2094 142.427 54.6054C142.902 57.4004 145.067 64.5844 147.815 64.8474C151.189 65.3744 157.645 50.3714 159.994 43.5929C160.35 46.9409 157.892 64.1364 161.529 65.5654C165.164 66.9974 171.174 59.7579 174.585 55.7019C172.516 59.6264 168.472 69.1179 170.881 71.3894C173.29 73.6609 181.617 71.2809 184.862 68.6074C183.953 70.5959 183.759 72.1859 184.006 73.6809C180.305 74.4054 176.486 75.4684 172.542 76.9369C163.632 71.0934 152.975 67.6889 141.521 67.6889C110.274 67.6889 84.9407 92.9994 84.9407 124.22C84.9407 131.736 86.4102 138.906 89.0762 145.465C85.8567 147.848 82.7727 149.738 79.6127 151.197C81.9227 148.448 83.9292 143.164 81.3197 141.755L81.3192 141.754ZM239.902 78.6444C239.864 77.7864 239.701 77.2769 239.701 77.2769L239.698 77.2724C238.654 73.6264 234.927 71.3739 229.852 71.3739C229.313 71.3739 228.764 71.4014 228.221 71.4554C224.333 71.8409 217.418 74.1809 215.366 74.8974C208.92 73.2699 202.879 72.4779 196.915 72.4779C193.833 72.4774 190.768 72.6959 187.71 73.1224L187.714 73.1204L186.453 73.2904C186.453 73.2904 185.961 71.6954 187.246 67.9714C187.911 66.0404 188.824 64.2639 188.824 64.2639C188.824 64.2639 174.788 71.5529 173.035 69.2264C171.283 66.8999 179.131 48.4029 179.131 48.4029C179.131 48.4029 165.6 63.4239 162.943 62.7574C161.901 62.4964 161.801 57.0559 161.75 51.2014C161.68 43.2739 161.956 34.2054 161.956 34.2054C161.956 34.2054 150.814 61.8809 148.095 61.7369C145.738 61.6119 142.308 46.8394 142.308 46.8394C142.308 46.8394 140.157 59.5694 136.29 61.1264C132.423 62.6834 122.476 38.8764 122.476 38.8764C122.476 38.8764 122.016 62.7044 119.249 63.2394C116.483 63.7739 107.674 54.8684 107.674 54.8684C107.674 54.8684 111.803 66.7374 110.405 68.3009C109.57 69.2339 101.098 64.0004 92.2837 57.6834C87.1917 54.0339 82.9337 50.9754 82.9337 50.9754C82.9337 50.9754 87.9017 59.2194 91.8517 67.8364C94.5707 73.7689 96.2207 79.4619 95.5092 80.5704C93.7652 83.2884 80.6822 79.4144 80.6822 79.4144C80.6822 79.4144 88.1187 86.5719 87.6387 88.4154C87.4062 89.3099 80.0107 88.6639 72.4957 87.6374C64.5242 86.5484 56.4127 85.0464 56.4127 85.0464C56.4127 85.0464 82.9607 100.468 82.1277 103.243C81.4682 105.439 64.9457 103.641 64.9457 103.641C64.9457 103.641 79.3112 110.198 79.2527 112.365C79.1952 114.532 51.1342 121.626 51.1342 121.626C51.1342 121.626 76.5477 126.937 77.0337 129.769C77.5197 132.601 67.0107 141.687 67.0107 141.687C67.0107 141.687 79.2452 142.791 79.8527 144.392C80.4602 145.992 76.8792 152.315 73.7717 153.317C69.9307 154.556 66.4342 155.344 62.1757 155.344C61.5632 155.344 60.9642 155.327 60.3787 155.295C60.5892 155.023 60.7977 154.742 60.9787 154.475C62.0262 152.942 62.8062 151.304 63.2312 149.742L63.2357 149.726L63.2397 149.709C63.4577 148.851 63.5697 147.996 63.5737 147.169L63.5742 147.133L63.5727 147.097C63.5432 146.157 63.2372 145.355 62.6822 144.809C61.6417 143.903 60.6712 144.011 59.9752 144.32L57.5612 145.503C57.3817 145.582 57.1792 145.658 56.9337 145.732C56.4712 145.87 55.4972 146.035 53.4782 146.035C51.5642 146.035 49.2857 145.893 47.0827 145.755C47.0827 145.755 45.7297 145.68 45.4682 145.68C42.8402 145.68 41.0857 146.516 40.0287 147.28L39.4537 146.978C34.0787 144.125 27.8227 142.971 23.9162 142.251C23.6127 142.195 23.3227 142.144 23.0497 142.09C18.7352 141.245 16.3732 138.686 16.1812 138.479C15.8157 138.083 15.3397 137.572 14.7187 137.214C14.7187 137.214 13.5957 136.514 11.9317 137.026C10.8462 137.407 10.3872 138.253 10.3872 138.253C9.45671 139.797 10.3447 142.065 11.5157 144.623C12.8477 147.528 17.0227 154.785 27.0162 159.417C30.2877 160.935 34.5922 162.016 39.8092 162.628C43.7362 163.089 47.0522 163.147 48.3737 163.15C49.6457 163.769 53.5617 165.577 59.3842 167.395C65.7762 169.391 75.7647 171.764 87.2087 171.818C87.2087 171.818 91.2697 171.869 93.4627 171.73C93.6837 172.643 92.0972 175.909 90.1912 179.737C87.9327 184.273 85.0342 189.639 85.0342 189.639C85.0342 189.639 90.2707 185.016 95.1502 181.588C100.062 178.138 105.564 175.366 106.864 176.964C109.322 179.982 106.699 192.437 106.699 192.437C106.699 192.437 116.622 183.665 118.923 184.853C119.976 185.397 120.082 191.952 120.086 198.857C120.091 207.039 119.88 215.729 119.88 215.729C119.88 215.729 133.548 188.098 136.391 188.888C139.234 189.677 142.346 202.275 142.346 202.275C142.346 202.275 147.539 186.927 150.712 187.299C151.98 187.144 154.706 192.122 157.128 197.211C159.783 202.788 162.057 208.24 162.057 208.24C162.057 208.24 162.113 202.54 162.51 196.717C162.87 191.455 163.539 186.319 164.697 186.034C167.135 185.434 174.208 194.906 174.208 194.906C174.208 194.906 171.707 181.704 173.667 180.586C175.626 179.467 199.169 199.803 199.169 199.803C199.169 199.803 183.719 171.202 185.598 169.018C187.477 166.834 203.978 171.289 203.978 171.289C203.978 171.289 201.52 168.388 199.416 165.111C197.217 161.685 195.385 157.855 196.246 156.935C197.027 156.098 205.631 156.969 214.519 158.691C224.767 160.677 231.433 162.093 231.433 162.093C231.433 162.093 225.397 158.829 216.496 153.478C208.788 148.845 202.009 143.63 202.298 142.784C202.921 140.961 221.328 139.212 221.328 139.212C221.328 139.212 218.239 137.396 214.92 135.368C211.316 133.167 207.468 130.426 207.468 129.422C207.468 128.545 212.084 126.371 218.171 124.5C225.469 122.258 232.22 120.755 232.22 120.755C232.22 120.755 207.127 118.742 205.559 115.167C204.489 112.726 206.455 109.542 207.895 107.486C209.336 105.429 211.398 103.563 211.398 103.563C218.254 97.2384 226.98 91.4149 229.768 89.7024L230.345 89.3424C230.345 89.3424 236.782 84.5944 237.443 84.0394C238.02 83.5559 239.492 82.0129 239.823 80.0494C239.823 80.0494 239.938 79.5079 239.901 78.6424L239.902 78.6444Z" fill="#FFFFFE"/>
<path d="M193.581 154.934C192.329 157.472 195.585 165.317 198.561 167.652C196.382 167 185.004 163.767 183.179 167.971C181.172 172.596 192.293 189.565 193.555 192.735C188.428 187.652 174.385 176.258 172.394 177.561C170.404 178.865 170.895 185.215 171.412 188.445C169.484 186.098 166.173 182.335 163.312 183.461C160.452 184.587 160.805 195.49 160.62 200.135C158.261 194.671 154.409 183.668 150.844 184.07C147.278 184.471 143.278 191.958 142.517 194.819C141.973 191.955 139.64 185.656 136.111 185.656C132.582 185.656 124.377 202.325 121.896 207.741C121.886 203.55 122.891 183.102 120.667 182.087C118.443 181.073 110.937 185.736 109.325 187.855C109.921 185.169 110.429 176.089 108.428 174.992C106.425 173.893 100.718 173.547 90.3975 183.082C92.1105 179.424 94.9315 175.444 95.617 171.585C99.8905 171.365 104.122 170.881 108.389 170.048C117.701 176.78 129.148 180.754 141.521 180.754C172.772 180.754 198.105 155.444 198.105 124.22C198.105 121.774 197.947 119.364 197.647 117.003C199.743 115.031 201.753 113.122 203.625 111.341C203.196 112.365 202.959 113.599 202.999 115.12C203.121 119.887 215.481 120.905 222.048 121.435C214.713 122.429 201.895 127.733 204.33 130.581C206.765 133.425 213.866 137.336 214.875 137.83C211.49 137.83 200.366 138.979 199.124 142.13C197.878 145.28 215.221 155.842 221.571 158.324C213.672 156.102 194.834 152.395 193.582 154.933L193.581 154.934ZM184.006 73.681C180.305 74.4055 176.486 75.4685 172.542 76.937C163.632 71.0935 152.975 67.689 141.521 67.689C110.274 67.689 84.9405 92.9995 84.9405 124.22C84.9405 131.736 86.41 138.907 89.076 145.465C85.8565 147.849 82.7725 149.739 79.6125 151.197C81.9225 148.448 83.929 143.164 81.3195 141.755C79.537 140.791 71.2465 140.409 71.2465 140.409C71.2465 140.409 80.5815 134.14 80.364 129.607C80.146 125.077 65.259 122.756 59.3735 121.452C64.5665 120.359 81.385 116.563 82.107 113.182C82.832 109.804 76.851 107.404 74.337 106.225C77.154 106.261 84.2945 107.457 85.2565 103.973C86.357 99.9795 68.7745 89.5795 64.7675 88.1375C65.664 88.348 82.41 92.253 88.5325 90.9295C93.0895 89.942 87.778 83.815 86.901 83.0905C88.2455 83.7455 95.923 85.326 98.121 81.6845C100.319 78.0435 92.862 63.541 88.687 57.3945C92.394 61.0885 109.325 73.1215 111.849 71.0735C114.376 69.0255 112.445 62.4115 111.091 60.229C113.82 62.7805 116.505 66.191 119.972 66.119C121.708 66.083 123.893 60.3475 124.252 47.386C126.601 54.6485 132.209 64.519 136.328 63.9195C140.45 63.3235 141.858 57.21 142.428 54.606C142.903 57.401 145.067 64.585 147.816 64.848C151.19 65.375 157.645 50.372 159.995 43.5935C160.351 46.9415 157.892 64.137 161.53 65.566C165.164 66.998 171.175 59.7585 174.585 55.7025C172.516 59.627 168.473 69.1185 170.882 71.39C173.29 73.6615 181.617 71.2815 184.863 68.608C183.954 70.5965 183.759 72.1865 184.006 73.6815L184.006 73.681Z" fill="#FC4C02"/>
<path d="M52.6079 148.003C50.5904 147.965 48.3119 147.811 46.1469 147.677C42.9934 147.483 41.3299 148.668 40.6539 149.327C42.6244 150.446 48.9779 154.137 54.4044 155.18V155.177C54.2234 154.93 62.9949 148.991 60.6189 146.1H60.6154C59.7914 146.209 59.4264 147.048 57.5014 147.625C56.3809 147.961 54.6249 148.04 52.6074 148.003C54.6249 148.04 56.3809 147.96 57.5014 147.625C59.4259 147.049 59.7914 146.209 60.6154 146.1H60.6189C60.7509 146.08 61.5579 145.899 61.5974 147.16C61.5944 147.835 61.5019 148.523 61.3239 149.224C60.9979 150.423 60.3649 151.871 59.3439 153.366C58.7239 154.278 57.7029 155.43 57.6899 155.443C57.5214 155.453 56.7344 155.486 56.0719 155.42C55.4064 155.354 54.6979 155.236 54.4044 155.18C48.9779 154.136 42.6244 150.446 40.6539 149.326C41.3299 148.668 42.9934 147.483 46.1469 147.677C48.3119 147.81 50.5904 147.965 52.6079 148.002V148.003ZM228.417 73.421C232.671 72.9965 237.03 74.4415 237.874 78.076H237.871C235.857 74.922 216.735 81.266 211.299 83.452C209.823 84.048 200.725 88.1465 191.432 93.447L191.429 93.4505H191.422L191.3 93.51C185.801 95.426 175.059 101.326 170.973 105.145C161.321 114.156 159.14 125.738 145.412 142.656C139.303 150.186 134.024 155.466 129.86 158.936C127.2 161.178 124.861 162.759 123.141 163.67C123.075 163.46 123.058 163.295 123.058 163.295C123.049 163.235 123.045 163.17 123.045 163.097C123.045 161.593 124.953 157.994 126.311 155.137C127.231 153.204 127.863 151.627 127.863 151.624C129.975 146.386 131.099 141.382 131.412 139.887C131.89 137.997 133.115 132.657 133.115 132.657C133.115 132.657 111.044 152.467 88.1664 159.1C80.3734 161.359 71.9775 163.196 65.7234 163.327C65.7234 163.327 60.3624 163.097 60.0064 162.985C54.5729 162.079 48.1044 159.574 42.4139 153.503C41.6859 152.927 40.9574 152.325 40.2294 151.693C40.4539 151.923 43.0964 155.851 46.3024 158.666C45.2844 158.741 43.5509 158.985 38.1009 158.211C19.0319 155.502 13.0284 140.588 12.8734 138.8C12.6169 138.873 12.3924 138.952 12.2314 139.1C12.3924 138.948 12.6169 138.869 12.8734 138.797C13.8749 138.514 14.5509 139.771 15.4309 140.519C16.3104 141.266 18.5644 143.258 22.6869 144.032C26.8089 144.805 34.4934 146.033 40.2859 149.747L40.2894 149.741C45.0639 152.608 56.9855 162.33 78.1469 154.054C87.9005 150.241 96.6159 142.61 109.565 129.81C111.671 127.732 113.757 125.55 115.882 123.298C115.579 121.78 114.748 119.034 112.92 117.898C110.083 116.127 105.783 116.058 102.945 116.265C100.105 116.476 98.6089 116.864 97.6404 116.087C97.2185 115.751 97.1954 115.202 97.4264 114.576C99.2124 112.403 102.362 109.638 110.475 108.571C120.726 107.225 124.038 109.549 131.498 107.063C132.974 105.572 134.697 104.018 136.042 102.806C139.149 99.995 142.48 97.193 146.105 94.441C149.734 91.6885 153.654 88.989 157.945 86.3785C180.931 72.403 199.667 72.864 215.458 76.9595C215.458 76.9595 224.104 73.8485 228.417 73.4205L228.417 73.421ZM187.389 123.318C185.765 128.322 183.27 135.163 180.216 140.951C176.585 147.828 171.8 152.579 169.279 154.403C168.861 154.149 168.703 153.616 168.689 153.066C168.67 152.085 170.825 147.028 171.671 136.384C174.393 134.34 176.838 132.394 179 130.6C181.748 128.315 184.578 125.842 187.389 123.317V123.318Z" fill="#008E97"/>
<path d="M208.719 80.1135C210.454 79.695 211.192 79.164 211.291 79.3955C211.39 79.6265 210.435 80.1685 207.448 81.3915C205.263 82.2865 203.254 82.8325 200.014 83.637C198.519 84.087 196.409 84.765 196.409 84.765L196.38 84.7235L196.381 84.723C196.341 84.6685 196.309 84.6135 196.283 84.5585L196.273 84.5405C196.085 84.1275 196.252 83.706 196.447 83.4065C190.556 82.974 187.673 86.297 187.673 86.297C187.46 86.458 187.205 86.7625 186.934 87.143C187.788 85.8375 189.698 83.357 192.535 82.1195C196.492 80.3925 199.067 80.6635 200.889 80.6635C202.712 80.663 206.984 80.532 208.719 80.113L208.719 80.1135ZM133.115 132.658C133.115 132.658 131.889 137.998 131.411 139.888C123.206 145.406 110.378 153.179 97.3334 157.939C81.3749 163.921 66.8404 163.352 65.7229 163.329C71.9769 163.197 80.3734 161.36 88.1659 159.102C111.044 152.468 133.115 132.659 133.115 132.659V132.658ZM61.5974 147.161C61.5944 147.836 61.5019 148.524 61.3239 149.225C60.9979 150.424 60.3649 151.872 59.3439 153.366C58.7239 154.278 57.7029 155.43 57.6899 155.444C57.5214 155.454 56.7344 155.487 56.0719 155.421C55.4064 155.355 54.6979 155.236 54.4044 155.18V155.177C54.2234 154.93 62.9949 148.991 60.6189 146.1C60.7509 146.08 61.5579 145.899 61.5974 147.16V147.161ZM236.747 81.876L236.744 81.8795C236.744 81.8795 236.391 82.3995 235.211 83.43C234.035 84.4605 232.032 85.9945 228.733 88.0225C225.577 89.9615 216.779 95.9075 210.024 102.146C209.773 102.376 191.712 119.407 191.261 119.825C191.211 119.983 188.869 128.701 183.273 140.04C179.352 147.984 173.5 152.949 171.424 154.084C171.292 154.153 170.086 154.917 169.279 154.404C171.8 152.58 176.584 147.829 180.216 140.952C183.27 135.164 185.765 128.323 187.389 123.319C184.578 125.844 181.747 128.316 178.999 130.601C176.838 132.396 174.393 134.341 171.671 136.386C171.671 136.396 165.819 140.685 162.51 142.885L162.507 142.888C160.655 144.116 152.17 149.4 147.023 152.205C142.654 154.589 133.503 158.921 133.477 158.935H133.473C128.708 162.955 124.975 164.831 123.977 164.581C123.364 164.429 123.153 163.708 123.14 163.672C124.86 162.76 127.199 161.18 129.859 158.938C134.023 155.468 139.303 150.187 145.412 142.658C159.139 125.739 161.32 114.157 170.972 105.147C175.058 101.328 185.8 95.4285 191.299 93.512L191.421 93.4525C185.127 97.041 178.748 101.179 174.586 105.146C166.523 112.676 163.765 121.469 155.778 133.483L155.576 133.796C182.488 113.404 203.283 89.7885 224.784 82.243C225.47 82.0025 226.118 81.779 226.741 81.568L226.817 81.5415C234.135 79.069 237.094 78.684 237.309 80.06C237.404 80.659 236.923 81.5515 236.745 81.8775L236.747 81.876ZM110.475 108.571C102.358 109.638 99.2099 112.407 97.4219 114.581C97.4574 114.484 97.6864 113.948 98.0119 113.495C98.4854 112.837 98.8304 112.477 99.2809 112.061C100.773 110.683 106.098 107.118 117.483 105.621C124.73 104.67 127.265 104.851 130.758 104.161C132.296 103.889 133.928 103.486 136.039 102.808C134.695 104.021 132.972 105.573 131.498 107.063C124.037 109.55 120.724 107.226 110.474 108.571H110.475ZM126.31 155.138C124.953 157.995 123.045 161.594 123.045 163.098C123.045 163.171 123.049 163.237 123.058 163.296C105.7 170.071 91.5439 169.752 91.4909 169.755C67.6209 170.884 48.8389 161.176 48.8389 161.176L48.8354 161.172L48.4534 161.176C46.2129 161.176 35.1279 161.005 27.8489 157.627C19.8879 153.936 15.3074 148.152 13.3144 143.803C11.8314 140.563 11.7589 139.529 12.2304 139.101L12.3619 139.002L12.3654 138.999C12.5069 138.913 12.6819 138.854 12.8729 138.801C13.0279 140.589 19.0314 155.503 38.1004 158.212C43.5504 158.986 45.2839 158.743 46.3019 158.667C43.0959 155.852 40.4534 151.924 40.2289 151.694C40.9569 152.326 41.6854 152.928 42.4134 153.504C48.1039 159.575 54.5729 162.081 60.0059 162.986L60.0294 162.992H60.0324L60.0554 162.999L60.3619 163.098C62.6979 163.862 76.3334 168.188 97.6234 163.2C108.435 160.668 120.386 155.588 127.863 151.624C127.863 151.628 127.23 153.205 126.311 155.137L126.31 155.138Z" fill="#005778"/>
<path d="M187.672 86.2975C187.672 86.2975 190.555 82.9745 196.447 83.407C196.251 83.7065 196.085 84.1275 196.273 84.541L196.282 84.559C196.308 84.6145 196.341 84.6695 196.38 84.724C192.72 85.969 186.529 88.423 184.565 91.33C184.565 91.33 185.872 88.6385 186.934 87.1435C187.204 86.763 187.459 86.4585 187.672 86.2975ZM131.412 139.888C131.099 141.382 129.975 146.387 127.863 151.625C120.386 155.589 108.435 160.669 97.6233 163.2C76.3333 168.188 62.6983 163.862 60.3618 163.098L60.0293 162.993C60.5498 163.105 65.7228 163.329 65.7228 163.329C66.8403 163.352 81.3748 163.921 97.3333 157.939C110.378 153.179 123.206 145.406 131.411 139.888H131.412Z" fill="#FFFFFE"/>
</g>
<defs>
<clipPath id="clip0_5_120">
<rect width="250" height="250" fill="white"/>
</clipPath>
</defs>
</svg>
