<svg width="250" height="250" viewBox="0 0 250 250" fill="none" xmlns="http://www.w3.org/2000/svg">
<g clip-path="url(#clip0_5_253)">
<path d="M126.168 169.443C124.778 174.902 125.014 176.451 125.109 178.005C121.31 175.354 111.494 170.365 111.037 157.73C110.824 151.883 111.294 146.639 112.389 142.898C112.209 143.116 111.998 143.365 111.791 143.609C99.2161 158.741 84.8686 157.721 71.7411 159.07C69.7971 159.27 62.5036 160.742 60.5826 161.158C65.2601 156.156 73.3541 148.804 78.6376 145.196C88.8516 138.225 106.604 130.953 106.604 130.953C98.5761 135.371 92.0851 142.535 92.0851 142.535C97.0801 139.154 114.523 129.081 114.523 129.081C109.868 133.514 96.6031 145.202 88.7366 150.405C98.7461 145.686 107.214 139.568 111.778 135.253C117.486 129.861 126.059 124.658 129.937 122.655C131.838 124.529 134.59 126.244 137.051 127.257C130.467 131.893 126.076 134.534 124.199 140.8C124.199 140.8 129.016 134.619 135.959 130.833C137.264 130.121 138.677 129.244 140.128 128.247C141.689 128.615 145.076 128.926 146.735 128.926L147.145 128.753C146.877 128.957 146.21 129.339 145.933 129.54C132.666 139.271 120.526 141.827 119.403 161.622C119.403 161.622 121.081 148.723 131.287 142.183C137.069 138.48 147.437 133.553 154.382 126.47C159.703 124.037 163.05 119.874 164.782 114.086L164.821 113.906C166.539 113.737 168.25 113.517 170.046 113.358C169.84 115.449 169.385 118.287 168.367 121.192C167.122 125.077 165.031 129.403 161.343 133.91C154.707 142.016 146.697 147.093 138.358 157.944C130.019 168.798 128.246 179.857 128.246 179.857C126.387 166.359 132.822 157.776 132.822 157.776C131.843 158.551 127.698 163.429 126.168 169.444L126.168 169.443ZM96.8681 158.098C103.354 156.474 109.214 149.463 109.214 149.463C108.528 151.833 109.04 159.072 109.04 159.072C109.04 159.072 106.508 160.071 103.422 160.071C100.336 160.071 96.6131 158.123 96.6131 158.123L96.8681 158.098V158.098ZM139.046 190.344C137.583 194.269 136.573 197.907 136.197 199.323C131.846 196.715 125.17 193.236 122.722 189.422C119.439 184.305 119.472 177.604 119.472 177.604C121.097 179.04 125.265 181.372 129.082 183.489C132.198 185.219 137.284 189.008 139.045 190.344H139.046ZM130.9 181.928C131.042 179.358 131.966 174.52 134.607 168.512C137.57 161.779 145.128 153.517 145.128 153.517C147.643 156.124 150.941 161.447 149.628 168.387C148.316 175.323 145.002 177.696 141.625 184.353C141.044 185.5 140.495 186.719 139.985 187.947C137.878 186.276 134.059 183.893 130.899 181.928H130.9ZM116.306 103.642L116.474 103.685L116.235 103.725C112.81 104.329 109.255 105.164 106.247 105.945C106.381 104.752 106.541 103.554 106.733 102.38C106.793 102.054 106.859 101.725 106.931 101.395C108.246 101.715 109.583 102.022 110.922 102.333C112.129 102.613 113.339 102.896 114.532 103.196L116.306 103.642V103.642ZM183.513 112.194C185.272 111.024 191.424 111.492 193.474 111.726C195.528 111.961 202.383 113.015 205.782 112.254C209.177 111.493 210.703 110.79 210.703 110.79C210.703 110.79 209.883 116.997 203.32 117.466C196.757 117.936 195.879 116.353 190.957 115.709C190.957 115.709 192.421 114.83 195.059 114.305C195.059 114.305 190.486 113.66 187.029 114.538C183.573 115.417 182.167 116.881 182.167 116.881C182.167 116.881 181.757 113.365 183.513 112.194H183.513ZM118.348 74.101C118.348 74.101 118.876 73.4265 118.97 73.2825C121.793 69.015 124.863 64.778 126.395 62.718C127.462 61.281 128.275 59.8535 128.902 58.5285C130.665 54.7935 130.914 51.8725 130.914 51.8725C147.205 52.62 166.723 59.7675 182.515 74.7235C189.502 81.3405 194.124 89.1545 197.113 95.8155C194.203 95.3425 188.155 94.629 181.337 94.584C173.692 94.5315 164.524 95.5675 162.782 95.7735L162.781 95.7655C162.754 95.4945 162.717 95.2275 162.677 94.9615L162.643 94.7285C162.611 94.519 162.57 94.3115 162.53 94.1045L162.542 94.102C161.562 86.619 156.025 79.4655 148.997 76.495C146.472 75.3195 141.155 73.5535 135.607 73.0545C132.802 72.734 129.788 72.7655 126.132 73.1525C124.564 73.318 123.041 73.5145 121.546 73.705C120.46 73.8445 119.396 73.9795 118.347 74.101H118.348ZM138.988 212.967C138.988 212.967 135.289 211.045 132.704 207.316C130.677 204.392 130.497 200.8 130.514 199.379C133.121 200.881 136.108 202.366 137.854 203.449C139.772 204.637 141.328 205.813 142.484 206.797C140.645 210.056 138.988 212.967 138.988 212.967ZM128.316 120.412C116.04 123.759 89.8886 134.829 74.5986 145.534C68.0001 150.155 60.7991 157.451 56.4126 161.954C52.1171 163.28 46.6916 165.554 44.1731 166.655C50.0511 160.194 61.9596 148.617 71.6681 142.094C100.979 122.401 125.211 119.218 127.017 118.854L127.552 119.317C127.795 119.693 128.053 120.054 128.316 120.412L128.316 120.412ZM199.47 152.108C191.911 157.088 187.108 168.962 187.108 168.962C189.048 155.785 197.519 146.581 197.519 146.581C191.19 150.272 186.582 157.333 184.135 173.065C181.339 191.061 176.18 197.965 176.18 197.965L176.718 196.141C178.885 186.418 178.533 181.848 180.291 170.13C182.049 158.414 187.206 151.266 187.206 151.266C180.76 155.778 177.291 165.424 176.073 179.445C174.729 194.908 171.026 200.381 171.026 200.381C173.28 192.654 172.323 184.074 172.672 178.333C173.025 172.59 173.279 164.783 176.499 157.401C179.723 150.02 187.206 142.891 195.059 139.318C202.908 135.743 209.174 137.503 209.174 137.503C213.312 141.383 213.568 145.469 213.568 145.469C213.568 145.469 207.03 147.13 199.47 152.107V152.108ZM133.481 216.582C132.705 213.97 133.873 212.976 134.536 212.117C134.536 212.117 136.27 213.647 138.064 214.56C138.064 214.56 137.083 217.221 136.325 219.625C135.149 219.01 133.957 218.184 133.482 216.583L133.481 216.582ZM132.451 231.692C132.451 231.692 133.051 232.778 133.696 233.653C134.494 234.733 134.324 235.758 133.75 236.407C133.176 237.058 132.255 237.152 131.594 236.373C130.931 235.595 131.407 232.986 132.451 231.692ZM147.983 179.696C148.52 180.708 149.96 183.262 150.367 186.469C150.962 191.14 149.128 196.269 146.736 200.612C146.085 201.792 144.452 203.296 143.619 204.776C142.976 204.061 141.843 202.989 139.931 201.651C139.533 201.375 139.061 201.071 138.541 200.748C140.28 193.795 144.357 184.922 146.008 182.689C146.531 181.984 147.422 180.595 147.983 179.696ZM135.187 227.634C136.575 228.572 138.045 230.671 138.15 231.691C138.31 233.23 135.913 234.445 135.913 234.445C135.913 234.445 136.248 232.756 134.5 231.464C131.948 229.572 131.051 228.833 132.902 225.649C132.902 225.649 133.798 226.695 135.187 227.634H135.187ZM141.413 212.409C143.533 208.593 146.557 204.519 146.557 204.519C146.557 204.519 148.409 210.268 146.862 215.071C145.316 219.875 141.508 224.115 141.508 224.115C141.508 224.115 139.731 221.622 138.341 220.686C138.219 220.602 138.083 220.52 137.943 220.44C138.607 218.57 139.935 215.071 141.413 212.409L141.413 212.409ZM136.466 221.824C138.367 222.731 139.724 223.998 140.431 225.491C141.136 226.982 140.505 228.353 139.229 229.249C139.229 229.249 138.551 227.426 136.755 226.513C134.959 225.6 133.268 224.816 132.848 222.998C132.43 221.182 133.567 219.65 133.567 219.65C133.567 219.65 134.567 220.916 136.466 221.824V221.824Z" fill="#FFC62F"/>
<path d="M127.463 103.878C121.753 102.152 113.547 100.609 106.257 98.539C91.5405 94.417 81.4345 85.545 76.223 72.1685C72.7945 63.3745 72.7185 55.404 72.757 53.488C72.76 53.2135 72.744 52.6995 72.7455 52.523C72.826 46.3585 73.6545 40.6495 74.3535 36.543L74.4355 36.0425L74.447 36.9205C74.4245 41.188 74.718 44.944 74.821 46.1115L74.829 46.2265C74.845 46.397 74.962 45.35 75.04 44.825C75.3255 42.923 75.652 41.038 75.8405 39.123C76.0305 37.217 76.4615 34.94 76.5435 33.027C76.577 32.292 76.609 31.5525 76.588 30.8165C76.8 30.9425 76.886 31.6565 76.9295 31.859C77.099 32.654 77.462 38.908 77.57 41.049C77.614 41.904 77.6295 42.7595 77.64 43.614C77.645 44.041 77.658 44.4605 77.726 44.883C77.7405 44.995 77.777 45.1165 77.803 45.237C77.8235 45.336 78.139 42.4505 78.3745 40.93C78.5735 39.651 78.893 38.3535 78.8835 37.049C78.8835 36.9355 78.8485 36.794 78.868 36.682C78.9015 36.4895 79.1795 37.3205 79.3215 38.847C79.419 40.572 79.493 42.3615 79.6925 44.048L79.846 45.382C81.2405 57.628 88.5795 68.7855 98.497 73.7825C106.5 78.2695 113.97 77.312 121.88 76.2985C123.355 76.1085 124.86 75.9155 126.406 75.7525C129.869 75.3865 132.701 75.355 135.343 75.6545C141.17 76.1805 146.558 78.165 148.33 79.0845C154.244 81.7405 158.881 87.762 159.848 94.094L159.852 94.2635C160.103 95.414 160.233 96.606 160.233 97.832L160.231 97.8765C160.191 97.6435 160.17 97.4165 160.118 97.178C160.089 99.2295 159.673 101.186 158.95 102.986C159.54 101.162 159.734 99.0265 159.198 96.536C159.167 98.869 158.628 101.07 157.703 103.062C158.257 101.277 158.483 99.362 158.302 97.3885C157.94 93.393 155.999 89.9185 153.147 87.491C155.431 89.9325 156.537 93.804 156.867 97.4245C157.631 105.909 150.846 111.47 143.567 112.725L143.415 112.762C144.04 112.873 146.466 113.207 148.885 112.437C149.958 112.361 151.383 112.12 152.829 111.421C153.365 111.162 154.041 110.775 154.767 110.268C151.746 113.059 147.717 114.778 143.28 114.778C137.42 114.778 132.266 111.799 129.228 107.276C133.453 107.805 137.593 108.645 137.593 108.645C133.783 105.707 127.468 103.857 127.468 103.857L127.461 103.878L127.463 103.878ZM124.89 59.8925C122.907 62.9395 119.979 67.0825 117.692 70.3045C114.932 68.232 110.326 64.1245 108.206 58.522C104.93 49.8615 106.031 41.6 105.461 36.977C105.295 35.648 105.086 34.0225 104.824 32.2925C105.548 34.682 106.5 38.103 106.754 40.294C106.754 40.294 106.542 34.071 105.683 30.208C105.683 30.208 107.827 36.2175 108.258 39.6495C108.258 39.6495 108.539 36.325 108.225 32.7735C108.631 34.1365 108.992 35.5705 109.261 37.0805C110.95 46.4555 113.727 52.9995 124.89 59.892L124.89 59.8925Z" fill="#FFFFFE"/>
<path d="M193.04 121.462C193.629 122.166 194.681 123.687 194.739 124.216C194.747 124.281 194.74 124.424 194.728 124.618V124.619L194.716 124.758L194.713 124.781C194.639 125.591 194.25 129.36 193.381 130.411C193.253 130.621 193.108 130.823 192.926 131.005C191.929 131.938 190.184 132.825 186.888 135.11C183.255 137.631 180.384 142.785 180.384 142.785C180.384 142.785 181.417 137.915 183.663 135.132C186.446 131.684 190.072 129.406 192.31 128.215L193.316 123.723C192.545 123.209 191.576 122.682 190.639 122.514C188.693 122.172 185.415 122.216 183.408 121.562L183.432 121.521C185.835 121.228 187.241 120.526 190.814 119.938C194.388 119.353 197.143 120.408 197.143 120.408C194.739 120.526 193.04 121.462 193.04 121.462V121.462ZM204.663 119.527C204.663 119.527 206.157 122.941 206.085 125.43C206.015 127.919 206.795 129.625 207.72 130.336C208.646 131.046 209.57 131.189 210.139 131.618C210.711 132.043 210.711 133.324 210.426 134.389C210.139 135.455 209.358 135.598 208.505 135.385C207.709 135.188 203.548 134.624 199.03 135.454C198.79 134.618 198.376 132.706 199.276 131.759C200.449 130.533 202.734 130.648 203.611 130.824C203.611 130.824 201.74 129.945 200.098 129.945C198.457 129.945 197.108 131.059 196.639 132.289C196.292 133.203 196.591 135.085 196.767 135.994C191.856 137.44 184.822 141.276 179.052 148.684C172.792 156.718 171.375 166.747 171.375 166.747C171.375 166.747 164.772 168.047 161.354 162.973C156.771 156.167 158.494 148.186 158.494 148.186C158.494 148.186 155.78 149.467 153.632 148.907C152.879 148.71 152.344 148.215 151.965 147.628C155.538 144.453 159.34 141.471 163.111 137.156C165.064 137.59 166.819 138.06 167.777 138.353C169.888 138.997 172.087 140.781 172.672 142.713C173.259 144.648 173.549 151.209 173.549 151.209C174.736 146.645 174.926 144.343 175.041 143.051C175.161 141.763 175.026 138.506 172.553 136.25C171.218 135.033 167.439 133.903 165.94 133.072C171.662 125.194 173.234 113.124 173.234 113.124L173.229 112.781C173.812 112.717 174.193 112.657 174.208 112.597C175.263 112.536 179.008 112.079 180.047 112.06C180.047 112.06 178.482 116.68 179.834 120.094C179.834 120.094 183.32 117.748 188.3 118.104C193.279 118.461 201.248 120.877 204.662 119.527L204.663 119.527ZM157.468 163.478C159.835 166.951 163.009 169.904 168.107 169.904C168.845 169.904 169.721 169.891 170.674 169.867C170.255 172.508 170.049 175.354 169.947 177.42C168.84 177.789 167.857 178.145 167.074 178.473C162.122 180.541 152.906 185.424 152.906 185.424L152.592 185.613C151.833 180.36 150.12 176.045 150.12 176.045C150.12 176.045 153.426 167.447 152.189 162.161C150.564 155.218 147.904 151.525 147.904 151.525C148.196 151.214 148.488 150.922 148.782 150.624C150.525 152.996 153.477 153.064 153.477 153.064C153.477 153.064 155.105 160.008 157.468 163.477V163.478ZM208.057 169.794C210.569 169.868 212.88 169.683 212.88 169.683C212.142 170.273 210.147 170.2 209.038 170.348C207.93 170.496 201.061 170.717 192.71 171.974C191.198 172.2 189.548 172.495 187.838 172.831C188.369 171.397 188.862 170.37 189.475 169.408L189.549 169.407C195.681 169.407 205.543 169.722 208.057 169.794ZM210.998 159.644C212.755 160.347 213.751 160.99 214.396 164.623C215.04 168.255 212.989 168.137 211.993 168.081C210.998 168.022 208.102 168.003 203.648 167.475C199.194 166.949 191.239 166.743 191.239 166.743C195.042 156.223 208.302 150.507 208.302 150.507C208.537 153.552 206.251 159.118 206.251 159.118C206.251 159.118 209.239 158.941 210.998 159.645V159.644Z" fill="#E9BF9B"/>
<path d="M198.436 98.429C196.335 98.038 189.644 97.0275 181.337 96.9715C173.788 96.9205 164.684 97.864 162.889 98.0635L162.887 98.095C162.877 109.322 153.211 117.335 144.209 117.469C130.614 117.672 125.609 106.717 125.505 106.071C124.536 105.788 123.501 105.506 122.428 105.219C120.622 105.439 118.691 105.716 116.665 106.074C112.919 106.733 109.049 107.657 105.9 108.476C105.75 110.139 105.509 112.813 105.5 113.041C105.052 122.494 105.647 121.835 105.647 121.835C108.389 120.763 118.502 118.17 118.502 118.17C121.464 117.481 124.981 116.741 129.098 115.981C131.993 121.814 138.005 125.825 144.96 125.825C153.644 125.825 160.86 119.574 162.371 111.331C181.351 109.271 190.322 109.213 202.043 110.771C200.814 104.241 198.436 98.428 198.436 98.428" fill="#4F2683"/>
<path d="M197.14 120.409C197.14 120.409 194.389 119.354 190.817 119.939C187.238 120.523 185.834 121.229 183.431 121.521L183.407 121.562C185.412 122.219 188.691 122.17 190.639 122.511C191.579 122.682 192.547 123.209 193.317 123.72L192.311 128.216C190.071 129.409 186.442 131.681 183.666 135.13C183.455 135.389 183.252 135.673 183.066 135.973C182.976 136.094 182.895 136.224 182.822 136.362C182.716 136.533 182.619 136.703 182.53 136.873C182.417 137.076 182.31 137.287 182.206 137.506C182.1 137.717 182.003 137.928 181.914 138.139C181.516 139.031 181.199 139.924 180.964 140.68L180.883 140.939C180.705 141.53 180.576 142.018 180.494 142.35L180.461 142.48L180.437 142.577L180.404 142.732L180.396 142.773C180.445 142.691 180.697 142.236 181.119 141.579L181.426 141.109C182.238 139.892 183.472 138.204 184.942 136.76C185.145 136.557 185.355 136.354 185.567 136.168C185.997 135.785 186.434 135.429 186.89 135.113C190.185 132.825 191.93 131.94 192.928 131.008C193.107 130.82 193.253 130.617 193.383 130.415C194.252 129.359 194.641 125.587 194.715 124.784V124.759L194.731 124.621C194.739 124.483 194.739 124.37 194.739 124.297V124.216C194.682 123.688 193.627 122.163 193.042 121.465C193.042 121.465 194.739 120.524 197.141 120.41L197.14 120.409ZM197.14 120.409C197.14 120.409 194.389 119.354 190.817 119.939C187.238 120.523 185.834 121.229 183.431 121.521L183.407 121.562C185.412 122.219 188.691 122.17 190.639 122.511C191.579 122.682 192.547 123.209 193.317 123.72L192.311 128.216C190.071 129.409 186.442 131.681 183.666 135.13C183.455 135.389 183.252 135.673 183.066 135.973C182.976 136.094 182.895 136.224 182.822 136.362C182.716 136.533 182.619 136.703 182.53 136.873C182.417 137.076 182.31 137.287 182.206 137.506C182.1 137.717 182.003 137.928 181.914 138.139C181.516 139.031 181.199 139.924 180.964 140.68L180.883 140.939C180.705 141.53 180.576 142.018 180.494 142.35L180.461 142.48L180.437 142.577L180.404 142.732L180.396 142.773C180.445 142.691 180.697 142.236 181.119 141.579L181.426 141.109C182.238 139.892 183.472 138.204 184.942 136.76C185.145 136.557 185.355 136.354 185.567 136.168C185.997 135.785 186.434 135.429 186.89 135.113C190.185 132.825 191.93 131.94 192.928 131.008C193.107 130.82 193.253 130.617 193.383 130.415C194.252 129.359 194.641 125.587 194.715 124.784V124.759L194.731 124.621C194.739 124.483 194.739 124.37 194.739 124.297V124.216C194.682 123.688 193.627 122.163 193.042 121.465C193.042 121.465 194.739 120.524 197.141 120.41L197.14 120.409ZM197.14 120.409C197.14 120.409 194.389 119.354 190.817 119.939C187.238 120.523 185.834 121.229 183.431 121.521L183.407 121.562C185.412 122.219 188.691 122.17 190.639 122.511C191.579 122.682 192.547 123.209 193.317 123.72L192.311 128.216C190.071 129.409 186.442 131.681 183.666 135.13C183.455 135.389 183.252 135.673 183.066 135.973C182.976 136.094 182.895 136.224 182.822 136.362C182.716 136.533 182.619 136.703 182.53 136.873C182.417 137.076 182.31 137.287 182.206 137.506C182.1 137.717 182.003 137.928 181.914 138.139C181.516 139.031 181.199 139.924 180.964 140.68L180.883 140.939C180.705 141.53 180.576 142.018 180.494 142.35L180.461 142.48L180.437 142.577L180.404 142.732L180.396 142.773C180.445 142.691 180.697 142.236 181.119 141.579L181.426 141.109C182.238 139.892 183.472 138.204 184.942 136.76C185.145 136.557 185.355 136.354 185.567 136.168C185.997 135.785 186.434 135.429 186.89 135.113C190.185 132.825 191.93 131.94 192.928 131.008C193.107 130.82 193.253 130.617 193.383 130.415C194.252 129.359 194.641 125.587 194.715 124.784V124.759L194.731 124.621C194.739 124.483 194.739 124.37 194.739 124.297V124.216C194.682 123.688 193.627 122.163 193.042 121.465C193.042 121.465 194.739 120.524 197.141 120.41L197.14 120.409ZM197.14 120.409C197.14 120.409 194.389 119.354 190.817 119.939C187.238 120.523 185.834 121.229 183.431 121.521L183.407 121.562C185.412 122.219 188.691 122.17 190.639 122.511C191.579 122.682 192.547 123.209 193.317 123.72L192.311 128.216C190.071 129.409 186.442 131.681 183.666 135.13C183.455 135.389 183.252 135.673 183.066 135.973C182.976 136.094 182.895 136.224 182.822 136.362C182.716 136.533 182.619 136.703 182.53 136.873C182.417 137.076 182.31 137.287 182.206 137.506C182.1 137.717 182.003 137.928 181.914 138.139C181.516 139.031 181.199 139.924 180.964 140.68L180.883 140.939C180.705 141.53 180.576 142.018 180.494 142.35L180.461 142.48L180.437 142.577L180.404 142.732L180.396 142.773C180.445 142.691 180.697 142.236 181.119 141.579L181.426 141.109C182.238 139.892 183.472 138.204 184.942 136.76C185.145 136.557 185.355 136.354 185.567 136.168C185.997 135.785 186.434 135.429 186.89 135.113C190.185 132.825 191.93 131.94 192.928 131.008C193.107 130.82 193.253 130.617 193.383 130.415C194.252 129.359 194.641 125.587 194.715 124.784V124.759L194.731 124.621C194.739 124.483 194.739 124.37 194.739 124.297V124.216C194.682 123.688 193.627 122.163 193.042 121.465C193.042 121.465 194.739 120.524 197.141 120.41L197.14 120.409ZM190.817 119.939C187.238 120.523 185.834 121.229 183.431 121.521L183.407 121.562C185.412 122.219 188.691 122.17 190.639 122.511C191.579 122.682 192.547 123.209 193.317 123.72L192.311 128.216C190.071 129.409 186.442 131.681 183.666 135.13C183.455 135.389 183.252 135.673 183.066 135.973C182.976 136.094 182.895 136.224 182.822 136.362C182.716 136.533 182.619 136.703 182.53 136.873C182.417 137.076 182.31 137.287 182.206 137.506C182.1 137.717 182.003 137.928 181.914 138.139C181.516 139.031 181.199 139.924 180.964 140.68L180.883 140.939C180.705 141.53 180.576 142.018 180.494 142.35L180.461 142.48L180.437 142.577L180.404 142.732L180.396 142.773C180.445 142.691 180.697 142.236 181.119 141.579L181.426 141.109C182.238 139.892 183.472 138.204 184.942 136.76C185.145 136.557 185.355 136.354 185.567 136.168C185.997 135.785 186.434 135.429 186.89 135.113C190.185 132.825 191.93 131.94 192.928 131.008C193.107 130.82 193.253 130.617 193.383 130.415C194.252 129.359 194.641 125.587 194.715 124.784V124.759L194.731 124.621C194.739 124.483 194.739 124.37 194.739 124.297V124.216C194.682 123.688 193.627 122.163 193.042 121.465C193.042 121.465 194.739 120.524 197.141 120.41C197.141 120.41 194.39 119.355 190.818 119.94L190.817 119.939ZM211.993 168.08C210.995 168.023 208.106 168.007 203.649 167.471C199.193 166.951 191.238 166.741 191.238 166.741C195.038 156.226 208.3 150.505 208.3 150.505C208.536 153.548 206.254 159.113 206.254 159.113C206.254 159.113 209.242 158.944 210.995 159.641C212.757 160.347 213.755 160.988 214.397 164.623C215.037 168.258 212.992 168.137 211.993 168.079V168.08ZM209.039 170.344C207.927 170.499 201.06 170.717 192.708 171.975C191.199 172.202 189.55 172.494 187.838 172.827C188.366 171.399 188.861 170.368 189.477 169.411L189.55 169.402C195.679 169.402 205.54 169.719 208.056 169.791C210.564 169.864 212.877 169.678 212.877 169.678C212.138 170.27 210.15 170.197 209.038 170.344L209.039 170.344ZM184.136 173.063C181.337 191.06 176.183 197.964 176.183 197.964L176.719 196.139C178.886 186.418 178.537 181.85 180.29 170.132C182.051 158.416 187.206 151.266 187.206 151.266C180.76 155.779 177.287 165.427 176.069 179.448C174.771 194.419 171.256 200.034 171.038 200.367C173.277 192.649 172.319 184.073 172.676 178.337C173.025 172.592 173.277 164.786 176.499 157.402C179.722 150.018 187.206 142.894 195.062 139.316C202.91 135.746 209.176 137.506 209.176 137.506C213.308 141.385 213.567 145.466 213.567 145.466C213.567 145.466 207.033 147.13 199.469 152.111C191.911 157.085 187.106 168.964 187.106 168.964C189.047 155.787 197.521 146.577 197.521 146.577C191.19 150.27 186.58 157.329 184.136 173.063H184.136ZM169.949 177.419C168.837 177.785 167.855 178.142 167.076 178.475C162.125 180.543 152.904 185.428 152.904 185.428L152.588 185.614C151.833 180.357 150.12 176.048 150.12 176.048C150.12 176.048 153.423 167.447 152.19 162.165C150.566 155.219 147.905 151.527 147.905 151.527C148.197 151.21 148.488 150.919 148.781 150.626C150.526 152.996 153.473 153.069 153.473 153.069C153.473 153.069 155.104 160.007 157.466 163.48C159.836 166.952 163.01 169.906 168.106 169.906C168.845 169.906 169.722 169.891 170.671 169.865C170.258 172.51 170.047 175.35 169.95 177.419H169.949ZM146.735 200.61C146.087 201.794 144.447 203.296 143.618 204.773C142.978 204.059 141.842 202.988 139.934 201.648C139.537 201.372 139.058 201.072 138.538 200.748C140.283 193.794 144.358 184.926 146.005 182.686C146.532 181.98 147.426 180.592 147.986 179.7C148.521 180.707 149.958 183.262 150.364 186.467C150.964 191.141 149.13 196.269 146.735 200.61H146.735ZM146.858 215.07C145.315 219.873 141.509 224.117 141.509 224.117C141.509 224.117 139.731 221.625 138.342 220.684C138.221 220.604 138.083 220.522 137.945 220.441C138.603 218.567 139.934 215.069 141.412 212.408C143.529 208.595 146.557 204.521 146.557 204.521C146.557 204.521 148.407 210.267 146.857 215.07L146.858 215.07ZM139.227 229.245C139.227 229.245 138.554 227.428 136.753 226.51C134.958 225.602 133.27 224.814 132.849 222.997C132.427 221.179 133.563 219.646 133.563 219.646C133.563 219.646 134.57 220.92 136.469 221.822C138.369 222.73 139.724 223.995 140.43 225.488C141.136 226.981 140.503 228.352 139.228 229.245L139.227 229.245ZM135.917 234.446C135.917 234.446 136.249 232.758 134.496 231.468C131.948 229.568 131.047 228.831 132.905 225.65C132.905 225.65 133.798 226.697 135.186 227.631C136.574 228.572 138.043 230.674 138.148 231.688C138.311 233.229 135.916 234.446 135.916 234.446H135.917ZM133.749 236.41C133.173 237.059 132.255 237.156 131.591 236.377C130.933 235.598 131.405 232.986 132.451 231.695C132.451 231.695 133.052 232.783 133.693 233.652C134.497 234.73 134.326 235.76 133.749 236.41H133.749ZM138.059 214.557C138.059 214.557 137.086 217.22 136.322 219.621C135.145 219.012 133.96 218.185 133.481 216.585C132.702 213.974 133.871 212.975 134.536 212.115C134.536 212.115 136.265 213.649 138.059 214.557H138.059ZM130.511 199.376C133.116 200.877 136.11 202.362 137.856 203.449C139.772 204.634 141.33 205.811 142.483 206.792C140.648 210.055 138.985 212.967 138.985 212.967C138.985 212.967 135.292 211.044 132.703 207.312C130.674 204.391 130.494 200.796 130.511 199.376L130.511 199.376ZM122.719 189.42C119.44 184.308 119.472 177.605 119.472 177.605C121.096 179.042 125.267 181.37 129.081 183.488C132.199 185.217 137.28 189.006 139.041 190.345C137.58 194.271 136.574 197.908 136.192 199.32C131.849 196.715 125.17 193.234 122.719 189.42ZM149.625 168.388C148.318 175.326 145 177.695 141.622 184.348C141.045 185.5 140.494 186.718 139.983 187.944C137.881 186.271 134.058 183.894 130.9 181.93C131.038 179.358 131.964 174.522 134.61 168.509C137.572 161.783 145.129 153.515 145.129 153.515C147.645 156.12 150.94 161.451 149.625 168.389V168.388ZM111.039 157.726C110.82 151.884 111.291 146.642 112.387 142.893C112.208 143.113 111.997 143.364 111.794 143.607C99.2136 158.74 84.8716 157.719 71.7391 159.073C69.7991 159.268 62.5026 160.744 60.5791 161.158C65.2621 156.152 73.3546 148.8 78.6386 145.198C88.5326 138.448 105.496 131.404 106.552 130.974C98.5486 135.405 92.0881 142.536 92.0881 142.536C96.9256 139.259 113.451 129.708 114.474 129.117C109.782 133.587 96.5766 145.214 88.7361 150.408C98.7436 145.685 107.218 139.566 111.779 135.25C117.485 129.862 126.056 124.661 129.936 122.657C131.835 124.532 134.595 126.244 137.054 127.258C130.471 131.891 126.08 134.536 124.197 140.8C124.197 140.8 129.018 134.617 135.958 130.828C137.264 130.122 138.677 129.246 140.131 128.247C141.688 128.612 145.081 128.929 146.736 128.929L147.142 128.749C146.875 128.952 146.209 129.334 145.933 129.537C132.688 139.259 120.561 141.814 119.408 161.54C119.579 160.428 121.559 148.411 131.291 142.179C137.07 138.479 147.435 133.553 154.382 126.47C159.699 124.036 163.051 119.873 164.78 114.088L164.82 113.91C166.541 113.739 168.254 113.52 170.047 113.358C169.844 115.451 169.382 118.291 168.367 121.188C167.125 125.074 165.031 129.399 161.346 133.912C154.707 142.017 146.696 147.088 138.361 157.945C130.017 168.794 128.248 179.854 128.248 179.854C126.437 166.725 132.476 158.245 132.809 157.791C131.803 158.595 127.688 163.464 126.169 169.443C124.782 174.904 125.017 176.454 125.107 178.005C121.308 175.35 111.495 170.368 111.041 157.727L111.039 157.726ZM109.043 159.073C109.043 159.073 106.51 160.071 103.426 160.071C100.334 160.071 96.6161 158.124 96.6161 158.124L96.8676 158.098C103.353 156.475 109.213 149.467 109.213 149.467C108.531 151.836 109.043 159.073 109.043 159.073ZM56.4151 161.952C52.1216 163.276 46.6916 165.557 44.1756 166.652C50.0521 160.192 61.9591 148.613 71.6661 142.09C100.975 122.397 125.211 119.216 127.021 118.851L127.55 119.314C127.792 119.695 128.052 120.052 128.312 120.409C116.04 123.76 89.8881 134.828 74.5966 145.531C67.9981 150.156 60.7986 157.45 56.4156 161.953L56.4151 161.952ZM76.2196 72.17C72.7946 63.374 72.7216 55.406 72.7536 53.491C72.7616 53.215 72.7456 52.696 72.7456 52.5255C72.8266 46.3585 73.6546 40.6465 74.3526 36.5405C74.3851 36.378 74.4096 36.208 74.4336 36.0455L74.4496 36.922C74.4251 41.19 74.7176 44.947 74.8231 46.1155L74.8311 46.229C74.8471 46.3995 74.9611 45.3525 75.0421 44.825C75.3261 42.9265 75.6506 41.0355 75.8376 39.1205C76.0326 37.2135 76.4626 34.9415 76.5436 33.0265C76.5761 32.288 76.6086 31.5495 76.5841 30.8195C76.8031 30.941 76.8846 31.6555 76.9331 31.858C77.0956 32.653 77.4606 38.909 77.5661 41.0515C77.6146 41.9035 77.6311 42.7555 77.6391 43.6155C77.6471 44.0375 77.6551 44.4595 77.7286 44.8815C77.7366 44.995 77.7771 45.117 77.8016 45.2385C77.8341 45.2385 78.1346 42.423 78.3696 40.93C78.5726 39.648 78.8891 38.3495 78.8811 37.0515C78.8811 36.938 78.8486 36.792 78.8651 36.6865C78.8976 36.492 79.1816 37.3195 79.3196 38.845C79.4171 40.5735 79.4901 42.3585 79.6931 44.046L79.8471 45.385C81.2431 57.6295 88.5806 68.7865 98.4991 73.7845C106.502 78.2715 113.969 77.314 121.883 76.3C123.352 76.1135 124.862 75.9185 126.404 75.7565C129.87 75.3915 132.702 75.359 135.34 75.651C141.168 76.1785 146.557 78.1665 148.327 79.0835C154.243 81.737 158.878 87.7655 159.851 94.0945V94.265C160.104 95.417 160.234 96.61 160.234 97.835V97.8755C160.192 97.64 160.169 97.421 160.119 97.1775C160.088 99.2305 159.674 101.186 158.951 102.988C159.536 101.162 159.73 99.028 159.195 96.5365C159.17 98.8735 158.627 101.073 157.701 103.061C158.254 101.276 158.48 99.3605 158.301 97.3885C157.937 93.3965 155.996 89.9235 153.148 87.489C155.429 89.9315 156.54 93.802 156.866 97.429C157.629 105.909 150.843 111.467 143.571 112.724L143.416 112.765C144.042 112.87 146.468 113.211 148.887 112.44C149.959 112.359 151.387 112.124 152.832 111.418C153.367 111.166 154.04 110.777 154.772 110.266C151.752 113.057 147.718 114.777 143.278 114.777C137.418 114.777 132.264 111.799 129.229 107.28C133.457 107.807 137.596 108.643 137.596 108.643C133.782 105.705 127.468 103.855 127.468 103.855V103.88C121.754 102.151 113.548 100.61 106.259 98.5405C91.5436 94.4185 81.4386 85.5415 76.2196 72.1695V72.17ZM108.207 58.522C104.928 49.864 106.032 41.604 105.464 36.979C105.293 35.6485 105.082 34.0255 104.823 32.289C105.553 34.6825 106.503 38.107 106.754 40.2975C106.754 40.2975 106.543 34.09 105.691 30.228C105.812 30.585 107.842 36.322 108.256 39.6485C108.256 39.6485 108.54 36.3215 108.223 32.776C108.629 34.139 108.994 35.5755 109.262 37.0845C110.95 46.4565 113.726 53.0045 124.895 59.8935C122.906 62.9365 119.976 67.0825 117.695 70.304C114.936 68.235 110.325 64.129 108.207 58.522ZM128.904 58.53C130.666 54.7975 130.917 51.8685 130.917 51.8685C147.206 52.623 166.727 59.7635 182.513 74.726C189.503 81.339 194.129 89.153 197.116 95.815C194.202 95.3445 188.155 94.6305 181.337 94.5815C173.691 94.533 164.528 95.5635 162.783 95.7745V95.7665C162.75 95.4985 162.719 95.231 162.677 94.963L162.645 94.7275C162.612 94.5165 162.572 94.3135 162.531 94.1025H162.539C161.565 86.621 156.022 79.4645 149.001 76.4945C146.477 75.318 141.16 73.549 135.608 73.054C132.799 72.7295 129.789 72.762 126.136 73.1515C124.562 73.314 123.044 73.5165 121.55 73.7035C120.463 73.8415 119.399 73.9795 118.344 74.101C118.344 74.101 118.88 73.4275 118.969 73.2815C121.794 69.0135 124.862 64.778 126.397 62.717C127.458 61.281 128.279 59.8525 128.904 58.53H128.904ZM106.251 105.941C106.381 104.748 106.543 103.556 106.73 102.379C106.795 102.055 106.86 101.722 106.933 101.397C108.248 101.714 109.587 102.022 110.926 102.33C112.127 102.614 113.337 102.898 114.53 103.198C115.13 103.344 115.723 103.49 116.307 103.645L116.478 103.685L116.234 103.726C112.809 104.326 109.254 105.162 106.251 105.941V105.941ZM202.042 110.769C190.322 109.211 181.353 109.268 162.369 111.329C160.859 119.573 153.643 125.829 144.959 125.829C138.002 125.829 131.997 121.813 129.099 115.979C124.984 116.741 121.462 117.48 118.499 118.17C118.499 118.17 108.386 120.766 105.651 121.837C105.651 121.837 105.05 122.494 105.497 113.041C105.513 112.814 105.748 110.136 105.903 108.481C109.052 107.662 112.924 106.737 116.665 106.071C118.694 105.714 120.626 105.438 122.428 105.219C123.499 105.503 124.538 105.787 125.504 106.071C125.609 106.72 130.617 117.675 144.212 117.472C153.213 117.334 162.88 109.325 162.888 98.095V98.0625C164.683 97.868 173.788 96.9185 181.337 96.975C189.649 97.032 196.337 98.038 198.439 98.4275C198.439 98.4275 200.817 104.246 202.042 110.769ZM205.783 112.254C209.177 111.492 210.703 110.794 210.703 110.794C210.703 110.794 209.883 117.001 203.317 117.464C196.759 117.934 195.882 116.352 190.955 115.711C190.955 115.711 192.424 114.827 195.062 114.307C195.062 114.307 190.485 113.658 187.027 114.534C183.577 115.419 182.165 116.879 182.165 116.879C182.165 116.879 181.759 113.366 183.512 112.197C185.274 111.021 191.426 111.491 193.47 111.727C195.525 111.962 202.383 113.017 205.783 112.254ZM207.724 130.333C208.649 131.046 209.574 131.193 210.142 131.615C210.71 132.044 210.71 133.327 210.426 134.39C210.142 135.452 209.355 135.598 208.503 135.387C207.707 135.184 203.551 134.625 199.031 135.452C198.787 134.616 198.373 132.71 199.274 131.76C200.443 130.543 202.692 130.649 203.584 130.819C203.373 130.722 201.636 129.943 200.093 129.943C198.455 129.943 197.107 131.063 196.636 132.289C196.287 133.205 196.588 135.087 196.766 135.996C191.856 137.441 184.819 141.278 179.048 148.686C172.79 156.719 171.378 166.748 171.378 166.748C171.378 166.748 164.771 168.047 161.354 162.975C156.769 156.167 158.496 148.184 158.496 148.184C158.496 148.184 155.778 149.466 153.634 148.906C152.88 148.711 152.343 148.216 151.963 147.624C155.542 144.451 159.34 141.473 163.115 137.157C165.062 137.586 166.815 138.057 167.774 138.357C169.884 138.998 172.084 140.782 172.676 142.714C173.261 144.645 173.553 151.21 173.553 151.21C174.737 146.642 174.924 144.345 175.038 143.047C175.16 141.765 175.022 138.503 172.555 136.248C171.215 135.031 167.441 133.903 165.939 133.074C171.662 125.196 173.236 113.122 173.236 113.122C173.228 113.009 173.228 112.895 173.228 112.781C173.813 112.716 174.193 112.66 174.21 112.595C175.265 112.538 179.007 112.075 180.046 112.059C180.046 112.059 178.481 116.676 179.835 120.092C179.835 120.092 183.317 117.747 188.301 118.104C193.276 118.461 201.246 120.879 204.664 119.524C204.664 119.524 206.157 122.94 206.084 125.431C206.019 127.914 206.798 129.625 207.724 130.333ZM216.464 162.351C216.14 160.363 214.144 158.586 213.145 158.366C212.147 158.147 209.598 157.482 209.598 157.482C211.481 152.169 211.481 148.841 211.481 148.841C213.145 147.956 216.464 146.626 216.464 146.626C215.361 140.751 211.367 136.207 211.367 136.207C211.7 134.99 212.478 132.889 212.478 132.11C212.478 131.331 211.034 130.008 209.484 129.01C207.934 128.012 207.715 126.243 207.715 124.134C207.715 122.032 206.83 119.371 206.497 119.257C206.164 119.152 210.449 117.797 211.781 114.024C213.112 110.259 213.145 107.2 213.145 107.2C211.375 109.78 204.444 110.843 204.444 110.843C203.892 104.969 199.177 86.0215 180.118 68.852C161.061 51.6825 128.586 48.5745 128.586 48.5745C128.635 49.532 128.513 50.668 128.229 51.9175C127.961 53.532 127.491 55.439 126.671 56.981C126.622 57.0705 126.557 57.184 126.492 57.2895C122.012 54.8635 117.304 51.6015 115.145 47.788C110.965 40.404 111.485 34.0505 109.269 28.8415C105.641 20.3135 100.405 15.6805 98.8471 14.325C97.9541 13.546 97.6541 13.2865 97.1911 13.6595C96.7366 14.0245 97.0371 14.552 97.4101 15.104C97.7591 15.6235 101.022 21.912 102.24 30.448C103.457 38.976 101.842 52.4375 105.835 61.079C108.319 66.4585 112.426 70.7185 115.177 73.169C115.275 73.25 115.372 73.3395 115.461 73.4205L116.354 74.305C110.656 74.8405 105.356 74.6375 99.7231 71.473C90.6651 66.913 83.7171 56.3075 82.4431 45.0855L82.2891 43.7385C81.9321 40.663 82.0781 37.588 81.9401 34.5045C81.8186 31.705 81.5101 28.914 81.0231 26.155C80.8121 24.938 80.5606 23.737 80.2681 22.536L80.2601 22.4955C80.1386 21.765 79.9271 21.043 79.7161 20.329C79.5781 19.8585 79.4241 19.388 79.2696 18.909C78.9126 17.8625 78.4496 16.856 77.8571 15.8985C77.1426 14.7465 76.3556 13.6265 75.4386 12.6285C74.8946 12.036 74.3106 11.4765 73.6531 11.014C73.6531 11.014 73.0446 10.6325 72.6306 10.8515C72.6306 10.8515 72.0866 11.233 72.6631 12.4175C72.6631 12.4175 72.8091 12.653 72.9796 13.0585C73.0771 13.2855 73.1826 13.5695 73.2801 13.8945C73.3696 14.1865 73.4426 14.503 73.4991 14.844C73.9536 17.2785 74.2781 22.52 72.3546 32.525L72.3386 32.5575C72.1681 34.01 71.9816 35.4625 71.7301 36.9065C70.9346 41.5885 70.1636 46.903 70.0336 52.421C70.0336 52.6645 70.0661 53.3785 70.0581 53.5245C70.0011 58.4335 70.9426 90.6145 104.229 100.749C104.075 101.439 103.928 102.104 103.823 102.745C101.574 116.937 102.402 122.917 102.402 122.917L102.418 123.063C95.6081 125.627 87.9056 129.084 79.7891 133.725C70.7066 138.699 60.8531 145.466 51.2106 154.7C49.4006 156.445 47.7041 158.157 46.0971 159.861C45.7076 160.266 45.3181 160.68 44.9281 161.094L44.8551 161.175C39.7661 166.652 35.9271 171.699 33.1431 175.805C48.1831 164.949 71.6806 161.695 78.8636 161.271C86.3956 160.834 94.0251 159.545 94.0251 159.545C94.0251 159.545 97.0041 161.134 100.559 161.913C104.593 162.806 108.814 161.524 108.814 161.524C110.332 169.33 115.818 174.344 117.255 175.471C116.881 177.817 117.263 185.558 119.901 189.859C122.742 194.492 127.433 197.616 127.433 197.616C127.433 197.616 127.108 201.811 128.212 204.814C129.316 207.816 131.88 210.55 131.88 210.55C131.88 210.55 130.711 212.514 130.557 214.98C130.403 217.447 131.88 218.818 131.88 218.818C131.88 218.818 130.541 220.538 130.314 221.878C130.094 223.225 130.922 225.244 130.922 225.244C130.922 225.244 130.111 226.721 129.875 227.857C129.632 229.001 130.314 230.406 130.314 230.406C129.77 231.468 128.156 236.458 130.533 238.462C132.903 240.466 135.857 236.726 135.857 236.726C136.766 236.458 138.478 235.331 139.29 234.064C140.289 232.514 140.289 231.07 140.289 231.07C140.289 231.07 141.563 230.242 142.666 228.133C143.577 226.421 143.446 225.293 143.446 225.293C143.446 225.293 148.6 219.881 149.672 213.122C150.588 207.361 149.233 202.045 149.233 202.045C149.233 202.045 153.105 196.155 152.927 189.42C155.565 187.577 161.928 183.448 169.85 180.365C170.077 184.908 170.791 188.844 169.371 196.147C167.593 205.235 159.501 211.881 159.501 211.881C170.807 210.664 178.348 200.69 181.335 193.486C183.778 187.61 186.002 179.301 187.033 175.536C198.062 173.395 208.136 172.827 211.48 172.324C215.911 171.658 217.023 170.668 217.129 169.005C217.242 167.341 216.796 164.347 216.462 162.351H216.464ZM197.14 120.409C197.14 120.409 194.388 119.354 190.817 119.939C187.237 120.523 185.833 121.229 183.431 121.521L183.406 121.562C185.411 122.219 188.691 122.17 190.638 122.511C191.579 122.682 192.546 123.209 193.317 123.72L192.31 128.216C190.07 129.409 186.442 131.681 183.665 135.13C183.454 135.389 183.251 135.673 183.065 135.973C182.976 136.094 182.895 136.224 182.822 136.362C182.715 136.533 182.619 136.703 182.53 136.873C182.416 137.076 182.31 137.287 182.205 137.506C182.1 137.717 182.002 137.928 181.913 138.139C181.516 139.031 181.199 139.924 180.964 140.68L180.883 140.939C180.704 141.53 180.575 142.018 180.493 142.35L180.461 142.48L180.436 142.577L180.404 142.732L180.396 142.773C180.444 142.691 180.696 142.236 181.119 141.579L181.426 141.109C182.237 139.892 183.472 138.204 184.941 136.76C185.144 136.557 185.354 136.354 185.566 136.168C185.996 135.785 186.434 135.429 186.889 135.113C190.185 132.825 191.93 131.94 192.927 131.008C193.107 130.82 193.253 130.617 193.383 130.415C194.251 129.359 194.641 125.587 194.715 124.784V124.759L194.73 124.621C194.738 124.483 194.738 124.37 194.738 124.297V124.216C194.681 123.688 193.626 122.163 193.042 121.465C193.042 121.465 194.738 120.524 197.141 120.41L197.14 120.409ZM197.14 120.409C197.14 120.409 194.388 119.354 190.817 119.939C187.237 120.523 185.833 121.229 183.431 121.521L183.406 121.562C185.411 122.219 188.691 122.17 190.638 122.511C191.579 122.682 192.546 123.209 193.317 123.72L192.31 128.216C190.07 129.409 186.442 131.681 183.665 135.13C183.454 135.389 183.251 135.673 183.065 135.973C182.976 136.094 182.895 136.224 182.822 136.362C182.715 136.533 182.619 136.703 182.53 136.873C182.416 137.076 182.31 137.287 182.205 137.506C182.1 137.717 182.002 137.928 181.913 138.139C181.516 139.031 181.199 139.924 180.964 140.68L180.883 140.939C180.704 141.53 180.575 142.018 180.493 142.35L180.461 142.48L180.436 142.577L180.404 142.732L180.396 142.773C180.444 142.691 180.696 142.236 181.119 141.579L181.426 141.109C182.237 139.892 183.472 138.204 184.941 136.76C185.144 136.557 185.354 136.354 185.566 136.168C185.996 135.785 186.434 135.429 186.889 135.113C190.185 132.825 191.93 131.94 192.927 131.008C193.107 130.82 193.253 130.617 193.383 130.415C194.251 129.359 194.641 125.587 194.715 124.784V124.759L194.73 124.621C194.738 124.483 194.738 124.37 194.738 124.297V124.216C194.681 123.688 193.626 122.163 193.042 121.465C193.042 121.465 194.738 120.524 197.141 120.41L197.14 120.409ZM197.14 120.409C197.14 120.409 194.388 119.354 190.817 119.939C187.237 120.523 185.833 121.229 183.431 121.521L183.406 121.562C185.411 122.219 188.691 122.17 190.638 122.511C191.579 122.682 192.546 123.209 193.317 123.72L192.31 128.216C190.07 129.409 186.442 131.681 183.665 135.13C183.454 135.389 183.251 135.673 183.065 135.973C182.976 136.094 182.895 136.224 182.822 136.362C182.715 136.533 182.619 136.703 182.53 136.873C182.416 137.076 182.31 137.287 182.205 137.506C182.1 137.717 182.002 137.928 181.913 138.139C181.516 139.031 181.199 139.924 180.964 140.68L180.883 140.939C180.704 141.53 180.575 142.018 180.493 142.35L180.461 142.48L180.436 142.577L180.404 142.732L180.396 142.773C180.444 142.691 180.696 142.236 181.119 141.579L181.426 141.109C182.237 139.892 183.472 138.204 184.941 136.76C185.144 136.557 185.354 136.354 185.566 136.168C185.996 135.785 186.434 135.429 186.889 135.113C190.185 132.825 191.93 131.94 192.927 131.008C193.107 130.82 193.253 130.617 193.383 130.415C194.251 129.359 194.641 125.587 194.715 124.784V124.759L194.73 124.621C194.738 124.483 194.738 124.37 194.738 124.297V124.216C194.681 123.688 193.626 122.163 193.042 121.465C193.042 121.465 194.738 120.524 197.141 120.41L197.14 120.409ZM197.14 120.409C197.14 120.409 194.388 119.354 190.817 119.939C187.237 120.523 185.833 121.229 183.431 121.521L183.406 121.562C185.411 122.219 188.691 122.17 190.638 122.511C191.579 122.682 192.546 123.209 193.317 123.72L192.31 128.216C190.07 129.409 186.442 131.681 183.665 135.13C183.454 135.389 183.251 135.673 183.065 135.973C182.976 136.094 182.895 136.224 182.822 136.362C182.715 136.533 182.619 136.703 182.53 136.873C182.416 137.076 182.31 137.287 182.205 137.506C182.1 137.717 182.002 137.928 181.913 138.139C181.516 139.031 181.199 139.924 180.964 140.68L180.883 140.939C180.704 141.53 180.575 142.018 180.493 142.35L180.461 142.48L180.436 142.577L180.404 142.732L180.396 142.773C180.444 142.691 180.696 142.236 181.119 141.579L181.426 141.109C182.237 139.892 183.472 138.204 184.941 136.76C185.144 136.557 185.354 136.354 185.566 136.168C185.996 135.785 186.434 135.429 186.889 135.113C190.185 132.825 191.93 131.94 192.927 131.008C193.107 130.82 193.253 130.617 193.383 130.415C194.251 129.359 194.641 125.587 194.715 124.784V124.759L194.73 124.621C194.738 124.483 194.738 124.37 194.738 124.297V124.216C194.681 123.688 193.626 122.163 193.042 121.465C193.042 121.465 194.738 120.524 197.141 120.41L197.14 120.409ZM197.14 120.409C197.14 120.409 194.388 119.354 190.817 119.939C187.237 120.523 185.833 121.229 183.431 121.521L183.406 121.562C185.411 122.219 188.691 122.17 190.638 122.511C191.579 122.682 192.546 123.209 193.317 123.72L192.31 128.216C190.07 129.409 186.442 131.681 183.665 135.13C183.454 135.389 183.251 135.673 183.065 135.973C182.976 136.094 182.895 136.224 182.822 136.362C182.715 136.533 182.619 136.703 182.53 136.873C182.416 137.076 182.31 137.287 182.205 137.506C182.1 137.717 182.002 137.928 181.913 138.139C181.516 139.031 181.199 139.924 180.964 140.68L180.883 140.939C180.704 141.53 180.575 142.018 180.493 142.35L180.461 142.48L180.436 142.577L180.404 142.732L180.396 142.773C180.444 142.691 180.696 142.236 181.119 141.579L181.426 141.109C182.237 139.892 183.472 138.204 184.941 136.76C185.144 136.557 185.354 136.354 185.566 136.168C185.996 135.785 186.434 135.429 186.889 135.113C190.185 132.825 191.93 131.94 192.927 131.008C193.107 130.82 193.253 130.617 193.383 130.415C194.251 129.359 194.641 125.587 194.715 124.784V124.759L194.73 124.621C194.738 124.483 194.738 124.37 194.738 124.297V124.216C194.681 123.688 193.626 122.163 193.042 121.465C193.042 121.465 194.738 120.524 197.141 120.41L197.14 120.409ZM197.14 120.409C197.14 120.409 194.388 119.354 190.817 119.939C187.237 120.523 185.833 121.229 183.431 121.521L183.406 121.562C185.411 122.219 188.691 122.17 190.638 122.511C191.579 122.682 192.546 123.209 193.317 123.72L192.31 128.216C190.07 129.409 186.442 131.681 183.665 135.13C183.454 135.389 183.251 135.673 183.065 135.973C182.976 136.094 182.895 136.224 182.822 136.362C182.715 136.533 182.619 136.703 182.53 136.873C182.416 137.076 182.31 137.287 182.205 137.506C182.1 137.717 182.002 137.928 181.913 138.139C181.516 139.031 181.199 139.924 180.964 140.68L180.883 140.939C180.704 141.53 180.575 142.018 180.493 142.35L180.461 142.48L180.436 142.577L180.404 142.732L180.396 142.773C180.444 142.691 180.696 142.236 181.119 141.579L181.426 141.109C182.237 139.892 183.472 138.204 184.941 136.76C185.144 136.557 185.354 136.354 185.566 136.168C185.996 135.785 186.434 135.429 186.889 135.113C190.185 132.825 191.93 131.94 192.927 131.008C193.107 130.82 193.253 130.617 193.383 130.415C194.251 129.359 194.641 125.587 194.715 124.784V124.759L194.73 124.621C194.738 124.483 194.738 124.37 194.738 124.297V124.216C194.681 123.688 193.626 122.163 193.042 121.465C193.042 121.465 194.738 120.524 197.141 120.41L197.14 120.409Z" fill="black"/>
<path d="M217.131 169.005C217.026 170.668 215.914 171.658 211.482 172.324C208.138 172.826 198.065 173.394 187.035 175.536C186.004 179.301 183.781 187.61 181.337 193.486C178.35 200.69 170.809 210.663 159.504 211.881C159.504 211.881 167.596 205.234 169.373 196.147C170.794 188.844 170.079 184.909 169.852 180.365C161.931 183.448 155.567 187.577 152.929 189.42C153.108 196.155 149.235 202.045 149.235 202.045C149.235 202.045 150.591 207.36 149.674 213.121C148.603 219.88 143.449 225.293 143.449 225.293C143.449 225.293 143.579 226.421 142.669 228.133C141.566 230.242 140.291 231.07 140.291 231.07C140.291 231.07 140.291 232.515 139.292 234.064C138.481 235.33 136.769 236.458 135.86 236.726C135.86 236.726 132.905 240.466 130.535 238.462C128.158 236.458 129.772 231.468 130.316 230.406C130.316 230.406 129.634 229.001 129.878 227.857C130.113 226.721 130.925 225.244 130.925 225.244C130.925 225.244 130.096 223.224 130.316 221.877C130.544 220.538 131.883 218.817 131.883 218.817C131.883 218.817 130.406 217.447 130.56 214.98C130.714 212.514 131.883 210.55 131.883 210.55C131.883 210.55 129.318 207.815 128.214 204.813C127.11 201.811 127.435 197.616 127.435 197.616C127.435 197.616 122.744 194.492 119.903 189.859C117.265 185.558 116.884 177.817 117.257 175.471C115.821 174.344 110.334 169.33 108.816 161.524C108.816 161.524 104.596 162.806 100.562 161.913C97.0065 161.134 94.0275 159.545 94.0275 159.545C94.0275 159.545 86.398 160.834 78.866 161.271C71.683 161.694 48.1855 164.949 33.1455 175.805C35.9295 171.699 39.7685 166.652 44.8575 161.175L44.9305 161.094C45.32 160.68 45.7095 160.266 46.0995 159.86C47.7065 158.156 49.403 156.444 51.213 154.7C60.8555 145.466 70.709 138.699 79.7915 133.725C87.908 129.083 95.6105 125.627 102.421 123.063L102.405 122.917C102.405 122.917 101.577 116.937 103.825 102.745C103.931 102.104 104.077 101.438 104.231 100.749C70.945 90.6145 70.0035 58.4335 70.0605 53.5245C70.0685 53.3785 70.036 52.6645 70.036 52.421C70.166 46.9035 70.937 41.5885 71.7325 36.9065C71.984 35.462 72.171 34.0095 72.341 32.5575L72.357 32.525C74.2805 22.52 73.956 17.2785 73.5015 14.844C73.4445 14.503 73.3715 14.187 73.2825 13.8945C73.185 13.57 73.0795 13.286 72.982 13.0585C72.8115 12.653 72.6655 12.4175 72.6655 12.4175C72.089 11.233 72.633 10.8515 72.633 10.8515C73.047 10.6325 73.6555 11.014 73.6555 11.014C74.313 11.4765 74.8975 12.0365 75.441 12.6285C76.358 13.6265 77.1455 14.7465 77.8595 15.8985C78.452 16.856 78.9145 17.862 79.272 18.909C79.426 19.3875 79.5805 19.8585 79.7185 20.329C79.9295 21.043 80.1405 21.765 80.2625 22.4955L80.2705 22.536C80.5625 23.737 80.8145 24.938 81.0255 26.155C81.5125 28.914 81.821 31.705 81.9425 34.5045C82.0805 37.588 81.9345 40.663 82.2915 43.7385L82.4455 45.0855C83.72 56.3075 90.6675 66.9125 99.7255 71.473C105.359 74.6375 110.659 74.8405 116.357 74.305L115.464 73.4205C115.374 73.3395 115.277 73.25 115.18 73.169C112.428 70.7185 108.321 66.4585 105.838 61.079C101.844 52.4375 103.46 38.976 102.242 30.448C101.025 21.912 97.7615 15.6235 97.4125 15.104C97.039 14.552 96.739 14.025 97.1935 13.6595C97.656 13.286 97.9565 13.546 98.8495 14.325C100.408 15.68 105.643 20.3135 109.271 28.8415C111.487 34.051 110.968 40.404 115.148 47.788C117.307 51.6015 122.014 54.8635 126.495 57.2895C126.56 57.184 126.625 57.0705 126.673 56.981C127.493 55.4395 127.964 53.5325 128.232 51.9175C128.516 50.668 128.638 49.532 128.589 48.5745C128.589 48.5745 161.063 51.682 180.121 68.852C199.179 86.0215 203.894 104.968 204.446 110.843C204.446 110.843 211.378 109.78 213.147 107.199C213.147 107.199 213.115 110.258 211.784 114.023C210.452 117.796 206.167 119.151 206.5 119.257C206.833 119.37 207.717 122.032 207.717 124.133C207.717 126.243 207.936 128.012 209.487 129.01C211.037 130.008 212.481 131.33 212.481 132.109C212.481 132.888 211.702 134.99 211.37 136.207C211.37 136.207 215.363 140.751 216.466 146.626C216.466 146.626 213.147 147.955 211.484 148.841C211.484 148.841 211.484 152.168 209.601 157.482C209.601 157.482 212.149 158.148 213.148 158.366C214.146 158.586 216.143 160.363 216.467 162.351C216.8 164.347 217.247 167.341 217.133 169.005H217.131ZM219.258 161.961C218.746 158.87 215.946 156.168 213.762 155.681C213.609 155.648 213.406 155.608 213.187 155.552C213.755 153.506 214.03 151.874 214.168 150.731C215.427 150.155 216.897 149.555 217.529 149.302L219.68 148.435L219.25 146.163C218.365 141.473 215.906 137.594 214.501 135.679C215.006 134.081 215.306 133.042 215.306 132.159C215.306 130.357 213.861 128.515 211.02 126.689C210.793 126.544 210.533 126.129 210.533 124.173C210.533 124.141 210.501 122.307 210.022 120.441C211.564 119.394 213.495 117.674 214.445 114.996C215.395 112.302 215.752 109.917 215.89 108.529C215.963 107.775 215.856 105.965 215.856 105.965L215.565 102.476C215.565 102.476 213.812 103.872 212.838 104.618C212.578 104.813 212.383 104.959 212.277 105.024C212.139 105.129 211.985 105.227 211.839 105.316C211.124 105.746 210.33 106.087 209.989 106.265C209.225 106.679 208.065 107.117 206.79 107.474C204.957 97.989 198.236 81.3955 181.987 66.7575C162.442 49.1495 130.162 45.888 128.799 45.75L125.772 45.466C125.772 45.466 125.707 50.002 125.422 51.292L125.39 51.438C125.285 52.063 125.163 52.655 125.016 53.207C121.34 50.9105 118.775 48.582 117.534 46.383C115.237 42.326 114.49 38.6015 113.776 35.007C113.273 32.459 112.786 30.041 111.795 27.704C109.182 21.5695 105.424 16.336 100.627 12.157C99.758 11.4105 98.8735 10.6315 97.51 10.6315C96.966 10.6315 96.1545 10.7695 95.335 11.4265C94.7505 11.905 92.9975 13.674 94.9535 16.571C94.986 16.6195 98.176 22.454 99.369 30.8115C99.7665 33.562 99.848 36.954 99.937 40.5405C100.116 47.8025 100.327 56.0225 103.2 62.254C104.466 64.9885 106.098 67.447 107.802 69.581C107.973 69.792 108.622 70.4735 108.736 70.6115C109.028 70.9525 109.328 71.293 109.62 71.6175C106.479 71.3495 103.784 70.522 101.106 69.021L100.993 68.956C92.746 64.8015 86.415 55.0805 85.2465 44.7595L85.0925 43.4125C84.8735 41.587 84.857 39.737 84.833 37.7815C84.825 36.67 84.8085 35.526 84.76 34.3735C84.63 31.485 84.3135 28.5555 83.802 25.667C83.591 24.45 83.331 23.2245 83.047 22.0235L83.0225 21.934C82.8685 21.0495 82.625 20.214 82.422 19.5405C82.276 19.0295 82.1135 18.526 81.943 18.023C81.521 16.757 80.961 15.548 80.263 14.4205C79.3375 12.9195 78.461 11.743 77.5115 10.7125C76.765 9.90097 76.0345 9.24398 75.2875 8.71648L75.174 8.64348C74.8575 8.43248 73.997 7.96198 72.9255 7.96198C72.3575 7.96198 71.8135 8.09197 71.3185 8.35147L71.002 8.54597C69.76 9.42247 69.0135 11.3455 70.1335 13.65L70.239 13.8445C70.2635 13.885 70.32 13.9985 70.393 14.161C70.458 14.315 70.523 14.502 70.588 14.7045C70.645 14.883 70.6855 15.086 70.734 15.3615C71.1075 17.3655 71.4565 22.145 69.6385 31.736L69.541 32.231C69.338 33.935 69.1595 35.225 68.9565 36.426C68.1775 41.0185 67.3575 46.4955 67.2195 52.354C67.2195 52.5325 67.2275 52.906 67.2355 53.214L67.2435 53.49C67.203 57.3685 67.7955 90.9855 100.984 102.645L101.009 102.653L100.903 102.694C99.3935 112.358 99.288 118.314 99.385 121.218C92.1855 124.042 85.1 127.434 78.339 131.304C67.755 137.098 57.934 144.311 49.144 152.734C47.3665 154.445 45.662 156.159 43.9415 157.976C43.5355 158.398 43.138 158.82 42.789 159.202L42.6755 159.323C38.325 164.005 34.3965 168.889 30.996 173.839C30.8905 173.993 30.582 174.488 30.4605 174.78C30.071 175.672 29.657 177.385 30.4685 178.286C30.9555 178.829 31.913 179.292 33.723 178.521C33.8125 178.497 34.1615 178.359 34.291 178.286C34.64 178.091 35.1595 177.766 35.33 177.636C46.32 169.23 71.562 164.588 78.932 164.159C85.1085 163.794 91.2365 162.892 93.5095 162.536C94.743 163.121 97.154 164.135 99.873 164.735C101.026 164.986 102.268 165.116 103.574 165.116C104.711 165.116 105.774 165.02 106.683 164.889C108.566 170.837 112.316 174.918 114.264 176.744C114.142 180.331 114.751 187.058 117.437 191.423C119.629 195.001 122.762 197.736 124.507 199.1C124.507 200.811 124.653 203.563 125.513 205.891C126.276 207.976 127.567 209.867 128.524 211.107C128.151 212.106 127.778 213.43 127.688 214.914C127.583 216.584 127.972 217.932 128.459 218.938C128.037 219.701 127.639 220.618 127.485 221.535C127.274 222.792 127.534 224.164 127.826 225.169C127.534 225.811 127.226 226.631 127.054 227.41C126.828 228.53 127.014 229.649 127.249 230.485C126.382 233.009 125.431 238.031 128.654 240.751C129.628 241.569 130.798 242 132.031 242C134.506 242 136.518 240.239 137.485 239.217C138.922 238.543 140.642 237.229 141.617 235.719C142.355 234.575 142.712 233.472 142.891 232.637C143.54 231.987 144.367 230.997 145.114 229.577C145.748 228.377 146.032 227.345 146.153 226.566C147.557 224.887 150.666 220.765 152.013 215.628L152.33 214.208C152.363 214.039 152.395 213.859 152.419 213.673C153.157 209.014 152.558 204.666 152.176 202.637C153.272 200.674 155.423 196.203 155.683 191.018C158.061 189.435 162.208 186.88 167.273 184.583C167.468 187.683 167.526 190.872 166.583 195.708C165.423 201.615 161.113 206.5 158.946 208.642C158.192 209.38 156.332 211.49 156.332 211.49C156.332 211.49 155.619 212.09 155.757 213.315C155.764 213.388 155.822 213.599 155.878 213.753C155.902 213.809 156.032 213.997 156.089 214.045C157.12 215.043 159.952 214.678 159.952 214.678C172.151 213.372 180.413 203.124 183.928 194.661C186.12 189.387 188.1 182.352 189.276 178.059C196.347 176.777 202.888 176.136 207.328 175.699C209.309 175.503 210.875 175.349 211.906 175.187C214.609 174.789 219.641 174.035 219.957 169.263C220.063 167.746 219.836 165.426 219.259 161.96L219.258 161.961Z" fill="#FFFFFE"/>
</g>
<defs>
<clipPath id="clip0_5_253">
<rect width="250" height="250" fill="white"/>
</clipPath>
</defs>
</svg>
