<svg width="250" height="250" viewBox="0 0 250 250" fill="none" xmlns="http://www.w3.org/2000/svg">
<g clip-path="url(#clip0_5_128)">
<path d="M241.735 81.0929C211.62 88.1939 210.305 70.7804 165.015 67.5874C104.052 63.2889 52.8243 89.8074 11.8853 93.2054C2.99131 93.9439 4.14481 101.334 10.5363 102.589C25.9663 106.184 41.8883 105.727 56.4613 103.776C55.9718 104.949 55.4803 106.755 57.1083 108.14C62.8798 113.038 86.0818 113.458 96.2678 112.872C99.7263 112.675 107.109 111.979 107.109 111.979C105.004 112.178 101.714 118.585 108.67 120.389C151.662 132.407 171.889 151.814 195.11 182.378C204.546 181.174 213.432 169.838 209.643 161.184L211.526 156.54L218.476 153.326L216.484 137.825L227.08 132.843C227.08 132.843 243.581 88.5629 244.548 85.3384C245.514 82.1139 243.514 80.6729 241.734 81.0924" fill="#FFFFFE"/>
<path d="M122.443 87.187C92.635 88.945 56.871 105.765 11.3325 98.2675C51.694 92.828 82.464 79.4985 119.995 74.191L122.443 87.187H122.443ZM125.656 104.578C109.169 106.518 90.0405 111.121 62.445 105.929C86.231 105.283 104.034 97.334 123.63 93.428L125.656 104.578V104.578Z" fill="#C60C30"/>
<path d="M127.416 104.393C139.499 103.096 150.156 103.507 161.773 110.579C137.545 107.955 125.683 114.712 110.582 116.214C163.93 130.191 183.462 160.06 196.69 176.611C205.937 172.688 206.437 164.666 204.082 161.803L206.462 156.707L206.572 153.435L212.946 150.458L210.929 134.601L222.865 129.719L238.68 86.4964C211.885 92.0474 203.203 74.7469 165.082 72.3869C149.553 71.4239 135.568 72.1374 122.439 73.8574L124.58 87.0884C133.354 86.7864 141.613 87.9004 149.45 91.4604C140.834 90.9274 133.081 91.6409 125.517 93.0419L127.417 104.393" fill="#002244"/>
<path d="M168.572 140.866C182.991 150.948 190.398 162.118 197.913 171.896C201.735 170.31 202.935 165.882 201.676 164.317L198.037 159.844L202.176 160.088L204.076 156.792L198.93 156.488L193.133 157.533L199.012 153.513L203.488 153.775L203.654 151.231L199.082 149.045L200.653 147.329L209.11 147.855L206.679 129.051C203.336 128.644 200.525 130.393 199.311 135.22L184.32 134.339C186.429 129.565 189.715 127.417 195.951 128.21C192.453 123.318 175.405 122.865 172.997 130.54L186.232 141.369L187.944 151.267L182.507 143.387C177.618 139.16 172.483 136.198 168.573 140.866" fill="#B0B7BC"/>
<path d="M212.929 92.3706L213.994 101.815L224.643 105.805L214.654 108.304L215.64 121.037L207.002 110.278L194.087 113.315L202.067 104.035L195.486 95.3286L206.51 99.1066L212.929 92.3706Z" fill="#FFFFFE"/>
</g>
<defs>
<clipPath id="clip0_5_128">
<rect width="250" height="250" fill="white"/>
</clipPath>
</defs>
</svg>
