<svg width="250" height="250" viewBox="0 0 250 250" fill="none" xmlns="http://www.w3.org/2000/svg">
<g clip-path="url(#clip0_5_305)">
<path d="M198.579 101.14C181.727 91.3434 165.141 93.6104 152.562 99.2174C152.007 95.0794 150.928 90.5374 149.126 85.2224C146.458 77.3174 143.534 69.7624 140.958 63.0949C137.57 54.3384 134.991 46.8354 133.577 41.8169L124.409 10.3774L114.891 41.8379C113.437 46.8359 110.927 54.3779 107.557 63.1429C104.995 69.8149 102.092 77.3779 99.4414 85.2829C97.6604 90.6059 96.5834 95.1524 96.0409 99.2964C83.4474 93.7144 66.8524 91.4804 50.0239 101.314C36.2664 109.364 28.8999 123.351 30.7949 137.822C32.5244 150.988 41.5224 161.332 54.2714 164.838L63.7669 167.447L66.0904 157.876C66.4239 156.577 69.8494 144.594 80.6349 144.811C88.1174 144.967 94.3284 151.583 97.4349 155.862C96.4304 158.887 95.8964 162.513 96.4079 166.419L92.1829 160.783L84.5429 166.481C77.6629 171.607 67.6729 184.278 73.8464 199.232C76.5389 205.753 82.3269 210.196 90.1429 211.754C94.9229 212.705 100.353 212.483 105.385 211.377C107.365 217.736 110.975 225.43 117.54 232.301L124.465 239.541L131.368 232.284C137.92 225.397 141.507 217.691 143.481 211.329C148.515 212.417 153.941 212.628 158.721 211.665C166.533 210.094 172.309 205.635 174.989 199.108C181.129 184.137 171.102 171.489 164.216 166.379L156.561 160.704L152.351 166.346C152.856 162.44 152.309 158.818 151.299 155.787C154.397 151.506 160.591 144.873 168.072 144.703C178.859 144.461 182.308 156.435 182.668 157.803L185.011 167.37C184.996 167.297 194.483 164.668 194.483 164.668C207.23 161.137 216.197 150.766 217.896 137.592C219.758 123.124 212.356 109.152 198.58 101.14" fill="black"/>
<path d="M121.249 43.1825C120.087 48.657 117.092 56.448 113.623 65.476C111.082 72.086 108.206 79.5765 105.602 87.347C103.105 94.8125 102.086 100.376 102.086 105.565C102.086 107.224 102.276 108.847 102.471 110.478C92.8675 103.88 73.945 94.86 53.3075 106.928C41.8445 113.636 35.6875 125.144 37.2365 136.973C38.616 147.495 45.802 155.775 55.9935 158.577L59.017 159.406L59.769 156.352C59.9575 155.604 64.497 137.991 80.7645 138.318C93.857 138.581 102.415 151.316 104.726 155.231C103.627 157.266 102.713 160.071 102.713 163.291C102.713 166.743 103.887 170.67 106.884 174.607C105.689 176.227 103.732 178.214 101.448 178.403C98.19 178.67 94.893 175.239 92.7015 172.309L90.873 169.868L88.427 171.693C83.4235 175.425 75.185 185.462 79.847 196.753C81.713 201.266 85.71 204.247 91.407 205.381C97.297 206.549 104.732 205.486 110.013 203.079C111.036 209.04 113.933 219.129 122.236 227.809L124.452 230.128L126.661 227.805C134.943 219.1 137.818 209.003 138.826 203.037C144.116 205.433 151.561 206.481 157.451 205.292C163.138 204.146 167.126 201.152 168.978 196.639C173.606 185.34 165.356 175.319 160.344 171.6L157.896 169.783L156.071 172.232C153.884 175.162 150.594 178.605 147.334 178.342C145.052 178.156 143.09 176.177 141.891 174.563C144.867 170.632 146.033 166.72 146.033 163.276C146.033 160.038 145.112 157.222 144.002 155.181C146.305 151.265 154.837 138.501 167.924 138.208C184.189 137.844 188.774 155.448 188.961 156.198L189.721 159.24L192.744 158.411C202.925 155.587 210.093 147.295 211.447 136.768C212.971 124.935 206.79 113.437 195.312 106.758C174.633 94.7275 155.719 103.812 146.139 110.434C146.317 108.847 146.501 107.272 146.501 105.654C146.501 100.409 145.489 94.7545 142.97 87.297C140.35 79.541 137.457 72.063 134.904 65.4635C131.412 56.4415 128.401 48.6505 127.227 43.176L124.22 29.1395L121.248 43.182" fill="#FFFFFE"/>
<path d="M124.464 225.693C136.176 213.385 136.316 197.861 136.316 197.861C141.498 203.029 161.634 206.485 166.149 195.478C171.1 183.393 158.523 174.057 158.523 174.057C146.333 190.406 138.155 174.405 138.155 174.405C147.437 164.368 140.473 155.319 140.473 155.319C141.08 153.502 151.374 135.521 167.857 135.151C186.854 134.722 191.93 155.464 191.93 155.464C211.851 149.94 215.699 122.153 193.778 109.403C165.96 93.2205 141.724 117.874 141.724 117.874C143.979 108.647 144.621 101.751 140.073 88.2765C133.908 70.007 126.351 53.683 124.239 43.818C122.145 53.685 114.621 70.036 108.501 88.318C103.989 101.805 104.651 108.701 106.919 117.919C106.919 117.919 82.627 93.326 54.849 109.571C32.9545 122.374 36.8685 150.146 56.802 155.625C56.802 155.625 61.8285 134.873 80.8275 135.26C97.3145 135.588 107.646 153.544 108.257 155.357C108.257 155.357 101.313 164.427 110.62 174.439C110.62 174.439 102.475 190.467 90.2545 174.145C90.2545 174.145 77.69 183.509 82.6745 195.581C87.218 206.577 107.342 203.073 112.511 197.893C112.511 197.893 112.689 213.417 124.423 225.697" fill="black"/>
<path d="M174.295 108.536C151.657 108.559 133.095 134.281 133.095 134.281C133.9 130.073 143.578 111.136 134.82 88.5025C126.062 65.871 124.274 56.754 124.274 56.754L124.233 57.013V56.76C124.233 56.76 122.462 65.879 113.758 88.5355C105.051 111.19 114.777 130.106 115.588 134.306C115.588 134.306 96.9656 108.631 74.3281 108.66C51.6941 108.685 32.8486 134.459 53.7651 149.681C53.7651 149.681 59.8871 130.663 80.9841 130.624C96.5001 130.591 112.045 147.244 112.703 155.497C112.703 155.497 105.6 165.532 115.476 173.93C115.476 173.93 104.807 196.387 90.0136 180.211C90.0136 180.211 78.6376 194.45 93.5136 197.898C105.316 200.629 116.941 188.651 116.941 188.651C116.941 188.651 115.673 207.573 124.415 217.915V217.822L124.458 217.911C133.177 207.55 131.864 188.626 131.864 188.626C131.864 188.626 143.518 200.58 155.32 197.818C170.186 194.337 158.775 180.122 158.775 180.122C144.023 196.332 133.306 173.904 133.306 173.904C143.155 165.481 136.027 155.464 136.027 155.464C136.665 147.217 152.166 130.523 167.688 130.518C188.789 130.518 194.955 149.515 194.955 149.515C215.836 134.246 196.928 108.507 174.295 108.536Z" fill="#D3BC8D"/>
</g>
<defs>
<clipPath id="clip0_5_305">
<rect width="250" height="250" fill="white"/>
</clipPath>
</defs>
</svg>
