<svg width="250" height="250" viewBox="0 0 250 250" fill="none" xmlns="http://www.w3.org/2000/svg">
<g clip-path="url(#clip0_5_271)">
<path d="M222.126 168.582C222.129 168.831 222.135 175.034 222.135 175.28C222.135 192.144 210.765 197.479 205.794 198.999C202.162 200.027 197.84 200.545 193.25 200.782H42.3935V169.781L181.575 169.788C185.354 169.695 187.732 168.466 188.813 166.126C189.248 164.897 189.366 163.911 189.366 162.334V155.718C187.144 157.2 183.202 158.442 183.202 158.442C174.67 161.457 158.862 159.095 152.351 153.935C145.877 150.255 140.782 142.404 140.251 133.82V81.6865C140.251 79.4495 138.442 77.6345 136.214 77.6345H127.912V50.974H172.912L172.867 122.137C172.854 126.391 176.652 129.819 181.137 129.819C182.697 129.819 184.145 129.399 185.388 128.683C187.533 127.451 189.036 125.325 189.352 122.835C189.381 122.522 189.4 122.208 189.41 121.888C189.455 121.081 189.47 120.259 189.47 119.433V50.974H222.042L222.125 168.58L222.126 168.582ZM126.317 131.76H133.228L133.858 131.763V157.409H104.014C98.1065 157.409 93.0875 153.671 91.1375 148.428C90.5815 146.937 90.268 145.33 90.268 143.64V85.8325C90.169 81.662 86.6235 78.308 82.257 78.308C77.823 78.308 74.23 81.752 74.23 85.9955H74.227L74.2205 86.741V157.613H42.4065V81.7645C42.4065 79.5305 40.6035 77.7125 38.366 77.7125H27.5005L27.51 50.9755H74.2045V56.0645C81.8 50.2525 92.9725 48.1815 103.355 50.809C109.918 52.5215 114.79 55.5745 118.629 61.1755C120.467 63.864 121.382 66.581 121.845 68.687C122.117 69.9225 122.229 70.9465 122.27 71.622V94.733L122.264 100.849C122.264 100.849 122.27 102.305 122.27 104.657V124.104C122.27 125.077 122.27 126.043 122.264 126.984L122.27 127.154V127.714C122.27 129.951 124.086 131.759 126.317 131.759L126.317 131.76Z" fill="#A71930"/>
<path d="M154.566 150.025C149.119 146.927 145.181 140.34 144.746 133.619V81.688C144.746 76.977 140.919 73.1395 136.214 73.1395H132.403V55.476H168.418C168.411 63.3715 168.37 122.165 168.37 122.178C168.37 125.276 169.62 128.233 171.873 130.502C174.29 132.935 177.666 134.32 181.137 134.32C183.413 134.32 185.657 133.722 187.627 132.589C191.018 130.63 193.333 127.196 193.806 123.397L193.825 123.269L193.902 122.117L193.962 119.435V55.4755H217.557C217.564 63.7935 217.637 175.28 217.637 175.28C217.637 188.662 209.39 193.194 204.476 194.704C201.283 195.6 197.316 196.064 193.096 196.285C192.802 196.285 55.3174 196.301 46.8809 196.285V174.288H181.575C188.627 174.115 191.609 170.784 192.888 168.022L192.984 167.82L193.051 167.615C193.722 165.708 193.853 164.175 193.853 162.334V147.292L186.862 151.974C185.651 152.794 183.144 153.744 181.843 154.157L181.706 154.199C174.676 156.692 160.515 154.666 155.135 150.406L154.869 150.198L154.566 150.025H154.566ZM117.782 127.714C117.782 132.425 121.611 136.263 126.317 136.263H129.36V152.909H104.013C100.174 152.909 96.6959 150.48 95.3504 146.86C94.9574 145.81 94.7589 144.722 94.7589 143.64V85.8325C94.6089 79.1595 89.0014 73.8115 82.2564 73.8115C75.3549 73.8115 69.7414 79.278 69.7349 85.996C69.7319 85.967 69.7284 86.716 69.7284 86.716V153.114H46.8974V81.7645C46.8974 77.05 43.0739 73.216 38.3654 73.216H31.9944L31.9974 55.4755H69.7154V65.173L76.9334 59.6395C83.5184 54.602 93.2209 52.883 102.254 55.1715C108.053 56.6855 111.854 59.246 114.92 63.7235C116.131 65.487 116.982 67.481 117.458 69.654C117.458 69.654 117.749 71.6575 117.781 71.859V94.733L117.774 100.839L117.781 104.667V124.104L117.774 127.074L117.781 127.266V127.714H117.782Z" fill="#FFFFFE"/>
</g>
<defs>
<clipPath id="clip0_5_271">
<rect width="250" height="250" fill="white"/>
</clipPath>
</defs>
</svg>
