<svg width="250" height="250" viewBox="0 0 250 250" fill="none" xmlns="http://www.w3.org/2000/svg">
<g clip-path="url(#clip0_5_136)">
<path d="M237.958 118.565C233.881 105.043 216.234 88.9814 190.698 75.5619C168.097 63.6854 141.458 59.4839 125.365 59.4839H124.594C108.495 59.4839 81.8483 63.6854 59.2488 75.5619C33.7093 88.9819 16.0623 105.043 11.9863 118.565C11.6328 120.53 11.4658 122.525 11.4868 124.521V124.589C11.4648 126.586 11.6318 128.58 11.9843 130.545C16.0608 144.067 33.7088 160.128 59.2443 173.548C81.9763 185.493 108.791 189.68 124.864 189.626H125.347C141.447 189.626 168.096 185.424 190.695 173.548C216.231 160.129 233.879 144.067 237.956 130.545C238.308 128.579 238.475 126.584 238.453 124.587V124.522C238.475 122.525 238.309 120.53 237.957 118.565H237.958Z" fill="#115740"/>
<path d="M160.389 101.896L162.353 98.1725H163.334C163.964 98.1725 164.279 98.4135 164.279 98.895C164.263 99.17 164.18 99.437 164.038 99.673L162.855 101.896H169.745L170.69 100.171C170.944 99.7565 171.09 99.2855 171.117 98.8C171.117 98.0965 170.573 97.572 169.487 97.226C170.076 97.143 170.654 96.994 171.209 96.7815C171.7 96.547 172.146 96.2275 172.525 95.837C173.296 95.09 173.723 94.058 173.707 92.9845C173.747 92.3655 173.532 91.7565 173.113 91.299C172.569 90.756 171.587 90.484 170.168 90.484H159.613L153.535 101.896H160.389H160.389ZM164.835 93.3755H165.853C166.322 93.3755 166.556 93.5605 166.556 93.931C166.546 94.153 166.482 94.369 166.37 94.561L166.092 95.0795C165.854 95.649 165.304 96.026 164.687 96.0425H163.372L164.834 93.3755H164.835ZM99.8155 101.896L103.557 97.4685L102.502 101.896H109.355L119.543 90.4865H113.338L109.226 95.839L110.745 90.4865H104.26L100.333 95.8025L101.684 90.4865H95.1105L92.962 101.896H99.816H99.8155ZM138.214 96.06C137.732 96.938 137.454 97.9135 137.401 98.9135C137.397 99.9965 138.07 100.966 139.087 101.34C140.272 101.908 142.162 102.192 144.755 102.191C148.398 102.191 150.955 101.457 152.424 99.9875C153.422 98.9015 154.241 97.6635 154.851 96.3205C155.334 95.4435 155.613 94.4685 155.666 93.4685C155.673 92.3905 155.008 91.422 153.999 91.042C152.801 90.474 150.906 90.19 148.313 90.19C144.669 90.19 142.113 90.9245 140.644 92.394C139.644 93.4795 138.823 94.7175 138.212 96.061L138.214 96.06ZM144.512 97.4605L146.069 94.5515C146.271 94.1285 146.55 93.7475 146.893 93.428C147.194 93.187 147.572 93.063 147.958 93.0785C148.576 93.0785 148.884 93.336 148.884 93.8515C148.86 94.229 148.745 94.595 148.551 94.919L146.995 97.828C146.798 98.2415 146.528 98.616 146.198 98.933C145.89 99.1825 145.502 99.313 145.105 99.301C144.488 99.301 144.179 99.0435 144.179 98.528C144.204 98.151 144.318 97.7855 144.512 97.4615V97.4605ZM129.949 101.896L131.841 98.358L140.974 90.4865H134.58L131.079 94.024L131.172 90.4865H124.225L124.726 98.1545L122.726 101.896H129.949V101.896ZM87.994 101.896L89.5315 99.0065H82.344L83.141 97.5615H89.587L91.069 94.7645H84.604L85.382 93.3755H92.3285L93.8665 90.4865H80.288L74.2115 101.896H87.9935H87.994ZM178.916 101.896L181.602 96.839L181.936 101.896H188.716L187.993 96.06L194.31 90.4855H187.919L182.232 95.654L184.993 90.487H177.953L171.88 101.896H178.917L178.916 101.896ZM173.314 111.556H133.648L129.418 119.461H139.941L131.683 134.932C135.411 135.586 139.019 136.796 142.388 138.523C144.221 139.477 145.989 140.553 147.678 141.745L159.572 119.461H169.087L173.314 111.556ZM64.4355 96.5985L65.584 101.894H71.5485L77.625 90.4845H72.067L69.5475 95.374L68.473 90.4845H62.2125L56.1365 101.895H61.694L64.4355 96.598V96.5985ZM244.305 117.215L244.227 116.892C239.687 101.462 221.277 84.305 193.714 69.8205C170.066 57.3955 142.194 53 125.367 53H124.589C107.754 53 79.8735 57.398 56.2275 69.822C28.667 84.3065 10.254 101.463 5.71547 116.893L5.63897 117.215C5.19047 119.635 4.97697 122.093 5.00197 124.555C4.97747 127.017 5.19097 129.475 5.63897 131.896L5.71547 132.217C10.255 147.647 28.665 164.804 56.2275 179.288C79.8755 191.716 107.754 196.111 124.582 196.111H125.35C142.185 196.111 170.067 191.714 193.711 179.288C221.272 164.804 239.685 147.648 244.224 132.217L244.302 131.893C244.75 129.474 244.965 127.017 244.943 124.556C244.966 122.094 244.753 119.637 244.305 117.216L244.305 117.215ZM238.458 124.588C238.48 126.585 238.313 128.58 237.961 130.546C233.883 144.068 216.236 160.129 190.7 173.548C168.1 185.425 141.451 189.626 125.352 189.626H124.865C108.792 189.68 81.977 185.494 59.245 173.549C33.708 160.129 16.061 144.068 11.985 130.546C11.632 128.581 11.466 126.586 11.488 124.589V124.521C11.466 122.525 11.6325 120.53 11.9855 118.565C16.061 105.043 33.71 88.9825 59.2455 75.562C81.8485 63.6855 108.493 59.484 124.594 59.484H125.367C141.46 59.484 168.1 63.6855 190.702 75.562C216.238 88.981 233.886 105.044 237.963 118.565C238.315 120.531 238.482 122.525 238.46 124.522L238.458 124.588ZM134.383 149.335L134.841 149.719C135.002 150.438 135.112 151.166 135.171 151.899C136.561 151.922 137.95 151.946 139.339 151.992C143.825 152.11 148.313 152.285 152.8 152.597L153.611 151.621L153.557 151.285C152.54 147.841 148.249 143.727 141.506 140.193C136.397 137.634 130.778 136.256 125.065 136.161H124.886C119.157 136.261 113.525 137.651 108.408 140.227C101.673 143.776 97.391 147.9 96.381 151.345L96.339 151.615L97.156 152.597C101.641 152.285 106.122 152.111 110.606 151.992C112.157 151.941 113.709 151.916 115.261 151.891C115.321 151.161 115.431 150.436 115.59 149.72L116.049 149.335C116.493 149.318 116.936 149.302 117.38 149.288L117.681 149.654C117.275 151.984 117.275 154.367 117.681 156.697L117.38 157.062C116.936 157.048 116.493 157.032 116.049 157.015L115.59 156.63C115.43 155.915 115.321 155.189 115.261 154.459C113.709 154.435 112.157 154.41 110.606 154.359C106.12 154.241 101.639 154.065 97.156 153.753L96.3995 154.661C97.439 158.096 101.708 162.192 108.407 165.721C113.524 168.298 119.156 169.688 124.885 169.788H125.064C130.777 169.692 136.396 168.315 141.505 165.756C148.247 162.222 152.538 158.108 153.556 154.664L152.799 153.753C148.314 154.065 143.825 154.239 139.338 154.357C137.949 154.403 136.559 154.427 135.17 154.451C135.111 155.184 135 155.912 134.84 156.63L134.382 157.014C133.938 157.032 133.494 157.047 133.051 157.062L132.749 156.697C133.155 154.367 133.155 151.984 132.749 149.654L133.051 149.288L134.381 149.337L134.383 149.335V149.335ZM121.974 156.783L121.633 157.164C121.189 157.158 120.746 157.149 120.302 157.14L119.883 156.749C119.595 154.375 119.595 151.974 119.883 149.6L120.302 149.21C120.746 149.201 121.19 149.193 121.633 149.186L121.974 149.567C121.798 151.969 121.798 154.382 121.972 156.785L121.974 156.783ZM126.263 156.801L125.884 157.19H124.553L124.175 156.801C124.119 154.384 124.119 151.967 124.175 149.55L124.553 149.16H125.884L126.263 149.55C126.318 151.969 126.317 154.386 126.261 156.803L126.263 156.801V156.801ZM130.552 156.749L130.132 157.14C129.689 157.149 129.245 157.157 128.801 157.164L128.46 156.783C128.635 154.381 128.635 151.969 128.46 149.567L128.801 149.186C129.245 149.192 129.689 149.2 130.132 149.21L130.552 149.6C130.839 151.975 130.838 154.377 130.55 156.751L130.552 156.749ZM194.062 110.751C182.583 110.751 177.85 112.563 174.427 115.986C172.011 118.4 170.702 121.321 170.702 123.687C170.702 127.211 172.563 128.47 179.109 130.13C186.105 131.892 187.465 132.243 187.465 133.755C187.465 135.414 185.905 136.37 183.235 136.37C180.821 136.37 179.664 135.614 179.664 134.408C179.666 133.511 179.89 132.63 180.315 131.841H164.764C164.042 133.224 163.662 134.76 163.655 136.32C163.655 141.103 167.682 143.369 181.575 143.369C193.302 143.369 198.038 141.402 201.208 138.236C203.724 135.718 205.032 132.749 205.032 129.831C205.032 126.255 202.67 124.796 196.072 123.235C189.474 121.675 188.22 121.272 188.22 120.164C188.22 118.907 189.631 117.748 192.399 117.748C194.615 117.748 195.873 118.555 195.873 119.662C195.864 120.479 195.637 121.278 195.216 121.978H210.472C211.102 120.606 211.412 119.109 211.377 117.601C211.377 112.766 206.746 110.751 194.061 110.751L194.062 110.751ZM90.3855 111.556H71.255L60.879 131.337C59.469 133.953 58.411 135.363 56.2975 135.363C54.889 135.363 54.3345 134.558 54.3345 133.451C54.433 132.459 54.7415 131.499 55.239 130.635L59.292 122.886H42.9775L40.994 126.657C39.2825 129.777 38.5755 131.841 38.5755 134.708C38.5755 140.345 43.8105 143.367 56.397 143.367C65.4585 143.367 71.55 141.503 75.223 137.828C77.6895 135.361 79.251 132.745 81.7175 128.115L90.384 111.557L90.3855 111.556ZM96.384 154.606L96.3925 154.63L96.378 154.565L96.384 154.606ZM107.529 138.558C110.996 136.774 114.717 135.535 118.561 134.883L118.653 134.712H99.1195L101.285 130.786H120.305L124.332 123.185H105.261L107.374 119.411H126.253L130.434 111.559H93.534L77.0225 142.564H101.202C103.193 141.052 105.309 139.712 107.527 138.557L107.529 138.558Z" fill="white"/>
</g>
<defs>
<clipPath id="clip0_5_136">
<rect width="250" height="250" fill="white"/>
</clipPath>
</defs>
</svg>
