<svg width="250" height="250" viewBox="0 0 250 250" fill="none" xmlns="http://www.w3.org/2000/svg">
<g clip-path="url(#clip0_5_280)">
<path fill-rule="evenodd" clip-rule="evenodd" d="M144.598 54.4565L132.918 66.6988C152.051 58.7488 193.774 45.1 193.774 45.1L180.406 58.1769C216.894 47.3734 244.622 42.2546 244.622 42.2546C244.622 42.2546 236.587 60.9535 224.583 79.6787C226.905 79.4281 242.062 77.6619 242.062 77.6619C242.062 77.6619 228.413 100.271 212.652 116.567L221.473 118.762C221.473 118.762 207.729 138.568 189.59 154.735C163.505 177.981 150.083 174.41 150.083 174.41C130.719 188.435 115.199 181.327 115.199 181.327C115.199 181.327 121.904 164.405 114.977 162.608C108.732 160.986 99.2322 165.868 98.0459 167.826C96.8132 172.096 91.6217 182.94 86.2583 189.504C75.9742 202.086 64.5706 207.229 64.5706 207.229C64.5706 207.229 55.5879 199.564 55.5293 186.515C55.5293 186.515 49.3596 193.05 39.316 195.186C32.2855 196.682 22.6905 195.467 12.8611 187.261C6.26101 181.752 5 163.239 5 163.239C5 163.239 11.202 151.391 23.1634 141.007C20.5161 138.736 18.8933 135.879 18.3841 134.114C50.1781 120.237 50.2003 106.99 75.4771 90.8864C100.38 75.0207 116.029 67.7254 144.598 54.4565Z" fill="white"/>
<path fill-rule="evenodd" clip-rule="evenodd" d="M129.11 65.6944L119.121 76.1644C138.849 67.4324 180.509 53.25 180.509 53.25L168.418 65.0781C211.133 51.8536 238.224 47.3734 238.224 47.3734C238.224 47.3734 229.371 67.105 217.589 83.8659C223.294 83.3182 235.193 81.936 235.193 81.936C235.193 81.936 223.294 101.872 205.709 118.758C207.663 119.045 215.643 120.866 215.643 120.866C215.643 120.866 205.038 136.602 186.606 152.742C163.077 173.343 152.639 170.904 152.639 170.904C152.639 170.904 152.865 170.1 152.843 168.849C152.827 168.158 152.68 167.531 152.673 167.481C134.561 184.526 119.471 178.775 119.471 178.775C119.471 178.775 126.17 162.556 115.894 159.282C107.934 156.748 95.7401 163.263 94.7681 166.753C93.7112 170.548 88.655 181.081 83.6413 187.253C74.9436 197.961 65.3162 202.847 65.3162 202.847C65.3162 202.847 56.5639 196.114 59.5993 176.407C60.2621 172.112 59.4113 170.435 58.9425 169.714C57.5057 167.515 46.3081 169.914 43.5759 176.16C41.6481 180.572 52.7748 184.3 52.7748 184.3C52.7748 184.3 47.6399 189.964 38.6653 191.799C33.0211 192.953 24.2809 192.586 15.1042 184.64C9.6742 179.939 8.54858 164.033 8.54858 164.033C8.54858 164.033 15.2558 151.746 28.3206 141.135C25.742 139.447 23.7838 136.588 23.2887 135.464C49.6142 124.125 53.2235 108.092 82.9421 90.175C96.793 81.8248 111.381 73.6081 129.11 65.6944Z" fill="#004C54"/>
<path fill-rule="evenodd" clip-rule="evenodd" d="M228.621 54.3899C228.621 54.3899 223.048 70.7749 211.208 87.4085C218.359 86.9053 226.069 86.485 226.069 86.485C226.069 86.485 217.779 103.159 199.062 121.017C200.117 121.236 204.442 122.018 206.851 123.016C197.807 137.683 170.778 166.484 155.673 167.669C155.503 165.142 154.523 162.988 153.338 161.503C147.67 171.864 130.361 178.223 123.175 176.56C131.901 144.594 94.8814 156.774 92.0421 165.549C84.6721 188.334 65.963 199.054 65.963 199.054C65.963 199.054 59.9834 192.242 62.5478 176.9C64.4393 165.589 57.2835 165.941 57.2835 165.941C54.4301 165.809 43.6024 167.115 40.1871 174.671C37.4327 180.756 47.0742 185.028 47.0742 185.028C47.0742 185.028 33.1525 196.142 17.0464 182.366C13.0956 178.987 11.6265 164.72 11.6265 164.72C19.3724 151.88 29.5817 143.713 33.8113 140.678C29.3271 138.958 27.9307 136.63 27.9307 136.63C49.5558 126.714 58.0373 110.232 76.4472 97.9836C96.7345 84.4864 112.265 77.858 112.265 77.858L106.404 85.2341C106.404 85.2341 111.311 83.1365 113.451 82.0876C132.77 72.6058 165.504 62.2732 165.504 62.2732L155.297 72.1612C155.297 72.1612 172.219 66.3654 193.541 61.8104C204.896 59.3834 228.621 54.3899 228.621 54.3899ZM73.2118 128.994C72.8764 129.412 72.5005 129.889 72.0903 130.394C73.3028 130.408 74.3738 130.883 74.9295 131.811C75.9137 133.452 74.9356 135.84 72.743 137.15C70.5504 138.457 67.9758 138.188 66.9896 136.545C66.8381 136.295 66.7471 136.022 66.6865 135.741C66.2702 136.036 65.8398 136.309 65.3952 136.558C65.4881 136.877 65.6195 137.19 65.7933 137.481C67.1877 139.799 70.7424 140.234 73.7372 138.445C76.7321 136.661 78.0295 133.334 76.6372 131.012C75.9319 129.84 74.6709 129.157 73.2118 128.994Z" fill="black"/>
<path fill-rule="evenodd" clip-rule="evenodd" d="M152.944 69.9888C152.944 69.9888 148.017 73.5152 144.612 75.7745C139.993 78.8401 135.902 81.8027 135.902 81.8027C135.902 81.8027 136.082 81.7218 136.416 81.5804C175.2 69.425 207.236 73.2262 207.236 73.2262C186.27 75.247 169.315 79.2321 160.318 83.3425C160.318 83.3425 172.74 81.2085 179.056 81.2085C185.233 81.2085 190.285 81.8087 190.285 81.8087C150.768 87.9743 129.512 99.3962 124.331 102.472C122.175 103.389 121.045 103.961 121.045 103.961C121.045 103.961 127.49 101.942 135.658 99.9175C150.032 97.7128 171.067 98.899 191.363 104.923C191.363 104.923 177.291 104.177 171.142 104.315C152.779 104.723 133.853 112.107 133.853 112.107C145.807 109.094 158.91 111.313 158.91 111.313C153.815 111.606 141.288 114.953 135.001 117.541C125.944 121.272 116.789 126.585 110.118 131.491C107.421 133.092 105.978 134.147 105.978 134.147L105.985 134.143C106.162 134.048 109.555 132.248 115.162 130.085C124.984 126.781 141.617 123.832 160.094 130.038C131.618 124.366 109.122 137.703 109.122 137.703C125.43 132.374 135.773 137.398 135.773 137.398C116.005 134.995 101.265 145.399 96.1907 151.888C99.0502 146.114 103.27 142.392 103.27 142.392C102.253 142.893 101.249 143.469 100.255 144.105C96.1826 146.45 79.5066 154.919 65.0252 145.922C64.1259 145.364 63.3701 144.843 62.7153 144.354C67.531 146.876 75.477 147.09 78.775 143.845C67.2279 146.823 65.1767 141.551 64.9302 138.271C64.1845 138.413 62.9861 138.322 62.0909 138.114C62.0909 138.114 63.9804 137.311 64.9181 136.826C65.0797 136.743 65.2353 136.648 65.395 136.558C65.4879 136.877 65.6193 137.19 65.7931 137.481C67.1875 139.799 70.7421 140.233 73.737 138.445C76.7319 136.661 78.0293 133.334 76.637 131.012C75.9317 129.84 74.6707 129.157 73.2116 128.994C74.2503 127.787 76.249 125.12 79.3348 122.901C77.0634 125.625 76.3379 127.468 76.251 127.7C77.6433 127.918 78.8639 128.515 79.452 129.62C80.61 131.786 79.8218 133.488 79.4015 134.359C79.3995 134.357 79.3974 134.357 79.3954 134.357C78.6235 135.99 77.1887 137.6 75.2567 138.819C72.6417 140.47 69.7762 140.987 67.6684 140.393C67.6684 140.393 68.0463 141.082 68.6587 141.488C69.6772 142.169 72.6862 143.162 77.0371 141.195C78.6497 140.466 79.8602 139.637 80.7837 138.797C84.0555 136.341 84.4112 133.201 85.5792 130.444C88.3336 123.935 94.0223 118.299 100.651 115.959C94.3497 116.727 86.6442 122.408 86.8685 119.871C86.9736 118.691 90.3525 107.445 111.05 98.8404C111.428 98.703 111.802 98.5656 112.19 98.4302C112.19 98.4302 102.14 99.9862 86.9958 109.015C81.0404 112.568 75.6892 117.479 72.9812 121.209C73.1005 118.758 74.4241 116.381 75.2284 114.508C69.5923 118.138 70.9968 123.19 66.751 128.114C64.8918 130.097 62.9336 131.994 60.8562 133.344C48.8543 141.161 37.0061 136.297 37.0061 136.297C53.09 127.603 52.6091 125.645 63.2064 114.407C75.087 101.813 82.3863 95.3262 102.381 85.521C101.073 87.2064 95.6693 91.9473 94.5033 93.2952C94.5033 93.2952 98.5147 91.1491 106.111 87.5439C133.053 74.7519 152.944 69.9888 152.944 69.9888ZM69.0931 133.716C69.0366 134.644 69.2487 135.822 70.3905 136.685C70.3905 136.685 69.0891 136.792 68.2424 136.168C67.7614 135.812 67.5553 135.392 67.4704 135.149C68.0403 134.696 68.5798 134.213 69.0931 133.716Z" fill="white"/>
<path fill-rule="evenodd" clip-rule="evenodd" d="M54.5774 142.184C54.5774 142.184 69.2265 160.691 92.5693 151.492C91.4963 153.387 91.0234 155.481 90.3242 157.95C84.9325 183.029 66.7651 193.895 66.7651 193.895C63.457 186.386 65.3081 179.129 65.8719 176.411C67.1531 170.219 64.1804 165.609 64.1804 165.609C76.1317 166.177 64.4149 181.065 68.8547 187.548C76.8855 182.871 81.7295 166.422 82.9258 160.547C83.0087 160.327 81.7921 159.462 80.808 159.1C69.2689 155.39 49.9213 158.567 42.9272 162.798C21.0212 176.055 41.5146 185.149 41.5146 185.149C41.5146 185.149 28.0254 189.657 20.3038 177.462C18.4102 174.228 17.9333 168.331 17.519 163.724C25.5499 150.13 38.1741 144.726 41.6803 142.309C44.7217 143.133 50.2325 143.513 54.5774 142.184ZM100.814 154.484C100.814 154.484 110.953 144.594 133.479 148.574C142.119 150.099 146.896 154.658 146.896 154.658C143.044 161.357 135.427 164.633 135.427 164.633C135.427 164.633 135.912 153.973 118.992 151.253C107.897 149.469 101.223 154.186 100.833 154.471L100.814 154.484ZM115.162 130.085C129.949 124.374 160.136 116.121 187.491 129.832C185.864 133.322 181.747 138.508 175.18 144.972C168.925 151.126 164.77 152.898 163.687 153.486C163.515 153.579 163.424 153.624 163.424 153.624C161.191 145.174 142.608 137.131 115.866 143.766C104.823 146.504 99.8985 149.911 95.4045 154.095L95.1055 154.375C95.4329 153.51 95.8007 152.682 96.1907 151.888C101.265 145.399 116.005 134.995 135.773 137.398C135.773 137.398 125.43 132.374 109.122 137.703C109.122 137.703 131.618 124.366 160.094 130.038C141.617 123.832 124.984 126.781 115.162 130.085ZM49.0685 145.924C46.1605 147.432 43.9861 148.604 43.9861 148.604C42.2684 151.178 45.8837 150.665 47.5569 150.168C48.9129 149.764 55.0199 147.989 55.0199 147.989C51.6188 147.664 50.3194 146.949 49.0685 145.924ZM111.05 98.8404C90.3525 107.445 86.9736 118.691 86.8685 119.871C86.6442 122.408 94.3497 116.727 100.651 115.959C94.0223 118.299 88.3336 123.935 85.5792 130.444C84.4111 133.201 84.0555 136.341 80.7837 138.797C83.5417 136.289 83.6455 133.699 83.6492 133.458L83.6493 133.439C83.6493 133.439 82.1276 134.357 80.8282 134.498C80.3998 134.545 79.8905 134.472 79.4015 134.359C80.0623 133.066 80.0502 132.146 80.0623 131.893C82.073 127.306 87.0928 123.056 87.0928 123.056C87.0928 123.056 83.3805 125.265 82.8248 123.127C81.3496 117.434 91.3225 106.19 110.29 99.1132C110.331 99.0971 110.838 98.9152 111.05 98.8404ZM151.146 96.7145C174.832 93.0709 207.546 96.5831 207.546 96.5831C207.546 96.5831 206.032 101.395 198.921 109.193C192.215 116.551 189.697 118.489 189.697 118.489C151.162 110.278 120.797 125.16 110.118 131.491C116.789 126.585 125.944 121.272 135.001 117.541C141.288 114.953 153.815 111.606 158.91 111.313C158.91 111.313 145.807 109.094 133.853 112.107C133.853 112.107 152.778 104.723 171.142 104.315C177.291 104.177 191.363 104.923 191.363 104.923C171.067 98.899 150.032 97.7128 135.658 99.9175C140.54 98.7111 146.037 97.4986 151.146 96.7145ZM211.87 65.8359C211.87 65.8359 207.849 78.3248 197.607 88.2189C190.423 88.9342 172.583 89.69 157.228 92.7314C140.95 95.9567 129.581 100.247 124.331 102.472C129.512 99.3962 150.768 87.9743 190.285 81.8087C190.285 81.8087 185.233 81.2085 179.056 81.2085C172.74 81.2085 160.318 83.3425 160.318 83.3425C169.315 79.2321 186.27 75.247 207.236 73.2262C207.236 73.2262 175.2 69.425 136.416 81.5804C139.13 80.4305 152.736 74.9399 173.789 71.0315C194.034 67.2748 211.87 65.8359 211.87 65.8359Z" fill="#A5ACAF"/>
</g>
<defs>
<clipPath id="clip0_5_280">
<rect width="250" height="250" fill="white"/>
</clipPath>
</defs>
</svg>
