<svg width="250" height="250" viewBox="0 0 250 250" fill="none" xmlns="http://www.w3.org/2000/svg">
<g clip-path="url(#clip0_5_89)">
<path d="M30 125.092C30 177.425 72.575 220 124.908 220C177.239 220 219.816 177.425 219.816 125.092C219.816 72.761 177.239 30.186 124.908 30.186C72.5745 30.186 30 72.761 30 125.092Z" fill="black"/>
<path d="M124.908 217.919C176.172 217.919 217.733 176.358 217.733 125.092C217.733 73.8285 176.172 32.2675 124.908 32.2675C73.642 32.2675 32.0815 73.8285 32.0815 125.092C32.0815 176.358 73.6425 217.919 124.908 217.919Z" fill="#A5ACAF"/>
<path d="M124.908 202.755C167.673 202.755 202.343 168.086 202.343 125.321C202.343 82.5555 167.673 47.884 124.908 47.884C82.1412 47.884 47.4717 82.556 47.4717 125.321C47.4717 168.086 82.1412 202.755 124.908 202.755Z" fill="#FFFFFE"/>
<path d="M125.31 125.425C126.204 93.708 156.164 86.2615 163.692 86.9445C145.136 85.937 126.823 78.0955 125.408 48.7525C123.173 76.04 112.223 83.798 86.989 87.0365C105.014 87.95 123.258 95.0825 125.309 125.425" fill="#FFB612"/>
<path d="M163.799 164.682C164.693 132.965 194.126 125.138 201.656 125.821C183.038 125.134 165.105 116.285 163.692 86.944C161.457 114.233 150.544 122.186 125.31 125.424C143.335 126.338 161.745 134.339 163.799 164.682" fill="#C60C30"/>
<path d="M125.775 202.433C126.668 170.711 156.269 163.999 163.799 164.683C145.243 163.673 126.725 154.771 125.31 125.425C123.075 152.715 112.45 160.913 87.2175 164.149C105.24 165.067 123.721 172.092 125.775 202.433" fill="#00539B"/>
<path d="M103.735 118.645L106.758 118.613L106.771 120.071C107.226 119.27 107.499 118.792 108.528 118.561H109.28V122.099C106.677 121.915 106.85 122.827 106.816 123.527V130.258H103.735V118.644L103.735 118.645ZM117.355 122.432L114.657 122.419C114.657 122.139 114.663 121.894 114.612 121.68C114.537 121.381 114.138 121.097 113.732 121.093C113.254 121.093 112.885 121.247 112.725 121.71C112.533 122.27 112.622 123.094 114.078 123.258L114.819 123.442C115.645 123.719 116.444 123.95 117.065 125.135C117.17 125.338 117.186 125.404 117.353 125.984C117.705 127.188 117.472 128.106 117.079 128.824C116.84 129.253 116.253 129.787 116.044 129.917C114.902 130.621 113.36 130.696 111.96 130.271C111.272 130.062 110.523 129.537 110.152 128.815C109.767 128.07 109.759 127.46 109.71 126.452L112.319 126.435C112.265 126.843 112.517 127.314 112.921 127.468C113.329 127.628 114.347 127.635 114.526 127.178C114.652 126.855 114.734 126.68 114.454 126.26C113.944 125.489 112.853 125.363 111.895 125.122C110.18 124.688 109.764 123.027 109.839 121.768C109.875 121.172 109.981 120.485 110.357 120.021C111.149 119.041 111.495 119.09 111.969 118.862C113.547 118.096 115.509 118.64 116.555 119.701C117.142 120.293 117.334 121.381 117.355 122.432H117.355ZM67.3145 118.713H65.1755L64.012 118.721C63.984 118.211 63.9075 117.549 63.57 117.24C63.0705 116.785 61.939 117.037 61.64 117.669C61.098 118.804 61.7915 119.872 63.538 120.429L64.0185 120.668C65.6685 121.473 66.1255 121.868 66.7425 122.739C66.928 123.002 67.291 123.687 67.4385 124.524C67.7525 126.313 67.302 127.423 66.8985 128.403C66.8985 128.403 66.745 128.866 66.32 129.261C64.5865 130.879 62.185 130.949 60.4045 130.104C59.5845 129.711 58.953 129.331 58.5025 128.32C58.0585 127.327 57.958 126.426 58.086 124.962L61.41 124.943C61.348 125.408 61.4845 126.584 61.7965 126.911C62.106 127.236 63.3655 127.552 63.85 126.693C64.021 126.392 64.0635 125.084 63.534 124.58C62.537 123.621 61.6765 123.525 60.5025 122.791C58.8265 121.745 57.9365 119.868 58.043 118.088C58.094 117.244 58.325 116.657 58.7345 115.919C59.1445 115.189 59.725 114.523 60.564 114.155C62.797 113.175 65.5255 113.735 66.7275 115.857C67.0435 116.412 67.3595 117.24 67.3145 118.713V118.713ZM69.0115 118.653V117.581L72.124 115.873L72.137 118.691L73.322 118.666L73.335 121.413L72.1375 121.394V125.967C72.1375 126.593 72.0245 126.843 73.2795 126.823L73.2775 130.303C71.796 130.267 68.991 130.771 68.978 127.498L68.9545 121.335L67.793 121.373L67.78 118.692L69.012 118.653L69.0115 118.653ZM91.0045 113.992L94.1405 114.001V130.358H91.0045V113.992ZM97.633 126.972C97.6375 128.014 99.913 128.228 99.9685 126.915V126.584L102.53 126.571L102.535 127.939C102.561 128.849 102.183 129.837 100.645 130.367C99.0145 130.875 97.996 130.57 97.042 130.367C95.789 129.908 95.1805 128.911 95.123 127.506V121.84C95.0655 120.777 95.6565 119.851 96.6835 119.176C98.434 118.411 99.3905 118.616 100.705 119.071C101.958 119.754 102.525 120.6 102.537 121.78V125.375H97.6225L97.633 126.972ZM97.744 122.948L100.062 122.957C100.54 120.927 97.3555 120.664 97.744 122.948ZM85.155 126.972C85.1615 128.014 87.437 128.228 87.495 126.915V126.584L90.0545 126.571L90.061 127.939C90.0825 128.849 89.7065 129.837 88.1695 130.367C86.5385 130.875 85.52 130.57 84.566 130.367C83.313 129.908 82.7045 128.911 82.647 127.506V121.84C82.5895 120.777 83.183 119.851 84.2075 119.176C85.958 118.411 86.9165 118.616 88.2275 119.071C89.483 119.754 90.0465 120.6 90.0615 121.78V125.375H85.16L85.1555 126.972H85.155ZM85.268 122.948L87.5865 122.957C88.0645 120.927 84.8795 120.664 85.268 122.948ZM76.658 126.972C76.6645 128.014 78.94 128.228 78.998 126.915V126.584L81.5575 126.571L81.564 127.939C81.5875 128.849 81.2095 129.837 79.6725 130.367C78.0415 130.875 77.021 130.57 76.069 130.367C74.816 129.908 74.2075 128.911 74.15 127.506V121.84C74.0925 120.777 74.686 119.851 75.7105 119.176C77.459 118.411 78.4195 118.616 79.7305 119.071C80.986 119.754 81.5495 120.6 81.5645 121.78V125.375H76.663L76.6585 126.972H76.658ZM76.771 122.948L79.0895 122.957C79.5675 120.927 76.3825 120.664 76.771 122.948Z" fill="black"/>
</g>
<defs>
<clipPath id="clip0_5_89">
<rect width="250" height="250" fill="white"/>
</clipPath>
</defs>
</svg>
