<svg width="250" height="250" viewBox="0 0 250 250" fill="none" xmlns="http://www.w3.org/2000/svg">
<g clip-path="url(#clip0_5_356)">
<path d="M206.138 158.697C195.2 156.512 180.841 155.932 174.776 155.932L30.449 155.964C21.4695 155.964 12.184 155.964 7.41897 148.627C2.58497 141.184 5.21147 133.861 13.3635 119.208C13.972 118.119 38.6905 71.6704 38.6905 71.6704C38.6905 71.6704 41.216 74.8044 43.762 76.8009C46.276 78.7699 48.859 79.8199 55.746 79.8199C67.9785 79.8199 146.891 79.6474 147.695 79.6424C163.714 79.6424 179.893 81.3004 190.377 92.7919C195.82 93.3724 213.389 95.6934 227.868 102.613C236.341 106.657 241.93 112.702 244.043 120.085C244.681 122.316 244.999 124.663 244.999 127.095C244.999 134.102 242.375 141.863 237.227 149.928C226.354 166.973 216.326 172.931 215.877 173.251C209.698 177.597 203.714 177.799 203.714 177.799C203.714 177.799 209.103 171.674 210.921 165.548C212.742 159.423 206.138 158.697 206.138 158.697Z" fill="#FFFFFE"/>
<path d="M226.083 106.349C242.583 114.237 245.477 129.306 233.74 147.706C223.212 164.197 212.583 171.193 212.583 171.193C212.583 171.193 222.825 157.809 206.947 154.633C194.989 152.247 179.673 151.792 174.777 151.792C169.143 151.792 118.804 151.907 112.523 151.907C106.242 151.907 104.507 151.05 103.129 149.155C101.754 147.266 101.514 144.683 104.09 140.812C106.676 136.943 110.602 130.882 110.602 130.882L93.6316 117.235C107.871 103.034 119.245 98.2711 129.173 98.2711C139.24 98.2711 143.678 99.7496 160.249 106.7C176.823 113.654 182.3 106.26 182.3 106.26C175.341 109.217 169.127 106.7 157.433 101.527C145.744 96.3481 138.79 93.9851 128.288 93.9851C117.779 93.9851 108.903 96.9396 97.7836 105.115C87.3136 112.811 86.5211 114.393 70.7351 114.393H20.5786L39.8941 78.2471C39.8941 78.2471 41.3386 83.9581 55.7466 83.9581C68.1246 83.9581 147.696 83.7831 147.696 83.7831C163.496 83.7831 179.127 85.4571 188.378 96.7576C188.378 96.7576 209.579 98.4616 226.083 106.349ZM196.924 109.313C189.417 107.517 195.834 103.174 195.834 103.174C185.032 105.355 181.014 114.161 180.085 116.625C179.912 116.959 179.735 117.302 179.553 117.663C173.576 129.68 168.193 129.037 157.988 129.037H140.511C126.355 129.037 119.762 136.049 112.977 147.992H120.972C128.279 137.118 133.795 134.187 148.246 133.371C181.272 133.39 207.599 142.859 221.511 150.097C241.299 116.887 211.933 111.39 196.924 109.313H196.924ZM135.457 147.863C139.15 142.283 146.66 140.388 158.768 141.085C188.648 142.815 205.828 148.629 219.176 153.599C202.717 143.971 173.385 137.03 152.998 137.094C143.035 137.124 134.335 138.865 129.224 147.862H135.457V147.863ZM167.526 114.918C163.632 120.348 158.503 122.202 143.957 121.21C127.03 120.061 131.399 112.933 133.369 109.426L133.312 109.419C133.851 108.427 134.773 106.741 135.708 105.044C122.741 104.245 113.268 114.221 113.268 114.221C122.936 123.778 129.383 124.777 138.13 124.777H154.48C169.683 124.777 173.356 117.94 174.75 114.9C172.125 115.227 169.764 115.2 167.526 114.919L167.526 114.918Z" fill="#002244"/>
<path d="M160.145 113.302C159.836 113.177 159.516 113.046 159.195 112.915C157.704 114.485 155.133 115.395 152.642 115.075C149.363 114.656 147.474 112.274 148.405 109.762C148.538 109.394 148.734 109.048 148.967 108.717C147.287 108.058 145.598 107.425 143.953 106.851C140.584 112.297 138.609 115.906 150.298 116.892C157.579 117.511 159.554 116.265 161.084 113.654C160.77 113.534 160.466 113.43 160.144 113.301" fill="#69BE28"/>
<path d="M101.44 133.992C95.4101 144.452 93.0186 146.854 97.2536 151.819H30.4496C20.5971 151.819 14.1916 151.448 10.8966 146.37C7.69157 141.44 8.35057 136.737 16.9866 121.219H73.7861C83.5651 121.219 86.0786 121.776 91.3851 125.891C96.6916 130.011 101.441 133.993 101.441 133.993" fill="#A5ACAF"/>
</g>
<defs>
<clipPath id="clip0_5_356">
<rect width="250" height="250" fill="white"/>
</clipPath>
</defs>
</svg>
