<svg width="250" height="250" viewBox="0 0 250 250" fill="none" xmlns="http://www.w3.org/2000/svg">
<g clip-path="url(#clip0_5_347)">
<path d="M125.512 196.164C166.381 196.164 206.648 182.309 228.096 160.859C238.989 149.968 244.746 137.39 244.746 124.479C244.746 111.662 239.064 99.2091 228.32 88.4636C207.037 67.1841 166.682 53.4341 125.512 53.4341C96.6825 53.4341 67.2635 60.2191 44.7975 72.0501C19.1325 85.5636 4.99951 104.184 4.99951 124.478C4.99951 137.205 10.701 149.632 21.4905 160.418C32.2735 171.197 47.9405 180.269 66.8025 186.647C85.2105 192.874 105.514 196.163 125.512 196.163" fill="#FFFFFE"/>
<path d="M46.5771 75.4299C22.2291 88.2509 8.81909 105.671 8.81909 124.478C8.81909 136.17 14.1356 147.661 24.1936 157.72C34.5616 168.085 49.7186 176.838 68.0256 183.029C86.0461 189.123 105.926 192.345 125.513 192.345C165.418 192.345 204.626 178.924 225.397 158.157C235.556 148.001 240.926 136.355 240.926 124.478C240.926 112.696 235.634 101.177 225.619 91.1634C205.018 70.5639 165.722 57.2544 125.513 57.2544C97.2861 57.2544 68.5146 63.8779 46.5781 75.4294" fill="black"/>
<path d="M125.441 185.576C160.669 185.576 194.054 174.08 212.56 155.578C221.895 146.242 226.829 135.587 226.829 124.76C226.829 113.936 221.895 103.281 212.56 93.947C194.051 75.4425 160.669 63.949 125.441 63.949C99.574 63.949 73.823 70.3335 54.7935 81.468C34.97 93.067 24.051 108.441 24.051 124.76C24.051 135.587 28.9865 146.241 38.324 155.577C56.8285 174.079 90.211 185.575 125.441 185.575" fill="#B3995D"/>
<path d="M125.624 183.416C177.262 183.416 219.125 156.667 219.125 124.436C219.125 92.2049 177.262 66.0769 125.624 66.0769C73.9845 66.0769 32.1235 92.2049 32.1235 124.436C32.1235 156.667 73.9845 183.416 125.624 183.416Z" fill="#AA0000"/>
<path d="M198.758 117.104H198.5V114.975H161.403C160.607 110.804 158.208 106.932 154.781 103.909C151.405 100.031 146.504 97.1139 140.921 96.0059L138.611 95.5284C133.256 94.4034 129.026 93.5129 112.012 93.6009C112.012 93.5989 108.74 93.4889 105.562 93.0674C104.758 92.8629 104.054 92.6199 103.45 92.3574C103.684 90.9419 106.272 88.9909 109.196 88.6144C109.497 88.5584 127.912 85.1704 146.864 97.4449L147.329 97.7439H159.786V78.6844H157.656V76.5549H140.562L137.681 78.7554C132.759 77.5229 108.656 72.2479 87.8385 81.3604C79.0905 84.9744 73.6625 91.7959 74.05 98.7244C74.246 102.218 75.9175 105.264 78.809 107.626C80.9345 110.28 84.278 112.35 88.6325 113.606C94.7945 115.38 100.013 116.112 105.074 116.402V125.091H107.202V127.22H113.703C116.395 127.22 117.088 128.711 117.253 129.266C108.957 128.724 96.3435 126.364 87.0575 117.773L86.709 117.396H86.6425C86.1305 116.906 85.627 116.398 85.1345 115.869L84.5775 115.269H75.2315V142.397H77.3615V144.523H84.9865C86.103 144.602 89.6445 144.209 92.0905 137.065C96.0555 138.448 105.827 141.389 117.86 141.716V158.594C117.443 164.262 104.956 166.035 100.608 166.207L98.8095 166.278V174.669H100.937V176.795H155.759V168.767L154.362 168.397C154.111 168.332 153.87 168.266 153.629 168.199V166.362L151.918 166.215C148.835 165.942 146.464 165.409 144.627 164.752C141.178 162.821 140.588 161.254 140.513 161.001V152.002H156.58C158.278 152.258 159.732 153.003 160.965 153.968C163.278 156.816 164.334 160.073 164.349 160.127L164.76 161.446L166.139 161.45H166.184C166.376 161.934 166.475 162.24 166.481 162.257L166.89 163.578L168.271 163.58H175.524V130.936H173.394V128.806H164.797L164.489 130.297C162.239 141.146 149.691 140.986 138.536 139.36C140.724 138.767 142.921 138.044 145.111 137.175C151.084 134.802 155.565 131.575 158.36 127.794H182.441C184.119 127.848 185.546 128.269 186.746 129.054C189.27 132.754 189.018 138.21 189.014 138.272L188.908 140.247H191.148L191.146 140.397L191.038 142.372L193.015 142.377H200.634V117.105H198.76" fill="black"/>
<path d="M160.351 123.788C162.104 121.667 162.186 116.849 162.186 116.849H196.626V138.373H190.884C190.884 138.373 191.703 124.154 180.307 123.788H160.35H160.351ZM119.733 142.17C127.483 142.335 134.056 140.692 134.056 140.692C136.029 140.255 162.711 148.085 166.321 130.68H171.517V159.577H166.139C166.139 159.577 162.948 149.182 154.654 147.997H136.509V159.031C136.509 159.031 136.578 166.766 151.754 168.081V172.796H100.681V168.081C100.681 168.081 119.145 167.362 119.734 158.7V142.17L119.733 142.17ZM135.667 113.738C133.197 112.987 129.623 112.826 125.512 112.669C110.8 112.107 101.542 113.86 87.0195 109.674C70.537 104.924 73.4955 89.3159 88.59 83.0774C111.047 73.2464 138.093 80.7994 138.093 80.7994L141.196 78.4289H155.783V93.7429H145.753C125.88 80.8704 106.824 84.6264 106.824 84.6264C100.624 85.4289 94.606 92.2654 105.181 94.9089C108.556 95.3649 112.02 95.4749 112.02 95.4749C131.209 95.3739 133.868 96.5184 140.557 97.8434C157.941 101.289 167.558 123.27 142.289 133.305C116.203 143.663 88.7715 132.501 88.7715 132.501C86.493 141.071 82.939 140.525 82.939 140.525H77.104V117.144H83.7565C99.3505 134.002 126.061 131.118 126.061 131.118C126.061 131.118 133.993 130.916 139.189 126.013C143.246 121.061 142.603 115.769 135.667 113.739V113.738ZM113.875 123.22H106.947V117.012C112.317 117.012 123.273 117.059 131.024 117.012C138.821 117.012 139.865 121.521 136.577 124.571C133.479 127.445 126.99 129.49 119.307 128.092C119.307 128.092 118.673 123.22 113.875 123.22V123.22Z" fill="#FFFFFE"/>
</g>
<defs>
<clipPath id="clip0_5_347">
<rect width="250" height="250" fill="white"/>
</clipPath>
</defs>
</svg>
