<svg width="250" height="250" viewBox="0 0 250 250" fill="none" xmlns="http://www.w3.org/2000/svg">
<g clip-path="url(#clip0_5_312)">
<path fill-rule="evenodd" clip-rule="evenodd" d="M183.218 169.441C178.343 176.816 173.707 183.615 169.933 189.07C174.3 192.68 174.039 197.227 174.039 198.09C173.955 202.926 171.38 206.535 169.022 208.645C166.089 211.145 162.081 212.357 157.852 212.388C157.728 212.388 154.702 212.295 153.662 212.056C153.215 212.711 152.353 213.507 150.95 214.078C150.796 214.52 150.583 214.963 150.305 215.383C149.15 217.117 147.234 218.082 145.283 218.082C145.283 218.082 143.306 218.024 141.939 217.082C140.187 215.927 139.223 214.007 139.223 212.052V211.999C139.227 211.065 139.453 210.119 139.904 209.26C139.701 208.778 138.988 205.898 138.988 205.898L140.851 204.257C141.001 204.168 141.461 203.474 141.979 201.7C142.527 199.97 143.182 197.4 144.553 194.405C146.301 190.6 148.725 186.663 150.495 183.938C150.322 183.067 149.406 182.664 148.747 182.505C148.009 182.306 147.097 181.877 146.372 181.032C145.611 180.147 145.027 178.899 145.354 177.289C145.677 175.701 146.673 174.555 147.836 174.02V174.015C149.154 173.33 150.782 173.657 150.782 173.657C154.662 174.015 157.529 177.616 157.529 177.616C161.391 172.228 170.376 158.864 170.566 158.572C158.79 160.823 146.624 161.129 136.52 159.452C118.147 156.404 104.013 146.623 94.8823 142.164C85.7514 137.709 68.3568 133.143 50.4136 137.709C32.4748 142.274 20.6277 158.802 20.6277 158.802C25.985 121.057 49.3651 114.696 51.608 114.059C55.0144 110.869 59.4825 101.137 48.9006 94.5715C45.2863 92.3286 42.2515 89.4885 42.2515 89.4885C44.4679 89.7495 49.6659 89.0638 52.5503 87.9225C56.0142 86.5555 59.1994 86.0998 59.1994 86.0998C56.4654 83.4942 52.2893 82.1891 52.2893 82.1891C56.461 81.9281 62.9818 80.4948 67.0208 78.6677C71.0598 76.8451 73.2761 73.5847 72.6214 72.1514C71.9711 70.7136 68.3214 71.5011 68.3214 71.5011C69.6264 69.5457 72.7541 68.7627 72.7541 68.7627C63.7604 68.2407 57.2086 73.1379 57.2086 73.1379C58.2084 70.9923 61.4954 67.1347 61.4954 67.1347C60.2478 67.5461 56.7928 68.6255 56.576 68.6919C70.6572 57.818 86.3752 48.2581 108.397 48.1165C130.415 47.9705 151.866 57.8402 166.16 62.4144C180.462 66.9887 188.049 69.298 203.493 67.0153C210.885 65.9181 217.358 62.8878 222.099 60.0477C222.099 60.0477 225.417 51.6113 225.67 39.4988C225.67 39.4988 229.647 46.6301 229.664 57.734C229.704 95.8412 211.239 123.672 205.337 133.803C199.697 143.769 192.283 155.705 183.218 169.441ZM223.825 29.5009C223.825 29.5009 224.325 38.6627 222.595 47.0503C220.923 55.1549 220.003 58.2427 220.003 58.2427C216.463 60.3175 210.735 62.8701 202.36 64.2636C186.731 66.8693 172.548 62.671 157.064 56.5926C141.576 50.5142 120.855 43.9669 101.629 46.1744C82.9865 48.3156 69.6486 55.8671 62.5571 60.7909C55.4656 65.7102 54.1606 67.0108 48.0822 68.7494C48.0822 68.7494 52.86 70.6296 55.3196 70.6296C55.3196 70.6296 54.1606 75.4118 54.5941 76.9999C54.5941 76.9999 64.7248 72.3681 65.8838 74.5403C67.0429 76.7124 62.2651 78.1634 58.9384 79.0261C55.6116 79.8976 46.9231 79.7472 46.9231 79.7472C46.9231 79.7472 50.9975 82.9014 52.4353 85.0912C52.4353 85.0912 44.7555 88.4356 36.213 87.2766C36.213 87.2766 35.9298 90.4396 42.9505 95.62C41.4552 96.1553 39.5618 97.0224 38.3895 98.2743C38.3895 98.2743 45.7464 96.7569 50.3693 101.906C51.5859 103.433 51.9841 104.8 51.8469 106.525C51.5948 109.653 50.3959 110.847 47.4496 112.793C45.7641 113.479 43.9724 114.337 42.2427 115.395C34.1072 120.394 28.1571 128.003 23.981 136.696C22.1716 140.46 20.725 144.836 19.7031 148.804C18.6812 152.794 18.3051 156.338 18.0663 158.55C17.8274 160.757 17.5 167.716 17.5 167.716C17.5 167.716 21.1497 162.602 22.8617 160.151C24.5649 157.709 35.3592 144.137 51.0816 140.204C56.1115 138.925 61.1193 138.39 65.906 138.39C77.4124 138.381 87.6891 141.504 93.7719 144.482C102.602 148.755 117.108 158.841 136.126 161.996C140.603 162.734 145.429 163.102 150.433 163.102C155.233 163.102 160.201 162.752 165.164 162.075C162.36 166.26 159.67 170.171 157.113 173.794C154.52 171.326 151.003 171.069 151.003 171.069C146.739 170.666 144.603 173.263 144.603 173.263C143.74 174.197 143.094 175.409 142.841 176.838C142.541 178.161 142.899 179.7 143.147 180.483C143.961 183.067 146.168 184.243 147.026 184.619C140.793 192.923 138.984 202.483 138.984 202.487L136.139 204.996L137.166 209.154C135.582 214.255 138.068 218.082 141.293 219.665C144.567 221.276 147.624 220.342 147.624 220.342C149.548 219.802 151.291 218.59 152.477 216.812C152.658 216.542 152.817 216.268 152.959 215.993C153.622 215.635 154.193 215.233 154.68 214.799C155.578 214.901 157.878 214.972 157.878 214.972C162.594 214.932 167.204 213.596 170.721 210.61C173.49 208.132 176.538 203.907 176.644 198.134C176.644 197.05 176.843 192.68 173.233 188.871C196.012 155.426 210.801 133.895 220.241 111.988C245.254 53.9206 223.918 29.7088 223.825 29.5009Z" fill="#B1BABF"/>
<path fill-rule="evenodd" clip-rule="evenodd" d="M148.743 199.444C148.739 199.453 148.734 199.466 148.73 199.475C148.725 199.479 148.725 199.484 148.725 199.488C148.73 199.479 148.734 199.47 148.739 199.461C148.739 199.453 148.743 199.448 148.743 199.444ZM194.238 147.092C184.214 151.763 161.082 159.509 138.046 155.209C130.03 153.714 119.479 151.21 105.526 142.752C96.3732 137.209 86.4902 131.909 63.4507 132.011C44.3662 132.104 32.1076 140.752 28.2058 143.968C38.562 110.179 69.1752 115.12 69.1752 115.12C63.5879 112.44 56.8813 113.466 56.8813 113.466C66.4722 98.376 51.0197 91.3111 51.0197 91.3111C52.3203 91.3111 58.1863 89.6168 61.1813 88.5728C64.1807 87.5331 69.684 86.812 69.684 86.812C67.764 85.0469 61.8316 83.6224 61.8316 83.6224C67.4366 83.6224 72.5108 80.9062 76.0411 77.2299C77.2709 75.9515 80.6375 69.5501 76.8197 67.0683C73.3071 64.7856 66.3395 67.3205 66.3351 67.3249C66.3439 67.3161 87.1936 44.8517 130.22 54.4515C150.632 59.008 173.64 70.9613 194.884 71.0896C202.024 71.1339 217.777 68.8158 227.178 59.3531C226.683 77.3317 223.334 102.512 194.238 147.092ZM167.155 186.65C167.129 186.628 167.089 186.601 167.067 186.584C166.522 186.088 165.82 185.491 165.04 184.841C166.31 183.031 180.856 161.403 185.12 154.696C186.612 154.17 188.062 153.595 189.496 152.993C186.612 157.554 170.876 181.266 167.155 186.65ZM166.394 205.584C164.421 207.305 161.068 208.402 157.564 208.336C154.441 208.274 152.247 207.769 150.26 206.69C150.251 206.712 150.247 206.73 150.243 206.756C150.088 206.889 149.774 207.61 147.478 207.951C145.938 208.203 145.045 207.893 144.952 207.862C147.659 210.601 150.11 208.875 150.11 208.875C150.225 209.353 150.393 209.694 150.393 209.694C150.393 209.694 149.579 210.889 147.102 210.477C146.801 210.428 146.544 210.344 146.292 210.251C146.341 210.278 146.385 210.296 146.434 210.326C147.385 210.95 147.641 212.229 147.018 213.175C146.385 214.127 145.111 214.383 144.16 213.759C143.213 213.131 142.952 211.853 143.58 210.906C144.093 210.127 145.031 209.822 145.876 210.074C144.018 209.181 143.54 207.314 143.54 207.314C145.916 205.208 145.841 201.395 148.265 196.095C148.376 195.852 148.5 195.604 148.619 195.356C148.619 195.365 148.615 195.374 148.61 195.383C148.084 196.701 147.579 198.966 147.787 200.616C147.832 200.974 147.903 201.302 147.986 201.62V201.625C148.022 201.771 148.836 205.066 151.061 204.531C151.039 204.58 150.716 205.305 150.712 205.314C151.685 205.92 153.914 206.978 157.71 207.026C163.041 207.097 165.956 203.589 166.757 200.979C167.386 198.948 166.412 196.692 164.403 194.715C164.992 194.033 165.35 193.083 164.956 191.773C165.138 192.379 164.001 193.458 162.802 193.352C162.691 193.343 162.585 193.326 162.475 193.295C160.665 192.79 158.604 190.587 156.856 189.282C155.118 187.977 154.609 185.955 154.644 184.522C154.671 183.089 154.184 181.39 152.817 180.103C151.45 178.816 150.225 178.691 149.836 178.59C149.442 178.484 149.331 178.24 149.371 177.979C149.451 177.55 150.004 177.63 150.004 177.63C153.322 178.293 155.746 181.581 156.281 182.545C156.777 183.429 162.015 187.521 164.041 189.313C164.987 190.003 169.088 193.149 169.823 196.374C170.694 200.222 168.363 203.868 166.394 205.584ZM160.484 196.834C161.134 197.157 162.068 197.789 162.506 198.705C162.621 198.948 162.674 199.183 162.674 199.444C162.74 200.514 161.488 202.08 160.378 202.492C159.573 202.824 158.506 202.987 157.476 202.983C157.148 202.983 156.825 202.97 156.511 202.939C156.803 202.448 157.157 201.85 157.551 201.209C158.436 199.762 159.533 198.077 160.484 196.834ZM151.247 190.468C152.123 188.981 153.043 187.521 153.976 186.07C154.021 186.004 154.065 185.938 154.109 185.871C154.069 186.177 153.963 187.836 154.521 189.481C154.843 190.269 155.357 191.065 156.166 191.808C156.892 192.476 157.498 193.011 158.002 193.432C155.552 196.599 152.079 202.523 152.079 202.523C150.592 202.611 149.849 202.12 149.009 200.329C148.889 200.072 148.796 199.789 148.725 199.492V199.488C148.283 197.643 148.685 195.268 148.695 195.201C148.756 195.077 150.406 191.892 151.247 190.468ZM175.733 157.461C177.768 156.966 179.781 156.426 181.758 155.807C181.816 155.789 181.874 155.771 181.931 155.749C179.909 158.815 163.992 181.589 162.895 183.067C162.806 182.996 160.072 180.656 159.976 180.572C164.032 174.936 175.503 157.811 175.733 157.461ZM225.67 39.4988C225.417 51.6113 222.1 60.0476 222.1 60.0476C217.358 62.8878 210.885 65.9181 203.493 67.0152C188.049 69.298 180.462 66.9887 166.16 62.4144C151.866 57.8401 130.415 47.9705 108.397 48.1165C86.3752 48.258 70.6572 57.818 56.576 68.6919C56.7928 68.6255 60.2479 67.5461 61.4954 67.1347C61.4954 67.1347 58.2085 70.9923 57.2087 73.1379C57.2087 73.1379 63.7604 68.2407 72.7541 68.7627C72.7541 68.7627 69.6265 69.5457 68.3214 71.501C68.3214 71.501 71.9711 70.7136 72.6214 72.1514C73.2761 73.5847 71.0598 76.8451 67.0208 78.6677C62.9818 80.4948 56.461 81.9281 52.2893 82.1891C52.2893 82.1891 56.4654 83.4941 59.1994 86.0998C59.1994 86.0998 56.0142 86.5555 52.5503 87.9224C49.666 89.0638 44.4679 89.7495 42.2516 89.4885C42.2516 89.4885 45.2863 92.3286 48.9006 94.5715C59.4825 101.137 55.0144 110.869 51.608 114.059C49.3651 114.696 25.985 121.057 20.6277 158.802C20.6277 158.802 32.4748 142.274 50.4136 137.709C68.3568 133.143 85.7514 137.709 94.8823 142.163C104.013 146.623 118.147 156.404 136.52 159.452C146.624 161.129 158.79 160.823 170.566 158.572C170.376 158.864 161.391 172.228 157.529 177.616C157.529 177.616 154.662 174.015 150.782 173.657C150.782 173.657 149.154 173.33 147.836 174.015V174.02C146.673 174.555 145.677 175.701 145.354 177.289C145.027 178.899 145.611 180.147 146.372 181.032C147.097 181.877 148.009 182.306 148.747 182.505C149.407 182.664 150.322 183.067 150.495 183.938C148.725 186.663 146.301 190.6 144.554 194.405C143.182 197.4 142.527 199.97 141.979 201.7C141.461 203.474 141.001 204.168 140.851 204.257L138.988 205.898C138.988 205.898 139.701 208.778 139.904 209.26C139.453 210.119 139.227 211.065 139.223 211.999V212.052C139.223 214.007 140.187 215.927 141.939 217.082C143.306 218.024 145.283 218.081 145.283 218.081C147.234 218.081 149.15 217.117 150.305 215.383C150.583 214.963 150.796 214.52 150.95 214.078C152.353 213.507 153.215 212.711 153.662 212.056C154.702 212.295 157.728 212.388 157.852 212.388C162.081 212.357 166.089 211.145 169.022 208.645C171.38 206.535 173.955 202.926 174.039 198.09C174.039 197.227 174.3 192.68 169.933 189.07C173.707 183.615 178.343 176.816 183.218 169.441C192.283 155.705 199.697 143.769 205.337 133.803C211.239 123.672 229.704 95.8412 229.664 57.734C229.647 46.6301 225.67 39.4988 225.67 39.4988ZM148.73 199.475C148.725 199.479 148.725 199.484 148.725 199.488C148.73 199.479 148.734 199.47 148.739 199.461C148.739 199.453 148.743 199.448 148.743 199.444C148.739 199.453 148.734 199.466 148.73 199.475Z" fill="black"/>
<path fill-rule="evenodd" clip-rule="evenodd" d="M179.091 122.583C168.792 129.87 152.667 132.095 152.667 132.095C152.486 132.794 151.419 133.528 151.419 133.528C151.419 133.528 153.069 134.139 157.122 137.187C161.17 140.235 160.072 140.084 161.364 140.956C162.656 141.823 163.39 141.58 163.39 141.58C163.78 142.363 163.829 143.526 163.829 143.526C164.368 144.035 167.009 146.556 164.554 149.166C162.094 151.777 159.254 149.352 159.254 149.352C158.25 149.565 157.272 149.233 157.272 149.233C157.272 149.233 152.017 152.542 146.797 148.936C142.55 146.008 142.806 142.535 143.054 141.336C141.621 142.159 140.081 142.801 138.502 143.296C134.242 144.632 128.805 145.185 123.403 143.389C119.855 142.194 116.918 140.124 114.6 137.828C112.277 135.528 110.561 132.988 109.441 130.701C109.273 130.352 109.114 130.007 108.972 129.67C108.601 130.555 106.822 133.913 101.315 133.674C94.9752 133.4 92.7766 127.591 92.7766 127.591C92.7766 127.591 91.7989 127.264 91.1265 126.494C91.1265 126.494 87.4016 126.715 87.0123 123.15C86.6274 119.584 90.2594 119.168 90.9982 119.089C90.9982 119.089 91.7326 118.186 92.5156 117.797C92.5156 117.797 92.958 118.438 94.5107 118.522C96.0635 118.606 95.0991 118.062 100.169 118.076C105.239 118.084 106.92 118.598 106.92 118.598C106.92 118.598 106.513 117.368 106.791 116.7C106.791 116.7 95.2761 105.198 91.4583 93.1736C87.6405 81.1495 88.8084 76.6902 93.4446 64.0114C93.4446 64.0114 96.8819 85.6132 107.433 99.1856C113.454 106.932 120.227 112.97 124.938 116.731C125.044 116.731 125.155 116.735 125.261 116.735C124.257 115.616 123.492 114.302 123.111 112.798C122.169 109.082 120.625 105.627 119.917 102.875C119.209 100.119 120.784 94.6113 120.784 94.6113C118.669 91.2226 119.7 85.6441 119.7 85.6441C119.7 85.6441 120.846 85.1 121.718 84.0427C122.585 82.981 122.284 79.8489 122.992 75.2392C123.699 70.6295 126.699 65.8606 133.343 63.1488C139.953 60.4502 149.88 63.9893 149.968 64.0203C150.057 64.0468 160.112 67.2099 163.758 73.3502C167.421 79.5215 166.934 85.1398 164.718 89.2407C162.502 93.3461 160.369 95.6598 160.426 97.0312C160.479 98.3982 161.068 99.5218 161.068 99.5218C161.068 99.5218 158.529 104.596 154.79 106.029C154.79 106.029 152.724 111.369 150.495 113.138C148.274 114.908 144.956 116.731 141.961 119.128C140.78 120.075 139.422 120.659 137.975 120.955C138.073 121.026 138.165 121.097 138.263 121.168C144.284 121.009 153.291 120.279 162.718 117.744C179.321 113.276 195.092 98.1194 195.092 98.1194C191.146 111.028 189.385 115.293 179.091 122.583ZM194.884 71.0896C173.64 70.9613 150.632 59.008 130.22 54.4514C87.1937 44.8517 66.344 67.3161 66.3351 67.3249C66.3396 67.3205 73.3071 64.7856 76.8197 67.0683C80.6375 69.5501 77.2709 75.9514 76.0411 77.2299C72.5108 80.9062 67.4367 83.6224 61.8316 83.6224C61.8316 83.6224 67.764 85.0469 69.684 86.812C69.684 86.812 64.1807 87.5331 61.1813 88.5727C58.1864 89.6168 52.3203 91.3111 51.0197 91.3111C51.0197 91.3111 66.4723 98.376 56.8813 113.466C56.8813 113.466 63.5879 112.44 69.1753 115.12C69.1753 115.12 38.5621 110.179 28.2058 143.968C32.1077 140.752 44.3662 132.104 63.4508 132.011C86.4903 131.909 96.3732 137.209 105.526 142.752C119.479 151.21 130.03 153.714 138.046 155.209C161.082 159.509 184.214 151.763 194.238 147.092C223.334 102.512 226.683 77.3317 227.178 59.3531C217.777 68.8157 202.024 71.1339 194.884 71.0896Z" fill="#A71930"/>
<path fill-rule="evenodd" clip-rule="evenodd" d="M148.619 195.356C148.619 195.365 148.614 195.373 148.61 195.382C148.083 196.701 147.579 198.965 147.786 200.616C147.831 200.974 147.902 201.302 147.986 201.62V201.625C146.742 207.336 144.336 207.429 143.699 207.345C143.597 207.331 143.54 207.313 143.54 207.313C145.915 205.208 145.839 201.395 148.264 196.094C148.375 195.851 148.499 195.603 148.619 195.356ZM154.109 185.87C154.071 186.176 153.962 187.834 154.52 189.48C154.516 189.484 151.449 193.494 148.725 199.492C148.768 199.379 148.745 199.434 148.728 199.476C148.727 199.48 148.725 199.484 148.724 199.488C148.283 197.643 148.685 195.267 148.694 195.201C148.755 195.077 150.405 191.892 151.246 190.466C152.122 188.98 153.042 187.521 153.976 186.07C154.021 186.003 154.064 185.937 154.109 185.87ZM181.93 155.751C179.909 158.817 163.991 181.588 162.894 183.065C162.805 182.995 160.071 180.654 159.974 180.57C164.031 174.934 175.502 157.813 175.732 157.463C177.767 156.968 179.781 156.428 181.758 155.809C181.816 155.791 181.874 155.773 181.93 155.751ZM155.571 139.168C155.571 139.168 156.462 139.882 156.536 139.938C156.875 140.195 157.602 140.867 157.936 141.196C158.212 141.468 158.487 141.74 158.76 142.015C158.96 142.218 159.789 143 160.07 143.209C160.283 143.368 160.499 143.508 160.723 143.617C160.928 143.718 161.14 143.797 161.365 143.851L161.344 143.866C160.882 144.212 160.34 144.439 159.757 144.439C159.556 144.439 159.339 144.41 159.145 144.363C158.873 144.296 158.612 144.197 158.363 144.069C158.206 143.987 158.052 143.899 157.904 143.8C157.814 143.74 157.722 143.674 157.629 143.604C157.627 143.601 157.623 143.594 157.622 143.592C157.648 143.472 157.668 143.344 157.677 143.201C157.708 142.682 157.601 142.085 157.407 141.604C157.082 140.754 155.603 139.195 155.571 139.168ZM150.22 135.841C150.293 135.882 150.363 135.918 150.439 135.961C150.799 136.164 151.161 136.364 151.518 136.57C152.272 137.005 153.016 137.456 153.748 137.926C154.271 138.262 154.789 138.607 155.294 138.969C155.359 139.017 155.423 139.064 155.487 139.112C155.98 139.661 156.483 140.366 156.716 141.021C156.991 141.776 157.01 142.475 156.912 142.986C155.308 141.443 151.936 138.965 150.987 138.473C151.08 137.34 150.611 136.409 150.22 135.841ZM123.289 122.62C123.801 122.686 124.301 122.761 124.79 122.843C124.512 123.225 124.246 123.617 123.993 124.02C124.535 124.119 125.085 124.231 125.641 124.357C125.867 123.942 126.103 123.536 126.346 123.14C126.813 123.24 127.273 123.348 127.724 123.463C127.517 123.873 127.314 124.293 127.115 124.72C127.632 124.858 128.152 125.008 128.676 125.171C128.84 124.733 129.006 124.3 129.171 123.876C129.61 124.012 130.045 124.158 130.477 124.313C130.352 124.752 130.223 125.196 130.09 125.645C130.606 125.828 131.111 126.021 131.607 126.221C131.706 125.763 131.796 125.308 131.878 124.858C132.31 125.038 132.74 125.228 133.174 125.431C133.129 125.889 133.073 126.351 133.005 126.814C133.522 127.045 134.027 127.284 134.519 127.528C134.559 127.062 134.583 126.596 134.591 126.133C135.032 126.362 135.476 126.604 135.924 126.86C135.945 127.328 135.946 127.795 135.926 128.261C136.197 128.408 136.462 128.557 136.723 128.707C136.726 128.78 136.727 128.853 136.729 128.926C136.738 129.337 136.733 129.751 136.714 130.167C136.709 130.286 136.702 130.407 136.696 130.527C136.383 130.368 136.066 130.209 135.743 130.053C135.624 130.773 135.449 131.485 135.208 132.182C134.732 131.906 134.246 131.64 133.756 131.386C133.972 130.717 134.141 130.041 134.269 129.36C133.745 129.122 133.209 128.888 132.663 128.66C132.519 129.306 132.346 129.952 132.144 130.596C131.642 130.364 131.135 130.141 130.625 129.932C130.824 129.307 131.005 128.682 131.169 128.06C130.634 127.854 130.091 127.653 129.538 127.459C129.35 128.063 129.154 128.673 128.952 129.287C128.432 129.1 127.912 128.925 127.386 128.761C127.594 128.15 127.806 127.546 128.02 126.951C127.463 126.774 126.908 126.607 126.356 126.45C126.113 127.044 125.879 127.65 125.662 128.268C125.13 128.126 124.591 127.997 124.052 127.879C124.277 127.248 124.528 126.632 124.8 126.032C124.226 125.886 123.656 125.751 123.093 125.627C122.788 126.243 122.518 126.88 122.289 127.539C121.744 127.444 121.196 127.365 120.648 127.297C120.874 126.603 121.161 125.937 121.496 125.297C121.142 125.229 120.791 125.166 120.445 125.106C120.52 124.992 120.596 124.879 120.674 124.767C120.913 124.421 121.162 124.085 121.421 123.761C121.451 123.723 121.48 123.684 121.511 123.647C121.811 123.682 122.115 123.722 122.422 123.766C122.694 123.372 122.983 122.99 123.289 122.62ZM189.987 105.879C189.904 106.072 186.624 113.606 172.982 119.524C172.375 119.788 171.756 120.05 171.108 120.305C168.334 121.348 162.495 123.322 154.772 124.716C151.65 125.28 148.492 125.664 145.332 125.93C145.079 125.951 143.247 126.085 143.247 126.085C142.672 125.348 142.042 124.622 141.353 123.909C145.54 123.724 149.839 123.309 154.059 122.551C171.468 119.422 182.159 112.141 187.286 108.093C187.754 107.722 188.167 107.387 188.544 107.076C189.423 106.363 189.97 105.912 189.987 105.879ZM99.8056 120.609C99.9609 120.608 100.271 120.614 100.247 120.617C99.4358 120.662 98.152 120.959 97.3344 121.451C97.33 121.452 97.3256 121.457 97.3207 121.46C96.8531 121.732 96.3541 122.19 96.0997 122.671C96.0829 122.702 95.99 122.878 95.9648 122.906C93.3034 122.906 92.8274 120.891 92.8177 120.855C93.0375 120.948 93.2609 121.013 93.491 121.056L93.6741 121.086C93.8588 121.111 94.0484 121.122 94.2435 121.122C95.061 121.13 95.9095 120.975 96.7934 120.852C97.791 120.713 98.7978 120.614 99.8056 120.609ZM100.369 120.616C100.717 120.623 101.066 120.633 101.414 120.651C101.963 120.677 102.512 120.717 103.06 120.766C104.164 120.864 105.448 121.011 106.542 121.184C105.885 121.402 104.98 121.832 104.37 122.797C104.361 122.806 104.352 122.814 104.346 122.822C103.288 122.64 99.104 122.585 96.8956 122.846C97.1252 122.38 97.5609 121.834 98.2347 121.397C98.8155 121.015 99.6455 120.756 100.369 120.616ZM92.8946 73.2963C93.8471 77.3043 96.677 92.2269 111.492 108.275C114.422 111.45 117.628 114.395 120.881 117.086C119.899 117.245 118.95 117.45 118.047 117.696C115.77 115.69 110.505 110.502 110.23 110.232L110.219 110.221C105.811 105.784 102.521 101.521 100.045 97.5572C99.5291 96.7132 99.1283 96.0177 98.8085 95.4975L98.3183 94.6162C91.4852 82.1007 92.8946 73.2963 92.8946 73.2963ZM122.597 100.474C123.29 99.8939 124.85 100.164 124.85 100.164C124.85 100.164 125.549 100.9 125.714 101.45C125.875 102.004 125.709 105.022 126.901 107.099V107.05C126.901 107.05 126.96 106.83 127.213 106.453C127.468 106.076 127.964 105.541 128.262 105.752C128.559 105.963 128.519 106.556 128.512 107.192C128.507 107.827 128.293 108.506 128.132 108.699C128.132 108.699 128.379 109.205 129.052 109.526C129.052 109.526 129.024 109.284 129.073 108.939C129.179 108.33 129.485 107.827 129.681 107.273C129.741 107.08 129.93 106.88 130.213 107.031C130.218 107.031 130.774 107.322 131.268 107.568C131.325 107.61 131.668 107.871 131.484 108.363C131.476 108.381 131.474 108.391 131.469 108.405C131.462 108.428 131.452 108.447 131.445 108.469C131.26 108.933 131.103 109.357 130.866 109.847C130.866 109.847 130.745 110.299 130.532 110.318C130.532 110.318 130.947 110.59 131.134 110.669C131.419 110.79 131.774 110.943 131.949 110.986C131.949 110.986 131.76 110.693 131.808 110.275C131.922 109.679 132.098 108.858 132.248 108.171C132.3 108.01 132.445 107.737 132.777 107.841C133.151 107.995 133.531 108.141 133.911 108.28C134.23 108.414 134.228 108.729 134.215 108.835C134.041 109.594 133.845 110.503 133.638 111.229C133.59 111.34 133.524 111.495 133.469 111.552C133.469 111.552 133.811 111.792 134.041 111.853C134.268 111.913 134.702 112.001 134.702 112.001C134.702 112.001 134.619 111.707 134.725 111.394C134.726 111.388 134.726 111.383 134.726 111.375C134.896 110.89 135.066 110.404 135.238 109.914C135.279 109.789 135.4 109.513 135.47 109.333C135.507 109.242 135.654 108.964 135.993 109.036C136.439 109.17 136.888 109.293 137.339 109.406C137.672 109.504 137.481 110.016 137.481 110.016C137.481 110.016 136.998 111.204 136.685 111.969C136.681 111.968 136.576 112.237 136.403 112.379C136.403 112.379 136.713 112.517 136.947 112.563C137.438 112.66 137.73 112.651 137.853 112.659C137.853 112.659 137.701 112.293 137.879 111.855C137.89 111.837 137.895 111.814 137.902 111.794C138.051 111.448 138.207 111.101 138.35 110.754C138.392 110.655 138.43 110.557 138.468 110.457C138.519 110.307 138.757 110.061 139.15 110.131C139.163 110.132 139.172 110.13 139.184 110.132C139.497 110.19 139.811 110.243 140.124 110.291C140.127 110.295 140.688 110.41 140.484 110.935C140.2 111.565 139.9 112.197 139.562 112.832C139.912 112.859 140.266 112.879 140.619 112.889C140.619 112.889 140.575 112.858 140.72 112.465C140.865 112.072 141.29 111.236 141.333 111.112C141.375 110.989 141.538 110.503 141.742 110.479C141.947 110.457 142.748 111.099 142.54 112.336C144.741 111.396 146.421 108.895 146.884 108.555C147.288 108.256 148.096 108.095 148.299 108.058C148.638 108.253 149.625 108.872 149.793 109.6C149.793 109.6 148.135 111.126 146.093 112.025C144.049 112.925 140.957 114.874 139.739 115.687C139.277 115.994 138.65 116.259 137.857 116.405C137.362 115.523 135.642 114.434 133.438 113.693C131.134 112.919 129.018 112.77 128.155 113.249C127.526 112.605 127.142 111.961 126.945 111.393C126.465 110.011 125.172 106.59 124.086 104.641C122.999 102.691 122.597 100.474 122.597 100.474ZM129.273 75.1021C129.318 72.8061 131.746 63.3568 144.341 65.5023C146.664 65.9845 148.526 66.5464 149.013 66.7012C149.061 66.7189 149.106 66.7322 149.154 66.7499C149.393 66.8251 149.721 66.9312 150.115 67.0772C150.229 67.1215 150.349 67.1657 150.473 67.2144C150.636 67.2763 150.809 67.3427 150.99 67.4179C151.229 67.5152 151.481 67.6214 151.747 67.7364C152.008 67.8558 152.282 67.9797 152.566 68.1168C153.18 68.4132 153.835 68.7627 154.494 69.1609C154.56 69.1963 154.627 69.2361 154.689 69.2759C154.711 69.2847 154.728 69.298 154.746 69.3113C159.873 72.4301 161.28 76.2391 161.28 79.3889C161.28 82.1582 160.192 84.4232 159.595 85.2593C158.754 86.4272 157.998 87.2279 157.608 87.8163C157.144 86.9846 156.785 86.0999 156.648 85.2151L156.648 85.2182L156.649 85.2285C156.667 85.4897 156.966 89.5074 159.011 91.5707L159.117 91.6739C159.117 91.6739 157.927 94.3327 157.679 95.9474C157.436 97.5665 158.064 99.2697 158.064 99.2697C158.064 99.2697 157.905 99.5263 157.675 99.8802C156.419 101.362 154.22 102.645 153.038 102.428C151.698 102.181 148.469 101.083 146.597 101.468C145.062 101.787 144.138 102.654 143.629 103.53C143.629 103.53 143.633 103.525 143.638 103.525C143.501 103.689 143.372 103.871 143.284 104.083C143.284 104.083 142.886 104.777 142.775 105.706C142.501 105.587 142.266 105.494 142.266 105.494C142.271 105.543 142.271 105.609 142.257 105.68C142.24 105.817 142.178 106.038 142.169 106.069C142.165 106.118 142.16 106.153 142.152 106.167C142.12 106.29 142.085 106.414 142.054 106.538C141.931 106.989 141.82 107.357 141.678 107.799C141.674 107.803 141.665 107.817 141.66 107.83C141.519 108.25 141.094 108.113 141.094 108.113C141.09 108.113 141.046 108.095 141.046 108.095C140.736 107.94 140.395 107.777 140.041 107.609C140.041 107.609 139.643 107.401 139.705 106.989C139.7 106.981 139.705 106.972 139.709 106.958C139.714 106.941 139.709 106.927 139.719 106.914C139.731 106.879 139.74 106.835 139.754 106.804C139.864 106.405 140.099 105.552 140.13 105.353C140.169 105.118 140.324 104.689 140.422 104.521C140.355 104.454 140.187 104.273 140.041 104.202C139.917 104.14 139.785 104.114 139.603 104.127C139.537 104.185 139.426 104.357 139.422 104.45C139.417 104.503 139.276 104.946 139.121 105.432C138.962 105.923 138.78 106.463 138.701 106.706C138.613 106.972 138.422 107.029 138.267 107.029C138.171 107.029 138.09 107.007 138.055 106.996L138.037 106.989C137.728 106.865 137.307 106.715 136.975 106.591C136.954 106.587 136.936 106.574 136.913 106.569C136.515 106.419 136.542 106.078 136.568 105.941C136.741 105.428 136.962 104.777 137.13 104.269C137.166 104.149 137.21 104.03 137.245 103.906C137.245 103.902 137.25 103.897 137.254 103.888C137.267 103.835 137.418 103.455 137.648 103.34C137.497 103.225 137.197 103.105 136.971 103.026C136.701 102.937 136.219 102.853 136.192 102.849C136.272 103.021 136.29 103.322 136.25 103.472C136.192 103.671 135.661 105.525 135.639 105.596C135.613 105.667 135.52 105.888 135.374 105.941C135.232 105.994 134.834 105.866 134.834 105.866C134.808 105.861 134.79 105.857 134.768 105.852C134.432 105.751 133.954 105.675 133.636 105.587C133.636 105.587 133.113 105.437 133.277 104.959C133.277 104.959 133.618 103.711 133.786 103.118C133.786 103.105 133.79 103.083 133.795 103.065C133.808 103.021 133.883 102.773 133.91 102.397C133.936 102.021 133.684 101.933 133.498 101.933C133.322 101.933 133.127 102.251 133.083 102.437C133.034 102.636 132.923 102.968 132.923 102.968L132.91 102.999C132.897 103.03 132.883 103.061 132.874 103.088C132.693 103.57 132.552 103.968 132.388 104.45C132.234 104.858 131.81 104.826 131.722 104.815L131.707 104.813C131.326 104.733 130.959 104.658 130.618 104.596C130.614 104.596 130.57 104.583 130.57 104.578C130.57 104.578 130.145 104.432 130.286 104.012C130.286 103.999 130.286 103.986 130.295 103.972C130.446 103.534 130.574 103.18 130.751 102.742C130.8 102.627 130.977 102.207 131.078 102.043C131.185 101.88 131.326 101.791 131.326 101.791C131.331 101.694 131.185 101.513 130.919 101.42C130.889 101.411 130.853 101.402 130.813 101.393C130.968 101.008 131.162 100.477 131.255 100.031C131.547 98.9468 131.512 97.4205 130.256 95.9828C128.995 94.545 125.752 93.4744 124.54 92.864C123.323 92.2535 122.231 89.3204 122.377 87.2943C122.377 87.2943 123.903 86.3122 124.681 84.8744C125.469 83.4411 126.115 80.6054 126.115 80.6054C129.057 80.2736 131.808 77.1415 131.977 76.9469C131.246 77.6503 130.291 78.1767 129.3 78.5837C129.353 77.9113 129.242 76.7788 129.273 75.1021Z" fill="white"/>
<path fill-rule="evenodd" clip-rule="evenodd" d="M149.37 177.978C149.451 177.549 150.004 177.628 150.004 177.628C153.322 178.292 155.746 181.579 156.281 182.543C156.777 183.428 162.014 187.52 164.041 189.312C164.988 190.002 169.089 193.148 169.823 196.373C170.694 200.222 168.363 203.867 166.394 205.584C164.421 207.305 161.067 208.402 157.564 208.336C154.44 208.273 152.246 207.769 150.26 206.69C150.25 206.712 150.246 206.73 150.242 206.756C150.087 206.889 149.773 207.61 147.477 207.951C145.937 208.203 145.044 207.893 144.951 207.862C147.659 210.601 150.109 208.875 150.109 208.875C150.225 209.354 150.392 209.694 150.392 209.694C150.392 209.694 149.578 210.889 147.101 210.477C146.8 210.428 146.543 210.345 146.292 210.252C146.34 210.278 146.384 210.296 146.433 210.327C147.384 210.951 147.64 212.229 147.017 213.175C146.384 214.127 145.11 214.384 144.159 213.76C143.212 213.132 142.951 211.853 143.579 210.906C144.092 210.128 145.03 209.822 145.875 210.075C144.017 209.181 143.539 207.313 143.539 207.313C143.539 207.313 143.597 207.331 143.699 207.345C144.336 207.429 146.742 207.336 147.986 201.625C148.021 201.771 148.835 205.066 151.06 204.531C151.038 204.58 150.715 205.305 150.711 205.314C151.684 205.92 153.914 206.978 157.71 207.026C163.041 207.097 165.956 203.589 166.757 200.979C167.385 198.948 166.412 196.692 164.403 194.714C164.992 194.033 165.35 193.082 164.956 191.772C165.138 192.378 164.001 193.458 162.801 193.352C162.691 193.342 162.586 193.325 162.475 193.294C160.665 192.789 158.603 190.586 156.856 189.281C155.118 187.976 154.609 185.954 154.644 184.521C154.67 183.087 154.184 181.389 152.817 180.101C151.45 178.814 150.225 178.69 149.835 178.588C149.441 178.482 149.33 178.239 149.37 177.978ZM160.482 196.833C161.133 197.156 162.066 197.789 162.504 198.704C162.619 198.948 162.673 199.182 162.673 199.443C162.739 200.514 161.487 202.08 160.376 202.492C159.571 202.824 158.505 202.987 157.474 202.982C157.146 202.982 156.824 202.97 156.51 202.939C156.802 202.447 157.156 201.85 157.549 201.209C158.434 199.762 159.532 198.076 160.482 196.833ZM154.52 189.48C154.843 190.268 155.356 191.064 156.166 191.807C156.892 192.475 157.497 193.01 158.002 193.431C155.551 196.599 152.078 202.522 152.078 202.522C150.592 202.611 149.848 202.12 149.008 200.328C148.888 200.071 148.795 199.788 148.725 199.492C151.449 193.494 154.516 189.484 154.52 189.48ZM189.496 152.995C186.612 157.556 170.875 181.265 167.154 186.649C167.128 186.627 167.087 186.6 167.066 186.583C166.521 186.087 165.818 185.489 165.039 184.84C166.309 183.03 180.856 161.401 185.12 154.698C186.612 154.171 188.063 153.596 189.496 152.995ZM150.074 130.556C150.074 130.556 150.332 130.365 150.486 130.56C150.577 130.68 150.588 130.836 150.416 130.994C150.249 131.152 149.662 131.544 149.315 132.564C148.967 133.59 149.183 134.582 149.583 135.301C149.956 135.969 150.114 136.773 149.986 137.529C149.942 137.798 149.86 138.067 149.745 138.313C149.461 138.921 149.238 139.556 148.98 140.176C148.699 140.852 148.386 141.481 147.983 141.864C147.536 142.288 146.815 142.157 146.373 141.8C146.355 141.785 146.333 141.775 146.316 141.76C146.502 142.559 147.002 142.878 147.521 142.993C147.278 144.586 147.843 145.745 149.762 146.686C151.724 147.648 155.128 147.645 157.67 145.218C157.416 144.932 157.111 144.722 156.815 144.485C156.81 144.481 156.806 144.477 156.802 144.475C157 144.418 157.254 144.31 157.417 144.108C157.507 143.995 157.572 143.809 157.618 143.595L157.629 143.603C157.722 143.674 157.814 143.74 157.904 143.8C158.052 143.899 158.206 143.987 158.363 144.069C158.612 144.197 158.873 144.296 159.145 144.363C159.339 144.409 159.556 144.439 159.756 144.439C160.34 144.439 160.882 144.212 161.344 143.866C161.349 143.862 161.355 143.86 161.36 143.856C161.365 143.857 161.403 144.138 161.406 144.2C161.425 144.563 161.385 145.141 161.044 145.705C161.396 145.437 161.887 145.38 162.303 145.607C162.868 145.912 163.079 146.62 162.771 147.184C162.466 147.749 161.759 147.96 161.193 147.653C160.647 147.357 160.445 146.691 160.707 146.138C160.616 146.232 160.53 146.327 160.416 146.416C159.746 146.93 159.223 147.009 158.898 146.989C158.666 146.975 158.532 146.911 158.532 146.911C158.532 146.911 158.546 146.764 158.481 146.52C158.472 146.486 158.466 146.457 158.455 146.42C158.534 146.427 158.682 146.429 158.866 146.404C159.433 146.323 160.359 145.964 160.803 144.505C160.803 144.505 160.694 144.647 160.508 144.83C160.1 145.233 159.26 145.835 158.104 145.749C157.549 146.225 154.115 148.955 150 147.498C145.507 145.907 145.472 143.133 145.585 142.227C145.658 141.635 145.974 140.661 145.99 140.613C146.355 139.477 148.209 135.375 148.218 134.74C148.229 134.105 148.569 131.786 150.074 130.556ZM150.987 138.473C151.936 138.965 155.308 141.443 156.911 142.986C156.861 143.243 156.79 143.466 156.689 143.596C156.529 143.796 156.298 143.906 156.099 143.972C154.689 143.007 152.546 141.74 150.287 140.723C150.426 140.374 150.587 139.94 150.777 139.404C150.898 139.059 150.987 138.473 150.987 138.473ZM109.514 116.812C109.756 116.748 109.848 117.058 109.848 117.058C110.304 118.946 109.177 121.001 108.804 121.514C108.429 122.025 107.431 126.416 107.036 127.544C107.036 127.544 106.571 128.702 106.386 129.075C105.979 129.891 104.228 132.057 99.6848 130.614C95.5232 129.293 94.4102 125.049 94.2545 124.339C92.8357 123.426 92.8755 121.711 92.8755 121.711C92.1775 123.611 93.325 124.481 93.5944 124.656C93.5634 124.635 93.325 124.884 93.2971 124.917C93.2927 124.922 93.2396 124.998 93.2352 124.997C93.2352 124.997 92.8273 124.92 92.4522 124.39C92.296 124.169 92.1438 123.878 92.0324 123.468C91.9917 123.32 91.9656 123.178 91.9505 123.04C91.9487 123.056 91.9483 123.071 91.9461 123.087C91.8492 123.729 91.248 124.17 90.6065 124.074C89.9655 123.977 89.5214 123.375 89.6183 122.733C89.7147 122.09 90.3163 121.648 90.9574 121.747C91.4634 121.823 91.8457 122.213 91.9372 122.69C91.9731 121.533 92.8176 120.855 92.8176 120.855C92.8273 120.891 93.3033 122.906 95.9647 122.906C95.8723 123.105 95.8117 123.292 95.8152 123.436C95.8241 123.696 95.9603 123.935 96.0868 124.1L95.9561 124.1C95.662 124.101 94.9449 124.107 94.9441 124.169C95.5073 127.639 98.2218 129.695 100.366 130.111C102.46 130.518 103.611 129.936 104.376 128.524C104.861 128.745 105.457 128.784 106.088 128.261C105.164 128.301 104.763 127.741 104.693 127.336C104.509 126.273 105.172 124.663 105.429 123.44C105.69 122.217 106.619 121.468 107.373 121.137C108.13 120.806 108.897 120.144 109.24 119.117C109.581 118.094 109.347 117.427 109.309 117.199C109.269 116.97 109.369 116.852 109.514 116.812ZM189.987 105.879C189.988 105.878 189.906 106.12 189.906 106.12C188.889 109.05 187.007 111.776 184.947 114.065C183.45 115.729 181.817 117.245 180.075 118.651C177.404 120.806 174.366 122.555 171.268 124.017C168.191 125.47 164.965 126.624 161.688 127.533C156.562 128.954 151.137 129.7 145.777 130C145.369 129.206 144.881 128.395 144.33 127.577C161.557 126.343 172.895 119.593 172.895 119.593L172.982 119.524C186.624 113.606 189.904 106.072 189.987 105.879ZM96.8955 122.846C99.1039 122.585 103.288 122.64 104.346 122.822C104.352 122.814 104.361 122.805 104.37 122.798C104.206 123.058 104.058 123.347 103.949 123.69C103.775 124.23 103.643 124.675 103.542 125.037C100.996 124.338 96.9473 124.122 96.9473 124.122C96.8314 123.952 96.7124 123.723 96.7053 123.469C96.7017 123.302 96.7805 123.082 96.8955 122.846ZM92.8946 73.2962C92.8946 73.2962 91.4851 82.1006 98.3182 94.6162L98.2975 94.5784L98.2793 94.5458C98.2793 94.5458 103.149 106.592 115.922 117.89L116.311 118.232C115.378 118.557 114.5 118.911 113.697 119.294C113.569 119.355 112.28 118.072 112.122 117.932C110.835 116.793 109.581 115.617 108.365 114.401C105.533 111.568 102.921 108.509 100.631 105.221C98.7721 102.552 97.1025 99.7412 95.7524 96.7803C94.4327 93.8876 93.3569 90.8899 92.684 87.7786C92.0505 84.85 91.7696 81.8383 91.928 78.8442C92.0213 77.0746 92.2367 75.2348 92.8092 73.5488C92.8092 73.5479 92.8946 73.2962 92.8946 73.2962ZM123.642 95.0081C123.642 95.0081 124.843 95.5907 125.218 95.8093C125.218 95.8093 125.215 95.8221 125.211 95.8482C125.166 96.1844 124.849 98.5804 124.833 99.7332C124.831 99.9102 124.834 100.058 124.849 100.164C124.849 100.164 123.29 99.8938 122.597 100.474C122.597 100.474 122.999 102.691 124.086 104.641C125.172 106.59 126.465 110.011 126.945 111.393C127.141 111.961 127.525 112.604 128.155 113.249C129.018 112.77 131.134 112.919 133.438 113.693C135.642 114.434 137.362 115.522 137.857 116.405C138.65 116.259 139.277 115.994 139.738 115.687C140.957 114.874 144.049 112.925 146.093 112.025C148.135 111.126 149.793 109.6 149.793 109.6C149.625 108.872 148.638 108.253 148.299 108.058C148.329 108.052 148.346 108.05 148.346 108.05C148.913 107.476 150.47 104.73 150.662 104.39C150.676 104.366 150.682 104.354 150.682 104.354C151.114 104.407 152.419 104.665 152.419 104.665C152.419 104.665 151.06 107.827 150.254 109.189C149.451 110.545 148.797 111.007 148.014 111.56C147.233 112.111 143.781 114.392 142.867 115.036C141.956 115.681 139.531 117.856 137.415 118.231C136.365 118.417 135.454 118.44 134.59 118.343C133.726 118.245 132.907 118.029 132.043 117.74C132.037 117.739 132.032 117.736 132.027 117.734C132.02 117.732 132.014 117.731 132.01 117.73C130.282 117.148 128.88 116.444 127.429 114.88C126.149 113.501 125.514 110.881 125.148 109.534C125.095 109.342 125.049 109.175 125.006 109.042C124.667 107.978 123.291 104.077 122.999 103.165C122.706 102.252 122.464 101.49 122.643 99.9226C122.811 98.4499 123.542 95.4195 123.634 95.0462C123.639 95.0209 123.642 95.0081 123.642 95.0081ZM143.286 104.085C143.286 104.085 144.069 103.532 145.47 103.598C145.47 103.598 145.462 103.607 145.462 103.611L145.47 103.607C145.431 103.713 145.113 104.584 145.028 105.35C144.98 105.823 144.75 107.018 144.75 107.027C144.338 108.46 142.958 109.252 142.834 109.172C142.688 109.08 142.498 108.73 143.117 106.748C143.117 106.651 143.436 106.536 143.507 106.54C143.635 106.518 143.763 106.5 143.891 106.478C143.891 106.478 143.856 106.403 143.723 106.213C143.666 106.12 143.516 106.062 143.423 106.009C143.316 105.951 142.777 105.713 142.777 105.708C142.878 104.857 143.221 104.202 143.278 104.099L143.286 104.085ZM122.377 87.2951C122.231 89.3212 123.324 92.2547 124.54 92.8652C125.752 93.4752 128.995 94.5458 130.257 95.984C131.513 97.4218 131.549 98.9485 131.257 100.032C131.163 100.479 130.969 101.01 130.814 101.395C130.729 101.373 130.641 101.359 130.553 101.351C130.297 101.32 129.889 101.293 129.805 101.612C129.801 101.624 129.796 101.634 129.796 101.634C129.836 101.77 129.867 101.939 129.849 102.032C129.827 102.134 129.792 102.227 129.774 102.271C129.08 104.222 128.712 104.39 128.54 104.377C128.394 104.368 127.77 102.899 128.305 101.509C128.309 101.501 128.314 101.492 128.314 101.483C128.588 100.864 128.849 100.412 129.093 100.005C129.522 99.2975 129.796 98.338 129.796 98.338L129.805 98.3557V98.3419C130.163 98.5857 130.468 98.8821 130.752 99.2046C130.76 99.2139 130.765 99.2183 130.765 99.2227C130.893 99.4351 131.092 99.5983 131.207 99.8244C131.238 99.8903 131.261 99.9527 131.261 100.001C131.357 99.6293 131.345 99.1785 131.203 98.8157C131.194 98.8025 131.194 98.7888 131.19 98.7759C130.664 97.3377 129.301 96.4928 128.035 95.7761C127.19 95.2983 126.31 94.882 125.421 94.4932C122.815 93.3474 122.775 92.5865 122.426 91.3832C122.386 91.2323 122.35 91.0554 122.324 90.8607C122.275 90.4763 122.262 90.0158 122.262 89.5601C122.262 88.4232 122.377 87.2951 122.377 87.2951ZM157.672 99.8819C157.664 99.8996 157.654 99.9129 157.641 99.9301C157.119 100.86 156.416 101.855 155.557 102.501C154.558 103.253 154.067 103.832 151.293 103.177C150.205 102.917 149.103 102.682 147.993 102.545C146.572 102.364 144.692 102.315 143.657 103.509C143.652 103.518 143.648 103.518 143.639 103.527C143.63 103.527 143.626 103.536 143.622 103.54C144.135 102.66 145.059 101.789 146.599 101.47C148.471 101.085 151.7 102.182 153.041 102.43C154.222 102.647 156.416 101.363 157.672 99.8819ZM140.544 92.7276C141.544 93.128 142.1 94.1322 141.799 95.0329C141.608 95.608 141.653 96.0681 141.696 96.6786L141.702 96.6963V96.7056C141.723 97.1962 141.834 97.4572 141.953 97.7934C142.073 98.1079 142.219 98.6078 142.034 99.1205L141.799 99.8195C141.485 100.762 140.352 101.227 139.273 100.868C139.273 100.864 139.998 100.678 140.233 99.9836C140.237 99.9748 140.241 99.9655 140.241 99.9571C140.688 99.8903 141.078 99.6253 141.219 99.2006L141.467 98.4707C141.715 97.723 141.162 97.3864 141.131 96.1787C141.086 95.5549 141.043 94.9484 141.285 94.2277C141.481 93.6434 141.154 92.9961 140.544 92.7276ZM137.896 93.719C138.202 92.8254 139.251 92.352 140.304 92.6484C139.653 92.4843 138.994 92.8077 138.799 93.3916C138.556 94.1172 138.145 94.5684 137.738 95.0373C136.981 95.984 136.335 95.9177 136.087 96.6657L135.84 97.3952C135.698 97.8159 135.848 98.2583 136.158 98.5813C136.154 98.5901 136.149 98.603 136.149 98.6122C135.915 99.3112 136.383 99.8947 136.383 99.8947C135.309 99.5324 134.689 98.4795 135.003 97.5412L135.238 96.8423C135.401 96.3198 135.812 96.0061 136.105 95.8292C136.406 95.6345 136.649 95.493 136.963 95.1169L136.976 95.0988C137.389 94.6392 137.707 94.2941 137.896 93.719ZM156.823 91.4805L156.863 91.4845C156.863 91.4845 156.31 95.2187 155.399 96.683C154.487 98.1522 153.616 99.5059 151.35 99.382C151.35 99.382 152.664 99.0015 152.244 97.9703C152.213 97.8956 152.191 97.8204 152.174 97.7407C152.78 97.4001 153.324 97.1435 153.819 96.6259C154.478 95.9398 155 95.0944 155.376 94.2277C155.54 93.8424 155.678 93.4491 155.788 93.0466C155.788 93.0466 156.08 91.7057 156.646 91.5071C156.708 91.4982 156.765 91.4889 156.823 91.4805ZM139.069 87.8304C139.551 88.8788 143.351 90.1529 144.391 89.6176C144.387 89.6398 144.29 91.0067 144.294 91.8207C144.298 92.6396 144.577 95.8026 145.962 96.6303C145.967 96.6303 145.621 97.0413 146.063 98.3291C145.957 98.2937 144.223 97.6523 143.6 96.2495C142.954 94.8068 143.582 90.9315 141.264 90.122C138.927 89.3659 137.092 92.8387 135.702 93.5996C134.318 94.36 132.477 93.7716 132.477 93.7716C133.545 93.0602 133.587 92.5459 133.588 92.4825L133.588 92.4759C135.189 92.6528 137.313 90.2989 137.813 89.6442C138.309 88.9943 139.069 87.8304 139.069 87.8304ZM127.995 81.7958L128.022 81.8135L128.031 81.8179C128.071 81.8577 128.115 81.902 128.155 81.9462C128.487 82.4461 127.912 83.6896 127.912 83.6896C127.766 84.0524 127.65 84.424 127.553 84.8C127.221 86.0874 127.097 87.6844 127.628 88.9673C127.65 89.0116 127.987 89.5955 127.969 89.6132C127.938 89.6398 127.907 89.6663 127.871 89.6884C127.836 89.715 127.801 89.7375 127.766 89.7592C126.845 90.2989 127.567 91.3341 127.624 91.4137C125.748 90.1529 125.863 88.5471 126.027 86.8262C126.186 85.1093 127.995 81.7958 127.995 81.7958ZM152.565 68.1168L153.078 68.3335C166.266 74.6773 163.359 84.6974 162.603 86.6129C161.917 88.3338 160.555 90.0326 159.958 91.0014C159.258 90.2361 158.316 89.0947 157.608 87.8162C157.998 87.2279 158.754 86.4271 159.595 85.2592C160.192 84.4231 161.28 82.1581 161.28 79.3888C161.28 76.239 159.873 72.43 154.746 69.3112C154.728 69.2979 154.711 69.2847 154.688 69.2758C154.627 69.236 154.56 69.1962 154.494 69.1608C153.835 68.7626 153.18 68.4132 152.565 68.1168ZM132.11 79.4733C134.313 78.9247 137.892 82.2603 139.998 84.017C141.79 85.6008 142.573 85.7512 142.733 85.7954C142.896 85.8573 143.608 86.2108 145.984 86.025C148.727 85.8972 153.594 85.3928 155.022 87.1624C155.022 87.211 151.563 86.8217 149.231 87.1978C146.913 87.6888 143.622 88.0034 142.161 87.4942C140.693 87.0204 138.255 84.7823 136.707 82.9951C135.083 81.3003 132.11 79.5308 132.11 79.4733ZM139.599 64.9979C140.656 64.9979 141.788 65.0731 143.005 65.2457C143.443 65.3209 143.868 65.4049 144.279 65.489L144.341 65.5022C131.746 63.3567 129.318 72.8061 129.273 75.102C129.242 76.7787 129.353 77.9112 129.3 78.5836C127.468 79.3489 125.509 79.6277 125.509 79.6277C125.615 78.5659 125.61 76.2213 126.066 74.3721C126.495 72.6335 129.397 65.0422 139.599 64.9979Z" fill="#B1BABF"/>
<path fill-rule="evenodd" clip-rule="evenodd" d="M133.344 63.1488C139.953 60.4503 149.88 63.9894 149.968 64.0203C150.057 64.0469 160.112 67.21 163.758 73.3503C167.421 79.5216 166.934 85.1399 164.718 89.2408C162.502 93.3462 160.369 95.6598 160.426 97.0312C160.48 98.3982 161.068 99.5219 161.068 99.5219C161.068 99.5219 158.529 104.596 154.79 106.029C154.79 106.029 152.724 111.369 150.495 113.139C148.274 114.908 144.956 116.731 141.961 119.128C140.78 120.075 139.422 120.659 137.975 120.956C138.073 121.026 138.166 121.097 138.263 121.168C144.284 121.009 153.291 120.279 162.718 117.744C179.321 113.276 195.092 98.1195 195.092 98.1195C191.146 111.028 189.385 115.293 179.091 122.584C168.792 129.87 152.667 132.095 152.667 132.095C152.486 132.794 151.419 133.528 151.419 133.528C151.419 133.528 153.07 134.139 157.122 137.187C161.17 140.235 160.073 140.084 161.364 140.956C162.578 141.77 163.299 141.605 163.382 141.582L163.39 141.58C163.78 142.363 163.829 143.526 163.829 143.526C164.368 144.035 167.009 146.556 164.554 149.167C162.094 151.777 159.254 149.352 159.254 149.352C158.25 149.565 157.272 149.233 157.272 149.233C157.272 149.233 152.017 152.542 146.797 148.936C142.55 146.008 142.806 142.535 143.054 141.336C141.621 142.159 140.081 142.801 138.502 143.296C134.242 144.632 128.805 145.185 123.403 143.389C119.855 142.195 116.918 140.124 114.6 137.828C112.277 135.528 110.561 132.988 109.441 130.701C109.273 130.352 109.114 130.007 108.972 129.671C108.601 130.555 106.822 133.913 101.315 133.674C94.9753 133.4 92.7767 127.591 92.7767 127.591C92.7767 127.591 91.799 127.264 91.1266 126.494C91.1266 126.494 87.4017 126.715 87.0124 123.15C86.6275 119.584 90.2595 119.168 90.9983 119.089C90.9983 119.089 91.7326 118.186 92.5156 117.797C92.5156 117.797 92.958 118.438 94.5108 118.522C96.0636 118.606 95.0992 118.062 100.169 118.076C105.239 118.084 106.92 118.598 106.92 118.598C106.92 118.598 106.513 117.368 106.791 116.7C106.791 116.7 95.2761 105.198 91.4583 93.1736C87.6405 81.1496 88.8084 76.6903 93.4447 64.0115C93.4447 64.0115 96.882 85.6132 107.433 99.1857C113.454 106.932 120.227 112.97 124.938 116.731C125.044 116.731 125.155 116.735 125.261 116.735C124.257 115.616 123.492 114.302 123.111 112.798C122.169 109.082 120.625 105.627 119.917 102.875C119.209 100.119 120.784 94.6114 120.784 94.6114C118.67 91.2227 119.7 85.6442 119.7 85.6442C119.7 85.6442 120.846 85.1001 121.718 84.0428C122.585 82.981 122.284 79.8489 122.992 75.2393C123.699 70.6296 126.699 65.8607 133.344 63.1488ZM150.486 130.56C150.331 130.365 150.075 130.555 150.075 130.555C148.57 131.785 148.23 134.103 148.217 134.74C148.208 135.377 146.355 139.478 145.991 140.615C145.974 140.66 145.66 141.637 145.584 142.225C145.474 143.132 145.509 145.906 149.999 147.499C154.114 148.955 157.551 146.225 158.104 145.751C159.259 145.835 160.099 145.234 160.506 144.831C160.674 144.667 160.776 144.539 160.798 144.508C160.36 145.964 159.431 146.322 158.865 146.402C158.683 146.428 158.533 146.428 158.453 146.419C158.467 146.459 158.471 146.486 158.48 146.521C158.546 146.764 158.533 146.91 158.533 146.91C158.533 146.91 158.666 146.977 158.896 146.99C159.223 147.008 159.745 146.928 160.418 146.415C160.529 146.326 160.617 146.234 160.705 146.141C160.444 146.694 160.648 147.357 161.192 147.654C161.758 147.959 162.466 147.751 162.771 147.185C163.081 146.623 162.868 145.911 162.302 145.605C161.886 145.38 161.396 145.437 161.046 145.703C161.386 145.141 161.426 144.561 161.404 144.199C161.404 144.137 161.364 143.858 161.36 143.858C161.364 143.853 161.364 143.853 161.364 143.853C161.139 143.796 160.926 143.716 160.723 143.619C160.497 143.508 160.285 143.367 160.073 143.208C159.789 143 158.963 142.217 158.759 142.013C158.489 141.739 158.21 141.469 157.936 141.195C157.604 140.867 156.874 140.195 156.538 139.938C156.471 139.886 155.724 139.292 155.596 139.191C155.786 139.385 157.104 140.805 157.405 141.606C157.6 142.084 157.71 142.681 157.679 143.199C157.67 143.345 157.648 143.473 157.622 143.592C157.622 143.592 157.626 143.601 157.631 143.601C157.626 143.601 157.622 143.597 157.617 143.597C157.573 143.809 157.507 143.995 157.418 144.11C157.255 144.31 156.998 144.42 156.803 144.477C156.808 144.477 156.812 144.482 156.817 144.486C157.113 144.721 157.418 144.933 157.67 145.22C155.127 147.645 151.725 147.649 149.761 146.685C147.845 145.747 147.279 144.588 147.522 142.991C147.004 142.88 146.505 142.557 146.314 141.761C146.332 141.774 146.355 141.783 146.372 141.801C146.815 142.159 147.535 142.287 147.982 141.863C148.385 141.482 148.699 140.854 148.982 140.177C149.238 139.558 149.46 138.921 149.747 138.315C149.862 138.067 149.942 137.797 149.986 137.532C150.115 136.775 149.955 135.97 149.584 135.302C149.181 134.581 148.969 133.59 149.314 132.564C149.663 131.542 150.247 131.153 150.415 130.993C150.588 130.838 150.579 130.679 150.486 130.56ZM150.221 135.842C150.61 136.408 151.079 137.342 150.986 138.474C150.986 138.474 150.897 139.058 150.778 139.403C150.588 139.938 150.424 140.372 150.287 140.721C152.548 141.739 154.689 143.009 156.1 143.973C156.299 143.907 156.529 143.796 156.688 143.597C156.79 143.464 156.861 143.243 156.909 142.986C157.011 142.473 156.99 141.774 156.715 141.022C156.485 140.367 155.98 139.66 155.485 139.112C155.423 139.062 155.357 139.018 155.295 138.97C154.79 138.607 154.273 138.262 153.746 137.925C153.016 137.457 152.273 137.005 151.517 136.572C151.158 136.364 150.8 136.165 150.437 135.961C150.362 135.917 150.291 135.882 150.221 135.842ZM131.176 120.155C122.408 117.213 112.896 121.562 110.808 124.203C110.72 124.309 110.64 124.419 110.574 124.539C110.565 124.552 110.561 124.579 110.547 124.588C110.547 124.588 110.494 124.667 110.437 124.831C109.605 127.317 114.644 137.881 124.155 141.075C133.675 144.269 143.965 139.164 144.894 136.395C144.961 136.196 144.974 136.032 144.974 136.032C145.067 135.377 144.921 134.444 144.558 133.351C143.142 129.149 138.435 122.592 131.176 120.155ZM136.729 128.926C140.07 130.885 142.556 132.993 143.823 134.503C141.966 133.133 139.551 131.612 136.714 130.167C136.733 129.751 136.738 129.337 136.729 128.926ZM109.566 116.802L109.512 116.81C109.371 116.85 109.269 116.97 109.309 117.2C109.348 117.425 109.583 118.093 109.238 119.115C108.897 120.146 108.132 120.805 107.375 121.137C106.619 121.469 105.69 122.216 105.429 123.442C105.172 124.663 104.509 126.273 104.695 127.335C104.761 127.742 105.163 128.299 106.088 128.264C105.455 128.786 104.863 128.746 104.376 128.525C103.611 129.936 102.461 130.516 100.364 130.109C98.2224 129.697 95.5062 127.64 94.9443 124.167C94.9443 124.108 95.6632 124.102 95.9566 124.101H96.0857C95.9618 123.937 95.8247 123.694 95.8159 123.437C95.8114 123.291 95.8734 123.106 95.9663 122.906C95.9884 122.875 96.0813 122.703 96.099 122.672C96.3556 122.19 96.851 121.734 97.32 121.46C97.3244 121.455 97.3288 121.451 97.3332 121.451C98.1517 120.96 99.4346 120.664 100.249 120.619C100.271 120.615 99.961 120.606 99.8062 120.61C98.7975 120.615 97.7933 120.712 96.7935 120.854C95.9088 120.978 95.0594 121.128 94.2454 121.124C93.9844 121.119 93.7322 121.102 93.4889 121.057C93.2633 121.013 93.0377 120.947 92.8165 120.854C92.8165 120.854 91.9715 121.531 91.9361 122.69C91.8476 122.212 91.4628 121.823 90.9584 121.747C90.317 121.65 89.7153 122.088 89.618 122.734C89.5207 123.375 89.9675 123.977 90.609 124.074C91.246 124.172 91.8476 123.729 91.945 123.088C91.9494 123.07 91.9494 123.057 91.9494 123.039C91.9671 123.176 91.9936 123.322 92.0334 123.468C92.144 123.88 92.2944 124.167 92.4537 124.388C92.8253 124.919 93.2367 124.999 93.2367 124.999C93.2412 124.999 93.2942 124.924 93.2987 124.915C93.3252 124.884 93.5464 124.654 93.5906 124.654C93.3164 124.473 92.1839 123.601 92.874 121.712C92.874 121.712 92.8342 123.428 94.2542 124.34C94.4091 125.048 95.5239 129.295 99.6867 130.613C104.23 132.059 105.977 129.892 106.389 129.073C106.57 128.702 107.035 127.543 107.035 127.543C107.429 126.415 108.428 122.026 108.804 121.513C109.176 121 110.304 118.947 109.848 117.058C109.848 117.058 109.755 116.748 109.512 116.81L109.566 116.802ZM189.987 105.879C189.969 105.914 189.425 106.366 188.545 107.078C188.169 107.388 187.753 107.724 187.284 108.095C182.161 112.143 171.468 119.42 154.061 122.553C149.84 123.309 145.54 123.725 141.351 123.911C142.041 124.623 142.673 125.348 143.249 126.087C143.249 126.087 145.08 125.951 145.332 125.928C148.491 125.663 151.649 125.282 154.773 124.716C162.497 123.322 168.336 121.349 171.106 120.305C171.756 120.049 172.375 119.788 172.981 119.522L172.898 119.593C172.898 119.593 161.555 126.344 144.332 127.578C144.881 128.396 145.368 129.206 145.779 130.002C151.136 129.702 156.56 128.954 161.687 127.534C164.965 126.622 168.19 125.472 171.269 124.017C174.366 122.557 177.405 120.805 180.077 118.651C181.816 117.244 183.448 115.731 184.948 114.063C187.009 111.776 188.89 109.051 189.907 106.122L189.982 105.892L189.987 105.879ZM100.368 120.615C99.6469 120.756 98.8152 121.013 98.2357 121.398C97.5589 121.836 97.1253 122.38 96.8953 122.845C96.7803 123.083 96.7006 123.305 96.7051 123.468C96.7139 123.725 96.8333 123.95 96.9484 124.123C96.9484 124.123 100.996 124.34 103.544 125.039C103.642 124.676 103.774 124.229 103.947 123.689C104.058 123.344 104.208 123.057 104.372 122.796C104.982 121.831 105.885 121.402 106.544 121.186C105.447 121.009 104.164 120.863 103.062 120.765C102.514 120.717 101.965 120.677 101.412 120.65C101.067 120.633 100.718 120.624 100.368 120.615ZM112.139 123.931C114.104 123.495 117.463 123.29 121.421 123.761C121.162 124.085 120.913 124.421 120.674 124.767C117.444 124.191 114.51 123.952 112.139 123.931ZM92.8961 73.2972L92.8076 73.5494C92.2369 75.2349 92.0202 77.0752 91.9273 78.8447C91.768 81.8397 92.0511 84.8523 92.6837 87.7765C93.3562 90.8909 94.4312 93.8859 95.7539 96.7791C97.1032 99.7431 98.771 102.552 100.633 105.22C102.921 108.507 105.535 111.568 108.366 114.399C109.579 115.616 110.835 116.793 112.122 117.934C112.281 118.071 113.569 119.354 113.697 119.297C114.502 118.912 115.378 118.558 116.312 118.23C103.451 107.016 98.4392 94.9299 98.2844 94.5539L98.3198 94.6158C98.479 94.9078 98.6383 95.1998 98.8108 95.4962C99.1293 96.0182 99.5275 96.7127 100.045 97.5577C102.522 101.521 105.809 105.786 110.22 110.223C110.233 110.236 115.71 115.638 118.046 117.695C118.953 117.447 119.899 117.244 120.881 117.085C117.63 114.395 114.423 111.449 111.49 108.277C96.6785 92.2269 93.8472 77.3052 92.8961 73.2972ZM123.642 95.0095C123.642 95.0095 123.638 95.0228 123.633 95.0449C123.54 95.421 122.81 98.4513 122.642 99.9245C122.62 100.119 122.607 100.3 122.598 100.473C122.527 101.681 122.74 102.366 123.001 103.167C123.292 104.078 124.668 107.98 125.005 109.042C125.049 109.175 125.097 109.343 125.151 109.533C125.513 110.882 126.15 113.501 127.429 114.882C128.88 116.443 130.282 117.147 132.012 117.731C132.012 117.731 132.021 117.731 132.025 117.735C132.034 117.735 132.038 117.739 132.043 117.739C132.906 118.031 133.724 118.244 134.591 118.341C135.454 118.438 136.365 118.416 137.414 118.23C139.533 117.854 141.957 115.682 142.868 115.036C143.779 114.391 147.234 112.112 148.014 111.559C148.796 111.006 149.451 110.546 150.256 109.188C151.061 107.825 152.419 104.662 152.419 104.662C152.419 104.662 151.114 104.406 150.681 104.353C150.681 104.353 150.676 104.366 150.663 104.388C150.468 104.729 148.911 107.476 148.345 108.051C148.345 108.051 148.327 108.051 148.301 108.06C148.097 108.095 147.288 108.255 146.885 108.555C146.42 108.896 144.739 111.396 142.541 112.338C142.749 111.099 141.948 110.458 141.74 110.48C141.537 110.502 141.378 110.989 141.333 111.112C141.289 111.236 140.864 112.072 140.723 112.466C140.577 112.86 140.621 112.891 140.621 112.891C140.267 112.878 139.913 112.86 139.563 112.833C139.9 112.196 140.201 111.564 140.484 110.935C140.668 110.459 140.229 110.32 140.144 110.297L140.13 110.294L140.125 110.29C139.811 110.241 139.498 110.192 139.183 110.13H139.152C138.758 110.06 138.52 110.307 138.471 110.458C138.431 110.555 138.392 110.657 138.351 110.754C138.205 111.099 138.051 111.449 137.9 111.794C137.896 111.816 137.891 111.838 137.878 111.856C137.701 112.294 137.851 112.661 137.851 112.661C137.732 112.652 137.44 112.661 136.945 112.563C136.715 112.515 136.405 112.378 136.405 112.378C136.577 112.236 136.684 111.966 136.684 111.966C136.998 111.201 137.48 110.015 137.48 110.015C137.48 110.015 137.67 109.502 137.338 109.405C136.887 109.294 136.44 109.17 135.993 109.038C135.653 108.962 135.507 109.241 135.471 109.334C135.401 109.511 135.281 109.79 135.237 109.914C135.064 110.405 134.896 110.891 134.728 111.373C134.728 111.382 134.728 111.387 134.724 111.396C134.618 111.705 134.702 112.002 134.702 112.002C134.702 112.002 134.268 111.913 134.042 111.851C133.812 111.794 133.467 111.55 133.467 111.55C133.525 111.497 133.591 111.338 133.64 111.227C133.843 110.502 134.042 109.595 134.215 108.834C134.228 108.728 134.233 108.414 133.91 108.281C133.529 108.14 133.149 107.994 132.777 107.839C132.445 107.737 132.299 108.011 132.246 108.171C132.096 108.856 131.923 109.679 131.808 110.276C131.76 110.692 131.95 110.984 131.95 110.984C131.773 110.944 131.419 110.789 131.136 110.67C130.946 110.59 130.534 110.316 130.534 110.316C130.747 110.298 130.866 109.847 130.866 109.847C131.101 109.356 131.26 108.931 131.446 108.467C131.45 108.445 131.463 108.427 131.468 108.405C131.472 108.392 131.477 108.383 131.486 108.361C131.667 107.87 131.326 107.609 131.269 107.569C130.773 107.321 130.216 107.029 130.211 107.029C129.928 106.879 129.742 107.078 129.681 107.273C129.486 107.825 129.181 108.33 129.074 108.94C129.026 109.285 129.052 109.524 129.052 109.524C128.38 109.206 128.132 108.697 128.132 108.697C128.291 108.507 128.508 107.825 128.513 107.193C128.517 106.556 128.557 105.963 128.261 105.751C127.964 105.543 127.469 106.074 127.212 106.454C126.96 106.83 126.902 107.051 126.902 107.051V107.1C125.708 105.021 125.876 102.004 125.712 101.451C125.549 100.898 124.85 100.163 124.85 100.163C124.836 100.057 124.832 99.9112 124.832 99.7342C124.85 98.5796 125.168 96.1863 125.212 95.8501C125.217 95.8235 125.217 95.8103 125.217 95.8103C124.845 95.5891 123.642 95.0095 123.642 95.0095ZM139.599 64.998C129.397 65.0423 126.495 72.6336 126.066 74.3722C125.611 76.2214 125.615 78.566 125.509 79.6277C125.509 79.6277 127.469 79.349 129.3 78.5837C130.291 78.1767 131.247 77.6503 131.977 76.9469C131.808 77.1415 129.057 80.2736 126.115 80.6054C126.115 80.6054 125.469 83.4411 124.682 84.8745C123.903 86.3122 122.377 87.2943 122.377 87.2943C122.377 87.2943 122.262 88.4224 122.262 89.5593C122.262 90.015 122.275 90.4751 122.324 90.86C122.35 91.0546 122.386 91.2316 122.425 91.382C122.775 92.5853 122.815 93.3462 125.42 94.4919C126.31 94.8812 127.19 95.2971 128.035 95.7749C129.3 96.4915 130.663 97.3365 131.189 98.7743C131.194 98.7875 131.194 98.8008 131.203 98.8141C131.344 99.1768 131.357 99.6281 131.26 99.9997C131.26 99.951 131.238 99.8891 131.207 99.8227C131.092 99.5971 130.893 99.4334 130.764 99.2211C130.764 99.2166 130.76 99.2122 130.751 99.2034C130.468 98.8804 130.163 98.584 129.804 98.3407V98.354L129.796 98.3363C129.796 98.3363 129.521 99.2963 129.092 100.004C128.849 100.411 128.588 100.862 128.314 101.482C128.314 101.491 128.309 101.499 128.305 101.508C127.769 102.897 128.393 104.366 128.539 104.375C128.712 104.388 129.079 104.22 129.773 102.269C129.791 102.225 129.827 102.132 129.849 102.03C129.866 101.937 129.835 101.769 129.796 101.632C129.796 101.632 129.8 101.623 129.804 101.61C129.888 101.291 130.295 101.318 130.552 101.349C130.641 101.358 130.729 101.371 130.813 101.393C130.853 101.402 130.889 101.411 130.919 101.42C131.185 101.513 131.331 101.694 131.326 101.791C131.326 101.791 131.185 101.88 131.079 102.043C130.977 102.207 130.8 102.627 130.751 102.742C130.574 103.18 130.446 103.534 130.295 103.972C130.287 103.986 130.287 103.999 130.287 104.012C130.162 104.383 130.478 104.54 130.554 104.572L130.57 104.578C130.57 104.583 130.614 104.596 130.618 104.596C130.959 104.658 131.326 104.733 131.707 104.813C131.707 104.813 132.216 104.906 132.388 104.45C132.552 103.968 132.693 103.57 132.875 103.088C132.883 103.061 132.897 103.03 132.91 103.003V102.999L132.923 102.968C132.923 102.968 133.034 102.636 133.083 102.437C133.127 102.251 133.322 101.933 133.498 101.933C133.684 101.933 133.936 102.021 133.91 102.397C133.883 102.773 133.808 103.021 133.795 103.065C133.79 103.083 133.786 103.105 133.786 103.118C133.618 103.711 133.277 104.959 133.277 104.959C133.113 105.437 133.636 105.587 133.636 105.587C133.954 105.675 134.432 105.751 134.768 105.852C134.79 105.857 134.808 105.861 134.834 105.866C134.834 105.866 135.233 105.994 135.374 105.941C135.52 105.888 135.613 105.667 135.64 105.596C135.662 105.525 136.192 103.671 136.25 103.472C136.29 103.322 136.272 103.021 136.193 102.849C136.219 102.853 136.701 102.937 136.972 103.026C137.197 103.105 137.498 103.225 137.648 103.34C137.418 103.455 137.267 103.835 137.254 103.888C137.25 103.897 137.245 103.902 137.245 103.906C137.21 104.03 137.166 104.149 137.13 104.269C136.962 104.777 136.741 105.428 136.569 105.941C136.542 106.078 136.515 106.419 136.914 106.569L136.976 106.591C137.307 106.715 137.728 106.866 138.037 106.989C138.037 106.989 138.139 107.029 138.267 107.029C138.422 107.029 138.613 106.972 138.701 106.706C138.78 106.463 138.962 105.923 139.121 105.432C139.276 104.946 139.417 104.503 139.422 104.45C139.426 104.357 139.537 104.185 139.603 104.127C139.785 104.114 139.917 104.14 140.041 104.202C140.187 104.273 140.355 104.454 140.422 104.521C140.324 104.689 140.17 105.118 140.13 105.353C140.099 105.552 139.864 106.405 139.754 106.804C139.74 106.835 139.732 106.879 139.719 106.914C139.709 106.927 139.714 106.941 139.709 106.958C139.705 106.972 139.701 106.981 139.705 106.989C139.643 107.401 140.041 107.609 140.041 107.609C140.395 107.777 140.736 107.941 141.046 108.095C141.046 108.095 141.09 108.113 141.094 108.113C141.094 108.113 141.519 108.25 141.66 107.83C141.665 107.817 141.674 107.803 141.678 107.799C141.82 107.357 141.931 106.989 142.054 106.538C142.085 106.414 142.12 106.29 142.152 106.167C142.16 106.153 142.165 106.118 142.17 106.069C142.178 106.038 142.24 105.817 142.258 105.68C142.271 105.609 142.271 105.543 142.266 105.494C142.266 105.494 142.501 105.587 142.775 105.706C142.775 105.711 143.315 105.95 143.421 106.007C143.514 106.06 143.664 106.118 143.722 106.215C143.855 106.401 143.89 106.476 143.89 106.476L143.505 106.538C143.434 106.534 143.116 106.649 143.116 106.746C142.497 108.728 142.687 109.077 142.833 109.17C142.957 109.25 144.337 108.463 144.748 107.029C144.748 107.016 144.978 105.821 145.027 105.348C145.111 104.583 145.43 103.711 145.47 103.605L145.46 103.61C145.46 103.605 145.47 103.596 145.47 103.596C144.067 103.53 143.284 104.083 143.284 104.083C143.372 103.871 143.501 103.689 143.638 103.525C143.647 103.517 143.651 103.517 143.656 103.508C144.691 102.313 146.571 102.362 147.991 102.543C149.101 102.681 150.203 102.915 151.291 103.176C154.069 103.831 154.556 103.251 155.556 102.499C156.419 101.853 157.122 100.858 157.644 99.9289C157.653 99.9112 157.666 99.8979 157.675 99.8802C157.905 99.5263 158.064 99.2697 158.064 99.2697C158.064 99.2697 157.436 97.5665 157.679 95.9474C157.927 94.3327 159.117 91.6739 159.117 91.6739C156.905 89.577 156.648 85.2151 156.648 85.2151C156.786 86.0999 157.144 86.9846 157.608 87.8163C158.317 89.0948 159.259 90.2362 159.958 91.0015C160.555 90.0327 161.917 88.3339 162.603 86.613C163.359 84.6975 166.266 74.6774 153.078 68.3336L152.566 68.1168C152.282 67.9797 152.008 67.8558 151.747 67.7364C151.481 67.6169 151.229 67.5108 150.99 67.4179C150.809 67.3427 150.636 67.2763 150.473 67.2144C150.344 67.1657 150.225 67.1215 150.115 67.0772C149.721 66.9312 149.393 66.8251 149.154 66.7499C149.106 66.7322 149.062 66.7189 149.013 66.7012C148.526 66.5464 146.664 65.9845 144.341 65.5023L144.279 65.4891C143.868 65.405 143.443 65.321 143.005 65.2458C141.789 65.0732 140.656 64.998 139.599 64.998ZM138.799 93.3917C138.994 92.8078 139.653 92.4844 140.304 92.6485C140.344 92.6574 140.383 92.6658 140.419 92.6795C140.462 92.6936 140.503 92.7109 140.544 92.7277C141.154 92.9962 141.481 93.6434 141.286 94.2278C141.043 94.9485 141.087 95.555 141.131 96.1788C141.162 97.3865 141.715 97.7231 141.467 98.4708L141.219 99.2007C141.078 99.6254 140.688 99.8904 140.242 99.9572C140.033 99.9837 139.812 99.9837 139.591 99.913C138.906 99.6829 138.521 98.9835 138.733 98.3602C138.769 98.254 138.706 98.139 138.596 98.0987C138.485 98.0638 138.37 98.1208 138.335 98.223C138.127 98.8512 137.397 99.1742 136.707 98.9441C136.486 98.8689 136.309 98.7362 136.158 98.5814C135.848 98.2584 135.698 97.816 135.84 97.3953L136.088 96.6658C136.335 95.9178 136.981 95.9841 137.738 95.0374C138.145 94.5685 138.556 94.1172 138.799 93.3917ZM144.392 89.6177C144.392 89.6177 144.409 89.6398 144.418 89.6531C144.485 89.7504 144.794 90.18 145.268 90.6352C145.352 90.7193 145.44 90.7989 145.533 90.879C145.537 90.883 145.546 90.8874 145.55 90.8962C145.896 91.1838 146.303 91.4492 146.772 91.6045C148.2 92.0867 150.284 91.7456 152.518 91.3386C152.713 91.3081 152.903 91.2815 153.094 91.259C155.098 91.0294 156.859 91.4718 156.859 91.4718L156.863 91.4846L156.824 91.4806C156.766 91.489 156.709 91.4983 156.646 91.5072C156.08 91.7058 155.788 93.0467 155.788 93.0467C155.678 93.4492 155.54 93.8425 155.376 94.2278C155 95.0945 154.479 95.9399 153.819 96.626C153.324 97.1436 152.78 97.4002 152.174 97.7408C152.169 97.7364 152.169 97.7364 152.169 97.7364C152.16 97.7364 151.819 97.8426 151.638 97.8643C150.266 98.0328 147.382 97.5904 145.998 96.6433C145.984 96.6389 145.975 96.6344 145.967 96.6304C144.577 95.8027 144.298 92.6397 144.294 91.8208C144.29 91.0068 144.387 89.6398 144.392 89.6177ZM128.009 81.7959C128.111 81.8357 129.716 82.5391 131.132 83.8884C131.274 84.0215 131.411 84.1587 131.544 84.2998C133.083 85.9725 134.539 87.5031 135.968 87.9809C136.433 88.1357 136.923 88.1711 137.371 88.1494C137.375 88.1494 137.383 88.1494 137.393 88.1446C137.517 88.1402 137.636 88.1313 137.751 88.118C138.485 88.0251 139.069 87.8305 139.069 87.8305C139.069 87.8305 138.309 88.9944 137.813 89.6443C137.314 90.299 135.189 92.6529 133.588 92.476C133.575 92.476 133.561 92.4671 133.548 92.4671C131.871 92.3831 129.301 90.998 128.31 90.038C128.177 89.9053 127.974 89.6177 127.969 89.6177C127.938 89.6443 127.907 89.6664 127.872 89.6885C127.907 89.6664 127.938 89.6398 127.969 89.6133C127.987 89.5956 127.65 89.0117 127.628 88.9674C127.097 87.6845 127.221 86.0875 127.553 84.8001C127.65 84.4241 127.766 84.0525 127.912 83.6897C127.912 83.6897 128.487 82.4462 128.155 81.9463C128.115 81.9021 128.071 81.8578 128.031 81.818L128.022 81.8136C128.022 81.8096 128.018 81.8052 128.009 81.7959Z" fill="#0A0B09"/>
<path fill-rule="evenodd" clip-rule="evenodd" d="M143.92 136.955C140.396 139.177 132.531 141.231 124.956 138.691C117.522 136.194 112.582 129.84 111 125.97C110.815 125.569 110.767 124.484 111.853 123.982C111.853 123.982 111.167 124.08 110.548 124.587C110.548 124.587 110.494 124.667 110.438 124.833C109.606 127.315 114.644 137.881 124.156 141.074C133.674 144.269 143.967 139.164 144.896 136.397C144.96 136.195 144.973 136.033 144.973 136.033C144.757 135.356 144.344 134.934 144.344 134.934C144.873 135.933 144.33 136.665 143.92 136.955Z" fill="#C2242B"/>
<path fill-rule="evenodd" clip-rule="evenodd" d="M136.714 130.167C136.709 130.286 136.703 130.407 136.696 130.527C136.383 130.368 136.066 130.209 135.743 130.053C135.624 130.773 135.449 131.485 135.209 132.182C134.733 131.906 134.246 131.641 133.756 131.386C133.972 130.717 134.141 130.041 134.269 129.36C133.745 129.122 133.209 128.888 132.663 128.66C132.519 129.306 132.346 129.952 132.144 130.596C131.642 130.364 131.135 130.141 130.625 129.932C130.825 129.307 131.005 128.682 131.169 128.06C130.634 127.854 130.091 127.653 129.538 127.46C129.35 128.063 129.154 128.673 128.952 129.287C128.433 129.1 127.912 128.925 127.386 128.761C127.594 128.15 127.806 127.546 128.02 126.951C127.463 126.774 126.908 126.607 126.356 126.45C126.113 127.044 125.88 127.65 125.662 128.268C125.131 128.126 124.591 127.997 124.052 127.879C124.277 127.248 124.528 126.632 124.801 126.032C124.226 125.886 123.656 125.751 123.093 125.627C122.788 126.243 122.518 126.88 122.289 127.539C121.745 127.444 121.196 127.365 120.648 127.297C120.874 126.603 121.161 125.937 121.496 125.297C121.142 125.229 120.791 125.166 120.445 125.106C120.52 124.992 120.597 124.879 120.674 124.767C117.444 124.191 114.51 123.952 112.139 123.931C114.104 123.495 117.463 123.29 121.421 123.761C121.451 123.723 121.48 123.684 121.511 123.647C121.811 123.682 122.115 123.722 122.422 123.766C122.694 123.372 122.983 122.99 123.289 122.62C123.801 122.686 124.301 122.761 124.79 122.843C124.512 123.225 124.246 123.617 123.993 124.02C124.536 124.119 125.085 124.231 125.641 124.357C125.867 123.942 126.103 123.536 126.346 123.14C126.813 123.24 127.273 123.348 127.724 123.463C127.517 123.874 127.314 124.293 127.115 124.72C127.632 124.858 128.152 125.008 128.676 125.171C128.84 124.733 129.006 124.3 129.171 123.876C129.61 124.012 130.045 124.158 130.477 124.313C130.352 124.752 130.223 125.196 130.09 125.645C130.606 125.828 131.111 126.021 131.608 126.221C131.706 125.763 131.796 125.308 131.878 124.858C132.31 125.038 132.74 125.228 133.174 125.431C133.129 125.889 133.073 126.351 133.005 126.814C133.522 127.045 134.027 127.284 134.519 127.528C134.559 127.062 134.583 126.596 134.591 126.133C135.032 126.362 135.476 126.604 135.924 126.86C135.945 127.328 135.946 127.795 135.927 128.261C136.197 128.408 136.462 128.557 136.723 128.707C136.726 128.78 136.727 128.853 136.729 128.926C140.07 130.885 142.556 132.993 143.823 134.503C141.966 133.133 139.551 131.612 136.714 130.167ZM131.177 120.155C122.41 117.214 112.898 121.56 110.806 124.201C110.722 124.308 110.641 124.421 110.574 124.54C110.567 124.553 110.559 124.577 110.549 124.587C111.167 124.08 111.853 123.982 111.853 123.982C110.767 124.484 110.815 125.569 111 125.97C112.582 129.84 117.522 136.194 124.956 138.691C132.531 141.231 140.396 139.177 143.92 136.955C144.33 136.665 144.873 135.933 144.344 134.934C144.344 134.934 144.757 135.356 144.973 136.033C145.064 135.376 144.921 134.444 144.556 133.353C143.143 129.15 138.436 122.591 131.177 120.155Z" fill="#DC4405"/>
</g>
<defs>
<clipPath id="clip0_5_312">
<rect width="250" height="250" fill="white"/>
</clipPath>
</defs>
</svg>
