<svg width="250" height="250" viewBox="0 0 250 250" fill="none" xmlns="http://www.w3.org/2000/svg">
<g clip-path="url(#clip0_5_172)">
<path d="M82.4765 139.448C82.7115 142.266 83.713 147.875 86.954 154.133C90.959 161.861 99.349 172.165 116.654 178.001C119.4 182.314 122.632 186.346 126.29 189.994C139.444 203.117 156.918 210.331 175.493 210.301C194.07 210.275 211.522 203.012 224.637 189.848C237.752 176.689 244.964 159.205 244.935 140.619C244.906 122.029 237.647 104.567 224.496 91.4436C214.074 81.0446 201 74.3546 186.617 72.0336C167.145 54.3916 144.413 60.7131 143.439 60.9966C143.111 61.0886 142.624 61.2296 142.018 61.4136C135.022 63.7421 131.405 61.0741 129.061 59.2356C126.464 57.1981 123.63 55.1291 120.896 53.5911C111.608 48.3636 98.408 48.1771 87.2905 52.6621C79.967 55.1581 76.2745 51.9296 74.0905 50.4206C59.5865 40.4076 41.7535 38.0181 22.8345 42.1856C10.095 44.9946 4.99951 47.5876 4.99951 47.5876C4.99951 47.5876 13.727 48.8536 22.8445 52.6671C30.3305 55.7961 36.282 59.8131 40.7885 67.0271C40.7885 67.0271 43.625 71.1946 41.7825 72.4241C39.7195 73.7996 37.5715 70.4326 37.5715 70.4326C37.501 72.8556 37.501 75.2671 37.661 77.0981C38.7085 96.3411 42.6305 107.899 51.906 116.731C56.1265 120.748 63.2465 124.656 74.248 128.981C79.266 130.989 81.9815 133.563 82.476 139.447" fill="#FFFFFE"/>
<path d="M221.359 94.587C211.269 84.5205 198.462 78.17 184.6 76.22C166.527 58.9175 144.672 65.2585 144.672 65.2585C149.303 65.9475 152.379 68.71 151.193 71.7715C150.405 73.7945 147.043 73.901 145.506 73.916C140.623 73.9695 136.408 70.9735 133.043 68.2375C129.545 65.39 123.835 60.337 118.72 57.4605C109.198 52.102 94.0779 52.7695 83.1349 59.76C89.6779 60.204 97.5519 62.0885 102.247 65.9795C104.868 68.153 108.211 72.5215 105.476 74.5615C103.074 76.3565 97.1709 75.43 94.1699 73.6905C89.3989 70.9275 85.1009 66.7385 82.5264 63.7015C65.2054 43.2845 40.6669 42.1445 20.4294 47.1465C33.7119 50.877 42.5749 58.4475 48.0489 71.498C53.5254 84.548 57.7774 90.103 66.7979 93.6395C72.4464 95.8515 73.9739 96.2615 73.5324 98.7675C72.8829 102.435 66.1919 100.674 61.0889 98.68C54.8709 96.252 46.6794 89.545 41.8014 76.9655C42.6889 93.2415 45.7919 104.783 54.9604 113.516C58.8564 117.222 66.0099 121.057 77.2054 125.368C84.3519 128.121 90.0104 129.787 95.3339 134.559C101.542 140.123 98.8974 143.798 94.7789 143.102C90.1194 142.316 86.7934 137.554 86.7934 137.554C86.7934 137.554 86.8009 164.072 119.559 174.279C122.287 178.805 125.583 183.026 129.421 186.851C141.736 199.139 158.095 205.89 175.484 205.863C192.876 205.837 209.215 199.04 221.496 186.715C233.775 174.393 240.527 158.024 240.497 140.623C240.473 123.223 233.675 106.874 221.358 94.588" fill="#002244"/>
<path d="M217.9 97.886C208.128 88.1105 195.585 82.117 182.048 80.6345C170.399 69.018 158.777 69.564 158.777 69.564C163.878 72.7635 161.248 79.885 149.902 81.4545C138.666 83.007 124.394 79.196 117.444 71.0945C110.281 62.7455 104.872 62.3645 104.872 62.3645C111.086 66.248 111.527 70.91 115.299 78.0125C119.071 85.1175 126.836 87.6665 133.599 88.1105C140.724 88.5785 140.899 91.805 135.153 95.2155C128.887 98.9315 123.34 95.4195 119.308 91.446C112.942 85.1635 106.603 83.9605 97.8415 84.072C89.0805 84.1835 77.4995 85.336 67.7225 81.6755C57.9455 78.0125 51.4995 65.1395 51.4995 65.1395C56.3335 82.2305 67.0755 90.3325 77.046 92.29C90.217 94.8735 99.3225 98.0095 104.894 102.524C110.334 106.938 113.231 111.341 115.274 117.417C116.852 122.102 117.134 128.321 115.577 128.694C113.761 129.126 113.388 126.623 111.248 122.257C108.884 117.435 106.062 113.65 100.37 110.614C92.656 106.497 85.107 106.736 77.41 106.842C71.313 106.927 67.7375 106.229 67.7375 106.229C67.7375 106.229 67.992 107.053 77.9265 109.285C88.9955 111.769 99.7035 118.013 106.831 133.233C112.894 146.179 109.73 155.29 96.297 151.166C96.297 151.166 102.571 165.121 123.063 170.091C125.708 174.744 128.995 179.069 132.879 182.957C144.234 194.316 159.33 200.572 175.388 200.572C191.446 200.572 206.54 194.316 217.9 182.957C229.252 171.593 235.505 156.488 235.505 140.418C235.505 124.353 229.253 109.248 217.9 97.8865" fill="#4B92DB"/>
<path d="M175.388 83.2085C190.661 83.2085 205.02 89.1585 215.82 99.965C226.622 110.771 232.569 125.138 232.569 140.418C232.569 171.966 206.918 197.634 175.388 197.634C160.116 197.634 145.757 191.682 134.954 180.875C124.154 170.069 118.208 155.702 118.208 140.418C118.208 125.138 124.154 110.771 134.954 99.965C145.757 89.1585 160.115 83.2085 175.388 83.2085Z" fill="#FFFFFE"/>
<path d="M175.46 192.698C146.609 192.742 123.181 169.371 123.138 140.5C123.097 111.628 146.457 88.188 175.31 88.147C204.163 88.1035 227.591 111.477 227.632 140.348C227.676 169.22 204.318 192.66 175.46 192.698Z" fill="#002244"/>
<path d="M162.612 129.844H147.129L142.026 138.947L135.163 119.479H215.466L208.615 138.947L203.553 129.844H188.331L175.439 186.277L162.612 129.844Z" fill="#FFFFFE"/>
<path d="M215.466 119.479H135.163L136.464 123.169H174.755L162.612 129.844L175.439 186.27V123.169H214.169L215.466 119.479Z" fill="#A5ACAF"/>
<path d="M135.965 74.3255C124.322 73.993 119.575 69.3725 112.341 63.5605C103.49 56.446 93.6721 58.428 93.6721 58.428C99.5511 55.061 111.112 54.923 119.44 62.229C126.88 68.7565 130.531 72.298 135.966 74.326L135.965 74.3255ZM36.5686 48.662C49.5506 46.2605 60.4351 50.321 68.6656 64.9165C76.7191 79.1965 91.4366 79.577 91.4366 79.577C80.2631 82.745 64.9931 79.868 56.9881 65.496C47.4656 48.3975 36.5686 48.662 36.5686 48.662ZM98.2511 131.448C91.8536 122.596 81.8076 120.489 68.1151 116.816C48.5101 111.557 48.3576 94.449 48.3576 94.449C48.3576 94.449 51.2936 106.313 74.0766 110.951C96.7091 115.56 98.2511 131.448 98.2511 131.448V131.448ZM183.235 114.451L175.388 108.814L167.625 114.573L170.561 105.362L162.69 99.7585L172.35 99.642L175.247 90.4805L178.282 99.642H187.945L180.156 105.287L183.235 114.451V114.451ZM148.763 146.853L147.805 156.476L156.671 160.32L147.231 162.38L146.317 172.005L141.437 163.66L132.009 165.763L138.433 158.542L133.521 150.217L142.367 154.101L148.762 146.853L148.763 146.853ZM194.04 160.529L202.848 156.546L201.745 146.941L208.249 154.089L217.032 150.072L212.251 158.47L218.785 165.589L209.325 163.634L204.576 172.054L203.514 162.446L194.04 160.529Z" fill="#C60C30"/>
</g>
<defs>
<clipPath id="clip0_5_172">
<rect width="250" height="250" fill="white"/>
</clipPath>
</defs>
</svg>
