<svg width="250" height="250" viewBox="0 0 250 250" fill="none" xmlns="http://www.w3.org/2000/svg">
<mask id="mask0_6_413" style="mask-type:luminance" maskUnits="userSpaceOnUse" x="0" y="57" width="250" height="137">
<path d="M250 57H0V193.261H250V57Z" fill="white"/>
</mask>
<g mask="url(#mask0_6_413)">
<path d="M170.709 57L178.7 81.5011L172.754 99.7082L158.874 57H96.6554L85.4951 91.2337L74.3793 57H0L23.3659 94.9429L55.3745 193.261H115.604L127.709 156.094L139.779 193.261H205.673L250 57H170.709ZM31.6827 91.088L16.2853 66.0924H67.7712L80.7071 105.935L58.6114 173.807L31.6827 91.088ZM108.962 184.371H64.7478L100.859 73.4424L122.932 141.393L108.962 184.371ZM108.029 66.0924H152.266L168.001 114.42L145.86 182.449L108.029 66.0924ZM198.986 184.315H154.783L188.23 81.5571L183.196 66.0924H237.446L198.986 184.315Z" fill="#FFB612"/>
<path d="M167.967 114.432L145.827 182.462L108.03 66.0933H152.267L167.967 114.432ZM183.196 66.0933L188.209 81.5579L154.762 184.316H198.965L237.469 66.0933H183.196ZM67.7717 66.0933H16.2861L31.6835 91.0884L58.657 173.807L80.7081 105.935L67.7717 66.0933ZM64.7489 184.316H109.019L122.989 141.394L100.86 73.4433L64.7489 184.316Z" fill="#5A1414"/>
</g>
</svg>
